G75*
G70*
%OFA0B0*%
%FSLAX24Y24*%
%IPPOS*%
%LPD*%
%AMOC8*
5,1,8,0,0,1.08239X$1,22.5*
%
%ADD10C,0.0050*%
%ADD11C,0.0090*%
%ADD12C,0.0040*%
%ADD13C,0.0100*%
%ADD14C,0.0060*%
%ADD15R,0.0080X0.0240*%
%ADD16R,0.0240X0.0080*%
D10*
X019788Y015503D02*
X019833Y015458D01*
X019923Y015458D01*
X019968Y015503D01*
X019923Y015593D02*
X019833Y015593D01*
X019788Y015548D01*
X019788Y015503D01*
X019923Y015593D02*
X019968Y015638D01*
X019968Y015683D01*
X019923Y015728D01*
X019833Y015728D01*
X019788Y015683D01*
X020083Y015728D02*
X020083Y015458D01*
X020263Y015458D02*
X020263Y015728D01*
X020173Y015638D01*
X020083Y015728D01*
X020377Y015728D02*
X020558Y015728D01*
X020468Y015728D02*
X020468Y015458D01*
X020780Y015458D02*
X020870Y015458D01*
X020825Y015458D02*
X020825Y015728D01*
X020870Y015728D02*
X020780Y015728D01*
X020985Y015683D02*
X021030Y015728D01*
X021165Y015728D01*
X021165Y015458D01*
X021030Y015458D01*
X020985Y015503D01*
X020985Y015683D01*
X021279Y015728D02*
X021459Y015728D01*
X021369Y015728D02*
X021369Y015458D01*
X021788Y015503D02*
X021788Y015683D01*
X021833Y015728D01*
X021923Y015728D01*
X021968Y015683D01*
X021968Y015503D01*
X021923Y015458D01*
X021833Y015458D01*
X021788Y015503D01*
X022083Y015503D02*
X022083Y015683D01*
X022128Y015728D01*
X022263Y015728D01*
X022263Y015458D01*
X022128Y015458D01*
X022083Y015503D01*
X022377Y015728D02*
X022558Y015728D01*
X022468Y015728D02*
X022468Y015458D01*
X022788Y015458D02*
X022923Y015593D01*
X022968Y015548D02*
X022788Y015728D01*
X022968Y015728D02*
X022968Y015458D01*
X023083Y015503D02*
X023128Y015458D01*
X023218Y015458D01*
X023263Y015503D01*
X023263Y015683D01*
X023218Y015728D01*
X023128Y015728D01*
X023083Y015683D01*
X023377Y015728D02*
X023558Y015728D01*
X023468Y015728D02*
X023468Y015458D01*
X023788Y015503D02*
X023788Y015683D01*
X023833Y015728D01*
X023968Y015728D01*
X023968Y015458D01*
X023833Y015458D01*
X023788Y015503D01*
X024083Y015458D02*
X024083Y015728D01*
X024263Y015728D02*
X024083Y015458D01*
X024263Y015458D02*
X024263Y015728D01*
X024377Y015683D02*
X024423Y015728D01*
X024513Y015728D01*
X024558Y015683D01*
X024558Y015503D01*
X024513Y015458D01*
X024423Y015458D01*
X024377Y015503D01*
X024377Y015593D01*
X024468Y015593D01*
X024788Y015548D02*
X024788Y015503D01*
X024833Y015458D01*
X024923Y015458D01*
X024968Y015503D01*
X025083Y015548D02*
X025083Y015728D01*
X024968Y015683D02*
X024923Y015728D01*
X024833Y015728D01*
X024788Y015683D01*
X024788Y015638D01*
X024833Y015593D01*
X024788Y015548D01*
X024833Y015593D02*
X024878Y015593D01*
X025083Y015548D02*
X025173Y015458D01*
X025263Y015548D01*
X025263Y015728D01*
X025377Y015683D02*
X025377Y015638D01*
X025423Y015593D01*
X025377Y015548D01*
X025377Y015503D01*
X025423Y015458D01*
X025513Y015458D01*
X025558Y015503D01*
X025468Y015593D02*
X025423Y015593D01*
X025377Y015683D02*
X025423Y015728D01*
X025513Y015728D01*
X025558Y015683D01*
D11*
X025990Y007783D02*
X026214Y007783D01*
X026325Y007671D01*
X026325Y007224D01*
X026214Y007112D01*
X025990Y007112D01*
X025878Y007224D01*
X025626Y007224D02*
X025626Y007447D01*
X025514Y007559D01*
X025290Y007559D01*
X025179Y007447D01*
X025179Y007224D01*
X025290Y007112D01*
X025514Y007112D01*
X025626Y007224D01*
X025878Y007671D02*
X025990Y007783D01*
X024926Y007559D02*
X024591Y007559D01*
X024479Y007447D01*
X024479Y007224D01*
X024591Y007112D01*
X024926Y007112D01*
X024926Y006889D02*
X024926Y007559D01*
X024226Y007559D02*
X024226Y007224D01*
X024114Y007112D01*
X023779Y007112D01*
X023779Y007000D02*
X023891Y006889D01*
X024003Y006889D01*
X023779Y007000D02*
X023779Y007559D01*
X023526Y007559D02*
X023526Y007112D01*
X023526Y007336D02*
X023303Y007559D01*
X023191Y007559D01*
X022943Y007559D02*
X022831Y007559D01*
X022831Y007112D01*
X022720Y007112D02*
X022943Y007112D01*
X022477Y007224D02*
X022477Y007447D01*
X022365Y007559D01*
X022030Y007559D01*
X022030Y007000D01*
X022141Y006889D01*
X022253Y006889D01*
X022365Y007112D02*
X022030Y007112D01*
X021777Y007112D02*
X021777Y007783D01*
X021665Y007559D02*
X021442Y007559D01*
X021330Y007447D01*
X021330Y007112D01*
X020965Y007224D02*
X020853Y007112D01*
X020965Y007224D02*
X020965Y007671D01*
X021077Y007559D02*
X020853Y007559D01*
X021665Y007559D02*
X021777Y007447D01*
X022365Y007112D02*
X022477Y007224D01*
X022831Y007783D02*
X022831Y007895D01*
X019911Y007671D02*
X019799Y007783D01*
X019575Y007783D01*
X019464Y007671D01*
X019464Y007559D01*
X019911Y007112D01*
X019464Y007112D01*
X019211Y007224D02*
X018764Y007671D01*
X018764Y007224D01*
X018876Y007112D01*
X019099Y007112D01*
X019211Y007224D01*
X019211Y007671D01*
X019099Y007783D01*
X018876Y007783D01*
X018764Y007671D01*
X018511Y007559D02*
X018288Y007783D01*
X018288Y007112D01*
X018511Y007112D02*
X018064Y007112D01*
X017811Y007224D02*
X017700Y007112D01*
X017476Y007112D01*
X017364Y007224D01*
X017364Y007447D01*
X017476Y007559D01*
X017588Y007559D01*
X017811Y007447D01*
X017811Y007783D01*
X017364Y007783D01*
X016412Y007671D02*
X016412Y007559D01*
X016300Y007447D01*
X016076Y007447D01*
X015965Y007336D01*
X015965Y007224D01*
X016076Y007112D01*
X016300Y007112D01*
X016412Y007224D01*
X016412Y007671D02*
X016300Y007783D01*
X016076Y007783D01*
X015965Y007671D01*
X015600Y007559D02*
X015377Y007559D01*
X015265Y007447D01*
X015265Y007112D01*
X015600Y007112D01*
X015712Y007224D01*
X015600Y007336D01*
X015265Y007336D01*
X015012Y007224D02*
X014900Y007336D01*
X014565Y007336D01*
X014565Y007447D02*
X014565Y007112D01*
X014900Y007112D01*
X015012Y007224D01*
X014677Y007559D02*
X014565Y007447D01*
X014677Y007559D02*
X014900Y007559D01*
X014312Y007559D02*
X014312Y007112D01*
X013865Y007112D02*
X013865Y007447D01*
X013977Y007559D01*
X014312Y007559D01*
X013612Y007783D02*
X013501Y007783D01*
X013501Y007112D01*
X013612Y007112D02*
X013389Y007112D01*
X013146Y007112D02*
X012922Y007112D01*
X013034Y007112D02*
X013034Y007559D01*
X013146Y007559D01*
X013034Y007783D02*
X013034Y007895D01*
X012679Y007559D02*
X012568Y007559D01*
X012456Y007447D01*
X012344Y007559D01*
X012232Y007447D01*
X012232Y007112D01*
X012456Y007112D02*
X012456Y007447D01*
X012679Y007559D02*
X012679Y007112D01*
X011980Y007224D02*
X011868Y007336D01*
X011533Y007336D01*
X011533Y007447D02*
X011533Y007112D01*
X011868Y007112D01*
X011980Y007224D01*
X011868Y007559D02*
X011644Y007559D01*
X011533Y007447D01*
X010580Y007447D02*
X010357Y007447D01*
X010580Y007112D02*
X010133Y007112D01*
X009880Y007112D02*
X009657Y007112D01*
X009768Y007112D02*
X009768Y007783D01*
X009880Y007783D01*
X010133Y007783D02*
X010580Y007783D01*
X010580Y007112D01*
X009414Y007224D02*
X009414Y007447D01*
X009302Y007559D01*
X009078Y007559D01*
X008967Y007447D01*
X008967Y007336D01*
X009414Y007336D01*
X009414Y007224D02*
X009302Y007112D01*
X009078Y007112D01*
X008714Y007224D02*
X008714Y007447D01*
X008602Y007559D01*
X008267Y007559D01*
X008014Y007559D02*
X007791Y007559D01*
X007902Y007671D02*
X007902Y007224D01*
X007791Y007112D01*
X007548Y007112D02*
X007548Y007559D01*
X007548Y007336D02*
X007324Y007559D01*
X007212Y007559D01*
X006964Y007447D02*
X006964Y007224D01*
X006853Y007112D01*
X006629Y007112D01*
X006517Y007224D01*
X006517Y007447D01*
X006629Y007559D01*
X006853Y007559D01*
X006964Y007447D01*
X006265Y007559D02*
X006265Y007112D01*
X005818Y007112D02*
X005818Y007447D01*
X005929Y007559D01*
X006265Y007559D01*
X005565Y007559D02*
X005453Y007559D01*
X005453Y007112D01*
X005565Y007112D02*
X005341Y007112D01*
X005098Y007224D02*
X005098Y007447D01*
X004987Y007559D01*
X004651Y007559D01*
X004398Y007447D02*
X004287Y007336D01*
X004063Y007336D01*
X003951Y007224D01*
X004063Y007112D01*
X004398Y007112D01*
X004651Y007112D02*
X004987Y007112D01*
X005098Y007224D01*
X004398Y007447D02*
X004287Y007559D01*
X003951Y007559D01*
X005453Y007783D02*
X005453Y007895D01*
X008267Y007112D02*
X008602Y007112D01*
X008714Y007224D01*
D12*
X012292Y009198D02*
X012292Y009265D01*
X012326Y009298D01*
X012292Y009198D02*
X012326Y009165D01*
X012459Y009165D01*
X012492Y009198D01*
X012492Y009265D01*
X012459Y009298D01*
X012392Y009386D02*
X012392Y009519D01*
X012292Y009486D02*
X012492Y009486D01*
X012392Y009386D01*
X014351Y011172D02*
X014385Y011139D01*
X014451Y011139D01*
X014485Y011172D01*
X014351Y011305D01*
X014351Y011172D01*
X014351Y011305D02*
X014385Y011339D01*
X014451Y011339D01*
X014485Y011305D01*
X014485Y011172D01*
X014572Y011139D02*
X014706Y011139D01*
X014572Y011272D01*
X014572Y011305D01*
X014606Y011339D01*
X014672Y011339D01*
X014706Y011305D01*
X014793Y011305D02*
X014827Y011339D01*
X014893Y011339D01*
X014927Y011305D01*
X014927Y011172D01*
X014893Y011139D01*
X014827Y011139D01*
X014793Y011172D01*
X014231Y011779D02*
X014097Y011779D01*
X014064Y011812D01*
X014064Y011879D01*
X014097Y011912D01*
X014064Y012000D02*
X014197Y012133D01*
X014231Y012133D01*
X014264Y012100D01*
X014264Y012033D01*
X014231Y012000D01*
X014231Y011912D02*
X014264Y011879D01*
X014264Y011812D01*
X014231Y011779D01*
X014064Y012000D02*
X014064Y012133D01*
X014064Y012221D02*
X014064Y012354D01*
X014064Y012287D02*
X014264Y012287D01*
X014197Y012221D01*
X016241Y012471D02*
X016241Y012605D01*
X016275Y012638D01*
X016341Y012638D01*
X016375Y012605D01*
X016375Y012571D01*
X016341Y012538D01*
X016241Y012538D01*
X016241Y012471D02*
X016275Y012438D01*
X016341Y012438D01*
X016375Y012471D01*
X016462Y012438D02*
X016596Y012438D01*
X016462Y012571D01*
X016462Y012605D01*
X016496Y012638D01*
X016562Y012638D01*
X016596Y012605D01*
X016683Y012605D02*
X016717Y012638D01*
X016783Y012638D01*
X016817Y012605D01*
X016817Y012471D01*
X016783Y012438D01*
X016717Y012438D01*
X016683Y012471D01*
X016272Y010976D02*
X016239Y010909D01*
X016172Y010843D01*
X016172Y010943D01*
X016138Y010976D01*
X016105Y010976D01*
X016072Y010943D01*
X016072Y010876D01*
X016105Y010843D01*
X016172Y010843D01*
X016072Y010755D02*
X016072Y010622D01*
X016072Y010688D02*
X016272Y010688D01*
X016205Y010622D01*
X016239Y010534D02*
X016272Y010501D01*
X016272Y010434D01*
X016239Y010401D01*
X016105Y010401D01*
X016072Y010434D01*
X016072Y010501D01*
X016105Y010534D01*
D13*
X019565Y012086D02*
X019691Y011960D01*
X019945Y011960D01*
X020072Y012086D01*
X019565Y012594D01*
X019565Y012086D01*
X020072Y012086D02*
X020072Y012594D01*
X019945Y012720D01*
X019691Y012720D01*
X019565Y012594D01*
X020341Y012086D02*
X020341Y011960D01*
X020468Y011960D01*
X020468Y012086D01*
X020341Y012086D01*
X020753Y011960D02*
X021260Y011960D01*
X021006Y011960D02*
X021006Y012720D01*
X021260Y012467D01*
X022336Y012467D02*
X022590Y011960D01*
X022843Y012467D01*
X023128Y012340D02*
X023128Y012213D01*
X023635Y012213D01*
X023635Y012086D02*
X023635Y012340D01*
X023508Y012467D01*
X023255Y012467D01*
X023128Y012340D01*
X023255Y011960D02*
X023508Y011960D01*
X023635Y012086D01*
X023920Y011960D02*
X024174Y012213D01*
X024047Y012213D02*
X024427Y012213D01*
X024427Y011960D02*
X024427Y012720D01*
X024047Y012720D01*
X023920Y012594D01*
X023920Y012340D01*
X024047Y012213D01*
X025504Y012086D02*
X025504Y012340D01*
X025631Y012467D01*
X025884Y012467D01*
X026011Y012340D01*
X026011Y012086D01*
X025884Y011960D01*
X025631Y011960D01*
X025504Y012086D01*
X026296Y011960D02*
X026296Y012340D01*
X026422Y012467D01*
X026803Y012467D01*
X026803Y011960D01*
X027077Y011960D02*
X027331Y011960D01*
X027204Y011960D02*
X027204Y012467D01*
X027331Y012467D01*
X027204Y012720D02*
X027204Y012847D01*
X027615Y012340D02*
X027742Y012467D01*
X028123Y012467D01*
X028123Y011706D01*
X028123Y011960D02*
X027742Y011960D01*
X027615Y012086D01*
X027615Y012340D01*
X028407Y012340D02*
X028407Y012213D01*
X028914Y012213D01*
X028914Y012086D02*
X028914Y012340D01*
X028788Y012467D01*
X028534Y012467D01*
X028407Y012340D01*
X028534Y011960D02*
X028788Y011960D01*
X028914Y012086D01*
X029199Y012340D02*
X029326Y012213D01*
X029706Y012213D01*
X029706Y011960D02*
X029706Y012720D01*
X029326Y012720D01*
X029199Y012594D01*
X029199Y012340D01*
D14*
X010582Y002806D02*
X010468Y002919D01*
X010468Y003146D01*
X010695Y003146D02*
X010695Y002919D01*
X010582Y002806D01*
X010837Y002863D02*
X010893Y002806D01*
X011007Y002806D01*
X011064Y002863D01*
X011191Y002863D02*
X011191Y002806D01*
X011248Y002806D01*
X011248Y002863D01*
X011191Y002863D01*
X011389Y002863D02*
X011446Y002806D01*
X011559Y002806D01*
X011616Y002863D01*
X011503Y002976D02*
X011446Y002976D01*
X011389Y002919D01*
X011389Y002863D01*
X011446Y002976D02*
X011389Y003033D01*
X011389Y003089D01*
X011446Y003146D01*
X011559Y003146D01*
X011616Y003089D01*
X011064Y003089D02*
X011007Y003146D01*
X010893Y003146D01*
X010837Y003089D01*
X010837Y003033D01*
X010893Y002976D01*
X010837Y002919D01*
X010837Y002863D01*
X010893Y002976D02*
X010950Y002976D01*
X011134Y003790D02*
X011021Y003904D01*
X011021Y004130D01*
X011248Y004130D02*
X011248Y003904D01*
X011134Y003790D01*
X011389Y003847D02*
X011389Y003960D01*
X011446Y004017D01*
X011503Y004017D01*
X011616Y003960D01*
X011616Y004130D01*
X011389Y004130D01*
X011389Y003847D02*
X011446Y003790D01*
X011559Y003790D01*
X011616Y003847D01*
X012663Y004549D02*
X012663Y004776D01*
X012720Y004833D01*
X012890Y004833D01*
X012890Y004492D01*
X012720Y004492D01*
X012663Y004549D01*
X013031Y004492D02*
X013031Y004833D01*
X013258Y004833D02*
X013031Y004492D01*
X013258Y004492D02*
X013258Y004833D01*
X013400Y004776D02*
X013456Y004833D01*
X013570Y004833D01*
X013627Y004776D01*
X013627Y004549D01*
X013570Y004492D01*
X013456Y004492D01*
X013400Y004549D01*
X013400Y004663D01*
X013513Y004663D01*
X014041Y004776D02*
X014268Y004549D01*
X014211Y004492D01*
X014098Y004492D01*
X014041Y004549D01*
X014041Y004776D01*
X014098Y004833D01*
X014211Y004833D01*
X014268Y004776D01*
X014268Y004549D01*
X015025Y004492D02*
X015252Y004492D01*
X015139Y004492D02*
X015139Y004833D01*
X015252Y004719D01*
X016009Y004719D02*
X016236Y004492D01*
X016009Y004492D01*
X016009Y004719D02*
X016009Y004776D01*
X016066Y004833D01*
X016180Y004833D01*
X016236Y004776D01*
X017033Y004776D02*
X017033Y004719D01*
X017090Y004663D01*
X017033Y004606D01*
X017033Y004549D01*
X017090Y004492D01*
X017203Y004492D01*
X017260Y004549D01*
X017147Y004663D02*
X017090Y004663D01*
X017033Y004776D02*
X017090Y004833D01*
X017203Y004833D01*
X017260Y004776D01*
X018057Y004663D02*
X018284Y004663D01*
X018113Y004833D01*
X018113Y004492D01*
X019041Y004549D02*
X019098Y004492D01*
X019211Y004492D01*
X019268Y004549D01*
X019268Y004663D02*
X019154Y004719D01*
X019098Y004719D01*
X019041Y004663D01*
X019041Y004549D01*
X019268Y004663D02*
X019268Y004833D01*
X019041Y004833D01*
X020025Y004833D02*
X020139Y004776D01*
X020252Y004663D01*
X020082Y004663D01*
X020025Y004606D01*
X020025Y004549D01*
X020082Y004492D01*
X020195Y004492D01*
X020252Y004549D01*
X020252Y004663D01*
X021049Y004776D02*
X021276Y004549D01*
X021276Y004492D01*
X021276Y004833D02*
X021049Y004833D01*
X021049Y004776D01*
X021079Y002471D02*
X021079Y002300D01*
X020965Y002357D01*
X020909Y002357D01*
X020852Y002300D01*
X020852Y002187D01*
X020909Y002130D01*
X021022Y002130D01*
X021079Y002187D01*
X021220Y002130D02*
X021447Y002130D01*
X021334Y002130D02*
X021334Y002471D01*
X021447Y002357D01*
X021079Y002471D02*
X020852Y002471D01*
X020463Y002357D02*
X020349Y002471D01*
X020349Y002130D01*
X020236Y002130D02*
X020463Y002130D01*
X020095Y002300D02*
X019924Y002471D01*
X019924Y002130D01*
X019868Y002300D02*
X020095Y002300D01*
X019479Y002357D02*
X019365Y002471D01*
X019365Y002130D01*
X019252Y002130D02*
X019479Y002130D01*
X019110Y002187D02*
X019054Y002130D01*
X018940Y002130D01*
X018884Y002187D01*
X018884Y002244D01*
X018940Y002300D01*
X018997Y002300D01*
X018940Y002300D02*
X018884Y002357D01*
X018884Y002414D01*
X018940Y002471D01*
X019054Y002471D01*
X019110Y002414D01*
X018455Y002357D02*
X018342Y002471D01*
X018342Y002130D01*
X018455Y002130D02*
X018228Y002130D01*
X018087Y002130D02*
X017860Y002357D01*
X017860Y002414D01*
X017917Y002471D01*
X018030Y002471D01*
X018087Y002414D01*
X018087Y002130D02*
X017860Y002130D01*
X017471Y002130D02*
X017244Y002130D01*
X017357Y002130D02*
X017357Y002471D01*
X017471Y002357D01*
X017102Y002357D02*
X016989Y002471D01*
X016989Y002130D01*
X017102Y002130D02*
X016876Y002130D01*
X016447Y002130D02*
X016220Y002130D01*
X016334Y002130D02*
X016334Y002471D01*
X016447Y002357D01*
X016079Y002414D02*
X016079Y002187D01*
X015852Y002414D01*
X015852Y002187D01*
X015909Y002130D01*
X016022Y002130D01*
X016079Y002187D01*
X016079Y002414D02*
X016022Y002471D01*
X015909Y002471D01*
X015852Y002414D01*
X015252Y002414D02*
X015252Y002357D01*
X015195Y002300D01*
X015025Y002300D01*
X015025Y002187D02*
X015025Y002414D01*
X015082Y002471D01*
X015195Y002471D01*
X015252Y002414D01*
X015252Y002187D02*
X015195Y002130D01*
X015082Y002130D01*
X015025Y002187D01*
X014268Y002187D02*
X014268Y002244D01*
X014211Y002300D01*
X014098Y002300D01*
X014041Y002244D01*
X014041Y002187D01*
X014098Y002130D01*
X014211Y002130D01*
X014268Y002187D01*
X014211Y002300D02*
X014268Y002357D01*
X014268Y002414D01*
X014211Y002471D01*
X014098Y002471D01*
X014041Y002414D01*
X014041Y002357D01*
X014098Y002300D01*
X013627Y002414D02*
X013627Y002187D01*
X013570Y002130D01*
X013456Y002130D01*
X013400Y002187D01*
X013400Y002300D01*
X013513Y002300D01*
X013400Y002414D02*
X013456Y002471D01*
X013570Y002471D01*
X013627Y002414D01*
X013258Y002471D02*
X013258Y002130D01*
X013031Y002130D02*
X013031Y002471D01*
X012890Y002471D02*
X012720Y002471D01*
X012663Y002414D01*
X012663Y002187D01*
X012720Y002130D01*
X012890Y002130D01*
X012890Y002471D01*
X013258Y002471D02*
X013031Y002130D01*
D15*
X012767Y009351D03*
X012651Y009351D03*
X016115Y011447D03*
X016232Y011447D03*
X016509Y011988D03*
X016626Y011988D03*
D16*
X014756Y012048D03*
X014756Y012165D03*
X014402Y011023D03*
X014402Y010906D03*
M02*
