%
M48
M72
T01C0.0118
T02C0.0150
T03C0.0236
T04C0.0354
T05C0.0400
T06C0.0787
T07C0.0866
T08C0.1200
T09C0.1300
%
T01
X3654Y3878
X3969Y3878
X4284Y3878
X4599Y3878
X4914Y3878
X5229Y3878
X6804Y3878
X7119Y3642
X8693Y3878
X9008Y3878
X9323Y3878
X9638Y3878
X9953Y3878
X10268Y3878
X8063Y2540
X5859Y2540
X12276Y6555
X13142Y7815
X12237Y8170
X13024Y8957
X13811Y8957
X13811Y9351
X13811Y9744
X14205Y9744
X14599Y9744
X14599Y9351
X14599Y8957
X14993Y8563
X15386Y8563
X15386Y8957
X15780Y9351
X15780Y9744
X15386Y9744
X15386Y10138
X14993Y10138
X14599Y10138
X14599Y10532
X14205Y10532
X13811Y10532
X13418Y10532
X13024Y10532
X13418Y10925
X13811Y10925
X13811Y11319
X14205Y11319
X13811Y11713
X13418Y11713
X13418Y12107
X13811Y12107
X13811Y12500
X13811Y12894
X13418Y12894
X13024Y12500
X13024Y13288
X13024Y13681
X13418Y13288
X13811Y13288
X13811Y13681
X14205Y13288
X14599Y13288
X14993Y13681
X15386Y13288
X15780Y13288
X15780Y13681
X16174Y13288
X16567Y13681
X16961Y13288
X17355Y13288
X17748Y13288
X18142Y13288
X17748Y14075
X17355Y14075
X18664Y14360
X19126Y15020
X19402Y15335
X19874Y14469
X17355Y12500
X16961Y12500
X16961Y12894
X16567Y12894
X16174Y12894
X15780Y12894
X15780Y12500
X15386Y12500
X14993Y12500
X14993Y12894
X14599Y12894
X14205Y12500
X14599Y11713
X14993Y11713
X15386Y12107
X15780Y11713
X16174Y12107
X16961Y12107
X17355Y12107
X17748Y12107
X16961Y11713
X16567Y11319
X16961Y10925
X17355Y11319
X17748Y11319
X17748Y10925
X18142Y10925
X18142Y11319
X18575Y11319
X19284Y11477
X20465Y11477
X17748Y10532
X17355Y10532
X16961Y10532
X16174Y10138
X15780Y10138
X15386Y10532
X14993Y10925
X15386Y11319
X15780Y10925
X16567Y9744
X16567Y9351
X16961Y9351
X17355Y9351
X17355Y9744
X17748Y9744
X17748Y9351
X18142Y9351
X18536Y9351
X18969Y9193
X20071Y9193
X18536Y8170
X17748Y8170
X17276Y7855
X17355Y8563
X17748Y8563
X16567Y8563
X16174Y8957
X15465Y8130
X14993Y8170
X15583Y6949
X17473Y6673
X16056Y5571
X15071Y4705
X8024Y8209
X7119Y7146
X6804Y6870
X5898Y8209
X5898Y9626
X4914Y9626
X4599Y9626
X4284Y9626
X3969Y9626
X3654Y9626
X2433Y9705
X2433Y9351
X2433Y8996
X2433Y8642
X2433Y8288
X2433Y7933
X3378Y7461
X3142Y7225
X2906Y6988
X2670Y6752
X8024Y9626
X8693Y9626
X9008Y9626
X9323Y9626
X9638Y9626
X9953Y9626
X10268Y9626
X13024Y9744
X13024Y11319
X13024Y14075
X11922Y14233
X11922Y15020
X12315Y15020
X10268Y15256
X9953Y15492
X9638Y15729
X9323Y15965
X9008Y16201
X8693Y16437
X6804Y14114
X7119Y13878
X5229Y13603
X4914Y13366
X4284Y12500
X4599Y12264
X4914Y11910
X5229Y11595
X6804Y10925
X7119Y10729
X3969Y12776
X3654Y13051
X2670Y13839
X2906Y14075
X3142Y14311
X3378Y14547
X15032Y16792
X25662Y8288
X22709Y6595
X22709Y5847
X22709Y5099
X22709Y4351
X22709Y3603
X22709Y2855
X25544Y2855
X28969Y3839
X30977Y4823
X31410Y4823
X31843Y5256
X32276Y4823
X33142Y4823
X33575Y4823
X34048Y4823
X31567Y7579
X30622Y8721
X30622Y9114
X30859Y10414
X31981Y10975
X31390Y11457
X28615Y10650
X34737Y11605
X34786Y12638
X36764Y10807
X35307Y10256
X29126Y5886
X33703Y15729
X32689Y16063
X33693Y17264
X34087Y18248
X31056Y19784
X35219Y16063
T02
X35426Y14744
X36764Y14351
X37857Y13671
X36361Y12195
X36567Y11801
X34343Y9882
X33359Y10975
X30307Y12638
X31390Y13622
X31784Y14459
X32768Y14459
X33556Y14262
X33998Y14262
X30721Y16044
X32394Y20325
X31833Y3170
T03
X21410Y6398
X19599Y6398
X20504Y8721
X37040Y17894
X37945Y18317
X36095Y20099
T04
X34294Y21305
X32561Y21305
X12315Y19902
X11489Y19902
X10465Y19902
X9638Y19902
X9638Y18918
X12315Y18918
X6607Y18918
X6607Y19902
X5780Y19902
X4756Y19902
X3930Y19902
X3930Y18918
T05
X17882Y18768
X18784Y18768
X19685Y18768
X20587Y18768
X21489Y18768
X21937Y19768
X21036Y19768
X20134Y19768
X19233Y19768
X18331Y19768
X18331Y17768
X19233Y17768
X20134Y17768
X21036Y17768
X21937Y17768
X22150Y14988
X21150Y14988
X20150Y14988
X23150Y14988
X24150Y14988
X25150Y14988
X26800Y14835
X27800Y14835
X28800Y14835
X29800Y14835
X29800Y15835
X28800Y15835
X27800Y15835
X26800Y15835
X27300Y17000
X28300Y17000
X29300Y17000
X30300Y17000
X30300Y18000
X29300Y18000
X28300Y18000
X27300Y18000
X21150Y3988
X20150Y3988
X19150Y3988
X18150Y3988
X17150Y3988
X16150Y3988
X15150Y3988
X14150Y3988
X13150Y3988
X12150Y3988
X12150Y2988
X13150Y2988
X14150Y2988
X15150Y2988
X16150Y2988
X17150Y2988
X18150Y2988
X19150Y2988
X20150Y2988
X21150Y2988
T06
X27315Y3366
X27315Y6122
T07
X10977Y21398
X5268Y21398
T08
X1134Y2973
X1134Y22264
X38536Y22264
X38536Y2973
T09
X24953Y18768
X15111Y18768
M30
