G75*
G70*
%OFA0B0*%
%FSLAX24Y24*%
%IPPOS*%
%LPD*%
%AMOC8*
5,1,8,0,0,1.08239X$1,22.5*
%
%ADD10C,0.0554*%
%ADD11C,0.1266*%
%ADD12C,0.0600*%
%ADD13C,0.1700*%
%ADD14C,0.0270*%
%ADD15C,0.0100*%
%ADD16C,0.0238*%
%ADD17C,0.0356*%
%ADD18C,0.0120*%
D10*
X003930Y018918D03*
X003930Y019902D03*
X004756Y019902D03*
X005780Y019902D03*
X006607Y019902D03*
X006607Y018918D03*
X009638Y018918D03*
X009638Y019902D03*
X010465Y019902D03*
X011489Y019902D03*
X012315Y019902D03*
X012315Y018918D03*
D11*
X010977Y021398D03*
X005268Y021398D03*
D12*
X017882Y018768D03*
X018784Y018768D03*
X019685Y018768D03*
X020587Y018768D03*
X021489Y018768D03*
X021937Y019768D03*
X021036Y019768D03*
X020134Y019768D03*
X019233Y019768D03*
X018331Y019768D03*
X018331Y017768D03*
X019233Y017768D03*
X020134Y017768D03*
X021036Y017768D03*
X021937Y017768D03*
X022150Y014988D03*
X021150Y014988D03*
X020150Y014988D03*
X023150Y014988D03*
X024150Y014988D03*
X025150Y014988D03*
X026800Y014835D03*
X027800Y014835D03*
X028800Y014835D03*
X029800Y014835D03*
X029800Y015835D03*
X028800Y015835D03*
X027800Y015835D03*
X026800Y015835D03*
X027300Y017000D03*
X028300Y017000D03*
X029300Y017000D03*
X030300Y017000D03*
X030300Y018000D03*
X029300Y018000D03*
X028300Y018000D03*
X027300Y018000D03*
X021150Y003988D03*
X020150Y003988D03*
X019150Y003988D03*
X018150Y003988D03*
X017150Y003988D03*
X016150Y003988D03*
X015150Y003988D03*
X014150Y003988D03*
X013150Y003988D03*
X012150Y003988D03*
X012150Y002988D03*
X013150Y002988D03*
X014150Y002988D03*
X015150Y002988D03*
X016150Y002988D03*
X017150Y002988D03*
X018150Y002988D03*
X019150Y002988D03*
X020150Y002988D03*
X021150Y002988D03*
D13*
X024953Y018768D03*
X015111Y018768D03*
D14*
X030307Y012638D03*
X031390Y013622D03*
X031784Y014459D03*
X032768Y014459D03*
X033556Y014262D03*
X033998Y014262D03*
X035426Y014744D03*
X036764Y014351D03*
X037857Y013671D03*
X036361Y012195D03*
X036567Y011801D03*
X034343Y009882D03*
X033359Y010975D03*
X030721Y016044D03*
X032394Y020325D03*
X031833Y003170D03*
D15*
X000300Y002138D02*
X000300Y023098D01*
X039370Y023098D01*
X039370Y002138D01*
X000300Y002138D01*
X000300Y002185D02*
X039370Y002185D01*
X039370Y002284D02*
X038833Y002284D01*
X038961Y002337D02*
X038685Y002223D01*
X038387Y002223D01*
X038111Y002337D01*
X037900Y002548D01*
X037786Y002823D01*
X037786Y003122D01*
X037900Y003398D01*
X038111Y003608D01*
X038387Y003723D01*
X038685Y003723D01*
X038961Y003608D01*
X039172Y003398D01*
X039286Y003122D01*
X039286Y002823D01*
X039172Y002548D01*
X038961Y002337D01*
X039006Y002382D02*
X039370Y002382D01*
X039370Y002481D02*
X039105Y002481D01*
X039185Y002579D02*
X039370Y002579D01*
X039370Y002678D02*
X039226Y002678D01*
X039266Y002776D02*
X039370Y002776D01*
X039370Y002875D02*
X039286Y002875D01*
X039286Y002973D02*
X039370Y002973D01*
X039370Y003072D02*
X039286Y003072D01*
X039266Y003170D02*
X039370Y003170D01*
X039370Y003269D02*
X039225Y003269D01*
X039184Y003367D02*
X039370Y003367D01*
X039370Y003466D02*
X039103Y003466D01*
X039005Y003564D02*
X039370Y003564D01*
X039370Y003663D02*
X038829Y003663D01*
X039370Y003761D02*
X027689Y003761D01*
X027623Y003827D02*
X027424Y003910D01*
X027207Y003910D01*
X027007Y003827D01*
X026854Y003674D01*
X026772Y003475D01*
X026772Y003258D01*
X026854Y003058D01*
X027007Y002905D01*
X027207Y002823D01*
X027424Y002823D01*
X027623Y002905D01*
X027776Y003058D01*
X027859Y003258D01*
X027859Y003475D01*
X027776Y003674D01*
X027623Y003827D01*
X027545Y003860D02*
X039370Y003860D01*
X039370Y003958D02*
X021600Y003958D01*
X021600Y003899D02*
X021531Y003734D01*
X021405Y003607D01*
X021240Y003538D01*
X021060Y003538D01*
X020895Y003607D01*
X020769Y003734D01*
X020700Y003899D01*
X020700Y004078D01*
X020769Y004243D01*
X020895Y004370D01*
X021060Y004438D01*
X021240Y004438D01*
X021405Y004370D01*
X021531Y004243D01*
X021600Y004078D01*
X021600Y003899D01*
X021584Y003860D02*
X022627Y003860D01*
X022656Y003872D02*
X022557Y003831D01*
X022481Y003755D01*
X022440Y003656D01*
X022440Y003549D01*
X022481Y003450D01*
X022557Y003375D01*
X022656Y003334D01*
X022763Y003334D01*
X022861Y003375D01*
X022937Y003450D01*
X022978Y003549D01*
X022978Y003656D01*
X022937Y003755D01*
X022861Y003831D01*
X022763Y003872D01*
X022656Y003872D01*
X022791Y003860D02*
X027086Y003860D01*
X026941Y003761D02*
X022931Y003761D01*
X022975Y003663D02*
X026850Y003663D01*
X026809Y003564D02*
X022978Y003564D01*
X022944Y003466D02*
X026772Y003466D01*
X026772Y003367D02*
X022844Y003367D01*
X022763Y003124D02*
X022656Y003124D01*
X022557Y003083D01*
X022481Y003007D01*
X022440Y002908D01*
X022440Y002801D01*
X022481Y002702D01*
X022557Y002626D01*
X022656Y002586D01*
X022763Y002586D01*
X022861Y002626D01*
X022937Y002702D01*
X022978Y002801D01*
X022978Y002908D01*
X022937Y003007D01*
X022861Y003083D01*
X022763Y003124D01*
X022872Y003072D02*
X026849Y003072D01*
X026808Y003170D02*
X021562Y003170D01*
X021531Y003243D02*
X021405Y003370D01*
X021240Y003438D01*
X021060Y003438D01*
X020895Y003370D01*
X020769Y003243D01*
X020700Y003078D01*
X020700Y002899D01*
X020769Y002734D01*
X020895Y002607D01*
X021060Y002538D01*
X021240Y002538D01*
X021405Y002607D01*
X021531Y002734D01*
X021600Y002899D01*
X021600Y003078D01*
X021531Y003243D01*
X021506Y003269D02*
X026772Y003269D01*
X026939Y002973D02*
X022951Y002973D01*
X022978Y002875D02*
X027081Y002875D01*
X027550Y002875D02*
X037786Y002875D01*
X037786Y002973D02*
X027691Y002973D01*
X027782Y003072D02*
X037786Y003072D01*
X037806Y003170D02*
X027823Y003170D01*
X027859Y003269D02*
X037847Y003269D01*
X037888Y003367D02*
X027859Y003367D01*
X027859Y003466D02*
X037968Y003466D01*
X038067Y003564D02*
X027822Y003564D01*
X027781Y003663D02*
X038242Y003663D01*
X039370Y004057D02*
X021600Y004057D01*
X021568Y004155D02*
X022524Y004155D01*
X022557Y004123D02*
X022481Y004198D01*
X022440Y004297D01*
X022440Y004404D01*
X022481Y004503D01*
X022557Y004579D01*
X022656Y004620D01*
X022763Y004620D01*
X022861Y004579D01*
X022937Y004503D01*
X022978Y004404D01*
X022978Y004297D01*
X022937Y004198D01*
X022861Y004123D01*
X022763Y004082D01*
X022656Y004082D01*
X022557Y004123D01*
X022458Y004254D02*
X021521Y004254D01*
X021422Y004352D02*
X022440Y004352D01*
X022459Y004451D02*
X000300Y004451D01*
X000300Y004549D02*
X022527Y004549D01*
X022656Y004830D02*
X022763Y004830D01*
X022861Y004871D01*
X022937Y004946D01*
X022978Y005045D01*
X022978Y005152D01*
X022937Y005251D01*
X022861Y005327D01*
X022763Y005368D01*
X022656Y005368D01*
X022557Y005327D01*
X022481Y005251D01*
X022440Y005152D01*
X022440Y005045D01*
X022481Y004946D01*
X022557Y004871D01*
X022656Y004830D01*
X022619Y004845D02*
X000300Y004845D01*
X000300Y004943D02*
X022484Y004943D01*
X022441Y005042D02*
X000300Y005042D01*
X000300Y005140D02*
X022440Y005140D01*
X022476Y005239D02*
X000300Y005239D01*
X000300Y005337D02*
X015917Y005337D01*
X015903Y005343D02*
X016002Y005302D01*
X016109Y005302D01*
X016208Y005343D01*
X016284Y005419D01*
X016325Y005518D01*
X016325Y005625D01*
X016284Y005724D01*
X016208Y005799D01*
X016109Y005840D01*
X016002Y005840D01*
X015903Y005799D01*
X015827Y005724D01*
X015786Y005625D01*
X015786Y005518D01*
X015827Y005419D01*
X015903Y005343D01*
X015820Y005436D02*
X000300Y005436D01*
X000300Y005534D02*
X015786Y005534D01*
X015790Y005633D02*
X000300Y005633D01*
X000300Y005731D02*
X015835Y005731D01*
X015977Y005830D02*
X000300Y005830D01*
X000300Y005928D02*
X022452Y005928D01*
X022440Y005900D02*
X022440Y005793D01*
X022481Y005694D01*
X022557Y005619D01*
X022656Y005578D01*
X022763Y005578D01*
X022861Y005619D01*
X022937Y005694D01*
X022978Y005793D01*
X022978Y005900D01*
X022937Y005999D01*
X022861Y006075D01*
X022763Y006116D01*
X022656Y006116D01*
X022557Y006075D01*
X022481Y005999D01*
X022440Y005900D01*
X022440Y005830D02*
X016134Y005830D01*
X016276Y005731D02*
X022466Y005731D01*
X022542Y005633D02*
X016321Y005633D01*
X016325Y005534D02*
X039370Y005534D01*
X039370Y005436D02*
X032044Y005436D01*
X032071Y005409D02*
X031995Y005484D01*
X031896Y005525D01*
X031789Y005525D01*
X031691Y005484D01*
X031615Y005409D01*
X031574Y005310D01*
X031574Y005203D01*
X031615Y005104D01*
X031691Y005028D01*
X031789Y004987D01*
X031896Y004987D01*
X031995Y005028D01*
X032071Y005104D01*
X032112Y005203D01*
X032112Y005310D01*
X032071Y005409D01*
X032100Y005337D02*
X039370Y005337D01*
X039370Y005239D02*
X032112Y005239D01*
X032086Y005140D02*
X039370Y005140D01*
X039370Y005042D02*
X034209Y005042D01*
X034200Y005051D02*
X034101Y005092D01*
X033994Y005092D01*
X033895Y005051D01*
X033820Y004975D01*
X033811Y004956D01*
X033803Y004975D01*
X033728Y005051D01*
X033629Y005092D01*
X033522Y005092D01*
X033423Y005051D01*
X033359Y004987D01*
X033295Y005051D01*
X033196Y005092D01*
X033089Y005092D01*
X032990Y005051D01*
X032914Y004975D01*
X032873Y004877D01*
X032873Y004770D01*
X032914Y004671D01*
X032990Y004595D01*
X033089Y004554D01*
X033196Y004554D01*
X033295Y004595D01*
X033359Y004659D01*
X033423Y004595D01*
X033522Y004554D01*
X033629Y004554D01*
X033728Y004595D01*
X033803Y004671D01*
X033811Y004690D01*
X033820Y004671D01*
X033895Y004595D01*
X033994Y004554D01*
X034101Y004554D01*
X034200Y004595D01*
X034276Y004671D01*
X034317Y004770D01*
X034317Y004877D01*
X034276Y004975D01*
X034200Y005051D01*
X034289Y004943D02*
X039370Y004943D01*
X039370Y004845D02*
X034317Y004845D01*
X034307Y004746D02*
X039370Y004746D01*
X039370Y004648D02*
X034253Y004648D01*
X033842Y004648D02*
X033781Y004648D01*
X033370Y004648D02*
X033347Y004648D01*
X032937Y004648D02*
X032481Y004648D01*
X032504Y004671D02*
X032428Y004595D01*
X032330Y004554D01*
X032222Y004554D01*
X032124Y004595D01*
X032048Y004671D01*
X032007Y004770D01*
X032007Y004877D01*
X032048Y004975D01*
X032124Y005051D01*
X032222Y005092D01*
X032330Y005092D01*
X032428Y005051D01*
X032504Y004975D01*
X032545Y004877D01*
X032545Y004770D01*
X032504Y004671D01*
X032535Y004746D02*
X032883Y004746D01*
X032873Y004845D02*
X032545Y004845D01*
X032517Y004943D02*
X032901Y004943D01*
X032980Y005042D02*
X032438Y005042D01*
X032114Y005042D02*
X032009Y005042D01*
X032035Y004943D02*
X031651Y004943D01*
X031638Y004975D02*
X031562Y005051D01*
X031463Y005092D01*
X031356Y005092D01*
X031257Y005051D01*
X031193Y004987D01*
X031129Y005051D01*
X031030Y005092D01*
X030923Y005092D01*
X030824Y005051D01*
X030749Y004975D01*
X030708Y004877D01*
X030708Y004770D01*
X030749Y004671D01*
X030824Y004595D01*
X030923Y004554D01*
X031030Y004554D01*
X031129Y004595D01*
X031193Y004659D01*
X031257Y004595D01*
X031356Y004554D01*
X031463Y004554D01*
X031562Y004595D01*
X031638Y004671D01*
X031679Y004770D01*
X031679Y004877D01*
X031638Y004975D01*
X031677Y005042D02*
X031571Y005042D01*
X031600Y005140D02*
X022978Y005140D01*
X022977Y005042D02*
X030815Y005042D01*
X030735Y004943D02*
X022934Y004943D01*
X022800Y004845D02*
X030708Y004845D01*
X030717Y004746D02*
X000300Y004746D01*
X000300Y004648D02*
X030771Y004648D01*
X031182Y004648D02*
X031204Y004648D01*
X031615Y004648D02*
X032071Y004648D01*
X032017Y004746D02*
X031669Y004746D01*
X031679Y004845D02*
X032007Y004845D01*
X031574Y005239D02*
X022942Y005239D01*
X022836Y005337D02*
X031585Y005337D01*
X031642Y005436D02*
X016291Y005436D01*
X016194Y005337D02*
X022582Y005337D01*
X022876Y005633D02*
X027076Y005633D01*
X027007Y005661D02*
X027207Y005579D01*
X027424Y005579D01*
X027623Y005661D01*
X027776Y005814D01*
X027859Y006014D01*
X027859Y006230D01*
X027776Y006430D01*
X027623Y006583D01*
X027424Y006666D01*
X027207Y006666D01*
X027007Y006583D01*
X026854Y006430D01*
X026772Y006230D01*
X026772Y006014D01*
X026854Y005814D01*
X027007Y005661D01*
X026937Y005731D02*
X022953Y005731D01*
X022978Y005830D02*
X026848Y005830D01*
X026807Y005928D02*
X022966Y005928D01*
X022909Y006027D02*
X026772Y006027D01*
X026772Y006125D02*
X021601Y006125D01*
X021596Y006120D02*
X021688Y006212D01*
X021738Y006333D01*
X021738Y006463D01*
X021688Y006584D01*
X021596Y006676D01*
X021475Y006726D01*
X021345Y006726D01*
X021224Y006676D01*
X021132Y006584D01*
X021082Y006463D01*
X021082Y006333D01*
X021132Y006212D01*
X021224Y006120D01*
X021345Y006070D01*
X021475Y006070D01*
X021596Y006120D01*
X021693Y006224D02*
X026772Y006224D01*
X026810Y006322D02*
X021734Y006322D01*
X021738Y006421D02*
X022502Y006421D01*
X022481Y006442D02*
X022557Y006367D01*
X022656Y006326D01*
X022763Y006326D01*
X022861Y006367D01*
X022937Y006442D01*
X022978Y006541D01*
X022978Y006648D01*
X022937Y006747D01*
X022861Y006823D01*
X022763Y006864D01*
X022656Y006864D01*
X022557Y006823D01*
X022481Y006747D01*
X022440Y006648D01*
X022440Y006541D01*
X022481Y006442D01*
X022449Y006519D02*
X021715Y006519D01*
X021654Y006618D02*
X022440Y006618D01*
X022468Y006716D02*
X021498Y006716D01*
X021322Y006716D02*
X017742Y006716D01*
X017742Y006727D02*
X017742Y006620D01*
X017701Y006521D01*
X017625Y006445D01*
X017526Y006404D01*
X017419Y006404D01*
X017320Y006445D01*
X017245Y006521D01*
X017204Y006620D01*
X017204Y006727D01*
X017245Y006826D01*
X017320Y006902D01*
X017419Y006943D01*
X017526Y006943D01*
X017625Y006902D01*
X017701Y006826D01*
X017742Y006727D01*
X017705Y006815D02*
X022549Y006815D01*
X022869Y006815D02*
X039370Y006815D01*
X039370Y006913D02*
X017597Y006913D01*
X017349Y006913D02*
X015852Y006913D01*
X015852Y006896D02*
X015852Y007003D01*
X015811Y007101D01*
X015735Y007177D01*
X015637Y007218D01*
X015530Y007218D01*
X015431Y007177D01*
X015413Y007159D01*
X014095Y007159D01*
X013411Y007843D01*
X013411Y007869D01*
X013370Y007968D01*
X013295Y008043D01*
X013196Y008084D01*
X013089Y008084D01*
X012990Y008043D01*
X012914Y007968D01*
X012873Y007869D01*
X012873Y007762D01*
X012914Y007663D01*
X012990Y007587D01*
X013089Y007546D01*
X013114Y007546D01*
X013798Y006862D01*
X013921Y006739D01*
X015413Y006739D01*
X015431Y006721D01*
X015530Y006680D01*
X015637Y006680D01*
X015735Y006721D01*
X015811Y006797D01*
X015852Y006896D01*
X015819Y006815D02*
X017240Y006815D01*
X017204Y006716D02*
X015725Y006716D01*
X015442Y006716D02*
X012495Y006716D01*
X012504Y006708D02*
X012428Y006783D01*
X012330Y006824D01*
X012222Y006824D01*
X012124Y006783D01*
X012048Y006708D01*
X012007Y006609D01*
X012007Y006502D01*
X012048Y006403D01*
X012124Y006327D01*
X012222Y006286D01*
X012330Y006286D01*
X012428Y006327D01*
X012504Y006403D01*
X012545Y006502D01*
X012545Y006609D01*
X012504Y006708D01*
X012541Y006618D02*
X017205Y006618D01*
X017246Y006519D02*
X012545Y006519D01*
X012512Y006421D02*
X017379Y006421D01*
X017566Y006421D02*
X021082Y006421D01*
X021086Y006322D02*
X012417Y006322D01*
X012135Y006322D02*
X000300Y006322D01*
X000300Y006224D02*
X021127Y006224D01*
X021218Y006125D02*
X000300Y006125D01*
X000300Y006027D02*
X022509Y006027D01*
X022916Y006421D02*
X026851Y006421D01*
X026944Y006519D02*
X022969Y006519D01*
X022978Y006618D02*
X027091Y006618D01*
X027539Y006618D02*
X039370Y006618D01*
X039370Y006716D02*
X022950Y006716D01*
X021166Y006618D02*
X017741Y006618D01*
X017699Y006519D02*
X021105Y006519D01*
X020570Y008393D02*
X020690Y008443D01*
X020782Y008535D01*
X020832Y008655D01*
X020832Y008786D01*
X020782Y008907D01*
X020690Y008999D01*
X020570Y009049D01*
X020439Y009049D01*
X020318Y008999D01*
X020226Y008907D01*
X020176Y008786D01*
X020176Y008655D01*
X020226Y008535D01*
X020318Y008443D01*
X020439Y008393D01*
X020570Y008393D01*
X020737Y008489D02*
X025483Y008489D01*
X025509Y008516D02*
X025434Y008440D01*
X025393Y008341D01*
X025393Y008234D01*
X025434Y008135D01*
X025509Y008060D01*
X025608Y008019D01*
X025715Y008019D01*
X025814Y008060D01*
X025890Y008135D01*
X025931Y008234D01*
X025931Y008341D01*
X025890Y008440D01*
X025814Y008516D01*
X025715Y008557D01*
X025608Y008557D01*
X025509Y008516D01*
X025413Y008391D02*
X017957Y008391D01*
X017977Y008411D02*
X018017Y008510D01*
X018017Y008617D01*
X017977Y008716D01*
X017901Y008791D01*
X017802Y008832D01*
X017695Y008832D01*
X017596Y008791D01*
X017552Y008747D01*
X017507Y008791D01*
X017408Y008832D01*
X017301Y008832D01*
X017202Y008791D01*
X017127Y008716D01*
X017086Y008617D01*
X017086Y008510D01*
X017127Y008411D01*
X017202Y008335D01*
X017301Y008294D01*
X017408Y008294D01*
X017507Y008335D01*
X017552Y008380D01*
X017565Y008366D01*
X017520Y008322D01*
X017479Y008223D01*
X017479Y008116D01*
X017520Y008017D01*
X017596Y007941D01*
X017695Y007900D01*
X017802Y007900D01*
X017901Y007941D01*
X017977Y008017D01*
X018017Y008116D01*
X018017Y008223D01*
X017977Y008322D01*
X017932Y008366D01*
X017977Y008411D01*
X018009Y008489D02*
X020272Y008489D01*
X020204Y008588D02*
X018017Y008588D01*
X017989Y008686D02*
X020176Y008686D01*
X020176Y008785D02*
X017907Y008785D01*
X017590Y008785D02*
X017514Y008785D01*
X017196Y008785D02*
X016726Y008785D01*
X016720Y008791D02*
X016621Y008832D01*
X016514Y008832D01*
X016415Y008791D01*
X016339Y008716D01*
X016298Y008617D01*
X016298Y008510D01*
X016339Y008411D01*
X016415Y008335D01*
X016514Y008294D01*
X016621Y008294D01*
X016720Y008335D01*
X016795Y008411D01*
X016836Y008510D01*
X016836Y008617D01*
X016795Y008716D01*
X016720Y008791D01*
X016808Y008686D02*
X017115Y008686D01*
X017086Y008588D02*
X016836Y008588D01*
X016828Y008489D02*
X017094Y008489D01*
X017147Y008391D02*
X016776Y008391D01*
X016359Y008391D02*
X015594Y008391D01*
X015578Y008375D02*
X015614Y008411D01*
X015655Y008510D01*
X015655Y008617D01*
X015614Y008716D01*
X015570Y008760D01*
X015614Y008805D01*
X015655Y008903D01*
X015655Y009010D01*
X015614Y009109D01*
X015539Y009185D01*
X015440Y009226D01*
X015333Y009226D01*
X015234Y009185D01*
X015158Y009109D01*
X015117Y009010D01*
X015117Y008903D01*
X015158Y008805D01*
X015203Y008760D01*
X015189Y008747D01*
X015145Y008791D01*
X015046Y008832D01*
X014939Y008832D01*
X014840Y008791D01*
X014764Y008716D01*
X014723Y008617D01*
X014723Y008510D01*
X014764Y008411D01*
X014809Y008366D01*
X014764Y008322D01*
X014723Y008223D01*
X014723Y008116D01*
X014764Y008017D01*
X014840Y007941D01*
X014939Y007900D01*
X015046Y007900D01*
X015145Y007941D01*
X015221Y008017D01*
X015237Y007978D01*
X015313Y007902D01*
X015411Y007861D01*
X015518Y007861D01*
X015617Y007902D01*
X015693Y007978D01*
X015734Y008077D01*
X015734Y008184D01*
X015693Y008283D01*
X015617Y008358D01*
X015578Y008375D01*
X015647Y008489D02*
X016307Y008489D01*
X016298Y008588D02*
X015655Y008588D01*
X015626Y008686D02*
X016327Y008686D01*
X016409Y008785D02*
X015595Y008785D01*
X015647Y008883D02*
X020217Y008883D01*
X020302Y008982D02*
X019138Y008982D01*
X019121Y008965D02*
X019197Y009041D01*
X019238Y009140D01*
X019238Y009247D01*
X019197Y009346D01*
X019121Y009421D01*
X019022Y009462D01*
X018915Y009462D01*
X018816Y009421D01*
X018803Y009408D01*
X018764Y009503D01*
X018688Y009579D01*
X018589Y009620D01*
X018482Y009620D01*
X018383Y009579D01*
X018339Y009534D01*
X018295Y009579D01*
X018196Y009620D01*
X018089Y009620D01*
X017990Y009579D01*
X017945Y009534D01*
X017932Y009547D01*
X017977Y009592D01*
X018017Y009691D01*
X018017Y009798D01*
X017977Y009897D01*
X017901Y009972D01*
X017802Y010013D01*
X017695Y010013D01*
X017596Y009972D01*
X017552Y009928D01*
X017507Y009972D01*
X017408Y010013D01*
X017301Y010013D01*
X017202Y009972D01*
X017127Y009897D01*
X017086Y009798D01*
X017086Y009691D01*
X017127Y009592D01*
X017202Y009516D01*
X017301Y009475D01*
X017408Y009475D01*
X017507Y009516D01*
X017552Y009561D01*
X017565Y009547D01*
X017520Y009503D01*
X017479Y009404D01*
X017479Y009297D01*
X017520Y009198D01*
X017596Y009123D01*
X017695Y009082D01*
X017802Y009082D01*
X017901Y009123D01*
X017945Y009167D01*
X017990Y009123D01*
X018089Y009082D01*
X018196Y009082D01*
X018295Y009123D01*
X018339Y009167D01*
X018383Y009123D01*
X018482Y009082D01*
X018589Y009082D01*
X018688Y009123D01*
X018701Y009136D01*
X018741Y009041D01*
X018816Y008965D01*
X018915Y008924D01*
X019022Y008924D01*
X019121Y008965D01*
X019213Y009080D02*
X030353Y009080D01*
X030353Y009061D02*
X030394Y008962D01*
X030470Y008886D01*
X030569Y008845D01*
X030676Y008845D01*
X030775Y008886D01*
X030851Y008962D01*
X030891Y009061D01*
X030891Y009168D01*
X030851Y009267D01*
X030775Y009343D01*
X030676Y009383D01*
X030569Y009383D01*
X030470Y009343D01*
X030394Y009267D01*
X030353Y009168D01*
X030353Y009061D01*
X030386Y008982D02*
X020707Y008982D01*
X020792Y008883D02*
X030477Y008883D01*
X030768Y008883D02*
X039370Y008883D01*
X039370Y008785D02*
X020832Y008785D01*
X020832Y008686D02*
X039370Y008686D01*
X039370Y008588D02*
X020804Y008588D01*
X019238Y009179D02*
X030358Y009179D01*
X030405Y009277D02*
X019225Y009277D01*
X019167Y009376D02*
X030551Y009376D01*
X030694Y009376D02*
X039370Y009376D01*
X039370Y009474D02*
X018776Y009474D01*
X018694Y009573D02*
X039370Y009573D01*
X039370Y009671D02*
X018009Y009671D01*
X018017Y009770D02*
X039370Y009770D01*
X039370Y009868D02*
X017988Y009868D01*
X017906Y009967D02*
X039370Y009967D01*
X039370Y010065D02*
X035497Y010065D01*
X035460Y010028D02*
X035536Y010104D01*
X035577Y010203D01*
X035577Y010310D01*
X035536Y010409D01*
X035460Y010484D01*
X035361Y010525D01*
X035254Y010525D01*
X035155Y010484D01*
X035079Y010409D01*
X035038Y010310D01*
X035038Y010203D01*
X035079Y010104D01*
X035155Y010028D01*
X035254Y009987D01*
X035361Y009987D01*
X035460Y010028D01*
X035561Y010164D02*
X039370Y010164D01*
X039370Y010262D02*
X035577Y010262D01*
X035555Y010361D02*
X039370Y010361D01*
X039370Y010459D02*
X035485Y010459D01*
X035130Y010459D02*
X028805Y010459D01*
X028767Y010422D02*
X028843Y010497D01*
X028884Y010596D01*
X028884Y010703D01*
X028843Y010802D01*
X028767Y010878D01*
X028668Y010919D01*
X028561Y010919D01*
X028462Y010878D01*
X028386Y010802D01*
X028346Y010703D01*
X028346Y010596D01*
X028386Y010497D01*
X028462Y010422D01*
X028561Y010381D01*
X028668Y010381D01*
X028767Y010422D01*
X028868Y010558D02*
X039370Y010558D01*
X039370Y010656D02*
X028884Y010656D01*
X028862Y010755D02*
X033175Y010755D01*
X033197Y010733D02*
X033302Y010690D01*
X033415Y010690D01*
X033520Y010733D01*
X033600Y010813D01*
X033644Y010918D01*
X033644Y011031D01*
X033600Y011136D01*
X033520Y011216D01*
X033415Y011260D01*
X033302Y011260D01*
X033197Y011216D01*
X033117Y011136D01*
X033074Y011031D01*
X033074Y010918D01*
X033117Y010813D01*
X033197Y010733D01*
X033100Y010853D02*
X028791Y010853D01*
X028438Y010853D02*
X018404Y010853D01*
X018411Y010872D02*
X018370Y010773D01*
X018295Y010697D01*
X018196Y010656D01*
X028346Y010656D01*
X028361Y010558D02*
X017624Y010558D01*
X017624Y010585D02*
X017583Y010684D01*
X017507Y010760D01*
X017408Y010801D01*
X017301Y010801D01*
X017202Y010760D01*
X017158Y010715D01*
X017145Y010729D01*
X017189Y010773D01*
X017230Y010872D01*
X017230Y010979D01*
X017189Y011078D01*
X017113Y011154D01*
X017015Y011194D01*
X016908Y011194D01*
X016809Y011154D01*
X016733Y011078D01*
X016692Y010979D01*
X016692Y010872D01*
X016733Y010773D01*
X016777Y010729D01*
X016733Y010684D01*
X016692Y010585D01*
X016692Y010478D01*
X016733Y010379D01*
X016809Y010304D01*
X016908Y010263D01*
X017015Y010263D01*
X017113Y010304D01*
X017158Y010348D01*
X017202Y010304D01*
X017301Y010263D01*
X017408Y010263D01*
X017507Y010304D01*
X017583Y010379D01*
X017624Y010478D01*
X017624Y010585D01*
X017594Y010656D02*
X017695Y010656D01*
X017802Y010656D01*
X017901Y010697D01*
X017945Y010742D01*
X017990Y010697D01*
X018089Y010656D01*
X018196Y010656D01*
X018088Y010656D02*
X017802Y010656D01*
X017695Y010656D02*
X017596Y010697D01*
X017520Y010773D01*
X017479Y010872D01*
X017479Y010979D01*
X017520Y011078D01*
X017565Y011122D01*
X017552Y011135D01*
X017507Y011091D01*
X017408Y011050D01*
X017301Y011050D01*
X017202Y011091D01*
X017127Y011167D01*
X017086Y011266D01*
X017086Y011373D01*
X017127Y011472D01*
X017202Y011547D01*
X017301Y011588D01*
X017408Y011588D01*
X017507Y011547D01*
X017552Y011503D01*
X017596Y011547D01*
X017695Y011588D01*
X017802Y011588D01*
X017901Y011547D01*
X017945Y011503D01*
X017990Y011547D01*
X018089Y011588D01*
X018196Y011588D01*
X018295Y011547D01*
X018359Y011483D01*
X018423Y011547D01*
X018522Y011588D01*
X018629Y011588D01*
X018728Y011547D01*
X018803Y011472D01*
X018844Y011373D01*
X018844Y011266D01*
X018803Y011167D01*
X018728Y011091D01*
X018629Y011050D01*
X018522Y011050D01*
X018423Y011091D01*
X018359Y011155D01*
X018326Y011122D01*
X018370Y011078D01*
X018411Y010979D01*
X018411Y010872D01*
X018411Y010952D02*
X033074Y010952D01*
X033082Y011050D02*
X018630Y011050D01*
X018521Y011050D02*
X018382Y011050D01*
X018365Y011149D02*
X018352Y011149D01*
X018299Y011543D02*
X018419Y011543D01*
X018732Y011543D02*
X020201Y011543D01*
X020196Y011530D02*
X020196Y011423D01*
X020237Y011324D01*
X020313Y011249D01*
X020411Y011208D01*
X020518Y011208D01*
X020617Y011249D01*
X020693Y011324D01*
X020734Y011423D01*
X020734Y011530D01*
X020693Y011629D01*
X020617Y011705D01*
X020518Y011746D01*
X020411Y011746D01*
X020313Y011705D01*
X020237Y011629D01*
X020196Y011530D01*
X020196Y011444D02*
X018815Y011444D01*
X018844Y011346D02*
X020228Y011346D01*
X020315Y011247D02*
X018837Y011247D01*
X018786Y011149D02*
X033130Y011149D01*
X033273Y011247D02*
X031561Y011247D01*
X031543Y011229D02*
X031618Y011305D01*
X031659Y011403D01*
X031659Y011510D01*
X031618Y011609D01*
X031543Y011685D01*
X031444Y011726D01*
X031337Y011726D01*
X031238Y011685D01*
X031162Y011609D01*
X031121Y011510D01*
X031121Y011403D01*
X031162Y011305D01*
X031238Y011229D01*
X031337Y011188D01*
X031444Y011188D01*
X031543Y011229D01*
X031635Y011346D02*
X034658Y011346D01*
X034683Y011336D02*
X034790Y011336D01*
X034889Y011376D01*
X034965Y011452D01*
X035006Y011551D01*
X035006Y011658D01*
X034965Y011757D01*
X034889Y011833D01*
X034790Y011874D01*
X034683Y011874D01*
X034584Y011833D01*
X034509Y011757D01*
X034468Y011658D01*
X034468Y011551D01*
X034509Y011452D01*
X034584Y011376D01*
X034683Y011336D01*
X034815Y011346D02*
X039370Y011346D01*
X039370Y011444D02*
X034957Y011444D01*
X035002Y011543D02*
X036447Y011543D01*
X036406Y011560D02*
X036511Y011516D01*
X036624Y011516D01*
X036729Y011560D01*
X036809Y011640D01*
X036852Y011745D01*
X036852Y011858D01*
X036809Y011963D01*
X036729Y012043D01*
X036624Y012086D01*
X036511Y012086D01*
X036406Y012043D01*
X036326Y011963D01*
X036282Y011858D01*
X036282Y011745D01*
X036326Y011640D01*
X036406Y011560D01*
X036325Y011641D02*
X035006Y011641D01*
X034972Y011740D02*
X036284Y011740D01*
X036282Y011838D02*
X034875Y011838D01*
X034598Y011838D02*
X017411Y011838D01*
X017408Y011837D02*
X017507Y011878D01*
X017583Y011954D01*
X017624Y012053D01*
X017624Y012160D01*
X017583Y012259D01*
X017538Y012303D01*
X017583Y012348D01*
X017624Y012447D01*
X017624Y012554D01*
X017583Y012653D01*
X017507Y012728D01*
X017408Y012769D01*
X017301Y012769D01*
X017202Y012728D01*
X017158Y012684D01*
X017113Y012728D01*
X017015Y012769D01*
X016908Y012769D01*
X016809Y012728D01*
X016733Y012653D01*
X016692Y012554D01*
X016692Y012447D01*
X016733Y012348D01*
X016777Y012303D01*
X016733Y012259D01*
X016692Y012160D01*
X016692Y012053D01*
X016733Y011954D01*
X016777Y011910D01*
X016733Y011865D01*
X016692Y011766D01*
X016692Y011659D01*
X016733Y011560D01*
X016809Y011485D01*
X016908Y011444D01*
X017015Y011444D01*
X017113Y011485D01*
X017189Y011560D01*
X017230Y011659D01*
X017230Y011766D01*
X017189Y011865D01*
X017145Y011910D01*
X017158Y011923D01*
X017202Y011878D01*
X017301Y011837D01*
X017408Y011837D01*
X017299Y011838D02*
X017200Y011838D01*
X017230Y011740D02*
X020398Y011740D01*
X020532Y011740D02*
X034501Y011740D01*
X034468Y011641D02*
X031586Y011641D01*
X031646Y011543D02*
X034471Y011543D01*
X034516Y011444D02*
X031659Y011444D01*
X031219Y011247D02*
X020615Y011247D01*
X020702Y011346D02*
X031145Y011346D01*
X031121Y011444D02*
X020734Y011444D01*
X020729Y011543D02*
X031135Y011543D01*
X031194Y011641D02*
X020681Y011641D01*
X020249Y011641D02*
X017223Y011641D01*
X017198Y011543D02*
X017172Y011543D01*
X017115Y011444D02*
X017016Y011444D01*
X016906Y011444D02*
X015835Y011444D01*
X015833Y011444D02*
X015932Y011485D01*
X016008Y011560D01*
X016049Y011659D01*
X016049Y011766D01*
X016008Y011865D01*
X015932Y011941D01*
X015833Y011982D01*
X015726Y011982D01*
X015628Y011941D01*
X015552Y011865D01*
X015511Y011766D01*
X015511Y011659D01*
X015552Y011560D01*
X015628Y011485D01*
X015726Y011444D01*
X015833Y011444D01*
X015725Y011444D02*
X015048Y011444D01*
X015046Y011444D02*
X015145Y011485D01*
X015221Y011560D01*
X015262Y011659D01*
X015262Y011766D01*
X015221Y011865D01*
X015145Y011941D01*
X015046Y011982D01*
X014939Y011982D01*
X014840Y011941D01*
X014764Y011865D01*
X014723Y011766D01*
X014723Y011659D01*
X014764Y011560D01*
X014840Y011485D01*
X014939Y011444D01*
X015046Y011444D01*
X014937Y011444D02*
X014444Y011444D01*
X014433Y011472D02*
X014358Y011547D01*
X014259Y011588D01*
X014152Y011588D01*
X014053Y011547D01*
X013977Y011472D01*
X013936Y011373D01*
X013936Y011266D01*
X013977Y011167D01*
X014053Y011091D01*
X014152Y011050D01*
X014259Y011050D01*
X014358Y011091D01*
X014433Y011167D01*
X014474Y011266D01*
X014474Y011373D01*
X014433Y011472D01*
X014362Y011543D02*
X014782Y011543D01*
X014731Y011641D02*
X014073Y011641D01*
X014080Y011659D02*
X014080Y011766D01*
X014040Y011865D01*
X013995Y011910D01*
X014040Y011954D01*
X014080Y012053D01*
X014080Y012160D01*
X014040Y012259D01*
X013995Y012303D01*
X014008Y012317D01*
X014053Y012272D01*
X014152Y012231D01*
X014259Y012231D01*
X014358Y012272D01*
X014433Y012348D01*
X014474Y012447D01*
X014474Y012554D01*
X014433Y012653D01*
X014358Y012728D01*
X014259Y012769D01*
X014152Y012769D01*
X014053Y012728D01*
X014008Y012684D01*
X013995Y012697D01*
X014040Y012742D01*
X014080Y012840D01*
X014080Y012947D01*
X014040Y013046D01*
X013995Y013091D01*
X014008Y013104D01*
X014053Y013060D01*
X014152Y013019D01*
X014259Y013019D01*
X014358Y013060D01*
X014402Y013104D01*
X014415Y013091D01*
X014371Y013046D01*
X014330Y012947D01*
X014330Y012840D01*
X014371Y012742D01*
X014446Y012666D01*
X014545Y012625D01*
X014652Y012625D01*
X014751Y012666D01*
X014796Y012710D01*
X014809Y012697D01*
X014764Y012653D01*
X014723Y012554D01*
X014723Y012447D01*
X014764Y012348D01*
X014840Y012272D01*
X014939Y012231D01*
X015046Y012231D01*
X015145Y012272D01*
X015189Y012317D01*
X015234Y012272D01*
X015333Y012231D01*
X015440Y012231D01*
X015539Y012272D01*
X015614Y012348D01*
X015655Y012447D01*
X015655Y012554D01*
X015614Y012653D01*
X015539Y012728D01*
X015440Y012769D01*
X015333Y012769D01*
X015234Y012728D01*
X015189Y012684D01*
X015176Y012697D01*
X015221Y012742D01*
X015262Y012840D01*
X015262Y012947D01*
X015221Y013046D01*
X015145Y013122D01*
X015046Y013163D01*
X014939Y013163D01*
X014840Y013122D01*
X014796Y013078D01*
X014782Y013091D01*
X014827Y013135D01*
X014868Y013234D01*
X014868Y013341D01*
X014827Y013440D01*
X014751Y013516D01*
X014652Y013557D01*
X014545Y013557D01*
X014446Y013516D01*
X014402Y013471D01*
X014358Y013516D01*
X014259Y013557D01*
X014152Y013557D01*
X014053Y013516D01*
X014008Y013471D01*
X013995Y013484D01*
X014040Y013529D01*
X014080Y013628D01*
X014080Y013735D01*
X014040Y013834D01*
X013964Y013909D01*
X013865Y013950D01*
X013758Y013950D01*
X013659Y013909D01*
X013583Y013834D01*
X013542Y013735D01*
X013542Y013628D01*
X013583Y013529D01*
X013628Y013484D01*
X013583Y013440D01*
X013542Y013341D01*
X013542Y013234D01*
X013583Y013135D01*
X013628Y013091D01*
X013615Y013078D01*
X013570Y013122D01*
X013471Y013163D01*
X013364Y013163D01*
X013265Y013122D01*
X013190Y013046D01*
X013149Y012947D01*
X013149Y012840D01*
X013190Y012742D01*
X013265Y012666D01*
X013364Y012625D01*
X013471Y012625D01*
X013570Y012666D01*
X013615Y012710D01*
X013628Y012697D01*
X013583Y012653D01*
X013542Y012554D01*
X013542Y012447D01*
X013583Y012348D01*
X013628Y012303D01*
X013583Y012259D01*
X013542Y012160D01*
X013542Y012053D01*
X013583Y011954D01*
X013628Y011910D01*
X013615Y011896D01*
X013570Y011941D01*
X013471Y011982D01*
X013364Y011982D01*
X013265Y011941D01*
X013190Y011865D01*
X013149Y011766D01*
X013149Y011659D01*
X013190Y011560D01*
X013265Y011485D01*
X013364Y011444D01*
X013471Y011444D01*
X013570Y011485D01*
X013615Y011529D01*
X013659Y011485D01*
X013758Y011444D01*
X013865Y011444D01*
X013964Y011485D01*
X014040Y011560D01*
X014080Y011659D01*
X014080Y011740D02*
X014723Y011740D01*
X014753Y011838D02*
X014051Y011838D01*
X014022Y011937D02*
X014836Y011937D01*
X014936Y012232D02*
X014262Y012232D01*
X014149Y012232D02*
X014050Y012232D01*
X014080Y012134D02*
X015905Y012134D01*
X015905Y012160D02*
X015905Y012053D01*
X015946Y011954D01*
X016021Y011878D01*
X016120Y011837D01*
X016227Y011837D01*
X016326Y011878D01*
X016402Y011954D01*
X016443Y012053D01*
X016443Y012160D01*
X016402Y012259D01*
X016326Y012335D01*
X016227Y012376D01*
X016120Y012376D01*
X016021Y012335D01*
X015946Y012259D01*
X015905Y012160D01*
X015935Y012232D02*
X015443Y012232D01*
X015330Y012232D02*
X015049Y012232D01*
X014781Y012331D02*
X014416Y012331D01*
X014467Y012429D02*
X014731Y012429D01*
X014723Y012528D02*
X014474Y012528D01*
X014444Y012626D02*
X014542Y012626D01*
X014656Y012626D02*
X014754Y012626D01*
X014387Y012725D02*
X014361Y012725D01*
X014337Y012823D02*
X014073Y012823D01*
X014080Y012922D02*
X014330Y012922D01*
X014360Y013020D02*
X014263Y013020D01*
X014147Y013020D02*
X014050Y013020D01*
X014049Y012725D02*
X014023Y012725D01*
X013572Y012626D02*
X013475Y012626D01*
X013360Y012626D02*
X013263Y012626D01*
X013252Y012653D02*
X013176Y012728D01*
X013078Y012769D01*
X012970Y012769D01*
X012872Y012728D01*
X012796Y012653D01*
X012755Y012554D01*
X012755Y012447D01*
X012796Y012348D01*
X012872Y012272D01*
X012970Y012231D01*
X013078Y012231D01*
X013176Y012272D01*
X013252Y012348D01*
X013293Y012447D01*
X013293Y012554D01*
X013252Y012653D01*
X013206Y012725D02*
X013180Y012725D01*
X013156Y012823D02*
X004238Y012823D01*
X004238Y012829D02*
X004197Y012928D01*
X004121Y013004D01*
X004022Y013045D01*
X003923Y013045D01*
X003923Y013105D01*
X003882Y013204D01*
X003806Y013280D01*
X003707Y013320D01*
X003600Y013320D01*
X003502Y013280D01*
X003426Y013204D01*
X003385Y013105D01*
X003385Y012998D01*
X003426Y012899D01*
X003502Y012823D01*
X003600Y012782D01*
X003700Y012782D01*
X003700Y012722D01*
X003741Y012623D01*
X003816Y012548D01*
X003915Y012507D01*
X004015Y012507D01*
X004015Y012447D01*
X004056Y012348D01*
X004131Y012272D01*
X004230Y012231D01*
X004330Y012231D01*
X004330Y012210D01*
X004371Y012112D01*
X004446Y012036D01*
X004545Y011995D01*
X004652Y011995D01*
X004659Y011998D01*
X004645Y011963D01*
X004645Y011856D01*
X004686Y011757D01*
X004761Y011682D01*
X004860Y011641D01*
X004960Y011641D01*
X004960Y011541D01*
X005001Y011442D01*
X005076Y011367D01*
X005175Y011326D01*
X005282Y011326D01*
X005381Y011367D01*
X005457Y011442D01*
X005498Y011541D01*
X005498Y011648D01*
X005457Y011747D01*
X005381Y011823D01*
X005282Y011864D01*
X005183Y011864D01*
X005183Y011963D01*
X005142Y012062D01*
X005066Y012138D01*
X004967Y012179D01*
X004860Y012179D01*
X004854Y012176D01*
X004868Y012210D01*
X004868Y012318D01*
X004827Y012416D01*
X004751Y012492D01*
X004652Y012533D01*
X004553Y012533D01*
X004553Y012554D01*
X004512Y012653D01*
X004436Y012728D01*
X004337Y012769D01*
X004238Y012769D01*
X004238Y012829D01*
X004200Y012922D02*
X013149Y012922D01*
X013179Y013020D02*
X013082Y013020D01*
X013078Y013019D02*
X013176Y013060D01*
X013252Y013135D01*
X013293Y013234D01*
X013293Y013341D01*
X013252Y013440D01*
X013208Y013484D01*
X013252Y013529D01*
X013293Y013628D01*
X013293Y013735D01*
X013252Y013834D01*
X013208Y013878D01*
X013252Y013923D01*
X013293Y014022D01*
X013293Y014129D01*
X013252Y014227D01*
X013176Y014303D01*
X013078Y014344D01*
X012970Y014344D01*
X012872Y014303D01*
X012796Y014227D01*
X012755Y014129D01*
X012755Y014022D01*
X012796Y013923D01*
X012840Y013878D01*
X012796Y013834D01*
X012755Y013735D01*
X012755Y013628D01*
X012796Y013529D01*
X012840Y013484D01*
X012796Y013440D01*
X012755Y013341D01*
X012755Y013234D01*
X012796Y013135D01*
X012872Y013060D01*
X012970Y013019D01*
X013078Y013019D01*
X012966Y013020D02*
X004081Y013020D01*
X003917Y013119D02*
X004808Y013119D01*
X004761Y013138D02*
X004860Y013097D01*
X004967Y013097D01*
X005066Y013138D01*
X005142Y013214D01*
X005183Y013313D01*
X005183Y013334D01*
X005282Y013334D01*
X005381Y013375D01*
X005457Y013450D01*
X005498Y013549D01*
X005498Y013656D01*
X005457Y013755D01*
X005381Y013831D01*
X005282Y013872D01*
X005175Y013872D01*
X005076Y013831D01*
X005001Y013755D01*
X004960Y013656D01*
X004960Y013635D01*
X004860Y013635D01*
X004761Y013594D01*
X004686Y013519D01*
X004645Y013420D01*
X004645Y013313D01*
X004686Y013214D01*
X004761Y013138D01*
X004684Y013217D02*
X003868Y013217D01*
X003718Y013316D02*
X004645Y013316D01*
X004645Y013414D02*
X000300Y013414D01*
X000300Y013316D02*
X003590Y013316D01*
X003439Y013217D02*
X000300Y013217D01*
X000300Y013119D02*
X003391Y013119D01*
X003385Y013020D02*
X000300Y013020D01*
X000300Y012922D02*
X003416Y012922D01*
X003501Y012823D02*
X000300Y012823D01*
X000300Y012725D02*
X003700Y012725D01*
X003740Y012626D02*
X000300Y012626D01*
X000300Y012528D02*
X003864Y012528D01*
X004022Y012429D02*
X000300Y012429D01*
X000300Y012331D02*
X004073Y012331D01*
X004227Y012232D02*
X000300Y012232D01*
X000300Y012134D02*
X004361Y012134D01*
X004448Y012035D02*
X000300Y012035D01*
X000300Y011937D02*
X004645Y011937D01*
X004652Y011838D02*
X000300Y011838D01*
X000300Y011740D02*
X004703Y011740D01*
X004858Y011641D02*
X000300Y011641D01*
X000300Y011543D02*
X004960Y011543D01*
X005000Y011444D02*
X000300Y011444D01*
X000300Y011346D02*
X005126Y011346D01*
X005331Y011346D02*
X012755Y011346D01*
X012755Y011373D02*
X012755Y011266D01*
X012796Y011167D01*
X012872Y011091D01*
X012970Y011050D01*
X013078Y011050D01*
X013176Y011091D01*
X013252Y011167D01*
X013293Y011266D01*
X013293Y011373D01*
X013252Y011472D01*
X013176Y011547D01*
X013078Y011588D01*
X012970Y011588D01*
X012872Y011547D01*
X012796Y011472D01*
X012755Y011373D01*
X012785Y011444D02*
X005458Y011444D01*
X005498Y011543D02*
X012867Y011543D01*
X013156Y011641D02*
X005498Y011641D01*
X005460Y011740D02*
X013149Y011740D01*
X013179Y011838D02*
X005343Y011838D01*
X005183Y011937D02*
X013261Y011937D01*
X013550Y012035D02*
X005153Y012035D01*
X005070Y012134D02*
X013542Y012134D01*
X013572Y012232D02*
X013081Y012232D01*
X012967Y012232D02*
X004868Y012232D01*
X004862Y012331D02*
X012813Y012331D01*
X012762Y012429D02*
X004814Y012429D01*
X004665Y012528D02*
X012755Y012528D01*
X012785Y012626D02*
X004523Y012626D01*
X004440Y012725D02*
X012868Y012725D01*
X012812Y013119D02*
X005020Y013119D01*
X005143Y013217D02*
X012762Y013217D01*
X012755Y013316D02*
X005183Y013316D01*
X005421Y013414D02*
X012785Y013414D01*
X012812Y013513D02*
X005483Y013513D01*
X005498Y013611D02*
X007059Y013611D01*
X007065Y013609D02*
X007172Y013609D01*
X007271Y013650D01*
X007347Y013726D01*
X007388Y013825D01*
X007388Y013932D01*
X007347Y014031D01*
X007271Y014106D01*
X007172Y014147D01*
X007065Y014147D01*
X006966Y014106D01*
X006890Y014031D01*
X006849Y013932D01*
X006849Y013825D01*
X006890Y013726D01*
X006966Y013650D01*
X007065Y013609D01*
X007178Y013611D02*
X012762Y013611D01*
X012755Y013710D02*
X007331Y013710D01*
X007381Y013808D02*
X012785Y013808D01*
X012812Y013907D02*
X007388Y013907D01*
X007357Y014005D02*
X012762Y014005D01*
X012755Y014104D02*
X007273Y014104D01*
X006964Y014104D02*
X003315Y014104D01*
X003295Y014083D02*
X003370Y014159D01*
X003411Y014258D01*
X003411Y014278D01*
X003432Y014278D01*
X003531Y014319D01*
X003606Y014395D01*
X003647Y014494D01*
X003647Y014601D01*
X003606Y014700D01*
X003531Y014776D01*
X003432Y014817D01*
X003325Y014817D01*
X003226Y014776D01*
X003150Y014700D01*
X003109Y014601D01*
X003109Y014580D01*
X003089Y014580D01*
X002990Y014539D01*
X002914Y014464D01*
X002873Y014365D01*
X002873Y014344D01*
X002852Y014344D01*
X002753Y014303D01*
X002678Y014227D01*
X002637Y014129D01*
X002637Y014108D01*
X002616Y014108D01*
X002517Y014067D01*
X002442Y013991D01*
X002401Y013892D01*
X002401Y013785D01*
X002442Y013686D01*
X002517Y013611D01*
X002616Y013570D01*
X002723Y013570D01*
X002822Y013611D01*
X002898Y013686D01*
X002939Y013785D01*
X002939Y013806D01*
X002959Y013806D01*
X003058Y013847D01*
X003134Y013923D01*
X003175Y014022D01*
X003175Y014042D01*
X003196Y014042D01*
X003295Y014083D01*
X003168Y014005D02*
X006880Y014005D01*
X006849Y013907D02*
X003118Y013907D01*
X002965Y013808D02*
X005054Y013808D01*
X004982Y013710D02*
X002908Y013710D01*
X002823Y013611D02*
X004802Y013611D01*
X004683Y013513D02*
X000300Y013513D01*
X000300Y013611D02*
X002517Y013611D01*
X002432Y013710D02*
X000300Y013710D01*
X000300Y013808D02*
X002401Y013808D01*
X002407Y013907D02*
X000300Y013907D01*
X000300Y014005D02*
X002456Y014005D01*
X002607Y014104D02*
X000300Y014104D01*
X000300Y014202D02*
X002667Y014202D01*
X002751Y014301D02*
X000300Y014301D01*
X000300Y014399D02*
X002887Y014399D01*
X002948Y014498D02*
X000300Y014498D01*
X000300Y014596D02*
X003109Y014596D01*
X003148Y014695D02*
X000300Y014695D01*
X000300Y014793D02*
X003269Y014793D01*
X003488Y014793D02*
X011768Y014793D01*
X011769Y014792D02*
X011868Y014751D01*
X011975Y014751D01*
X012074Y014792D01*
X012150Y014868D01*
X012191Y014966D01*
X012191Y015073D01*
X012150Y015172D01*
X012074Y015248D01*
X011975Y015289D01*
X011868Y015289D01*
X011769Y015248D01*
X011694Y015172D01*
X011653Y015073D01*
X011653Y014966D01*
X011694Y014868D01*
X011769Y014792D01*
X011683Y014892D02*
X000300Y014892D01*
X000300Y014990D02*
X010206Y014990D01*
X010215Y014987D02*
X010322Y014987D01*
X010421Y015028D01*
X010496Y015104D01*
X010537Y015203D01*
X010537Y015310D01*
X010496Y015409D01*
X010421Y015484D01*
X010322Y015525D01*
X010222Y015525D01*
X010222Y015546D01*
X010181Y015645D01*
X010106Y015720D01*
X010007Y015761D01*
X009907Y015761D01*
X009907Y015782D01*
X009866Y015881D01*
X009791Y015957D01*
X009692Y015998D01*
X009592Y015998D01*
X009592Y016018D01*
X009551Y016117D01*
X009476Y016193D01*
X009377Y016234D01*
X009277Y016234D01*
X009277Y016255D01*
X009236Y016353D01*
X009161Y016429D01*
X009062Y016470D01*
X008962Y016470D01*
X008962Y016491D01*
X008921Y016590D01*
X008846Y016665D01*
X014793Y016665D01*
X014804Y016639D02*
X014879Y016563D01*
X014978Y016523D01*
X015085Y016523D01*
X015184Y016563D01*
X015260Y016639D01*
X015301Y016738D01*
X015301Y016845D01*
X015260Y016944D01*
X015184Y017020D01*
X015085Y017061D01*
X014978Y017061D01*
X014879Y017020D01*
X014804Y016944D01*
X014763Y016845D01*
X014763Y016738D01*
X014804Y016639D01*
X014877Y016566D02*
X008931Y016566D01*
X008846Y016665D02*
X008747Y016706D01*
X008640Y016706D01*
X008541Y016665D01*
X008465Y016590D01*
X008424Y016491D01*
X008424Y016384D01*
X008465Y016285D01*
X008541Y016209D01*
X008640Y016168D01*
X008739Y016168D01*
X008739Y016148D01*
X008780Y016049D01*
X008856Y015973D01*
X008955Y015932D01*
X009054Y015932D01*
X009054Y015911D01*
X009095Y015812D01*
X009171Y015737D01*
X009270Y015696D01*
X009369Y015696D01*
X009369Y015675D01*
X009410Y015576D01*
X009486Y015500D01*
X009585Y015460D01*
X009684Y015460D01*
X009684Y015439D01*
X009725Y015340D01*
X009801Y015264D01*
X009900Y015223D01*
X009999Y015223D01*
X009999Y015203D01*
X010040Y015104D01*
X010116Y015028D01*
X010215Y014987D01*
X010330Y014990D02*
X011653Y014990D01*
X011659Y015089D02*
X010481Y015089D01*
X010531Y015187D02*
X011709Y015187D01*
X011861Y015286D02*
X010537Y015286D01*
X010506Y015384D02*
X019133Y015384D01*
X019133Y015388D02*
X019133Y015289D01*
X019073Y015289D01*
X018974Y015248D01*
X018898Y015172D01*
X018857Y015073D01*
X018857Y014966D01*
X018898Y014868D01*
X018974Y014792D01*
X019073Y014751D01*
X019180Y014751D01*
X019279Y014792D01*
X019354Y014868D01*
X019395Y014966D01*
X019395Y015066D01*
X019455Y015066D01*
X019554Y015107D01*
X019630Y015182D01*
X019671Y015281D01*
X019671Y015388D01*
X019630Y015487D01*
X019554Y015563D01*
X019455Y015604D01*
X019348Y015604D01*
X019250Y015563D01*
X019174Y015487D01*
X019133Y015388D01*
X019172Y015483D02*
X010422Y015483D01*
X010207Y015581D02*
X019294Y015581D01*
X019510Y015581D02*
X026417Y015581D01*
X026418Y015580D02*
X026545Y015453D01*
X026710Y015385D01*
X026889Y015385D01*
X027055Y015453D01*
X027181Y015580D01*
X027250Y015745D01*
X027250Y015924D01*
X027181Y016090D01*
X027055Y016216D01*
X026889Y016285D01*
X026710Y016285D01*
X026545Y016216D01*
X026418Y016090D01*
X026350Y015924D01*
X026350Y015745D01*
X026418Y015580D01*
X026377Y015680D02*
X010146Y015680D01*
X009907Y015778D02*
X026350Y015778D01*
X026350Y015877D02*
X009868Y015877D01*
X009745Y015975D02*
X026371Y015975D01*
X026412Y016074D02*
X009569Y016074D01*
X009496Y016172D02*
X026501Y016172D01*
X026676Y016271D02*
X009271Y016271D01*
X009220Y016369D02*
X039370Y016369D01*
X039370Y016271D02*
X030896Y016271D01*
X030882Y016285D02*
X030778Y016329D01*
X030664Y016329D01*
X030559Y016285D01*
X030479Y016205D01*
X030436Y016100D01*
X030436Y015987D01*
X030479Y015882D01*
X030559Y015802D01*
X030664Y015759D01*
X030778Y015759D01*
X030882Y015802D01*
X030962Y015882D01*
X031006Y015987D01*
X031006Y016100D01*
X030962Y016205D01*
X030882Y016285D01*
X030976Y016172D02*
X039370Y016172D01*
X039370Y016074D02*
X031006Y016074D01*
X031001Y015975D02*
X039370Y015975D01*
X039370Y015877D02*
X030957Y015877D01*
X030826Y015778D02*
X039370Y015778D01*
X039370Y015680D02*
X030223Y015680D01*
X030250Y015745D02*
X030181Y015580D01*
X030055Y015453D01*
X029889Y015385D01*
X029710Y015385D01*
X029545Y015453D01*
X029418Y015580D01*
X029350Y015745D01*
X029350Y015924D01*
X029418Y016090D01*
X029545Y016216D01*
X029710Y016285D01*
X029889Y016285D01*
X030055Y016216D01*
X030181Y016090D01*
X030250Y015924D01*
X030250Y015745D01*
X030250Y015778D02*
X030616Y015778D01*
X030484Y015877D02*
X030250Y015877D01*
X030228Y015975D02*
X030441Y015975D01*
X030436Y016074D02*
X030188Y016074D01*
X030098Y016172D02*
X030466Y016172D01*
X030545Y016271D02*
X029923Y016271D01*
X029676Y016271D02*
X028923Y016271D01*
X028889Y016285D02*
X028710Y016285D01*
X028545Y016216D01*
X028418Y016090D01*
X028350Y015924D01*
X028350Y015745D01*
X028418Y015580D01*
X028545Y015453D01*
X028710Y015385D01*
X028889Y015385D01*
X029055Y015453D01*
X029181Y015580D01*
X029250Y015745D01*
X029250Y015924D01*
X029181Y016090D01*
X029055Y016216D01*
X028889Y016285D01*
X028676Y016271D02*
X027923Y016271D01*
X027889Y016285D02*
X027710Y016285D01*
X027545Y016216D01*
X027418Y016090D01*
X027350Y015924D01*
X027350Y015745D01*
X027418Y015580D01*
X027545Y015453D01*
X027710Y015385D01*
X027889Y015385D01*
X028055Y015453D01*
X028181Y015580D01*
X028250Y015745D01*
X028250Y015924D01*
X028181Y016090D01*
X028055Y016216D01*
X027889Y016285D01*
X027676Y016271D02*
X026923Y016271D01*
X027098Y016172D02*
X027501Y016172D01*
X027412Y016074D02*
X027188Y016074D01*
X027228Y015975D02*
X027371Y015975D01*
X027350Y015877D02*
X027250Y015877D01*
X027250Y015778D02*
X027350Y015778D01*
X027377Y015680D02*
X027223Y015680D01*
X027182Y015581D02*
X027417Y015581D01*
X027515Y015483D02*
X027084Y015483D01*
X026972Y015252D02*
X026905Y015274D01*
X026850Y015283D01*
X026850Y014885D01*
X027247Y014885D01*
X027239Y014940D01*
X027217Y015008D01*
X027184Y015071D01*
X027143Y015128D01*
X027093Y015178D01*
X027035Y015220D01*
X026972Y015252D01*
X027080Y015187D02*
X027516Y015187D01*
X027545Y015216D02*
X027418Y015090D01*
X027350Y014924D01*
X027350Y014745D01*
X027418Y014580D01*
X027545Y014453D01*
X027710Y014385D01*
X027889Y014385D01*
X028055Y014453D01*
X028181Y014580D01*
X028250Y014745D01*
X028250Y014924D01*
X028181Y015090D01*
X028055Y015216D01*
X027889Y015285D01*
X027710Y015285D01*
X027545Y015216D01*
X027418Y015089D02*
X027171Y015089D01*
X027222Y014990D02*
X027377Y014990D01*
X027350Y014892D02*
X027246Y014892D01*
X027247Y014785D02*
X026850Y014785D01*
X026850Y014885D01*
X026750Y014885D01*
X026750Y015283D01*
X026694Y015274D01*
X026627Y015252D01*
X026564Y015220D01*
X026506Y015178D01*
X026456Y015128D01*
X026415Y015071D01*
X026383Y015008D01*
X026361Y014940D01*
X026352Y014885D01*
X026750Y014885D01*
X026750Y014785D01*
X026850Y014785D01*
X026850Y014387D01*
X026905Y014396D01*
X026972Y014418D01*
X027035Y014450D01*
X027093Y014492D01*
X027143Y014542D01*
X027184Y014599D01*
X027217Y014662D01*
X027239Y014730D01*
X027247Y014785D01*
X027227Y014695D02*
X027370Y014695D01*
X027350Y014793D02*
X026850Y014793D01*
X026850Y014695D02*
X026750Y014695D01*
X026750Y014785D02*
X026750Y014387D01*
X026694Y014396D01*
X026627Y014418D01*
X026564Y014450D01*
X026506Y014492D01*
X026456Y014542D01*
X026415Y014599D01*
X026383Y014662D01*
X026361Y014730D01*
X026352Y014785D01*
X026750Y014785D01*
X026750Y014793D02*
X025556Y014793D01*
X025531Y014734D02*
X025600Y014899D01*
X025600Y015078D01*
X025531Y015243D01*
X025405Y015370D01*
X025240Y015438D01*
X025060Y015438D01*
X024895Y015370D01*
X024769Y015243D01*
X024700Y015078D01*
X024700Y014899D01*
X024769Y014734D01*
X024895Y014607D01*
X025060Y014538D01*
X025240Y014538D01*
X025405Y014607D01*
X025531Y014734D01*
X025493Y014695D02*
X026372Y014695D01*
X026417Y014596D02*
X025380Y014596D01*
X025597Y014892D02*
X026353Y014892D01*
X026377Y014990D02*
X025600Y014990D01*
X025595Y015089D02*
X026428Y015089D01*
X026519Y015187D02*
X025555Y015187D01*
X025489Y015286D02*
X039370Y015286D01*
X039370Y015384D02*
X025370Y015384D01*
X024930Y015384D02*
X024364Y015384D01*
X024386Y015373D02*
X024323Y015405D01*
X024255Y015427D01*
X024200Y015436D01*
X024200Y015038D01*
X024598Y015038D01*
X024589Y015094D01*
X024567Y015161D01*
X024535Y015224D01*
X024493Y015282D01*
X024443Y015332D01*
X024386Y015373D01*
X024489Y015286D02*
X024811Y015286D01*
X024745Y015187D02*
X024554Y015187D01*
X024590Y015089D02*
X024705Y015089D01*
X024700Y014990D02*
X024200Y014990D01*
X024200Y015038D02*
X024200Y014938D01*
X024200Y014541D01*
X024255Y014550D01*
X024323Y014571D01*
X024386Y014604D01*
X024443Y014645D01*
X024493Y014695D01*
X024807Y014695D01*
X024744Y014793D02*
X024556Y014793D01*
X024567Y014816D02*
X024589Y014883D01*
X024598Y014938D01*
X024200Y014938D01*
X024100Y014938D01*
X024100Y014541D01*
X024045Y014550D01*
X023977Y014571D01*
X023914Y014604D01*
X023857Y014645D01*
X023807Y014695D01*
X023493Y014695D01*
X023531Y014734D02*
X023600Y014899D01*
X023600Y015078D01*
X023531Y015243D01*
X023405Y015370D01*
X023240Y015438D01*
X023060Y015438D01*
X022895Y015370D01*
X022769Y015243D01*
X022700Y015078D01*
X022700Y014899D01*
X022769Y014734D01*
X022895Y014607D01*
X023060Y014538D01*
X023240Y014538D01*
X023405Y014607D01*
X023531Y014734D01*
X023556Y014793D02*
X023744Y014793D01*
X023733Y014816D02*
X023765Y014753D01*
X023807Y014695D01*
X023733Y014816D02*
X023711Y014883D01*
X023702Y014938D01*
X024100Y014938D01*
X024100Y015038D01*
X023702Y015038D01*
X023711Y015094D01*
X023733Y015161D01*
X023765Y015224D01*
X023807Y015282D01*
X023857Y015332D01*
X023914Y015373D01*
X023977Y015405D01*
X024045Y015427D01*
X024100Y015436D01*
X024100Y015038D01*
X024200Y015038D01*
X024200Y015089D02*
X024100Y015089D01*
X024100Y015187D02*
X024200Y015187D01*
X024200Y015286D02*
X024100Y015286D01*
X024100Y015384D02*
X024200Y015384D01*
X023936Y015384D02*
X023370Y015384D01*
X023489Y015286D02*
X023811Y015286D01*
X023746Y015187D02*
X023555Y015187D01*
X023595Y015089D02*
X023710Y015089D01*
X023600Y014990D02*
X024100Y014990D01*
X024100Y014892D02*
X024200Y014892D01*
X024200Y014793D02*
X024100Y014793D01*
X024100Y014695D02*
X024200Y014695D01*
X024200Y014596D02*
X024100Y014596D01*
X023928Y014596D02*
X023380Y014596D01*
X023597Y014892D02*
X023710Y014892D01*
X024372Y014596D02*
X024920Y014596D01*
X024703Y014892D02*
X024590Y014892D01*
X024567Y014816D02*
X024535Y014753D01*
X024493Y014695D01*
X022920Y014596D02*
X022380Y014596D01*
X022405Y014607D02*
X022531Y014734D01*
X022600Y014899D01*
X022600Y015078D01*
X022531Y015243D01*
X022405Y015370D01*
X022240Y015438D01*
X022060Y015438D01*
X021895Y015370D01*
X021769Y015243D01*
X021700Y015078D01*
X021700Y014899D01*
X021769Y014734D01*
X021895Y014607D01*
X022060Y014538D01*
X022240Y014538D01*
X022405Y014607D01*
X022493Y014695D02*
X022807Y014695D01*
X022744Y014793D02*
X022556Y014793D01*
X022597Y014892D02*
X022703Y014892D01*
X022700Y014990D02*
X022600Y014990D01*
X022595Y015089D02*
X022705Y015089D01*
X022745Y015187D02*
X022555Y015187D01*
X022489Y015286D02*
X022811Y015286D01*
X022930Y015384D02*
X022370Y015384D01*
X021930Y015384D02*
X021370Y015384D01*
X021405Y015370D02*
X021240Y015438D01*
X021060Y015438D01*
X020895Y015370D01*
X020769Y015243D01*
X020700Y015078D01*
X020700Y014899D01*
X020769Y014734D01*
X020895Y014607D01*
X021060Y014538D01*
X021240Y014538D01*
X021405Y014607D01*
X021531Y014734D01*
X021600Y014899D01*
X021600Y015078D01*
X021531Y015243D01*
X021405Y015370D01*
X021489Y015286D02*
X021811Y015286D01*
X021745Y015187D02*
X021555Y015187D01*
X021595Y015089D02*
X021705Y015089D01*
X021700Y014990D02*
X021600Y014990D01*
X021597Y014892D02*
X021703Y014892D01*
X021744Y014793D02*
X021556Y014793D01*
X021493Y014695D02*
X021807Y014695D01*
X021920Y014596D02*
X021380Y014596D01*
X020920Y014596D02*
X020380Y014596D01*
X020405Y014607D02*
X020531Y014734D01*
X020600Y014899D01*
X020600Y015078D01*
X020531Y015243D01*
X020405Y015370D01*
X020240Y015438D01*
X020060Y015438D01*
X019895Y015370D01*
X019769Y015243D01*
X019700Y015078D01*
X019700Y014899D01*
X019769Y014734D01*
X019781Y014721D01*
X019722Y014697D01*
X019646Y014621D01*
X019605Y014522D01*
X019605Y014415D01*
X019646Y014316D01*
X019722Y014241D01*
X019821Y014200D01*
X019928Y014200D01*
X020027Y014241D01*
X020103Y014316D01*
X020143Y014415D01*
X020143Y014522D01*
X020137Y014538D01*
X020240Y014538D01*
X020405Y014607D01*
X020493Y014695D02*
X020807Y014695D01*
X020744Y014793D02*
X020556Y014793D01*
X020597Y014892D02*
X020703Y014892D01*
X020700Y014990D02*
X020600Y014990D01*
X020595Y015089D02*
X020705Y015089D01*
X020745Y015187D02*
X020555Y015187D01*
X020489Y015286D02*
X020811Y015286D01*
X020930Y015384D02*
X020370Y015384D01*
X019930Y015384D02*
X019671Y015384D01*
X019671Y015286D02*
X019811Y015286D01*
X019745Y015187D02*
X019632Y015187D01*
X019705Y015089D02*
X019511Y015089D01*
X019395Y014990D02*
X019700Y014990D01*
X019703Y014892D02*
X019365Y014892D01*
X019280Y014793D02*
X019744Y014793D01*
X019720Y014695D02*
X003608Y014695D01*
X003647Y014596D02*
X019636Y014596D01*
X019605Y014498D02*
X003647Y014498D01*
X003608Y014399D02*
X019612Y014399D01*
X019662Y014301D02*
X017903Y014301D01*
X017901Y014303D02*
X017802Y014344D01*
X017695Y014344D01*
X017596Y014303D01*
X017552Y014259D01*
X017507Y014303D01*
X017408Y014344D01*
X017301Y014344D01*
X017202Y014303D01*
X017127Y014227D01*
X017086Y014129D01*
X017086Y014022D01*
X017127Y013923D01*
X017202Y013847D01*
X017301Y013806D01*
X017408Y013806D01*
X017507Y013847D01*
X017552Y013891D01*
X017596Y013847D01*
X017695Y013806D01*
X017802Y013806D01*
X017901Y013847D01*
X017977Y013923D01*
X018017Y014022D01*
X018017Y014129D01*
X017977Y014227D01*
X017901Y014303D01*
X017987Y014202D02*
X019814Y014202D01*
X019935Y014202D02*
X033272Y014202D01*
X033271Y014205D02*
X033314Y014101D01*
X033394Y014020D01*
X033499Y013977D01*
X033612Y013977D01*
X033717Y014020D01*
X033797Y014101D01*
X033841Y014205D01*
X033841Y014319D01*
X033797Y014423D01*
X033717Y014504D01*
X033612Y014547D01*
X033499Y014547D01*
X033394Y014504D01*
X033314Y014423D01*
X033271Y014319D01*
X033271Y014205D01*
X033271Y014301D02*
X020087Y014301D01*
X020137Y014399D02*
X026683Y014399D01*
X026750Y014399D02*
X026850Y014399D01*
X026916Y014399D02*
X027675Y014399D01*
X027500Y014498D02*
X027099Y014498D01*
X027183Y014596D02*
X027411Y014596D01*
X026850Y014596D02*
X026750Y014596D01*
X026750Y014498D02*
X026850Y014498D01*
X026500Y014498D02*
X020143Y014498D01*
X019632Y015483D02*
X026515Y015483D01*
X026750Y015187D02*
X026850Y015187D01*
X026850Y015089D02*
X026750Y015089D01*
X026750Y014990D02*
X026850Y014990D01*
X026850Y014892D02*
X026750Y014892D01*
X027924Y014399D02*
X028675Y014399D01*
X028710Y014385D02*
X028889Y014385D01*
X029055Y014453D01*
X029181Y014580D01*
X029250Y014745D01*
X029250Y014924D01*
X029181Y015090D01*
X029055Y015216D01*
X028889Y015285D01*
X028710Y015285D01*
X028545Y015216D01*
X028418Y015090D01*
X028350Y014924D01*
X028350Y014745D01*
X028418Y014580D01*
X028545Y014453D01*
X028710Y014385D01*
X028924Y014399D02*
X029675Y014399D01*
X029710Y014385D02*
X029889Y014385D01*
X030055Y014453D01*
X030181Y014580D01*
X030250Y014745D01*
X030250Y014924D01*
X030181Y015090D01*
X030055Y015216D01*
X029889Y015285D01*
X029710Y015285D01*
X029545Y015216D01*
X029418Y015090D01*
X029350Y014924D01*
X029350Y014745D01*
X029418Y014580D01*
X029545Y014453D01*
X029710Y014385D01*
X029924Y014399D02*
X033304Y014399D01*
X033388Y014498D02*
X030099Y014498D01*
X030188Y014596D02*
X035178Y014596D01*
X035184Y014583D02*
X035264Y014503D01*
X035369Y014459D01*
X035482Y014459D01*
X035587Y014503D01*
X035667Y014583D01*
X035711Y014688D01*
X035711Y014801D01*
X035667Y014906D01*
X035587Y014986D01*
X035482Y015029D01*
X035369Y015029D01*
X035264Y014986D01*
X035184Y014906D01*
X035141Y014801D01*
X035141Y014688D01*
X035184Y014583D01*
X035141Y014695D02*
X030229Y014695D01*
X030250Y014793D02*
X035141Y014793D01*
X035178Y014892D02*
X030250Y014892D01*
X030222Y014990D02*
X035275Y014990D01*
X035576Y014990D02*
X039370Y014990D01*
X039370Y014892D02*
X035673Y014892D01*
X035711Y014793D02*
X039370Y014793D01*
X039370Y014695D02*
X035711Y014695D01*
X035673Y014596D02*
X039370Y014596D01*
X039370Y014498D02*
X035576Y014498D01*
X035276Y014498D02*
X033723Y014498D01*
X033807Y014399D02*
X039370Y014399D01*
X039370Y014301D02*
X033841Y014301D01*
X033839Y014202D02*
X039370Y014202D01*
X039370Y014104D02*
X033799Y014104D01*
X033681Y014005D02*
X039370Y014005D01*
X039370Y013907D02*
X038024Y013907D01*
X038018Y013913D02*
X037913Y013956D01*
X037800Y013956D01*
X037695Y013913D01*
X037615Y013833D01*
X037572Y013728D01*
X037572Y013615D01*
X037615Y013510D01*
X037695Y013430D01*
X037800Y013386D01*
X037913Y013386D01*
X038018Y013430D01*
X038098Y013510D01*
X038142Y013615D01*
X038142Y013728D01*
X038098Y013833D01*
X038018Y013913D01*
X038108Y013808D02*
X039370Y013808D01*
X039370Y013710D02*
X038142Y013710D01*
X038140Y013611D02*
X039370Y013611D01*
X039370Y013513D02*
X038100Y013513D01*
X037981Y013414D02*
X039370Y013414D01*
X039370Y013316D02*
X018411Y013316D01*
X018411Y013341D02*
X018370Y013440D01*
X018295Y013516D01*
X018196Y013557D01*
X018089Y013557D01*
X017990Y013516D01*
X017945Y013471D01*
X017901Y013516D01*
X017802Y013557D01*
X017695Y013557D01*
X017596Y013516D01*
X017552Y013471D01*
X017507Y013516D01*
X017408Y013557D01*
X017301Y013557D01*
X017202Y013516D01*
X017158Y013471D01*
X017113Y013516D01*
X017015Y013557D01*
X016908Y013557D01*
X016809Y013516D01*
X016733Y013440D01*
X016692Y013341D01*
X016692Y013234D01*
X016733Y013135D01*
X016809Y013060D01*
X016908Y013019D01*
X017015Y013019D01*
X017113Y013060D01*
X017158Y013104D01*
X017202Y013060D01*
X017301Y013019D01*
X017408Y013019D01*
X017507Y013060D01*
X017552Y013104D01*
X017596Y013060D01*
X017695Y013019D01*
X017802Y013019D01*
X017901Y013060D01*
X017945Y013104D01*
X017990Y013060D01*
X018089Y013019D01*
X018196Y013019D01*
X018295Y013060D01*
X018370Y013135D01*
X018411Y013234D01*
X018411Y013341D01*
X018381Y013414D02*
X031195Y013414D01*
X031229Y013381D02*
X031333Y013337D01*
X031447Y013337D01*
X031552Y013381D01*
X031632Y013461D01*
X031675Y013566D01*
X031675Y013679D01*
X031632Y013784D01*
X031552Y013864D01*
X031447Y013907D01*
X031333Y013907D01*
X017961Y013907D01*
X018011Y014005D02*
X033430Y014005D01*
X033313Y014104D02*
X018017Y014104D01*
X017808Y013808D02*
X031173Y013808D01*
X031149Y013784D02*
X031105Y013679D01*
X031105Y013566D01*
X031149Y013461D01*
X031229Y013381D01*
X031127Y013513D02*
X018297Y013513D01*
X017987Y013513D02*
X017904Y013513D01*
X017593Y013513D02*
X017510Y013513D01*
X017200Y013513D02*
X017116Y013513D01*
X016806Y013513D02*
X016329Y013513D01*
X016326Y013516D02*
X016227Y013557D01*
X016120Y013557D01*
X016021Y013516D01*
X015977Y013471D01*
X015964Y013484D01*
X016008Y013529D01*
X016049Y013628D01*
X016049Y013735D01*
X016008Y013834D01*
X015932Y013909D01*
X015833Y013950D01*
X015726Y013950D01*
X015628Y013909D01*
X015552Y013834D01*
X015511Y013735D01*
X015511Y013628D01*
X015552Y013529D01*
X015596Y013484D01*
X015583Y013471D01*
X015539Y013516D01*
X015440Y013557D01*
X015333Y013557D01*
X015234Y013516D01*
X015158Y013440D01*
X015117Y013341D01*
X015117Y013234D01*
X015158Y013135D01*
X015234Y013060D01*
X015333Y013019D01*
X015440Y013019D01*
X015539Y013060D01*
X015583Y013104D01*
X015596Y013091D01*
X015552Y013046D01*
X015511Y012947D01*
X015511Y012840D01*
X015552Y012742D01*
X015628Y012666D01*
X015726Y012625D01*
X015833Y012625D01*
X015932Y012666D01*
X015977Y012710D01*
X016021Y012666D01*
X016120Y012625D01*
X016227Y012625D01*
X016326Y012666D01*
X016370Y012710D01*
X016415Y012666D01*
X016514Y012625D01*
X016621Y012625D01*
X016720Y012666D01*
X016795Y012742D01*
X016836Y012840D01*
X016836Y012947D01*
X016795Y013046D01*
X016720Y013122D01*
X016621Y013163D01*
X016514Y013163D01*
X016415Y013122D01*
X016370Y013078D01*
X016357Y013091D01*
X016402Y013135D01*
X016443Y013234D01*
X016443Y013341D01*
X016402Y013440D01*
X016326Y013516D01*
X016412Y013414D02*
X016722Y013414D01*
X016692Y013316D02*
X016443Y013316D01*
X016436Y013217D02*
X016699Y013217D01*
X016723Y013119D02*
X016749Y013119D01*
X016806Y013020D02*
X016903Y013020D01*
X017019Y013020D02*
X017297Y013020D01*
X017413Y013020D02*
X017690Y013020D01*
X017806Y013020D02*
X018084Y013020D01*
X018200Y013020D02*
X039370Y013020D01*
X039370Y012922D02*
X016836Y012922D01*
X016829Y012823D02*
X034591Y012823D01*
X034558Y012790D02*
X034517Y012692D01*
X034517Y012585D01*
X034558Y012486D01*
X034633Y012410D01*
X034732Y012369D01*
X034839Y012369D01*
X034938Y012410D01*
X035014Y012486D01*
X035055Y012585D01*
X035055Y012692D01*
X035014Y012790D01*
X034938Y012866D01*
X034839Y012907D01*
X034732Y012907D01*
X034633Y012866D01*
X034558Y012790D01*
X034531Y012725D02*
X017511Y012725D01*
X017594Y012626D02*
X034517Y012626D01*
X034540Y012528D02*
X017624Y012528D01*
X017617Y012429D02*
X034614Y012429D01*
X034958Y012429D02*
X039370Y012429D01*
X039370Y012331D02*
X017566Y012331D01*
X017594Y012232D02*
X039370Y012232D01*
X039370Y012134D02*
X017624Y012134D01*
X017617Y012035D02*
X036398Y012035D01*
X036315Y011937D02*
X017566Y011937D01*
X017592Y011543D02*
X017511Y011543D01*
X017905Y011543D02*
X017985Y011543D01*
X017509Y011050D02*
X017409Y011050D01*
X017300Y011050D02*
X017200Y011050D01*
X017230Y010952D02*
X017479Y010952D01*
X017487Y010853D02*
X017222Y010853D01*
X017197Y010755D02*
X017171Y010755D01*
X017512Y010755D02*
X017538Y010755D01*
X017616Y010459D02*
X028424Y010459D01*
X028367Y010755D02*
X018352Y010755D01*
X017564Y010361D02*
X035060Y010361D01*
X035038Y010262D02*
X016413Y010262D01*
X016402Y010290D02*
X016326Y010366D01*
X016227Y010407D01*
X016120Y010407D01*
X016021Y010366D01*
X015977Y010322D01*
X015932Y010366D01*
X015833Y010407D01*
X015726Y010407D01*
X015628Y010366D01*
X015552Y010290D01*
X015511Y010192D01*
X015511Y010085D01*
X015552Y009986D01*
X015596Y009941D01*
X015583Y009928D01*
X015539Y009972D01*
X015440Y010013D01*
X015333Y010013D01*
X015234Y009972D01*
X015158Y009897D01*
X015117Y009798D01*
X015117Y009691D01*
X015158Y009592D01*
X015234Y009516D01*
X015333Y009475D01*
X015440Y009475D01*
X015539Y009516D01*
X015583Y009561D01*
X015596Y009547D01*
X015552Y009503D01*
X015511Y009404D01*
X015511Y009297D01*
X015552Y009198D01*
X015628Y009123D01*
X015726Y009082D01*
X015833Y009082D01*
X015932Y009123D01*
X016008Y009198D01*
X016049Y009297D01*
X016049Y009404D01*
X016008Y009503D01*
X015964Y009547D01*
X016008Y009592D01*
X016049Y009691D01*
X016049Y009798D01*
X016008Y009897D01*
X015964Y009941D01*
X015977Y009954D01*
X016021Y009910D01*
X016120Y009869D01*
X016227Y009869D01*
X016326Y009910D01*
X016402Y009986D01*
X016443Y010085D01*
X016443Y010192D01*
X016402Y010290D01*
X016331Y010361D02*
X016751Y010361D01*
X016700Y010459D02*
X014466Y010459D01*
X014474Y010478D02*
X014474Y010585D01*
X014433Y010684D01*
X014358Y010760D01*
X014259Y010801D01*
X014152Y010801D01*
X014053Y010760D01*
X014008Y010715D01*
X013995Y010729D01*
X014040Y010773D01*
X014080Y010872D01*
X014080Y010979D01*
X014040Y011078D01*
X013964Y011154D01*
X013865Y011194D01*
X013758Y011194D01*
X013659Y011154D01*
X013615Y011109D01*
X013570Y011154D01*
X013471Y011194D01*
X013364Y011194D01*
X013265Y011154D01*
X013190Y011078D01*
X013149Y010979D01*
X013149Y010872D01*
X013190Y010773D01*
X013234Y010729D01*
X013190Y010684D01*
X013149Y010585D01*
X013149Y010478D01*
X013190Y010379D01*
X013265Y010304D01*
X013364Y010263D01*
X013471Y010263D01*
X013570Y010304D01*
X013615Y010348D01*
X013659Y010304D01*
X013758Y010263D01*
X013865Y010263D01*
X013964Y010304D01*
X014008Y010348D01*
X014053Y010304D01*
X014152Y010263D01*
X014259Y010263D01*
X014358Y010304D01*
X014433Y010379D01*
X014474Y010478D01*
X014474Y010558D02*
X016692Y010558D01*
X016721Y010656D02*
X015834Y010656D01*
X015833Y010656D02*
X015932Y010697D01*
X016008Y010773D01*
X016049Y010872D01*
X016049Y010979D01*
X016008Y011078D01*
X015932Y011154D01*
X015833Y011194D01*
X015726Y011194D01*
X015628Y011154D01*
X015552Y011078D01*
X015511Y010979D01*
X015511Y010872D01*
X015552Y010773D01*
X015628Y010697D01*
X015726Y010656D01*
X015046Y010656D01*
X015145Y010697D01*
X015221Y010773D01*
X015262Y010872D01*
X015262Y010979D01*
X015221Y011078D01*
X015145Y011154D01*
X015046Y011194D01*
X014939Y011194D01*
X014840Y011154D01*
X014764Y011078D01*
X014723Y010979D01*
X014723Y010872D01*
X014764Y010773D01*
X014840Y010697D01*
X014939Y010656D01*
X015046Y010656D01*
X014939Y010656D02*
X014445Y010656D01*
X014362Y010755D02*
X014783Y010755D01*
X014731Y010853D02*
X014073Y010853D01*
X014080Y010952D02*
X014723Y010952D01*
X014753Y011050D02*
X014260Y011050D01*
X014151Y011050D02*
X014051Y011050D01*
X013995Y011149D02*
X013968Y011149D01*
X013944Y011247D02*
X013286Y011247D01*
X013293Y011346D02*
X013936Y011346D01*
X013966Y011444D02*
X013867Y011444D01*
X013756Y011444D02*
X013473Y011444D01*
X013363Y011444D02*
X013263Y011444D01*
X013207Y011543D02*
X013181Y011543D01*
X013234Y011149D02*
X013261Y011149D01*
X013178Y011050D02*
X013078Y011050D01*
X012970Y011050D02*
X007043Y011050D01*
X007032Y011078D02*
X006956Y011154D01*
X006857Y011194D01*
X006750Y011194D01*
X006651Y011154D01*
X006575Y011078D01*
X006534Y010979D01*
X006534Y010872D01*
X006575Y010773D01*
X006651Y010697D01*
X006750Y010656D01*
X006857Y010656D01*
X006956Y010697D01*
X007032Y010773D01*
X007073Y010872D01*
X007073Y010979D01*
X007032Y011078D01*
X006961Y011149D02*
X012814Y011149D01*
X012762Y011247D02*
X000300Y011247D01*
X000300Y011149D02*
X006647Y011149D01*
X006564Y011050D02*
X000300Y011050D01*
X000300Y010952D02*
X006534Y010952D01*
X006542Y010853D02*
X000300Y010853D01*
X000300Y010755D02*
X006594Y010755D01*
X006750Y010656D02*
X000300Y010656D01*
X000300Y010558D02*
X013149Y010558D01*
X013156Y010459D02*
X000300Y010459D01*
X000300Y010361D02*
X013208Y010361D01*
X013178Y010656D02*
X006857Y010656D01*
X007014Y010755D02*
X013208Y010755D01*
X013156Y010853D02*
X007065Y010853D01*
X007073Y010952D02*
X013149Y010952D01*
X013575Y011149D02*
X013654Y011149D01*
X014022Y011543D02*
X014048Y011543D01*
X014474Y011346D02*
X017086Y011346D01*
X017093Y011247D02*
X014467Y011247D01*
X014415Y011149D02*
X014836Y011149D01*
X015150Y011149D02*
X015623Y011149D01*
X015540Y011050D02*
X015232Y011050D01*
X015262Y010952D02*
X015511Y010952D01*
X015519Y010853D02*
X015254Y010853D01*
X015203Y010755D02*
X015570Y010755D01*
X015726Y010656D02*
X015833Y010656D01*
X015990Y010755D02*
X016751Y010755D01*
X016700Y010853D02*
X016041Y010853D01*
X016049Y010952D02*
X016692Y010952D01*
X016722Y011050D02*
X016019Y011050D01*
X015937Y011149D02*
X016804Y011149D01*
X017118Y011149D02*
X017144Y011149D01*
X016750Y011543D02*
X015991Y011543D01*
X016042Y011641D02*
X016699Y011641D01*
X016692Y011740D02*
X016049Y011740D01*
X016019Y011838D02*
X016118Y011838D01*
X016229Y011838D02*
X016722Y011838D01*
X016750Y011937D02*
X016385Y011937D01*
X016435Y012035D02*
X016699Y012035D01*
X016692Y012134D02*
X016443Y012134D01*
X016413Y012232D02*
X016722Y012232D01*
X016750Y012331D02*
X016330Y012331D01*
X016231Y012626D02*
X016510Y012626D01*
X016625Y012626D02*
X016722Y012626D01*
X016692Y012528D02*
X015655Y012528D01*
X015648Y012429D02*
X016699Y012429D01*
X016779Y012725D02*
X016805Y012725D01*
X017117Y012725D02*
X017199Y012725D01*
X016412Y013119D02*
X016385Y013119D01*
X016018Y013513D02*
X015992Y013513D01*
X016042Y013611D02*
X031105Y013611D01*
X031118Y013710D02*
X016049Y013710D01*
X016018Y013808D02*
X017295Y013808D01*
X017414Y013808D02*
X017689Y013808D01*
X017142Y013907D02*
X015935Y013907D01*
X015625Y013907D02*
X013966Y013907D01*
X014050Y013808D02*
X015541Y013808D01*
X015511Y013710D02*
X014080Y013710D01*
X014074Y013611D02*
X015518Y013611D01*
X015541Y013513D02*
X015568Y013513D01*
X015231Y013513D02*
X014754Y013513D01*
X014838Y013414D02*
X015148Y013414D01*
X015117Y013316D02*
X014868Y013316D01*
X014861Y013217D02*
X015124Y013217D01*
X015148Y013119D02*
X015174Y013119D01*
X015231Y013020D02*
X015328Y013020D01*
X015444Y013020D02*
X015541Y013020D01*
X015511Y012922D02*
X015262Y012922D01*
X015255Y012823D02*
X015518Y012823D01*
X015542Y012725D02*
X015568Y012725D01*
X015625Y012626D02*
X015723Y012626D01*
X015837Y012626D02*
X016116Y012626D01*
X016018Y012331D02*
X015597Y012331D01*
X015624Y011937D02*
X015149Y011937D01*
X015232Y011838D02*
X015541Y011838D01*
X015511Y011740D02*
X015262Y011740D01*
X015254Y011641D02*
X015518Y011641D01*
X015569Y011543D02*
X015203Y011543D01*
X015936Y011937D02*
X015963Y011937D01*
X015912Y012035D02*
X014073Y012035D01*
X013601Y011937D02*
X013574Y011937D01*
X013600Y012331D02*
X013235Y012331D01*
X013286Y012429D02*
X013550Y012429D01*
X013542Y012528D02*
X013293Y012528D01*
X013262Y013119D02*
X013236Y013119D01*
X013286Y013217D02*
X013549Y013217D01*
X013542Y013316D02*
X013293Y013316D01*
X013263Y013414D02*
X013573Y013414D01*
X013599Y013513D02*
X013236Y013513D01*
X013286Y013611D02*
X013549Y013611D01*
X013542Y013710D02*
X013293Y013710D01*
X013263Y013808D02*
X013573Y013808D01*
X013657Y013907D02*
X013236Y013907D01*
X013286Y014005D02*
X017092Y014005D01*
X017086Y014104D02*
X013293Y014104D01*
X013262Y014202D02*
X017116Y014202D01*
X017200Y014301D02*
X013179Y014301D01*
X012869Y014301D02*
X003486Y014301D01*
X003388Y014202D02*
X012786Y014202D01*
X012076Y014793D02*
X018972Y014793D01*
X018888Y014892D02*
X012160Y014892D01*
X012191Y014990D02*
X018857Y014990D01*
X018864Y015089D02*
X012184Y015089D01*
X012135Y015187D02*
X018913Y015187D01*
X019066Y015286D02*
X011982Y015286D01*
X010055Y015089D02*
X000300Y015089D01*
X000300Y015187D02*
X010005Y015187D01*
X009779Y015286D02*
X000300Y015286D01*
X000300Y015384D02*
X009707Y015384D01*
X009528Y015483D02*
X000300Y015483D01*
X000300Y015581D02*
X009408Y015581D01*
X009369Y015680D02*
X000300Y015680D01*
X000300Y015778D02*
X009129Y015778D01*
X009068Y015877D02*
X000300Y015877D01*
X000300Y015975D02*
X008853Y015975D01*
X008770Y016074D02*
X000300Y016074D01*
X000300Y016172D02*
X008629Y016172D01*
X008479Y016271D02*
X000300Y016271D01*
X000300Y016369D02*
X008430Y016369D01*
X008424Y016468D02*
X000300Y016468D01*
X000300Y016566D02*
X008456Y016566D01*
X008541Y016665D02*
X000300Y016665D01*
X000300Y016763D02*
X014763Y016763D01*
X014770Y016862D02*
X000300Y016862D01*
X000300Y016960D02*
X014820Y016960D01*
X014974Y017059D02*
X000300Y017059D01*
X000300Y017157D02*
X026878Y017157D01*
X026850Y017090D02*
X026850Y016911D01*
X026918Y016745D01*
X027045Y016619D01*
X027210Y016550D01*
X027389Y016550D01*
X027555Y016619D01*
X027681Y016745D01*
X027750Y016911D01*
X027750Y017090D01*
X027681Y017255D01*
X027555Y017382D01*
X027389Y017450D01*
X027210Y017450D01*
X027045Y017382D01*
X026918Y017255D01*
X026850Y017090D01*
X026850Y017059D02*
X015089Y017059D01*
X015244Y016960D02*
X026850Y016960D01*
X026870Y016862D02*
X015294Y016862D01*
X015301Y016763D02*
X026911Y016763D01*
X026998Y016665D02*
X015271Y016665D01*
X015187Y016566D02*
X027171Y016566D01*
X027428Y016566D02*
X028171Y016566D01*
X028210Y016550D02*
X028045Y016619D01*
X027918Y016745D01*
X027850Y016911D01*
X027850Y017090D01*
X027918Y017255D01*
X028045Y017382D01*
X028210Y017450D01*
X028389Y017450D01*
X028555Y017382D01*
X028681Y017255D01*
X028750Y017090D01*
X028750Y016911D01*
X028681Y016745D01*
X028555Y016619D01*
X028389Y016550D01*
X028210Y016550D01*
X028428Y016566D02*
X029171Y016566D01*
X029210Y016550D02*
X029389Y016550D01*
X029555Y016619D01*
X029681Y016745D01*
X029750Y016911D01*
X029750Y017090D01*
X029681Y017255D01*
X029555Y017382D01*
X029389Y017450D01*
X029210Y017450D01*
X029045Y017382D01*
X028918Y017255D01*
X028850Y017090D01*
X028850Y016911D01*
X028918Y016745D01*
X029045Y016619D01*
X029210Y016550D01*
X029428Y016566D02*
X030171Y016566D01*
X030210Y016550D02*
X030045Y016619D01*
X029918Y016745D01*
X029850Y016911D01*
X029850Y017090D01*
X029918Y017255D01*
X030045Y017382D01*
X030210Y017450D01*
X030389Y017450D01*
X030555Y017382D01*
X030681Y017255D01*
X030750Y017090D01*
X030750Y016911D01*
X030681Y016745D01*
X030555Y016619D01*
X030389Y016550D01*
X030210Y016550D01*
X030428Y016566D02*
X039370Y016566D01*
X039370Y016468D02*
X009067Y016468D01*
X009553Y018490D02*
X009396Y018555D01*
X009276Y018676D01*
X009211Y018833D01*
X009211Y019003D01*
X009276Y019160D01*
X009396Y019280D01*
X009553Y019345D01*
X009723Y019345D01*
X009880Y019280D01*
X010000Y019160D01*
X010065Y019003D01*
X010065Y018833D01*
X010000Y018676D01*
X009880Y018555D01*
X009723Y018490D01*
X009553Y018490D01*
X009442Y018536D02*
X006803Y018536D01*
X006849Y018555D02*
X006969Y018676D01*
X007034Y018833D01*
X007034Y019003D01*
X006969Y019160D01*
X006849Y019280D01*
X006692Y019345D01*
X006522Y019345D01*
X006365Y019280D01*
X006245Y019160D01*
X006180Y019003D01*
X006180Y018833D01*
X006245Y018676D01*
X006365Y018555D01*
X006522Y018490D01*
X006692Y018490D01*
X006849Y018555D01*
X006928Y018635D02*
X009317Y018635D01*
X009252Y018733D02*
X006993Y018733D01*
X007034Y018832D02*
X009211Y018832D01*
X009211Y018930D02*
X007034Y018930D01*
X007023Y019029D02*
X009222Y019029D01*
X009263Y019127D02*
X006982Y019127D01*
X006902Y019226D02*
X009342Y019226D01*
X009504Y019324D02*
X006741Y019324D01*
X006692Y019475D02*
X006849Y019540D01*
X006969Y019660D01*
X007034Y019817D01*
X009219Y019817D01*
X009222Y019802D02*
X009242Y019738D01*
X009273Y019678D01*
X009312Y019624D01*
X009360Y019576D01*
X009414Y019536D01*
X009474Y019506D01*
X009538Y019485D01*
X009600Y019475D01*
X009600Y019863D01*
X009677Y019863D01*
X009677Y019475D01*
X009738Y019485D01*
X009802Y019506D01*
X009862Y019536D01*
X009916Y019576D01*
X009964Y019624D01*
X010004Y019678D01*
X010034Y019738D01*
X010050Y019787D01*
X010103Y019660D01*
X010223Y019540D01*
X010380Y019475D01*
X010550Y019475D01*
X010707Y019540D01*
X010827Y019660D01*
X010892Y019817D01*
X011061Y019817D01*
X011126Y019660D01*
X011247Y019540D01*
X011404Y019475D01*
X011574Y019475D01*
X011731Y019540D01*
X011851Y019660D01*
X011902Y019784D01*
X011953Y019660D01*
X012073Y019540D01*
X012230Y019475D01*
X012400Y019475D01*
X012557Y019540D01*
X012677Y019660D01*
X012743Y019817D01*
X018281Y019817D01*
X018281Y019818D02*
X018281Y019718D01*
X017883Y019718D01*
X017892Y019663D01*
X017914Y019595D01*
X017946Y019532D01*
X017988Y019475D01*
X018038Y019425D01*
X018095Y019383D01*
X018158Y019351D01*
X018226Y019329D01*
X018281Y019320D01*
X018281Y019718D01*
X018381Y019718D01*
X018381Y019320D01*
X018436Y019329D01*
X018504Y019351D01*
X018567Y019383D01*
X018624Y019425D01*
X018674Y019475D01*
X018716Y019532D01*
X018748Y019595D01*
X018770Y019663D01*
X018779Y019718D01*
X018381Y019718D01*
X018381Y019818D01*
X018281Y019818D01*
X017883Y019818D01*
X017892Y019873D01*
X017914Y019941D01*
X017946Y020004D01*
X017988Y020061D01*
X018038Y020111D01*
X018095Y020153D01*
X018158Y020185D01*
X018226Y020207D01*
X018281Y020216D01*
X018281Y019818D01*
X018281Y019915D02*
X018381Y019915D01*
X018381Y019818D02*
X018381Y020216D01*
X018436Y020207D01*
X018504Y020185D01*
X018567Y020153D01*
X018624Y020111D01*
X018674Y020061D01*
X018716Y020004D01*
X018748Y019941D01*
X018770Y019873D01*
X018779Y019818D01*
X018381Y019818D01*
X018381Y019817D02*
X018783Y019817D01*
X018783Y019857D02*
X018783Y019678D01*
X018851Y019513D01*
X018978Y019386D01*
X019143Y019318D01*
X019322Y019318D01*
X019488Y019386D01*
X019614Y019513D01*
X019683Y019678D01*
X019683Y019857D01*
X019614Y020023D01*
X019488Y020149D01*
X019322Y020218D01*
X019143Y020218D01*
X018978Y020149D01*
X018851Y020023D01*
X018783Y019857D01*
X018807Y019915D02*
X018756Y019915D01*
X018709Y020014D02*
X018848Y020014D01*
X018941Y020112D02*
X018622Y020112D01*
X018411Y020211D02*
X019126Y020211D01*
X019339Y020211D02*
X020028Y020211D01*
X020045Y020218D02*
X019879Y020149D01*
X019753Y020023D01*
X019684Y019857D01*
X019684Y019678D01*
X019753Y019513D01*
X019879Y019386D01*
X020045Y019318D01*
X020224Y019318D01*
X020389Y019386D01*
X020516Y019513D01*
X020584Y019678D01*
X020584Y019857D01*
X020516Y020023D01*
X020389Y020149D01*
X020224Y020218D01*
X020045Y020218D01*
X020241Y020211D02*
X020929Y020211D01*
X020946Y020218D02*
X020781Y020149D01*
X020654Y020023D01*
X020586Y019857D01*
X020586Y019678D01*
X020654Y019513D01*
X020781Y019386D01*
X020946Y019318D01*
X021125Y019318D01*
X021291Y019386D01*
X021417Y019513D01*
X021486Y019678D01*
X021486Y019857D01*
X021417Y020023D01*
X021291Y020149D01*
X021125Y020218D01*
X020946Y020218D01*
X021142Y020211D02*
X021831Y020211D01*
X021848Y020218D02*
X021682Y020149D01*
X021556Y020023D01*
X021487Y019857D01*
X021487Y019678D01*
X021556Y019513D01*
X021682Y019386D01*
X021848Y019318D01*
X022027Y019318D01*
X022192Y019386D01*
X022319Y019513D01*
X022387Y019678D01*
X022387Y019857D01*
X022319Y020023D01*
X022192Y020149D01*
X022027Y020218D01*
X021848Y020218D01*
X022044Y020211D02*
X035786Y020211D01*
X035767Y020164D02*
X035767Y020033D01*
X035817Y019913D01*
X035909Y019821D01*
X036030Y019771D01*
X036160Y019771D01*
X036281Y019821D01*
X036373Y019913D01*
X036423Y020033D01*
X036423Y020164D01*
X036373Y020285D01*
X036281Y020377D01*
X036160Y020427D01*
X036030Y020427D01*
X035909Y020377D01*
X035817Y020285D01*
X035767Y020164D01*
X035767Y020112D02*
X022229Y020112D01*
X022323Y020014D02*
X030908Y020014D01*
X030903Y020012D02*
X030827Y019936D01*
X030786Y019837D01*
X030786Y019730D01*
X030827Y019631D01*
X030903Y019556D01*
X031002Y019515D01*
X031109Y019515D01*
X031208Y019556D01*
X031284Y019631D01*
X031325Y019730D01*
X031325Y019837D01*
X031284Y019936D01*
X031208Y020012D01*
X031109Y020053D01*
X031002Y020053D01*
X030903Y020012D01*
X030819Y019915D02*
X022363Y019915D01*
X022387Y019817D02*
X030786Y019817D01*
X030791Y019718D02*
X025272Y019718D01*
X025152Y019768D02*
X024754Y019768D01*
X024387Y019616D01*
X024105Y019334D01*
X023953Y018967D01*
X023953Y018569D01*
X024105Y018201D01*
X024387Y017920D01*
X024754Y017768D01*
X025152Y017768D01*
X025520Y017920D01*
X025801Y018201D01*
X025953Y018569D01*
X025953Y018967D01*
X025801Y019334D01*
X025520Y019616D01*
X025152Y019768D01*
X025509Y019620D02*
X030839Y019620D01*
X030986Y019521D02*
X025614Y019521D01*
X025712Y019423D02*
X039370Y019423D01*
X039370Y019521D02*
X031126Y019521D01*
X031272Y019620D02*
X039370Y019620D01*
X039370Y019718D02*
X031320Y019718D01*
X031325Y019817D02*
X035918Y019817D01*
X035816Y019915D02*
X031292Y019915D01*
X031203Y020014D02*
X035775Y020014D01*
X035842Y020309D02*
X012447Y020309D01*
X012400Y020329D02*
X012230Y020329D01*
X012073Y020264D01*
X011953Y020144D01*
X011902Y020020D01*
X011851Y020144D01*
X011731Y020264D01*
X011574Y020329D01*
X011404Y020329D01*
X011247Y020264D01*
X011126Y020144D01*
X011061Y019987D01*
X011061Y019817D01*
X011061Y019915D02*
X010892Y019915D01*
X010892Y019987D02*
X010827Y020144D01*
X010707Y020264D01*
X010550Y020329D01*
X010380Y020329D01*
X010223Y020264D01*
X010103Y020144D01*
X010050Y020016D01*
X010034Y020066D01*
X010004Y020126D01*
X009964Y020180D01*
X009916Y020228D01*
X009862Y020267D01*
X009802Y020298D01*
X009738Y020318D01*
X009677Y020328D01*
X009677Y019940D01*
X009600Y019940D01*
X009600Y019863D01*
X009212Y019863D01*
X009222Y019802D01*
X009252Y019718D02*
X006993Y019718D01*
X007034Y019817D02*
X007034Y019987D01*
X006969Y020144D01*
X006849Y020264D01*
X006692Y020329D01*
X006522Y020329D01*
X006365Y020264D01*
X006245Y020144D01*
X006193Y020020D01*
X006142Y020144D01*
X006022Y020264D01*
X005865Y020329D01*
X005695Y020329D01*
X005538Y020264D01*
X005418Y020144D01*
X005353Y019987D01*
X005353Y019817D01*
X005183Y019817D01*
X005183Y019987D01*
X005118Y020144D01*
X004998Y020264D01*
X004841Y020329D01*
X004671Y020329D01*
X004514Y020264D01*
X004394Y020144D01*
X004341Y020016D01*
X004325Y020066D01*
X004295Y020126D01*
X004255Y020180D01*
X004208Y020228D01*
X004153Y020267D01*
X004094Y020298D01*
X004030Y020318D01*
X003968Y020328D01*
X003968Y019940D01*
X003891Y019940D01*
X003891Y019863D01*
X003968Y019863D01*
X003968Y019475D01*
X004030Y019485D01*
X004094Y019506D01*
X004153Y019536D01*
X004208Y019576D01*
X004255Y019624D01*
X004295Y019678D01*
X004325Y019738D01*
X004341Y019787D01*
X004394Y019660D01*
X004514Y019540D01*
X004671Y019475D01*
X004841Y019475D01*
X004998Y019540D01*
X005118Y019660D01*
X005183Y019817D01*
X005183Y019915D02*
X005353Y019915D01*
X005353Y019817D02*
X005418Y019660D01*
X005538Y019540D01*
X005695Y019475D01*
X005865Y019475D01*
X006022Y019540D01*
X006142Y019660D01*
X006193Y019784D01*
X006245Y019660D01*
X006365Y019540D01*
X006522Y019475D01*
X006692Y019475D01*
X006805Y019521D02*
X009444Y019521D01*
X009600Y019521D02*
X009677Y019521D01*
X009677Y019620D02*
X009600Y019620D01*
X009600Y019718D02*
X009677Y019718D01*
X009677Y019817D02*
X009600Y019817D01*
X009600Y019915D02*
X007034Y019915D01*
X007023Y020014D02*
X009225Y020014D01*
X009222Y020002D02*
X009212Y019940D01*
X009600Y019940D01*
X009600Y020328D01*
X009538Y020318D01*
X009474Y020298D01*
X009414Y020267D01*
X009360Y020228D01*
X009312Y020180D01*
X009273Y020126D01*
X009242Y020066D01*
X009222Y020002D01*
X009266Y020112D02*
X006982Y020112D01*
X006902Y020211D02*
X009343Y020211D01*
X009511Y020309D02*
X006739Y020309D01*
X006475Y020309D02*
X005912Y020309D01*
X006075Y020211D02*
X006312Y020211D01*
X006232Y020112D02*
X006155Y020112D01*
X006166Y019718D02*
X006220Y019718D01*
X006284Y019620D02*
X006102Y019620D01*
X005978Y019521D02*
X006409Y019521D01*
X006473Y019324D02*
X004063Y019324D01*
X004014Y019345D02*
X003845Y019345D01*
X003688Y019280D01*
X003567Y019160D01*
X003502Y019003D01*
X003502Y018833D01*
X003567Y018676D01*
X003688Y018555D01*
X003845Y018490D01*
X004014Y018490D01*
X004171Y018555D01*
X004292Y018676D01*
X004357Y018833D01*
X004357Y019003D01*
X004292Y019160D01*
X004171Y019280D01*
X004014Y019345D01*
X003891Y019475D02*
X003891Y019863D01*
X003503Y019863D01*
X003513Y019802D01*
X003534Y019738D01*
X003564Y019678D01*
X003604Y019624D01*
X003651Y019576D01*
X003706Y019536D01*
X003766Y019506D01*
X003829Y019485D01*
X003891Y019475D01*
X003891Y019521D02*
X003968Y019521D01*
X003968Y019620D02*
X003891Y019620D01*
X003891Y019718D02*
X003968Y019718D01*
X003968Y019817D02*
X003891Y019817D01*
X003891Y019915D02*
X000300Y019915D01*
X000300Y019817D02*
X003510Y019817D01*
X003544Y019718D02*
X000300Y019718D01*
X000300Y019620D02*
X003607Y019620D01*
X003735Y019521D02*
X000300Y019521D01*
X000300Y019423D02*
X014351Y019423D01*
X014263Y019334D02*
X014544Y019616D01*
X014912Y019768D01*
X015310Y019768D01*
X015677Y019616D01*
X015958Y019334D01*
X016111Y018967D01*
X016111Y018569D01*
X015958Y018201D01*
X015677Y017920D01*
X015310Y017768D01*
X014912Y017768D01*
X014544Y017920D01*
X014263Y018201D01*
X014111Y018569D01*
X014111Y018967D01*
X014263Y019334D01*
X014259Y019324D02*
X012449Y019324D01*
X012400Y019345D02*
X012230Y019345D01*
X012073Y019280D01*
X011953Y019160D01*
X011888Y019003D01*
X011888Y018833D01*
X011953Y018676D01*
X012073Y018555D01*
X012230Y018490D01*
X012400Y018490D01*
X012557Y018555D01*
X012677Y018676D01*
X012743Y018833D01*
X012743Y019003D01*
X012677Y019160D01*
X012557Y019280D01*
X012400Y019345D01*
X012513Y019521D02*
X014450Y019521D01*
X014554Y019620D02*
X012638Y019620D01*
X012702Y019718D02*
X014792Y019718D01*
X015429Y019718D02*
X018281Y019718D01*
X018281Y019620D02*
X018381Y019620D01*
X018381Y019718D02*
X018783Y019718D01*
X018807Y019620D02*
X018756Y019620D01*
X018708Y019521D02*
X018848Y019521D01*
X018941Y019423D02*
X018622Y019423D01*
X018678Y019207D02*
X018611Y019185D01*
X018548Y019153D01*
X018491Y019111D01*
X018441Y019061D01*
X018399Y019004D01*
X018367Y018941D01*
X018345Y018873D01*
X018336Y018818D01*
X018734Y018818D01*
X018734Y019216D01*
X018678Y019207D01*
X018734Y019127D02*
X018834Y019127D01*
X018834Y019216D02*
X018834Y018818D01*
X019232Y018818D01*
X019223Y018873D01*
X019201Y018941D01*
X019169Y019004D01*
X019127Y019061D01*
X019077Y019111D01*
X019020Y019153D01*
X018957Y019185D01*
X018889Y019207D01*
X018834Y019216D01*
X018834Y019029D02*
X018734Y019029D01*
X018734Y018930D02*
X018834Y018930D01*
X018834Y018832D02*
X018734Y018832D01*
X018734Y018818D02*
X018834Y018818D01*
X018834Y018718D01*
X019232Y018718D01*
X019223Y018663D01*
X019201Y018595D01*
X019169Y018532D01*
X019127Y018475D01*
X019077Y018425D01*
X019020Y018383D01*
X018957Y018351D01*
X018889Y018329D01*
X018834Y018320D01*
X018834Y018718D01*
X018734Y018718D01*
X018734Y018320D01*
X018678Y018329D01*
X018611Y018351D01*
X018548Y018383D01*
X018491Y018425D01*
X018441Y018475D01*
X018399Y018532D01*
X018367Y018595D01*
X018345Y018663D01*
X018336Y018718D01*
X018734Y018718D01*
X018734Y018818D01*
X018734Y018733D02*
X017932Y018733D01*
X017932Y018718D02*
X017932Y018818D01*
X017832Y018818D01*
X017832Y018718D01*
X017435Y018718D01*
X017443Y018663D01*
X017465Y018595D01*
X017497Y018532D01*
X017539Y018475D01*
X017589Y018425D01*
X017646Y018383D01*
X017710Y018351D01*
X017777Y018329D01*
X017832Y018320D01*
X017832Y018718D01*
X017932Y018718D01*
X017932Y018320D01*
X017988Y018329D01*
X018055Y018351D01*
X018118Y018383D01*
X018175Y018425D01*
X018226Y018475D01*
X018267Y018532D01*
X018299Y018595D01*
X018321Y018663D01*
X018330Y018718D01*
X017932Y018718D01*
X017932Y018635D02*
X017832Y018635D01*
X017832Y018733D02*
X016111Y018733D01*
X016111Y018635D02*
X017452Y018635D01*
X017495Y018536D02*
X016097Y018536D01*
X016056Y018438D02*
X017576Y018438D01*
X017745Y018339D02*
X016016Y018339D01*
X015975Y018241D02*
X024089Y018241D01*
X024048Y018339D02*
X021626Y018339D01*
X021594Y018329D02*
X021661Y018351D01*
X021724Y018383D01*
X021782Y018425D01*
X021832Y018475D01*
X021873Y018532D01*
X021906Y018595D01*
X021928Y018663D01*
X021936Y018718D01*
X021539Y018718D01*
X021539Y018818D01*
X021936Y018818D01*
X021928Y018873D01*
X021906Y018941D01*
X021873Y019004D01*
X021832Y019061D01*
X021782Y019111D01*
X021724Y019153D01*
X021661Y019185D01*
X021594Y019207D01*
X021539Y019216D01*
X021539Y018818D01*
X021439Y018818D01*
X021439Y019216D01*
X021383Y019207D01*
X021316Y019185D01*
X021253Y019153D01*
X021195Y019111D01*
X021145Y019061D01*
X021104Y019004D01*
X021072Y018941D01*
X021050Y018873D01*
X021041Y018818D01*
X021439Y018818D01*
X021439Y018718D01*
X021539Y018718D01*
X021539Y018320D01*
X021594Y018329D01*
X021539Y018339D02*
X021439Y018339D01*
X021439Y018320D02*
X021439Y018718D01*
X021041Y018718D01*
X021050Y018663D01*
X021072Y018595D01*
X021104Y018532D01*
X021145Y018475D01*
X021195Y018425D01*
X021253Y018383D01*
X021316Y018351D01*
X021383Y018329D01*
X021439Y018320D01*
X021351Y018339D02*
X020728Y018339D01*
X020677Y018318D02*
X020842Y018386D01*
X020968Y018513D01*
X021037Y018678D01*
X021037Y018857D01*
X020968Y019023D01*
X020842Y019149D01*
X020677Y019218D01*
X020497Y019218D01*
X020332Y019149D01*
X020206Y019023D01*
X020137Y018857D01*
X020137Y018678D01*
X020206Y018513D01*
X020332Y018386D01*
X020497Y018318D01*
X020677Y018318D01*
X020781Y018149D02*
X020654Y018023D01*
X020586Y017857D01*
X020586Y017678D01*
X020654Y017513D01*
X020781Y017386D01*
X020946Y017318D01*
X021125Y017318D01*
X021291Y017386D01*
X021417Y017513D01*
X021486Y017678D01*
X021486Y017857D01*
X021417Y018023D01*
X021291Y018149D01*
X021125Y018218D01*
X020946Y018218D01*
X020781Y018149D01*
X020774Y018142D02*
X020396Y018142D01*
X020389Y018149D02*
X020224Y018218D01*
X020045Y018218D01*
X019879Y018149D01*
X019753Y018023D01*
X019684Y017857D01*
X019684Y017678D01*
X019753Y017513D01*
X019879Y017386D01*
X020045Y017318D01*
X020224Y017318D01*
X020389Y017386D01*
X020516Y017513D01*
X020584Y017678D01*
X020584Y017857D01*
X020516Y018023D01*
X020389Y018149D01*
X020495Y018044D02*
X020675Y018044D01*
X020622Y017945D02*
X020548Y017945D01*
X020584Y017847D02*
X020586Y017847D01*
X020584Y017748D02*
X020586Y017748D01*
X020572Y017650D02*
X020598Y017650D01*
X020638Y017551D02*
X020532Y017551D01*
X020456Y017453D02*
X020714Y017453D01*
X020858Y017354D02*
X020312Y017354D01*
X019957Y017354D02*
X019410Y017354D01*
X019488Y017386D02*
X019614Y017513D01*
X019683Y017678D01*
X019683Y017857D01*
X019614Y018023D01*
X019488Y018149D01*
X019322Y018218D01*
X019143Y018218D01*
X018978Y018149D01*
X018851Y018023D01*
X018783Y017857D01*
X018783Y017678D01*
X018851Y017513D01*
X018978Y017386D01*
X019143Y017318D01*
X019322Y017318D01*
X019488Y017386D01*
X019554Y017453D02*
X019813Y017453D01*
X019737Y017551D02*
X019630Y017551D01*
X019671Y017650D02*
X019696Y017650D01*
X019683Y017748D02*
X019684Y017748D01*
X019683Y017847D02*
X019684Y017847D01*
X019721Y017945D02*
X019646Y017945D01*
X019593Y018044D02*
X019774Y018044D01*
X019872Y018142D02*
X019495Y018142D01*
X019548Y018339D02*
X018921Y018339D01*
X018834Y018339D02*
X018734Y018339D01*
X018646Y018339D02*
X018020Y018339D01*
X017932Y018339D02*
X017832Y018339D01*
X017832Y018438D02*
X017932Y018438D01*
X017932Y018536D02*
X017832Y018536D01*
X017832Y018818D02*
X017435Y018818D01*
X017443Y018873D01*
X017465Y018941D01*
X017497Y019004D01*
X017539Y019061D01*
X017589Y019111D01*
X017646Y019153D01*
X017710Y019185D01*
X017777Y019207D01*
X017832Y019216D01*
X017832Y018818D01*
X017832Y018832D02*
X017932Y018832D01*
X017932Y018818D02*
X017932Y019216D01*
X017988Y019207D01*
X018055Y019185D01*
X018118Y019153D01*
X018175Y019111D01*
X018226Y019061D01*
X018267Y019004D01*
X018299Y018941D01*
X018321Y018873D01*
X018330Y018818D01*
X017932Y018818D01*
X017932Y018930D02*
X017832Y018930D01*
X017832Y019029D02*
X017932Y019029D01*
X017932Y019127D02*
X017832Y019127D01*
X017612Y019127D02*
X016044Y019127D01*
X016085Y019029D02*
X017516Y019029D01*
X017462Y018930D02*
X016111Y018930D01*
X016111Y018832D02*
X017437Y018832D01*
X018153Y019127D02*
X018513Y019127D01*
X018417Y019029D02*
X018249Y019029D01*
X018303Y018930D02*
X018364Y018930D01*
X018338Y018832D02*
X018328Y018832D01*
X018312Y018635D02*
X018354Y018635D01*
X018397Y018536D02*
X018269Y018536D01*
X018189Y018438D02*
X018477Y018438D01*
X018421Y018218D02*
X018242Y018218D01*
X018076Y018149D01*
X017950Y018023D01*
X017881Y017857D01*
X017881Y017678D01*
X017950Y017513D01*
X018076Y017386D01*
X018242Y017318D01*
X018421Y017318D01*
X018586Y017386D01*
X018713Y017513D01*
X018781Y017678D01*
X018781Y017857D01*
X018713Y018023D01*
X018586Y018149D01*
X018421Y018218D01*
X018593Y018142D02*
X018971Y018142D01*
X018872Y018044D02*
X018691Y018044D01*
X018745Y017945D02*
X018819Y017945D01*
X018783Y017847D02*
X018781Y017847D01*
X018781Y017748D02*
X018783Y017748D01*
X018769Y017650D02*
X018794Y017650D01*
X018835Y017551D02*
X018729Y017551D01*
X018653Y017453D02*
X018911Y017453D01*
X019055Y017354D02*
X018509Y017354D01*
X018153Y017354D02*
X000300Y017354D01*
X000300Y017256D02*
X026919Y017256D01*
X027017Y017354D02*
X022115Y017354D01*
X022192Y017386D02*
X022319Y017513D01*
X022387Y017678D01*
X022387Y017857D01*
X022319Y018023D01*
X022192Y018149D01*
X022027Y018218D01*
X021848Y018218D01*
X021682Y018149D01*
X021556Y018023D01*
X021487Y017857D01*
X021487Y017678D01*
X021556Y017513D01*
X021682Y017386D01*
X021848Y017318D01*
X022027Y017318D01*
X022192Y017386D01*
X022259Y017453D02*
X033502Y017453D01*
X033465Y017416D02*
X033424Y017318D01*
X033424Y017210D01*
X033465Y017112D01*
X033541Y017036D01*
X033640Y016995D01*
X033747Y016995D01*
X033846Y017036D01*
X033921Y017112D01*
X033962Y017210D01*
X033962Y017318D01*
X033921Y017416D01*
X033846Y017492D01*
X033747Y017533D01*
X033640Y017533D01*
X033541Y017492D01*
X033465Y017416D01*
X033440Y017354D02*
X030582Y017354D01*
X030680Y017256D02*
X033424Y017256D01*
X033446Y017157D02*
X030722Y017157D01*
X030750Y017059D02*
X033518Y017059D01*
X033869Y017059D02*
X039370Y017059D01*
X039370Y017157D02*
X033940Y017157D01*
X033962Y017256D02*
X039370Y017256D01*
X039370Y017354D02*
X033947Y017354D01*
X033885Y017453D02*
X039370Y017453D01*
X039370Y017551D02*
X030392Y017551D01*
X030389Y017550D02*
X030555Y017619D01*
X030681Y017745D01*
X030750Y017911D01*
X030750Y018090D01*
X030681Y018255D01*
X030555Y018382D01*
X030389Y018450D01*
X030210Y018450D01*
X030045Y018382D01*
X029918Y018255D01*
X029850Y018090D01*
X029850Y017911D01*
X029918Y017745D01*
X030045Y017619D01*
X030210Y017550D01*
X030389Y017550D01*
X030207Y017551D02*
X029392Y017551D01*
X029389Y017550D02*
X029555Y017619D01*
X029681Y017745D01*
X029750Y017911D01*
X029750Y018090D01*
X029681Y018255D01*
X029555Y018382D01*
X029389Y018450D01*
X029210Y018450D01*
X029045Y018382D01*
X028918Y018255D01*
X028850Y018090D01*
X028850Y017911D01*
X028918Y017745D01*
X029045Y017619D01*
X029210Y017550D01*
X029389Y017550D01*
X029207Y017551D02*
X028392Y017551D01*
X028389Y017550D02*
X028555Y017619D01*
X028681Y017745D01*
X028750Y017911D01*
X028750Y018090D01*
X028681Y018255D01*
X028555Y018382D01*
X028389Y018450D01*
X028210Y018450D01*
X028045Y018382D01*
X027918Y018255D01*
X027850Y018090D01*
X027850Y017911D01*
X027918Y017745D01*
X028045Y017619D01*
X028210Y017550D01*
X028389Y017550D01*
X028207Y017551D02*
X022335Y017551D01*
X022376Y017650D02*
X027016Y017650D01*
X027006Y017657D02*
X027064Y017615D01*
X027127Y017583D01*
X027194Y017561D01*
X027250Y017553D01*
X027250Y017950D01*
X027350Y017950D01*
X027350Y018050D01*
X027747Y018050D01*
X027739Y018106D01*
X027717Y018173D01*
X027684Y018236D01*
X027643Y018293D01*
X027593Y018343D01*
X027535Y018385D01*
X027472Y018417D01*
X027405Y018439D01*
X027350Y018448D01*
X027350Y018050D01*
X027250Y018050D01*
X027250Y018448D01*
X027194Y018439D01*
X027127Y018417D01*
X027064Y018385D01*
X027006Y018343D01*
X026956Y018293D01*
X026915Y018236D01*
X026883Y018173D01*
X026861Y018106D01*
X026852Y018050D01*
X027250Y018050D01*
X027250Y017950D01*
X026852Y017950D01*
X026861Y017895D01*
X026883Y017827D01*
X026915Y017764D01*
X026956Y017707D01*
X027006Y017657D01*
X026926Y017748D02*
X022387Y017748D01*
X022387Y017847D02*
X024563Y017847D01*
X024361Y017945D02*
X022351Y017945D01*
X022298Y018044D02*
X024263Y018044D01*
X024164Y018142D02*
X022199Y018142D01*
X021795Y018438D02*
X024007Y018438D01*
X023967Y018536D02*
X021876Y018536D01*
X021919Y018635D02*
X023953Y018635D01*
X023953Y018733D02*
X021539Y018733D01*
X021539Y018635D02*
X021439Y018635D01*
X021439Y018733D02*
X021037Y018733D01*
X021037Y018832D02*
X021043Y018832D01*
X021068Y018930D02*
X021007Y018930D01*
X020962Y019029D02*
X021122Y019029D01*
X021218Y019127D02*
X020864Y019127D01*
X020931Y019324D02*
X020239Y019324D01*
X020310Y019127D02*
X019956Y019127D01*
X019979Y019111D02*
X019921Y019153D01*
X019858Y019185D01*
X019791Y019207D01*
X019735Y019216D01*
X019735Y018818D01*
X019635Y018818D01*
X019635Y018718D01*
X019238Y018718D01*
X019247Y018663D01*
X019268Y018595D01*
X019301Y018532D01*
X019342Y018475D01*
X019392Y018425D01*
X019450Y018383D01*
X019513Y018351D01*
X019580Y018329D01*
X019635Y018320D01*
X019635Y018718D01*
X019735Y018718D01*
X019735Y018320D01*
X019791Y018329D01*
X019858Y018351D01*
X019921Y018383D01*
X019979Y018425D01*
X020029Y018475D01*
X020070Y018532D01*
X020102Y018595D01*
X020124Y018663D01*
X020133Y018718D01*
X019735Y018718D01*
X019735Y018818D01*
X020133Y018818D01*
X020124Y018873D01*
X020102Y018941D01*
X020070Y019004D01*
X020029Y019061D01*
X019979Y019111D01*
X020052Y019029D02*
X020212Y019029D01*
X020167Y018930D02*
X020106Y018930D01*
X020131Y018832D02*
X020137Y018832D01*
X020137Y018733D02*
X019735Y018733D01*
X019735Y018635D02*
X019635Y018635D01*
X019635Y018733D02*
X018834Y018733D01*
X018834Y018635D02*
X018734Y018635D01*
X018734Y018536D02*
X018834Y018536D01*
X018834Y018438D02*
X018734Y018438D01*
X019090Y018438D02*
X019379Y018438D01*
X019298Y018536D02*
X019171Y018536D01*
X019214Y018635D02*
X019255Y018635D01*
X019238Y018818D02*
X019635Y018818D01*
X019635Y019216D01*
X019580Y019207D01*
X019513Y019185D01*
X019450Y019153D01*
X019392Y019111D01*
X019342Y019061D01*
X019301Y019004D01*
X019268Y018941D01*
X019247Y018873D01*
X019238Y018818D01*
X019240Y018832D02*
X019229Y018832D01*
X019204Y018930D02*
X019265Y018930D01*
X019319Y019029D02*
X019150Y019029D01*
X019055Y019127D02*
X019415Y019127D01*
X019338Y019324D02*
X020029Y019324D01*
X019843Y019423D02*
X019524Y019423D01*
X019618Y019521D02*
X019749Y019521D01*
X019708Y019620D02*
X019658Y019620D01*
X019683Y019718D02*
X019684Y019718D01*
X019683Y019817D02*
X019684Y019817D01*
X019708Y019915D02*
X019659Y019915D01*
X019618Y020014D02*
X019749Y020014D01*
X019842Y020112D02*
X019525Y020112D01*
X020426Y020112D02*
X020744Y020112D01*
X020651Y020014D02*
X020519Y020014D01*
X020560Y019915D02*
X020610Y019915D01*
X020586Y019817D02*
X020584Y019817D01*
X020584Y019718D02*
X020586Y019718D01*
X020610Y019620D02*
X020560Y019620D01*
X020519Y019521D02*
X020651Y019521D01*
X020744Y019423D02*
X020426Y019423D01*
X021141Y019324D02*
X021832Y019324D01*
X021759Y019127D02*
X024020Y019127D01*
X023979Y019029D02*
X021855Y019029D01*
X021909Y018930D02*
X023953Y018930D01*
X023953Y018832D02*
X021934Y018832D01*
X021539Y018832D02*
X021439Y018832D01*
X021439Y018930D02*
X021539Y018930D01*
X021539Y019029D02*
X021439Y019029D01*
X021439Y019127D02*
X021539Y019127D01*
X022043Y019324D02*
X024101Y019324D01*
X024060Y019226D02*
X016003Y019226D01*
X015963Y019324D02*
X018255Y019324D01*
X018281Y019324D02*
X018381Y019324D01*
X018408Y019324D02*
X019127Y019324D01*
X019635Y019127D02*
X019735Y019127D01*
X019735Y019029D02*
X019635Y019029D01*
X019635Y018930D02*
X019735Y018930D01*
X019735Y018832D02*
X019635Y018832D01*
X019635Y018536D02*
X019735Y018536D01*
X019735Y018438D02*
X019635Y018438D01*
X019635Y018339D02*
X019735Y018339D01*
X019823Y018339D02*
X020446Y018339D01*
X020281Y018438D02*
X019992Y018438D01*
X020073Y018536D02*
X020196Y018536D01*
X020155Y018635D02*
X020115Y018635D01*
X020893Y018438D02*
X021182Y018438D01*
X021101Y018536D02*
X020978Y018536D01*
X021019Y018635D02*
X021059Y018635D01*
X021439Y018536D02*
X021539Y018536D01*
X021539Y018438D02*
X021439Y018438D01*
X021298Y018142D02*
X021676Y018142D01*
X021577Y018044D02*
X021396Y018044D01*
X021449Y017945D02*
X021524Y017945D01*
X021487Y017847D02*
X021486Y017847D01*
X021486Y017748D02*
X021487Y017748D01*
X021474Y017650D02*
X021499Y017650D01*
X021540Y017551D02*
X021433Y017551D01*
X021357Y017453D02*
X021616Y017453D01*
X021760Y017354D02*
X021213Y017354D01*
X021327Y019423D02*
X021646Y019423D01*
X021552Y019521D02*
X021421Y019521D01*
X021462Y019620D02*
X021512Y019620D01*
X021486Y019718D02*
X021487Y019718D01*
X021486Y019817D02*
X021487Y019817D01*
X021511Y019915D02*
X021462Y019915D01*
X021421Y020014D02*
X021552Y020014D01*
X021646Y020112D02*
X021328Y020112D01*
X022229Y019423D02*
X024194Y019423D01*
X024292Y019521D02*
X022322Y019521D01*
X022363Y019620D02*
X024397Y019620D01*
X024635Y019718D02*
X022387Y019718D01*
X025343Y017847D02*
X026876Y017847D01*
X026853Y017945D02*
X025545Y017945D01*
X025643Y018044D02*
X027250Y018044D01*
X027250Y018142D02*
X027350Y018142D01*
X027350Y018044D02*
X027850Y018044D01*
X027850Y017945D02*
X027747Y017945D01*
X027747Y017950D02*
X027350Y017950D01*
X027350Y017553D01*
X027405Y017561D01*
X027472Y017583D01*
X027535Y017615D01*
X027593Y017657D01*
X027643Y017707D01*
X027684Y017764D01*
X027717Y017827D01*
X027739Y017895D01*
X027747Y017950D01*
X027723Y017847D02*
X027876Y017847D01*
X027917Y017748D02*
X027673Y017748D01*
X027583Y017650D02*
X028013Y017650D01*
X028017Y017354D02*
X027582Y017354D01*
X027680Y017256D02*
X027919Y017256D01*
X027878Y017157D02*
X027722Y017157D01*
X027750Y017059D02*
X027850Y017059D01*
X027850Y016960D02*
X027750Y016960D01*
X027729Y016862D02*
X027870Y016862D01*
X027911Y016763D02*
X027689Y016763D01*
X027601Y016665D02*
X027998Y016665D01*
X028601Y016665D02*
X028998Y016665D01*
X028911Y016763D02*
X028689Y016763D01*
X028729Y016862D02*
X028870Y016862D01*
X028850Y016960D02*
X028750Y016960D01*
X028750Y017059D02*
X028850Y017059D01*
X028878Y017157D02*
X028722Y017157D01*
X028680Y017256D02*
X028919Y017256D01*
X029017Y017354D02*
X028582Y017354D01*
X028586Y017650D02*
X029013Y017650D01*
X028917Y017748D02*
X028682Y017748D01*
X028723Y017847D02*
X028876Y017847D01*
X028850Y017945D02*
X028750Y017945D01*
X028750Y018044D02*
X028850Y018044D01*
X028871Y018142D02*
X028728Y018142D01*
X028687Y018241D02*
X028912Y018241D01*
X029002Y018339D02*
X028597Y018339D01*
X028419Y018438D02*
X029180Y018438D01*
X029419Y018438D02*
X030180Y018438D01*
X030002Y018339D02*
X029597Y018339D01*
X029687Y018241D02*
X029912Y018241D01*
X029871Y018142D02*
X029728Y018142D01*
X029750Y018044D02*
X029850Y018044D01*
X029850Y017945D02*
X029750Y017945D01*
X029723Y017847D02*
X029876Y017847D01*
X029917Y017748D02*
X029682Y017748D01*
X029586Y017650D02*
X030013Y017650D01*
X030017Y017354D02*
X029582Y017354D01*
X029680Y017256D02*
X029919Y017256D01*
X029878Y017157D02*
X029722Y017157D01*
X029750Y017059D02*
X029850Y017059D01*
X029850Y016960D02*
X029750Y016960D01*
X029729Y016862D02*
X029870Y016862D01*
X029911Y016763D02*
X029689Y016763D01*
X029601Y016665D02*
X029998Y016665D01*
X030601Y016665D02*
X039370Y016665D01*
X039370Y016763D02*
X030689Y016763D01*
X030729Y016862D02*
X039370Y016862D01*
X039370Y016960D02*
X030750Y016960D01*
X030586Y017650D02*
X036820Y017650D01*
X036854Y017616D02*
X036974Y017566D01*
X037105Y017566D01*
X037226Y017616D01*
X037318Y017708D01*
X037368Y017829D01*
X037368Y017959D01*
X037318Y018080D01*
X037226Y018172D01*
X037105Y018222D01*
X036974Y018222D01*
X036854Y018172D01*
X036762Y018080D01*
X036712Y017959D01*
X036712Y017829D01*
X036762Y017708D01*
X036854Y017616D01*
X036745Y017748D02*
X030682Y017748D01*
X030723Y017847D02*
X036712Y017847D01*
X036712Y017945D02*
X030750Y017945D01*
X030750Y018044D02*
X036747Y018044D01*
X036824Y018142D02*
X030728Y018142D01*
X030687Y018241D02*
X039370Y018241D01*
X039370Y018339D02*
X030597Y018339D01*
X030419Y018438D02*
X039370Y018438D01*
X039370Y018536D02*
X025940Y018536D01*
X025953Y018635D02*
X039370Y018635D01*
X039370Y018733D02*
X025953Y018733D01*
X025953Y018832D02*
X039370Y018832D01*
X039370Y018930D02*
X025953Y018930D01*
X025927Y019029D02*
X039370Y019029D01*
X039370Y019127D02*
X025887Y019127D01*
X025846Y019226D02*
X039370Y019226D01*
X039370Y019324D02*
X025805Y019324D01*
X025899Y018438D02*
X027191Y018438D01*
X027250Y018438D02*
X027350Y018438D01*
X027409Y018438D02*
X028180Y018438D01*
X028002Y018339D02*
X027597Y018339D01*
X027681Y018241D02*
X027912Y018241D01*
X027871Y018142D02*
X027727Y018142D01*
X027350Y018241D02*
X027250Y018241D01*
X027250Y018339D02*
X027350Y018339D01*
X027002Y018339D02*
X025858Y018339D01*
X025817Y018241D02*
X026918Y018241D01*
X026873Y018142D02*
X025742Y018142D01*
X027250Y017945D02*
X027350Y017945D01*
X027350Y017847D02*
X027250Y017847D01*
X027250Y017748D02*
X027350Y017748D01*
X027350Y017650D02*
X027250Y017650D01*
X028098Y016172D02*
X028501Y016172D01*
X028412Y016074D02*
X028188Y016074D01*
X028228Y015975D02*
X028371Y015975D01*
X028350Y015877D02*
X028250Y015877D01*
X028250Y015778D02*
X028350Y015778D01*
X028377Y015680D02*
X028223Y015680D01*
X028182Y015581D02*
X028417Y015581D01*
X028515Y015483D02*
X028084Y015483D01*
X028083Y015187D02*
X028516Y015187D01*
X028418Y015089D02*
X028181Y015089D01*
X028222Y014990D02*
X028377Y014990D01*
X028350Y014892D02*
X028250Y014892D01*
X028250Y014793D02*
X028350Y014793D01*
X028370Y014695D02*
X028229Y014695D01*
X028188Y014596D02*
X028411Y014596D01*
X028500Y014498D02*
X028099Y014498D01*
X029099Y014498D02*
X029500Y014498D01*
X029411Y014596D02*
X029188Y014596D01*
X029229Y014695D02*
X029370Y014695D01*
X029350Y014793D02*
X029250Y014793D01*
X029250Y014892D02*
X029350Y014892D01*
X029377Y014990D02*
X029222Y014990D01*
X029181Y015089D02*
X029418Y015089D01*
X029516Y015187D02*
X029083Y015187D01*
X029084Y015483D02*
X029515Y015483D01*
X029417Y015581D02*
X029182Y015581D01*
X029223Y015680D02*
X029377Y015680D01*
X029350Y015778D02*
X029250Y015778D01*
X029250Y015877D02*
X029350Y015877D01*
X029371Y015975D02*
X029228Y015975D01*
X029188Y016074D02*
X029412Y016074D01*
X029501Y016172D02*
X029098Y016172D01*
X030182Y015581D02*
X039370Y015581D01*
X039370Y015483D02*
X030084Y015483D01*
X030083Y015187D02*
X039370Y015187D01*
X039370Y015089D02*
X030181Y015089D01*
X031229Y013864D02*
X031149Y013784D01*
X031229Y013864D02*
X031333Y013907D01*
X031448Y013907D02*
X037689Y013907D01*
X037605Y013808D02*
X031607Y013808D01*
X031662Y013710D02*
X037572Y013710D01*
X037573Y013611D02*
X031675Y013611D01*
X031653Y013513D02*
X037614Y013513D01*
X037733Y013414D02*
X031585Y013414D01*
X033445Y011247D02*
X039370Y011247D01*
X039370Y011149D02*
X033587Y011149D01*
X033636Y011050D02*
X039370Y011050D01*
X039370Y010952D02*
X033644Y010952D01*
X033617Y010853D02*
X039370Y010853D01*
X039370Y010755D02*
X033542Y010755D01*
X035054Y010164D02*
X016443Y010164D01*
X016435Y010065D02*
X035118Y010065D01*
X036688Y011543D02*
X039370Y011543D01*
X039370Y011641D02*
X036810Y011641D01*
X036850Y011740D02*
X039370Y011740D01*
X039370Y011838D02*
X036852Y011838D01*
X036820Y011937D02*
X039370Y011937D01*
X039370Y012035D02*
X036736Y012035D01*
X035031Y012528D02*
X039370Y012528D01*
X039370Y012626D02*
X035055Y012626D01*
X035041Y012725D02*
X039370Y012725D01*
X039370Y012823D02*
X034981Y012823D01*
X039370Y013119D02*
X018354Y013119D01*
X018404Y013217D02*
X039370Y013217D01*
X039370Y009277D02*
X030840Y009277D01*
X030887Y009179D02*
X039370Y009179D01*
X039370Y009080D02*
X030891Y009080D01*
X030859Y008982D02*
X039370Y008982D01*
X039370Y008489D02*
X025841Y008489D01*
X025910Y008391D02*
X039370Y008391D01*
X039370Y008292D02*
X025931Y008292D01*
X025914Y008194D02*
X039370Y008194D01*
X039370Y008095D02*
X025850Y008095D01*
X025474Y008095D02*
X018009Y008095D01*
X018017Y008194D02*
X025409Y008194D01*
X025393Y008292D02*
X017989Y008292D01*
X017956Y007997D02*
X039370Y007997D01*
X039370Y007898D02*
X017545Y007898D01*
X017545Y007908D02*
X017504Y008007D01*
X017428Y008083D01*
X017330Y008124D01*
X017222Y008124D01*
X017124Y008083D01*
X017048Y008007D01*
X017007Y007908D01*
X017007Y007801D01*
X017048Y007702D01*
X017124Y007626D01*
X017222Y007586D01*
X017330Y007586D01*
X017428Y007626D01*
X017504Y007702D01*
X017545Y007801D01*
X017545Y007908D01*
X017541Y007997D02*
X017508Y007997D01*
X017488Y008095D02*
X017398Y008095D01*
X017479Y008194D02*
X015730Y008194D01*
X015734Y008095D02*
X017154Y008095D01*
X017044Y007997D02*
X015701Y007997D01*
X015609Y007898D02*
X017007Y007898D01*
X017007Y007800D02*
X013454Y007800D01*
X013399Y007898D02*
X015321Y007898D01*
X015229Y007997D02*
X015200Y007997D01*
X014785Y007997D02*
X013341Y007997D01*
X013553Y007701D02*
X017049Y007701D01*
X017180Y007603D02*
X013651Y007603D01*
X013750Y007504D02*
X031307Y007504D01*
X031298Y007525D02*
X031339Y007427D01*
X031415Y007351D01*
X031514Y007310D01*
X031621Y007310D01*
X031720Y007351D01*
X031795Y007427D01*
X031836Y007525D01*
X031836Y007632D01*
X031795Y007731D01*
X031720Y007807D01*
X031621Y007848D01*
X031514Y007848D01*
X031415Y007807D01*
X031339Y007731D01*
X031298Y007632D01*
X031298Y007525D01*
X031298Y007603D02*
X017372Y007603D01*
X017503Y007701D02*
X031327Y007701D01*
X031408Y007800D02*
X017545Y007800D01*
X017508Y008292D02*
X015683Y008292D01*
X015178Y008785D02*
X015151Y008785D01*
X015125Y008883D02*
X014072Y008883D01*
X014080Y008903D02*
X014080Y009010D01*
X014040Y009109D01*
X013995Y009154D01*
X014040Y009198D01*
X014080Y009297D01*
X014080Y009404D01*
X014040Y009503D01*
X013995Y009547D01*
X014008Y009561D01*
X014053Y009516D01*
X014152Y009475D01*
X014259Y009475D01*
X014358Y009516D01*
X014402Y009561D01*
X014415Y009547D01*
X014371Y009503D01*
X014330Y009404D01*
X014330Y009297D01*
X014371Y009198D01*
X014446Y009123D01*
X014545Y009082D01*
X014652Y009082D01*
X014751Y009123D01*
X014827Y009198D01*
X014868Y009297D01*
X014868Y009404D01*
X014827Y009503D01*
X014782Y009547D01*
X014827Y009592D01*
X014868Y009691D01*
X014868Y009798D01*
X014827Y009897D01*
X014782Y009941D01*
X014796Y009954D01*
X014840Y009910D01*
X014939Y009869D01*
X015046Y009869D01*
X015145Y009910D01*
X015221Y009986D01*
X015262Y010085D01*
X015262Y010192D01*
X015221Y010290D01*
X015145Y010366D01*
X015046Y010407D01*
X014939Y010407D01*
X014840Y010366D01*
X014796Y010322D01*
X014751Y010366D01*
X014652Y010407D01*
X014545Y010407D01*
X014446Y010366D01*
X014371Y010290D01*
X014330Y010192D01*
X014330Y010085D01*
X014371Y009986D01*
X014415Y009941D01*
X014402Y009928D01*
X014358Y009972D01*
X014259Y010013D01*
X014152Y010013D01*
X014053Y009972D01*
X014008Y009928D01*
X013964Y009972D01*
X013865Y010013D01*
X013758Y010013D01*
X013659Y009972D01*
X013583Y009897D01*
X013542Y009798D01*
X013542Y009691D01*
X013583Y009592D01*
X013628Y009547D01*
X013583Y009503D01*
X013542Y009404D01*
X013542Y009297D01*
X013583Y009198D01*
X013628Y009154D01*
X013583Y009109D01*
X013542Y009010D01*
X013542Y008903D01*
X013583Y008805D01*
X013659Y008729D01*
X013758Y008688D01*
X013865Y008688D01*
X013964Y008729D01*
X014040Y008805D01*
X014080Y008903D01*
X014080Y008982D02*
X015117Y008982D01*
X015146Y009080D02*
X014051Y009080D01*
X014020Y009179D02*
X014390Y009179D01*
X014338Y009277D02*
X014072Y009277D01*
X014080Y009376D02*
X014330Y009376D01*
X014359Y009474D02*
X014051Y009474D01*
X013602Y009573D02*
X013233Y009573D01*
X013252Y009592D02*
X013293Y009691D01*
X013293Y009798D01*
X013252Y009897D01*
X013176Y009972D01*
X013078Y010013D01*
X012970Y010013D01*
X012872Y009972D01*
X012796Y009897D01*
X012755Y009798D01*
X012755Y009691D01*
X012796Y009592D01*
X012872Y009516D01*
X012970Y009475D01*
X013078Y009475D01*
X013176Y009516D01*
X013252Y009592D01*
X013285Y009671D02*
X013550Y009671D01*
X013542Y009770D02*
X013293Y009770D01*
X013264Y009868D02*
X013572Y009868D01*
X013654Y009967D02*
X013182Y009967D01*
X012866Y009967D02*
X002504Y009967D01*
X002487Y009974D02*
X002380Y009974D01*
X002281Y009933D01*
X002205Y009857D01*
X002164Y009758D01*
X002164Y009651D01*
X002205Y009553D01*
X002230Y009528D01*
X002205Y009503D01*
X002164Y009404D01*
X002164Y009297D01*
X002205Y009198D01*
X002230Y009173D01*
X002205Y009149D01*
X002164Y009050D01*
X002164Y008943D01*
X002205Y008844D01*
X002230Y008819D01*
X002205Y008794D01*
X002164Y008695D01*
X002164Y008588D01*
X002205Y008490D01*
X002230Y008465D01*
X002205Y008440D01*
X002164Y008341D01*
X002164Y008234D01*
X002205Y008135D01*
X002230Y008110D01*
X002205Y008086D01*
X002164Y007987D01*
X002164Y007880D01*
X002205Y007781D01*
X002281Y007705D01*
X002380Y007664D01*
X002487Y007664D01*
X002586Y007705D01*
X002662Y007781D01*
X002703Y007880D01*
X002703Y007987D01*
X002662Y008086D01*
X002637Y008110D01*
X002662Y008135D01*
X002703Y008234D01*
X002703Y008341D01*
X002662Y008440D01*
X002637Y008465D01*
X002662Y008490D01*
X002703Y008588D01*
X002703Y008695D01*
X002662Y008794D01*
X002637Y008819D01*
X002662Y008844D01*
X002703Y008943D01*
X002703Y009050D01*
X002662Y009149D01*
X002637Y009173D01*
X002662Y009198D01*
X002703Y009297D01*
X002703Y009404D01*
X002662Y009503D01*
X002637Y009528D01*
X002662Y009553D01*
X002703Y009651D01*
X002703Y009758D01*
X002662Y009857D01*
X002586Y009933D01*
X002487Y009974D01*
X002363Y009967D02*
X000300Y009967D01*
X000300Y010065D02*
X014338Y010065D01*
X014330Y010164D02*
X000300Y010164D01*
X000300Y010262D02*
X014359Y010262D01*
X014415Y010361D02*
X014441Y010361D01*
X014756Y010361D02*
X014835Y010361D01*
X015150Y010361D02*
X015622Y010361D01*
X015540Y010262D02*
X015232Y010262D01*
X015262Y010164D02*
X015511Y010164D01*
X015519Y010065D02*
X015254Y010065D01*
X015228Y009967D02*
X015202Y009967D01*
X015146Y009868D02*
X014839Y009868D01*
X014868Y009770D02*
X015117Y009770D01*
X015125Y009671D02*
X014860Y009671D01*
X014808Y009573D02*
X015177Y009573D01*
X014839Y009474D02*
X015540Y009474D01*
X015511Y009376D02*
X014868Y009376D01*
X014860Y009277D02*
X015519Y009277D01*
X015545Y009179D02*
X015571Y009179D01*
X015626Y009080D02*
X018724Y009080D01*
X018800Y008982D02*
X015655Y008982D01*
X015989Y009179D02*
X016359Y009179D01*
X016339Y009198D02*
X016415Y009123D01*
X016514Y009082D01*
X016621Y009082D01*
X016720Y009123D01*
X016764Y009167D01*
X016809Y009123D01*
X016908Y009082D01*
X017015Y009082D01*
X017113Y009123D01*
X017189Y009198D01*
X017230Y009297D01*
X017230Y009404D01*
X017189Y009503D01*
X017113Y009579D01*
X017015Y009620D01*
X016908Y009620D01*
X016809Y009579D01*
X016764Y009534D01*
X016720Y009579D01*
X016621Y009620D01*
X016514Y009620D01*
X016415Y009579D01*
X016339Y009503D01*
X016298Y009404D01*
X016298Y009297D01*
X016339Y009198D01*
X016306Y009277D02*
X016041Y009277D01*
X016049Y009376D02*
X016298Y009376D01*
X016327Y009474D02*
X016020Y009474D01*
X015989Y009573D02*
X016409Y009573D01*
X016726Y009573D02*
X016803Y009573D01*
X017094Y009671D02*
X016041Y009671D01*
X016049Y009770D02*
X017086Y009770D01*
X017115Y009868D02*
X016020Y009868D01*
X016383Y009967D02*
X017197Y009967D01*
X017513Y009967D02*
X017591Y009967D01*
X017958Y009573D02*
X017984Y009573D01*
X018300Y009573D02*
X018378Y009573D01*
X017540Y009179D02*
X017170Y009179D01*
X017222Y009277D02*
X017488Y009277D01*
X017479Y009376D02*
X017230Y009376D01*
X017201Y009474D02*
X017508Y009474D01*
X017146Y009573D02*
X017119Y009573D01*
X016016Y010361D02*
X015938Y010361D01*
X015571Y009967D02*
X015544Y009967D01*
X015228Y009179D02*
X014808Y009179D01*
X014834Y008785D02*
X014020Y008785D01*
X013603Y008785D02*
X002665Y008785D01*
X002678Y008883D02*
X013551Y008883D01*
X013542Y008982D02*
X002703Y008982D01*
X002690Y009080D02*
X013571Y009080D01*
X013603Y009179D02*
X002642Y009179D01*
X002694Y009277D02*
X013551Y009277D01*
X013542Y009376D02*
X010367Y009376D01*
X010322Y009357D02*
X010421Y009398D01*
X010496Y009474D01*
X010537Y009573D01*
X012815Y009573D01*
X012763Y009671D02*
X010537Y009671D01*
X010537Y009680D02*
X010496Y009779D01*
X010421Y009854D01*
X010322Y009895D01*
X010215Y009895D01*
X010116Y009854D01*
X010111Y009849D01*
X010106Y009854D01*
X010007Y009895D01*
X009900Y009895D01*
X009801Y009854D01*
X009796Y009849D01*
X009791Y009854D01*
X009692Y009895D01*
X009585Y009895D01*
X009486Y009854D01*
X009481Y009849D01*
X009476Y009854D01*
X009377Y009895D01*
X009270Y009895D01*
X009171Y009854D01*
X009166Y009849D01*
X009161Y009854D01*
X009062Y009895D01*
X008955Y009895D01*
X008856Y009854D01*
X008851Y009849D01*
X008846Y009854D01*
X008747Y009895D01*
X008640Y009895D01*
X008541Y009854D01*
X008465Y009779D01*
X008424Y009680D01*
X008424Y009573D01*
X005183Y009573D01*
X005183Y009680D01*
X005142Y009779D01*
X005066Y009854D01*
X004967Y009895D01*
X004860Y009895D01*
X004761Y009854D01*
X004756Y009849D01*
X004751Y009854D01*
X004652Y009895D01*
X004545Y009895D01*
X004446Y009854D01*
X004441Y009849D01*
X004436Y009854D01*
X004337Y009895D01*
X004230Y009895D01*
X004131Y009854D01*
X004126Y009849D01*
X004121Y009854D01*
X004022Y009895D01*
X003915Y009895D01*
X003816Y009854D01*
X003811Y009849D01*
X003806Y009854D01*
X003707Y009895D01*
X003600Y009895D01*
X003502Y009854D01*
X003426Y009779D01*
X003385Y009680D01*
X003385Y009573D01*
X002670Y009573D01*
X002673Y009474D02*
X003426Y009474D01*
X003502Y009398D01*
X003600Y009357D01*
X003707Y009357D01*
X003806Y009398D01*
X003811Y009403D01*
X003816Y009398D01*
X003915Y009357D01*
X004022Y009357D01*
X004121Y009398D01*
X004126Y009403D01*
X004131Y009398D01*
X004230Y009357D01*
X004337Y009357D01*
X004436Y009398D01*
X004441Y009403D01*
X004446Y009398D01*
X004545Y009357D01*
X004652Y009357D01*
X004751Y009398D01*
X004756Y009403D01*
X004761Y009398D01*
X004860Y009357D01*
X004967Y009357D01*
X005066Y009398D01*
X005142Y009474D01*
X005183Y009573D01*
X005183Y009671D02*
X008424Y009671D01*
X008424Y009573D02*
X008465Y009474D01*
X008541Y009398D01*
X008640Y009357D01*
X008747Y009357D01*
X008846Y009398D01*
X008851Y009403D01*
X008856Y009398D01*
X008955Y009357D01*
X009062Y009357D01*
X009161Y009398D01*
X009166Y009403D01*
X009171Y009398D01*
X009270Y009357D01*
X009377Y009357D01*
X009476Y009398D01*
X009481Y009403D01*
X009486Y009398D01*
X009585Y009357D01*
X009692Y009357D01*
X009791Y009398D01*
X009796Y009403D01*
X009801Y009398D01*
X009900Y009357D01*
X010007Y009357D01*
X010106Y009398D01*
X010111Y009403D01*
X010116Y009398D01*
X010215Y009357D01*
X010322Y009357D01*
X010169Y009376D02*
X010052Y009376D01*
X009854Y009376D02*
X009737Y009376D01*
X009539Y009376D02*
X009422Y009376D01*
X009224Y009376D02*
X009107Y009376D01*
X008909Y009376D02*
X008792Y009376D01*
X008594Y009376D02*
X005013Y009376D01*
X005142Y009474D02*
X008465Y009474D01*
X008462Y009770D02*
X005145Y009770D01*
X005032Y009868D02*
X008575Y009868D01*
X008812Y009868D02*
X008890Y009868D01*
X009127Y009868D02*
X009205Y009868D01*
X009442Y009868D02*
X009520Y009868D01*
X009756Y009868D02*
X009835Y009868D01*
X010071Y009868D02*
X010150Y009868D01*
X010386Y009868D02*
X012784Y009868D01*
X012755Y009770D02*
X010500Y009770D01*
X010537Y009680D02*
X010537Y009573D01*
X010496Y009474D02*
X013571Y009474D01*
X013969Y009967D02*
X014047Y009967D01*
X014363Y009967D02*
X014389Y009967D01*
X014048Y010755D02*
X014021Y010755D01*
X014752Y008686D02*
X002703Y008686D01*
X002702Y008588D02*
X014723Y008588D01*
X014732Y008489D02*
X002661Y008489D01*
X002682Y008391D02*
X014784Y008391D01*
X014752Y008292D02*
X002703Y008292D01*
X002686Y008194D02*
X014723Y008194D01*
X014732Y008095D02*
X002652Y008095D01*
X002698Y007997D02*
X012943Y007997D01*
X012885Y007898D02*
X002703Y007898D01*
X002669Y007800D02*
X012873Y007800D01*
X012898Y007701D02*
X003501Y007701D01*
X003531Y007689D02*
X003432Y007730D01*
X003325Y007730D01*
X003226Y007689D01*
X003150Y007613D01*
X003109Y007514D01*
X003109Y007494D01*
X003089Y007494D01*
X002990Y007453D01*
X002914Y007377D01*
X002873Y007278D01*
X002873Y007257D01*
X002852Y007257D01*
X002753Y007217D01*
X002678Y007141D01*
X002637Y007042D01*
X002637Y007021D01*
X002616Y007021D01*
X002517Y006980D01*
X002442Y006905D01*
X002401Y006806D01*
X002401Y006699D01*
X002442Y006600D01*
X002517Y006524D01*
X002616Y006483D01*
X002723Y006483D01*
X002822Y006524D01*
X002898Y006600D01*
X002939Y006699D01*
X002939Y006719D01*
X002959Y006719D01*
X003058Y006760D01*
X003134Y006836D01*
X003175Y006935D01*
X003175Y006956D01*
X003196Y006956D01*
X003295Y006997D01*
X003370Y007072D01*
X003411Y007171D01*
X003411Y007192D01*
X003432Y007192D01*
X003531Y007233D01*
X003606Y007308D01*
X003647Y007407D01*
X003647Y007514D01*
X003606Y007613D01*
X003531Y007689D01*
X003611Y007603D02*
X012974Y007603D01*
X013156Y007504D02*
X003647Y007504D01*
X003647Y007406D02*
X007043Y007406D01*
X007065Y007415D02*
X006966Y007374D01*
X006890Y007298D01*
X006849Y007199D01*
X006849Y007092D01*
X006890Y006993D01*
X006966Y006918D01*
X007065Y006877D01*
X007172Y006877D01*
X007271Y006918D01*
X007347Y006993D01*
X007388Y007092D01*
X007388Y007199D01*
X007347Y007298D01*
X007271Y007374D01*
X007172Y007415D01*
X007065Y007415D01*
X007194Y007406D02*
X013254Y007406D01*
X013353Y007307D02*
X007337Y007307D01*
X007384Y007209D02*
X013451Y007209D01*
X013550Y007110D02*
X007388Y007110D01*
X007354Y007012D02*
X013648Y007012D01*
X013747Y006913D02*
X007260Y006913D01*
X006977Y006913D02*
X003166Y006913D01*
X003113Y006815D02*
X012200Y006815D01*
X012352Y006815D02*
X013845Y006815D01*
X014045Y007209D02*
X015507Y007209D01*
X015659Y007209D02*
X039370Y007209D01*
X039370Y007307D02*
X013947Y007307D01*
X013848Y007406D02*
X031360Y007406D01*
X031775Y007406D02*
X039370Y007406D01*
X039370Y007504D02*
X031828Y007504D01*
X031836Y007603D02*
X039370Y007603D01*
X039370Y007701D02*
X031808Y007701D01*
X031727Y007800D02*
X039370Y007800D01*
X039370Y007110D02*
X015802Y007110D01*
X015848Y007012D02*
X039370Y007012D01*
X039370Y006519D02*
X027687Y006519D01*
X027780Y006421D02*
X039370Y006421D01*
X039370Y006322D02*
X027821Y006322D01*
X027859Y006224D02*
X039370Y006224D01*
X039370Y006125D02*
X027859Y006125D01*
X027859Y006027D02*
X039370Y006027D01*
X039370Y005928D02*
X027824Y005928D01*
X027783Y005830D02*
X039370Y005830D01*
X039370Y005731D02*
X027693Y005731D01*
X027555Y005633D02*
X039370Y005633D01*
X039370Y004549D02*
X022891Y004549D01*
X022959Y004451D02*
X039370Y004451D01*
X039370Y004352D02*
X022978Y004352D01*
X022960Y004254D02*
X039370Y004254D01*
X039370Y004155D02*
X022894Y004155D01*
X022487Y003761D02*
X021543Y003761D01*
X021461Y003663D02*
X022443Y003663D01*
X022440Y003564D02*
X021302Y003564D01*
X021407Y003367D02*
X022574Y003367D01*
X022474Y003466D02*
X001702Y003466D01*
X001770Y003398D02*
X001559Y003608D01*
X001283Y003723D01*
X000985Y003723D01*
X000709Y003608D01*
X000498Y003398D01*
X000384Y003122D01*
X000384Y002823D01*
X000498Y002548D01*
X000709Y002337D01*
X000985Y002223D01*
X001283Y002223D01*
X001559Y002337D01*
X001770Y002548D01*
X001884Y002823D01*
X001884Y003122D01*
X001770Y003398D01*
X001783Y003367D02*
X011893Y003367D01*
X011895Y003370D02*
X011769Y003243D01*
X011700Y003078D01*
X011700Y002899D01*
X011769Y002734D01*
X011895Y002607D01*
X012060Y002538D01*
X012240Y002538D01*
X012405Y002607D01*
X012531Y002734D01*
X012600Y002899D01*
X012600Y003078D01*
X012531Y003243D01*
X012405Y003370D01*
X012240Y003438D01*
X012060Y003438D01*
X011895Y003370D01*
X011794Y003269D02*
X001823Y003269D01*
X001864Y003170D02*
X011738Y003170D01*
X011700Y003072D02*
X001884Y003072D01*
X001884Y002973D02*
X011700Y002973D01*
X011710Y002875D02*
X001884Y002875D01*
X001865Y002776D02*
X011751Y002776D01*
X011824Y002678D02*
X001824Y002678D01*
X001783Y002579D02*
X011962Y002579D01*
X012338Y002579D02*
X012961Y002579D01*
X012977Y002571D02*
X013045Y002550D01*
X013100Y002541D01*
X013100Y002938D01*
X013200Y002938D01*
X013200Y002541D01*
X013255Y002550D01*
X013323Y002571D01*
X013386Y002604D01*
X013443Y002645D01*
X013493Y002695D01*
X013535Y002753D01*
X013567Y002816D01*
X013589Y002883D01*
X013598Y002938D01*
X013200Y002938D01*
X013200Y003038D01*
X013598Y003038D01*
X013589Y003094D01*
X013567Y003161D01*
X013535Y003224D01*
X013493Y003282D01*
X013443Y003332D01*
X013386Y003373D01*
X013323Y003405D01*
X013255Y003427D01*
X013200Y003436D01*
X013200Y003038D01*
X013100Y003038D01*
X013100Y002938D01*
X012702Y002938D01*
X012711Y002883D01*
X012733Y002816D01*
X012765Y002753D01*
X012807Y002695D01*
X012857Y002645D01*
X012914Y002604D01*
X012977Y002571D01*
X013100Y002579D02*
X013200Y002579D01*
X013200Y002678D02*
X013100Y002678D01*
X013100Y002776D02*
X013200Y002776D01*
X013200Y002875D02*
X013100Y002875D01*
X013100Y002973D02*
X012600Y002973D01*
X012590Y002875D02*
X012714Y002875D01*
X012753Y002776D02*
X012549Y002776D01*
X012476Y002678D02*
X012824Y002678D01*
X012702Y003038D02*
X013100Y003038D01*
X013100Y003436D01*
X013045Y003427D01*
X012977Y003405D01*
X012914Y003373D01*
X012857Y003332D01*
X012807Y003282D01*
X012765Y003224D01*
X012733Y003161D01*
X012711Y003094D01*
X012702Y003038D01*
X012708Y003072D02*
X012600Y003072D01*
X012562Y003170D02*
X012738Y003170D01*
X012798Y003269D02*
X012506Y003269D01*
X012407Y003367D02*
X012906Y003367D01*
X013100Y003367D02*
X013200Y003367D01*
X013200Y003269D02*
X013100Y003269D01*
X013100Y003170D02*
X013200Y003170D01*
X013200Y003072D02*
X013100Y003072D01*
X013200Y002973D02*
X013700Y002973D01*
X013700Y002899D02*
X013769Y002734D01*
X013895Y002607D01*
X014060Y002538D01*
X014240Y002538D01*
X014405Y002607D01*
X014531Y002734D01*
X014600Y002899D01*
X014600Y003078D01*
X014531Y003243D01*
X014405Y003370D01*
X014240Y003438D01*
X014060Y003438D01*
X013895Y003370D01*
X013769Y003243D01*
X013700Y003078D01*
X013700Y002899D01*
X013710Y002875D02*
X013586Y002875D01*
X013547Y002776D02*
X013751Y002776D01*
X013824Y002678D02*
X013476Y002678D01*
X013339Y002579D02*
X013962Y002579D01*
X014338Y002579D02*
X014962Y002579D01*
X014895Y002607D02*
X015060Y002538D01*
X015240Y002538D01*
X015405Y002607D01*
X015531Y002734D01*
X015600Y002899D01*
X015600Y003078D01*
X015531Y003243D01*
X015405Y003370D01*
X015240Y003438D01*
X015060Y003438D01*
X014895Y003370D01*
X014769Y003243D01*
X014700Y003078D01*
X014700Y002899D01*
X014769Y002734D01*
X014895Y002607D01*
X014824Y002678D02*
X014476Y002678D01*
X014549Y002776D02*
X014751Y002776D01*
X014710Y002875D02*
X014590Y002875D01*
X014600Y002973D02*
X014700Y002973D01*
X014700Y003072D02*
X014600Y003072D01*
X014562Y003170D02*
X014738Y003170D01*
X014794Y003269D02*
X014506Y003269D01*
X014407Y003367D02*
X014893Y003367D01*
X014998Y003564D02*
X014302Y003564D01*
X014240Y003538D02*
X014405Y003607D01*
X014531Y003734D01*
X014600Y003899D01*
X014600Y004078D01*
X014531Y004243D01*
X014405Y004370D01*
X014240Y004438D01*
X014060Y004438D01*
X013895Y004370D01*
X013769Y004243D01*
X013700Y004078D01*
X013700Y003899D01*
X013769Y003734D01*
X013895Y003607D01*
X014060Y003538D01*
X014240Y003538D01*
X013998Y003564D02*
X013301Y003564D01*
X013323Y003571D02*
X013386Y003604D01*
X013443Y003645D01*
X013493Y003695D01*
X013535Y003753D01*
X013567Y003816D01*
X013589Y003883D01*
X013598Y003938D01*
X013200Y003938D01*
X013200Y003541D01*
X013255Y003550D01*
X013323Y003571D01*
X013200Y003564D02*
X013100Y003564D01*
X013100Y003541D02*
X013100Y003938D01*
X013200Y003938D01*
X013200Y004038D01*
X013598Y004038D01*
X013589Y004094D01*
X013567Y004161D01*
X013535Y004224D01*
X013493Y004282D01*
X013443Y004332D01*
X013386Y004373D01*
X013323Y004405D01*
X013255Y004427D01*
X013200Y004436D01*
X013200Y004038D01*
X013100Y004038D01*
X013100Y003938D01*
X012702Y003938D01*
X012711Y003883D01*
X012733Y003816D01*
X012765Y003753D01*
X012807Y003695D01*
X012857Y003645D01*
X012914Y003604D01*
X012977Y003571D01*
X013045Y003550D01*
X013100Y003541D01*
X012999Y003564D02*
X012302Y003564D01*
X012240Y003538D02*
X012405Y003607D01*
X012531Y003734D01*
X012600Y003899D01*
X012600Y004078D01*
X012531Y004243D01*
X012405Y004370D01*
X012240Y004438D01*
X012060Y004438D01*
X011895Y004370D01*
X011769Y004243D01*
X011700Y004078D01*
X011700Y003899D01*
X011769Y003734D01*
X011895Y003607D01*
X012060Y003538D01*
X012240Y003538D01*
X011998Y003564D02*
X001603Y003564D01*
X001428Y003663D02*
X003489Y003663D01*
X003502Y003650D02*
X003600Y003609D01*
X003707Y003609D01*
X003806Y003650D01*
X003811Y003655D01*
X003816Y003650D01*
X003915Y003609D01*
X004022Y003609D01*
X004121Y003650D01*
X004126Y003655D01*
X004131Y003650D01*
X004230Y003609D01*
X004337Y003609D01*
X004436Y003650D01*
X004441Y003655D01*
X004446Y003650D01*
X004545Y003609D01*
X004652Y003609D01*
X004751Y003650D01*
X004756Y003655D01*
X004761Y003650D01*
X004860Y003609D01*
X004967Y003609D01*
X005066Y003650D01*
X005071Y003655D01*
X005076Y003650D01*
X005175Y003609D01*
X005282Y003609D01*
X005381Y003650D01*
X005457Y003726D01*
X005498Y003825D01*
X005498Y003932D01*
X005457Y004031D01*
X005381Y004106D01*
X005282Y004147D01*
X005175Y004147D01*
X005076Y004106D01*
X005071Y004101D01*
X005066Y004106D01*
X004967Y004147D01*
X004860Y004147D01*
X004761Y004106D01*
X004756Y004101D01*
X004751Y004106D01*
X004652Y004147D01*
X004545Y004147D01*
X004446Y004106D01*
X004441Y004101D01*
X004436Y004106D01*
X004337Y004147D01*
X004230Y004147D01*
X004131Y004106D01*
X004126Y004101D01*
X004121Y004106D01*
X004022Y004147D01*
X003915Y004147D01*
X003816Y004106D01*
X003811Y004101D01*
X003806Y004106D01*
X003707Y004147D01*
X003600Y004147D01*
X003502Y004106D01*
X003426Y004031D01*
X003385Y003932D01*
X003385Y003825D01*
X003426Y003726D01*
X003502Y003650D01*
X003411Y003761D02*
X000300Y003761D01*
X000300Y003663D02*
X000841Y003663D01*
X000665Y003564D02*
X000300Y003564D01*
X000300Y003466D02*
X000567Y003466D01*
X000486Y003367D02*
X000300Y003367D01*
X000300Y003269D02*
X000445Y003269D01*
X000404Y003170D02*
X000300Y003170D01*
X000300Y003072D02*
X000384Y003072D01*
X000384Y002973D02*
X000300Y002973D01*
X000300Y002875D02*
X000384Y002875D01*
X000404Y002776D02*
X000300Y002776D01*
X000300Y002678D02*
X000445Y002678D01*
X000485Y002579D02*
X000300Y002579D01*
X000300Y002481D02*
X000565Y002481D01*
X000664Y002382D02*
X000300Y002382D01*
X000300Y002284D02*
X000837Y002284D01*
X001431Y002284D02*
X038239Y002284D01*
X038065Y002382D02*
X001605Y002382D01*
X001703Y002481D02*
X037967Y002481D01*
X037887Y002579D02*
X021338Y002579D01*
X021476Y002678D02*
X022505Y002678D01*
X022450Y002776D02*
X021549Y002776D01*
X021590Y002875D02*
X022440Y002875D01*
X022467Y002973D02*
X021600Y002973D01*
X021600Y003072D02*
X022546Y003072D01*
X022968Y002776D02*
X037805Y002776D01*
X037846Y002678D02*
X022913Y002678D01*
X020962Y002579D02*
X020338Y002579D01*
X020405Y002607D02*
X020531Y002734D01*
X020600Y002899D01*
X020600Y003078D01*
X020531Y003243D01*
X020405Y003370D01*
X020240Y003438D01*
X020060Y003438D01*
X019895Y003370D01*
X019769Y003243D01*
X019700Y003078D01*
X019700Y002899D01*
X019769Y002734D01*
X019895Y002607D01*
X020060Y002538D01*
X020240Y002538D01*
X020405Y002607D01*
X020476Y002678D02*
X020824Y002678D01*
X020751Y002776D02*
X020549Y002776D01*
X020590Y002875D02*
X020710Y002875D01*
X020700Y002973D02*
X020600Y002973D01*
X020600Y003072D02*
X020700Y003072D01*
X020738Y003170D02*
X020562Y003170D01*
X020506Y003269D02*
X020794Y003269D01*
X020893Y003367D02*
X020407Y003367D01*
X020302Y003564D02*
X020998Y003564D01*
X020839Y003663D02*
X020461Y003663D01*
X020405Y003607D02*
X020531Y003734D01*
X020600Y003899D01*
X020600Y004078D01*
X020531Y004243D01*
X020405Y004370D01*
X020240Y004438D01*
X020060Y004438D01*
X019895Y004370D01*
X019769Y004243D01*
X019700Y004078D01*
X019700Y003899D01*
X019769Y003734D01*
X019895Y003607D01*
X020060Y003538D01*
X020240Y003538D01*
X020405Y003607D01*
X020543Y003761D02*
X020757Y003761D01*
X020716Y003860D02*
X020584Y003860D01*
X020600Y003958D02*
X020700Y003958D01*
X020700Y004057D02*
X020600Y004057D01*
X020568Y004155D02*
X020732Y004155D01*
X020779Y004254D02*
X020521Y004254D01*
X020422Y004352D02*
X020878Y004352D01*
X019878Y004352D02*
X019422Y004352D01*
X019405Y004370D02*
X019240Y004438D01*
X019060Y004438D01*
X018895Y004370D01*
X018769Y004243D01*
X018700Y004078D01*
X018700Y003899D01*
X018769Y003734D01*
X018895Y003607D01*
X019060Y003538D01*
X019240Y003538D01*
X019405Y003607D01*
X019531Y003734D01*
X019600Y003899D01*
X019600Y004078D01*
X019531Y004243D01*
X019405Y004370D01*
X019521Y004254D02*
X019779Y004254D01*
X019732Y004155D02*
X019568Y004155D01*
X019600Y004057D02*
X019700Y004057D01*
X019700Y003958D02*
X019600Y003958D01*
X019584Y003860D02*
X019716Y003860D01*
X019757Y003761D02*
X019543Y003761D01*
X019461Y003663D02*
X019839Y003663D01*
X019998Y003564D02*
X019302Y003564D01*
X019240Y003438D02*
X019060Y003438D01*
X018895Y003370D01*
X018769Y003243D01*
X018700Y003078D01*
X018700Y002899D01*
X018769Y002734D01*
X018895Y002607D01*
X019060Y002538D01*
X019240Y002538D01*
X019405Y002607D01*
X019531Y002734D01*
X019600Y002899D01*
X019600Y003078D01*
X019531Y003243D01*
X019405Y003370D01*
X019240Y003438D01*
X019407Y003367D02*
X019893Y003367D01*
X019794Y003269D02*
X019506Y003269D01*
X019562Y003170D02*
X019738Y003170D01*
X019700Y003072D02*
X019600Y003072D01*
X019600Y002973D02*
X019700Y002973D01*
X019710Y002875D02*
X019590Y002875D01*
X019549Y002776D02*
X019751Y002776D01*
X019824Y002678D02*
X019476Y002678D01*
X019338Y002579D02*
X019962Y002579D01*
X018962Y002579D02*
X018338Y002579D01*
X018405Y002607D02*
X018531Y002734D01*
X018600Y002899D01*
X018600Y003078D01*
X018531Y003243D01*
X018405Y003370D01*
X018240Y003438D01*
X018060Y003438D01*
X017895Y003370D01*
X017769Y003243D01*
X017700Y003078D01*
X017700Y002899D01*
X017769Y002734D01*
X017895Y002607D01*
X018060Y002538D01*
X018240Y002538D01*
X018405Y002607D01*
X018476Y002678D02*
X018824Y002678D01*
X018751Y002776D02*
X018549Y002776D01*
X018590Y002875D02*
X018710Y002875D01*
X018700Y002973D02*
X018600Y002973D01*
X018600Y003072D02*
X018700Y003072D01*
X018738Y003170D02*
X018562Y003170D01*
X018506Y003269D02*
X018794Y003269D01*
X018893Y003367D02*
X018407Y003367D01*
X018302Y003564D02*
X018998Y003564D01*
X018839Y003663D02*
X018461Y003663D01*
X018405Y003607D02*
X018531Y003734D01*
X018600Y003899D01*
X018600Y004078D01*
X018531Y004243D01*
X018405Y004370D01*
X018240Y004438D01*
X018060Y004438D01*
X017895Y004370D01*
X017769Y004243D01*
X017700Y004078D01*
X017700Y003899D01*
X017769Y003734D01*
X017895Y003607D01*
X018060Y003538D01*
X018240Y003538D01*
X018405Y003607D01*
X018543Y003761D02*
X018757Y003761D01*
X018716Y003860D02*
X018584Y003860D01*
X018600Y003958D02*
X018700Y003958D01*
X018700Y004057D02*
X018600Y004057D01*
X018568Y004155D02*
X018732Y004155D01*
X018779Y004254D02*
X018521Y004254D01*
X018422Y004352D02*
X018878Y004352D01*
X017878Y004352D02*
X017422Y004352D01*
X017405Y004370D02*
X017240Y004438D01*
X017060Y004438D01*
X016895Y004370D01*
X016769Y004243D01*
X016700Y004078D01*
X016700Y003899D01*
X016769Y003734D01*
X016895Y003607D01*
X017060Y003538D01*
X017240Y003538D01*
X017405Y003607D01*
X017531Y003734D01*
X017600Y003899D01*
X017600Y004078D01*
X017531Y004243D01*
X017405Y004370D01*
X017521Y004254D02*
X017779Y004254D01*
X017732Y004155D02*
X017568Y004155D01*
X017600Y004057D02*
X017700Y004057D01*
X017700Y003958D02*
X017600Y003958D01*
X017584Y003860D02*
X017716Y003860D01*
X017757Y003761D02*
X017543Y003761D01*
X017461Y003663D02*
X017839Y003663D01*
X017998Y003564D02*
X017302Y003564D01*
X017240Y003438D02*
X017060Y003438D01*
X016895Y003370D01*
X016769Y003243D01*
X016700Y003078D01*
X016700Y002899D01*
X016769Y002734D01*
X016895Y002607D01*
X017060Y002538D01*
X017240Y002538D01*
X017405Y002607D01*
X017531Y002734D01*
X017600Y002899D01*
X017600Y003078D01*
X017531Y003243D01*
X017405Y003370D01*
X017240Y003438D01*
X017407Y003367D02*
X017893Y003367D01*
X017794Y003269D02*
X017506Y003269D01*
X017562Y003170D02*
X017738Y003170D01*
X017700Y003072D02*
X017600Y003072D01*
X017600Y002973D02*
X017700Y002973D01*
X017710Y002875D02*
X017590Y002875D01*
X017549Y002776D02*
X017751Y002776D01*
X017824Y002678D02*
X017476Y002678D01*
X017338Y002579D02*
X017962Y002579D01*
X016962Y002579D02*
X016338Y002579D01*
X016405Y002607D02*
X016531Y002734D01*
X016600Y002899D01*
X016600Y003078D01*
X016531Y003243D01*
X016405Y003370D01*
X016240Y003438D01*
X016060Y003438D01*
X015895Y003370D01*
X015769Y003243D01*
X015700Y003078D01*
X015700Y002899D01*
X015769Y002734D01*
X015895Y002607D01*
X016060Y002538D01*
X016240Y002538D01*
X016405Y002607D01*
X016476Y002678D02*
X016824Y002678D01*
X016751Y002776D02*
X016549Y002776D01*
X016590Y002875D02*
X016710Y002875D01*
X016700Y002973D02*
X016600Y002973D01*
X016600Y003072D02*
X016700Y003072D01*
X016738Y003170D02*
X016562Y003170D01*
X016506Y003269D02*
X016794Y003269D01*
X016893Y003367D02*
X016407Y003367D01*
X016302Y003564D02*
X016998Y003564D01*
X016839Y003663D02*
X016461Y003663D01*
X016405Y003607D02*
X016531Y003734D01*
X016600Y003899D01*
X016600Y004078D01*
X016531Y004243D01*
X016405Y004370D01*
X016240Y004438D01*
X016060Y004438D01*
X015895Y004370D01*
X015769Y004243D01*
X015700Y004078D01*
X015700Y003899D01*
X015769Y003734D01*
X015895Y003607D01*
X016060Y003538D01*
X016240Y003538D01*
X016405Y003607D01*
X016543Y003761D02*
X016757Y003761D01*
X016716Y003860D02*
X016584Y003860D01*
X016600Y003958D02*
X016700Y003958D01*
X016700Y004057D02*
X016600Y004057D01*
X016568Y004155D02*
X016732Y004155D01*
X016779Y004254D02*
X016521Y004254D01*
X016422Y004352D02*
X016878Y004352D01*
X015878Y004352D02*
X015422Y004352D01*
X015405Y004370D02*
X015240Y004438D01*
X015060Y004438D01*
X014895Y004370D01*
X014769Y004243D01*
X014700Y004078D01*
X014700Y003899D01*
X014769Y003734D01*
X014895Y003607D01*
X015060Y003538D01*
X015240Y003538D01*
X015405Y003607D01*
X015531Y003734D01*
X015600Y003899D01*
X015600Y004078D01*
X015531Y004243D01*
X015405Y004370D01*
X015521Y004254D02*
X015779Y004254D01*
X015732Y004155D02*
X015568Y004155D01*
X015600Y004057D02*
X015700Y004057D01*
X015700Y003958D02*
X015600Y003958D01*
X015584Y003860D02*
X015716Y003860D01*
X015757Y003761D02*
X015543Y003761D01*
X015461Y003663D02*
X015839Y003663D01*
X015998Y003564D02*
X015302Y003564D01*
X015407Y003367D02*
X015893Y003367D01*
X015794Y003269D02*
X015506Y003269D01*
X015562Y003170D02*
X015738Y003170D01*
X015700Y003072D02*
X015600Y003072D01*
X015600Y002973D02*
X015700Y002973D01*
X015710Y002875D02*
X015590Y002875D01*
X015549Y002776D02*
X015751Y002776D01*
X015824Y002678D02*
X015476Y002678D01*
X015338Y002579D02*
X015962Y002579D01*
X014839Y003663D02*
X014461Y003663D01*
X014543Y003761D02*
X014757Y003761D01*
X014716Y003860D02*
X014584Y003860D01*
X014600Y003958D02*
X014700Y003958D01*
X014700Y004057D02*
X014600Y004057D01*
X014568Y004155D02*
X014732Y004155D01*
X014779Y004254D02*
X014521Y004254D01*
X014422Y004352D02*
X014878Y004352D01*
X013878Y004352D02*
X013415Y004352D01*
X013513Y004254D02*
X013779Y004254D01*
X013732Y004155D02*
X013569Y004155D01*
X013595Y004057D02*
X013700Y004057D01*
X013700Y003958D02*
X013200Y003958D01*
X013200Y003860D02*
X013100Y003860D01*
X013100Y003958D02*
X012600Y003958D01*
X012600Y004057D02*
X012705Y004057D01*
X012702Y004038D02*
X013100Y004038D01*
X013100Y004436D01*
X013045Y004427D01*
X012977Y004405D01*
X012914Y004373D01*
X012857Y004332D01*
X012807Y004282D01*
X012765Y004224D01*
X012733Y004161D01*
X012711Y004094D01*
X012702Y004038D01*
X012731Y004155D02*
X012568Y004155D01*
X012521Y004254D02*
X012787Y004254D01*
X012885Y004352D02*
X012422Y004352D01*
X013100Y004352D02*
X013200Y004352D01*
X013200Y004254D02*
X013100Y004254D01*
X013100Y004155D02*
X013200Y004155D01*
X013200Y004057D02*
X013100Y004057D01*
X013100Y003761D02*
X013200Y003761D01*
X013200Y003663D02*
X013100Y003663D01*
X012839Y003663D02*
X012461Y003663D01*
X012543Y003761D02*
X012761Y003761D01*
X012719Y003860D02*
X012584Y003860D01*
X011839Y003663D02*
X010433Y003663D01*
X010421Y003650D02*
X010496Y003726D01*
X010537Y003825D01*
X010537Y003932D01*
X010496Y004031D01*
X010421Y004106D01*
X010322Y004147D01*
X010215Y004147D01*
X010116Y004106D01*
X010111Y004101D01*
X010106Y004106D01*
X010007Y004147D01*
X009900Y004147D01*
X009801Y004106D01*
X009796Y004101D01*
X009791Y004106D01*
X009692Y004147D01*
X009585Y004147D01*
X009486Y004106D01*
X009481Y004101D01*
X009476Y004106D01*
X009377Y004147D01*
X009270Y004147D01*
X009171Y004106D01*
X009166Y004101D01*
X009161Y004106D01*
X009062Y004147D01*
X008955Y004147D01*
X008856Y004106D01*
X008851Y004101D01*
X008846Y004106D01*
X008747Y004147D01*
X008640Y004147D01*
X008541Y004106D01*
X008465Y004031D01*
X008424Y003932D01*
X008424Y003825D01*
X008465Y003726D01*
X008541Y003650D01*
X008640Y003609D01*
X008747Y003609D01*
X008846Y003650D01*
X008851Y003655D01*
X008856Y003650D01*
X008955Y003609D01*
X009062Y003609D01*
X009161Y003650D01*
X009166Y003655D01*
X009171Y003650D01*
X009270Y003609D01*
X009377Y003609D01*
X009476Y003650D01*
X009481Y003655D01*
X009486Y003650D01*
X009585Y003609D01*
X009692Y003609D01*
X009791Y003650D01*
X009796Y003655D01*
X009801Y003650D01*
X009900Y003609D01*
X010007Y003609D01*
X010106Y003650D01*
X010111Y003655D01*
X010116Y003650D01*
X010215Y003609D01*
X010322Y003609D01*
X010421Y003650D01*
X010511Y003761D02*
X011757Y003761D01*
X011716Y003860D02*
X010537Y003860D01*
X010526Y003958D02*
X011700Y003958D01*
X011700Y004057D02*
X010470Y004057D01*
X011732Y004155D02*
X000300Y004155D01*
X000300Y004057D02*
X003452Y004057D01*
X003396Y003958D02*
X000300Y003958D01*
X000300Y003860D02*
X003385Y003860D01*
X005394Y003663D02*
X006638Y003663D01*
X006651Y003650D02*
X006750Y003609D01*
X006857Y003609D01*
X006956Y003650D01*
X007032Y003726D01*
X007073Y003825D01*
X007073Y003932D01*
X007032Y004031D01*
X006956Y004106D01*
X006857Y004147D01*
X006750Y004147D01*
X006651Y004106D01*
X006575Y004031D01*
X006534Y003932D01*
X006534Y003825D01*
X006575Y003726D01*
X006651Y003650D01*
X006561Y003761D02*
X005472Y003761D01*
X005498Y003860D02*
X006534Y003860D01*
X006546Y003958D02*
X005487Y003958D01*
X005430Y004057D02*
X006602Y004057D01*
X007005Y004057D02*
X008492Y004057D01*
X008435Y003958D02*
X007062Y003958D01*
X007073Y003860D02*
X008424Y003860D01*
X008450Y003761D02*
X007046Y003761D01*
X006969Y003663D02*
X008528Y003663D01*
X011779Y004254D02*
X000300Y004254D01*
X000300Y004352D02*
X011878Y004352D01*
X013461Y003663D02*
X013839Y003663D01*
X013757Y003761D02*
X013539Y003761D01*
X013581Y003860D02*
X013716Y003860D01*
X013893Y003367D02*
X013394Y003367D01*
X013502Y003269D02*
X013794Y003269D01*
X013738Y003170D02*
X013562Y003170D01*
X013592Y003072D02*
X013700Y003072D01*
X012040Y006421D02*
X000300Y006421D01*
X000300Y006519D02*
X002529Y006519D01*
X002434Y006618D02*
X000300Y006618D01*
X000300Y006716D02*
X002401Y006716D01*
X002404Y006815D02*
X000300Y006815D01*
X000300Y006913D02*
X002450Y006913D01*
X002594Y007012D02*
X000300Y007012D01*
X000300Y007110D02*
X002665Y007110D01*
X002746Y007209D02*
X000300Y007209D01*
X000300Y007307D02*
X002885Y007307D01*
X002943Y007406D02*
X000300Y007406D01*
X000300Y007504D02*
X003109Y007504D01*
X003146Y007603D02*
X000300Y007603D01*
X000300Y007701D02*
X002290Y007701D01*
X002197Y007800D02*
X000300Y007800D01*
X000300Y007898D02*
X002164Y007898D01*
X002169Y007997D02*
X000300Y007997D01*
X000300Y008095D02*
X002215Y008095D01*
X002181Y008194D02*
X000300Y008194D01*
X000300Y008292D02*
X002164Y008292D01*
X002185Y008391D02*
X000300Y008391D01*
X000300Y008489D02*
X002205Y008489D01*
X002165Y008588D02*
X000300Y008588D01*
X000300Y008686D02*
X002164Y008686D01*
X002201Y008785D02*
X000300Y008785D01*
X000300Y008883D02*
X002189Y008883D01*
X002164Y008982D02*
X000300Y008982D01*
X000300Y009080D02*
X002177Y009080D01*
X002225Y009179D02*
X000300Y009179D01*
X000300Y009277D02*
X002173Y009277D01*
X002164Y009376D02*
X000300Y009376D01*
X000300Y009474D02*
X002194Y009474D01*
X002197Y009573D02*
X000300Y009573D01*
X000300Y009671D02*
X002164Y009671D01*
X002169Y009770D02*
X000300Y009770D01*
X000300Y009868D02*
X002216Y009868D01*
X002650Y009868D02*
X003536Y009868D01*
X003422Y009770D02*
X002698Y009770D01*
X002703Y009671D02*
X003385Y009671D01*
X003385Y009573D02*
X003426Y009474D01*
X003555Y009376D02*
X002703Y009376D01*
X003753Y009376D02*
X003870Y009376D01*
X004068Y009376D02*
X004185Y009376D01*
X004383Y009376D02*
X004500Y009376D01*
X004698Y009376D02*
X004815Y009376D01*
X004795Y009868D02*
X004717Y009868D01*
X004481Y009868D02*
X004402Y009868D01*
X004166Y009868D02*
X004087Y009868D01*
X003851Y009868D02*
X003772Y009868D01*
X003256Y007701D02*
X002577Y007701D01*
X003386Y007110D02*
X006849Y007110D01*
X006853Y007209D02*
X003473Y007209D01*
X003605Y007307D02*
X006900Y007307D01*
X006883Y007012D02*
X003310Y007012D01*
X002939Y006716D02*
X012057Y006716D01*
X012011Y006618D02*
X002905Y006618D01*
X002811Y006519D02*
X012007Y006519D01*
X015204Y012725D02*
X015230Y012725D01*
X014837Y013119D02*
X014811Y013119D01*
X014444Y013513D02*
X014360Y013513D01*
X014050Y013513D02*
X014024Y013513D01*
X013600Y013119D02*
X013573Y013119D01*
X017509Y014301D02*
X017594Y014301D01*
X018010Y017453D02*
X000300Y017453D01*
X000300Y017551D02*
X017934Y017551D01*
X017893Y017650D02*
X000300Y017650D01*
X000300Y017748D02*
X017881Y017748D01*
X017881Y017847D02*
X015500Y017847D01*
X015702Y017945D02*
X017918Y017945D01*
X017971Y018044D02*
X015801Y018044D01*
X015899Y018142D02*
X018069Y018142D01*
X018040Y019423D02*
X015870Y019423D01*
X015771Y019521D02*
X017954Y019521D01*
X017906Y019620D02*
X015667Y019620D01*
X014218Y019226D02*
X012611Y019226D01*
X012691Y019127D02*
X014177Y019127D01*
X014136Y019029D02*
X012732Y019029D01*
X012743Y018930D02*
X014111Y018930D01*
X014111Y018832D02*
X012742Y018832D01*
X012701Y018733D02*
X014111Y018733D01*
X014111Y018635D02*
X012637Y018635D01*
X012512Y018536D02*
X014124Y018536D01*
X014165Y018438D02*
X000300Y018438D01*
X000300Y018536D02*
X003733Y018536D01*
X003608Y018635D02*
X000300Y018635D01*
X000300Y018733D02*
X003543Y018733D01*
X003503Y018832D02*
X000300Y018832D01*
X000300Y018930D02*
X003502Y018930D01*
X003513Y019029D02*
X000300Y019029D01*
X000300Y019127D02*
X003554Y019127D01*
X003634Y019226D02*
X000300Y019226D01*
X000300Y019324D02*
X003796Y019324D01*
X004124Y019521D02*
X004558Y019521D01*
X004434Y019620D02*
X004252Y019620D01*
X004316Y019718D02*
X004370Y019718D01*
X004381Y020112D02*
X004302Y020112D01*
X004224Y020211D02*
X004461Y020211D01*
X004624Y020309D02*
X004057Y020309D01*
X003968Y020309D02*
X003891Y020309D01*
X003891Y020328D02*
X003829Y020318D01*
X003766Y020298D01*
X003706Y020267D01*
X003651Y020228D01*
X003604Y020180D01*
X003564Y020126D01*
X003534Y020066D01*
X003513Y020002D01*
X003503Y019940D01*
X003891Y019940D01*
X003891Y020328D01*
X003802Y020309D02*
X000300Y020309D01*
X000300Y020211D02*
X003635Y020211D01*
X003557Y020112D02*
X000300Y020112D01*
X000300Y020014D02*
X003517Y020014D01*
X003891Y020014D02*
X003968Y020014D01*
X003968Y020112D02*
X003891Y020112D01*
X003891Y020211D02*
X003968Y020211D01*
X004658Y020900D02*
X000300Y020900D01*
X000300Y020802D02*
X004757Y020802D01*
X004825Y020734D02*
X004604Y020954D01*
X004485Y021242D01*
X004485Y021554D01*
X004604Y021841D01*
X004825Y022062D01*
X005112Y022181D01*
X005424Y022181D01*
X005712Y022062D01*
X005932Y021841D01*
X006051Y021554D01*
X006051Y021242D01*
X005932Y020954D01*
X005712Y020734D01*
X005424Y020615D01*
X005112Y020615D01*
X004825Y020734D01*
X004898Y020703D02*
X000300Y020703D01*
X000300Y020605D02*
X039370Y020605D01*
X039370Y020703D02*
X011347Y020703D01*
X011420Y020734D02*
X011641Y020954D01*
X011760Y021242D01*
X011760Y021554D01*
X011641Y021841D01*
X011420Y022062D01*
X011133Y022181D01*
X010821Y022181D01*
X010533Y022062D01*
X010313Y021841D01*
X010194Y021554D01*
X010194Y021242D01*
X010313Y020954D01*
X010533Y020734D01*
X010821Y020615D01*
X011133Y020615D01*
X011420Y020734D01*
X011488Y020802D02*
X039370Y020802D01*
X039370Y020900D02*
X011587Y020900D01*
X011659Y020999D02*
X032446Y020999D01*
X032496Y020978D02*
X032626Y020978D01*
X032747Y021028D01*
X032839Y021120D01*
X032889Y021240D01*
X032889Y021370D01*
X032839Y021491D01*
X032747Y021583D01*
X032626Y021633D01*
X032496Y021633D01*
X032376Y021583D01*
X032284Y021491D01*
X032234Y021370D01*
X032234Y021240D01*
X032284Y021120D01*
X032376Y021028D01*
X032496Y020978D01*
X032677Y020999D02*
X034178Y020999D01*
X034229Y020978D02*
X034108Y021028D01*
X034016Y021120D01*
X033967Y021240D01*
X033967Y021370D01*
X034016Y021491D01*
X034108Y021583D01*
X034229Y021633D01*
X034359Y021633D01*
X034479Y021583D01*
X034571Y021491D01*
X034621Y021370D01*
X034621Y021240D01*
X034571Y021120D01*
X034479Y021028D01*
X034359Y020978D01*
X034229Y020978D01*
X034409Y020999D02*
X039370Y020999D01*
X039370Y021097D02*
X034549Y021097D01*
X034603Y021196D02*
X039370Y021196D01*
X039370Y021294D02*
X034621Y021294D01*
X034612Y021393D02*
X039370Y021393D01*
X039370Y021491D02*
X034570Y021491D01*
X034461Y021590D02*
X038203Y021590D01*
X038111Y021628D02*
X038387Y021514D01*
X038685Y021514D01*
X038961Y021628D01*
X039172Y021839D01*
X039286Y022115D01*
X039286Y022413D01*
X039172Y022689D01*
X038961Y022900D01*
X038685Y023014D01*
X038387Y023014D01*
X038111Y022900D01*
X037900Y022689D01*
X037786Y022413D01*
X037786Y022115D01*
X037900Y021839D01*
X038111Y021628D01*
X038051Y021688D02*
X011704Y021688D01*
X011745Y021590D02*
X032394Y021590D01*
X032285Y021491D02*
X011760Y021491D01*
X011760Y021393D02*
X032244Y021393D01*
X032234Y021294D02*
X011760Y021294D01*
X011741Y021196D02*
X032253Y021196D01*
X032307Y021097D02*
X011700Y021097D01*
X011663Y021787D02*
X037952Y021787D01*
X037881Y021885D02*
X011597Y021885D01*
X011498Y021984D02*
X037840Y021984D01*
X037799Y022082D02*
X011370Y022082D01*
X010583Y022082D02*
X005662Y022082D01*
X005789Y021984D02*
X010455Y021984D01*
X010357Y021885D02*
X005888Y021885D01*
X005955Y021787D02*
X010290Y021787D01*
X010250Y021688D02*
X005995Y021688D01*
X006036Y021590D02*
X010209Y021590D01*
X010194Y021491D02*
X006051Y021491D01*
X006051Y021393D02*
X010194Y021393D01*
X010194Y021294D02*
X006051Y021294D01*
X006032Y021196D02*
X010213Y021196D01*
X010254Y021097D02*
X005991Y021097D01*
X005950Y020999D02*
X010294Y020999D01*
X010367Y020900D02*
X005878Y020900D01*
X005780Y020802D02*
X010465Y020802D01*
X010607Y020703D02*
X005638Y020703D01*
X005648Y020309D02*
X004888Y020309D01*
X005051Y020211D02*
X005485Y020211D01*
X005405Y020112D02*
X005131Y020112D01*
X005172Y020014D02*
X005364Y020014D01*
X005394Y019718D02*
X005143Y019718D01*
X005079Y019620D02*
X005458Y019620D01*
X005582Y019521D02*
X004954Y019521D01*
X004305Y019127D02*
X006231Y019127D01*
X006190Y019029D02*
X004346Y019029D01*
X004357Y018930D02*
X006180Y018930D01*
X006180Y018832D02*
X004356Y018832D01*
X004316Y018733D02*
X006221Y018733D01*
X006285Y018635D02*
X004251Y018635D01*
X004126Y018536D02*
X006410Y018536D01*
X006311Y019226D02*
X004225Y019226D01*
X004586Y020999D02*
X000300Y020999D01*
X000300Y021097D02*
X004545Y021097D01*
X004504Y021196D02*
X000300Y021196D01*
X000300Y021294D02*
X004485Y021294D01*
X004485Y021393D02*
X000300Y021393D01*
X000300Y021491D02*
X004485Y021491D01*
X004500Y021590D02*
X001467Y021590D01*
X001559Y021628D02*
X001770Y021839D01*
X001884Y022115D01*
X001884Y022413D01*
X001770Y022689D01*
X001559Y022900D01*
X001283Y023014D01*
X000985Y023014D01*
X000709Y022900D01*
X000498Y022689D01*
X000384Y022413D01*
X000384Y022115D01*
X000498Y021839D01*
X000709Y021628D01*
X000985Y021514D01*
X001283Y021514D01*
X001559Y021628D01*
X001619Y021688D02*
X004541Y021688D01*
X004582Y021787D02*
X001718Y021787D01*
X001789Y021885D02*
X004648Y021885D01*
X004747Y021984D02*
X001830Y021984D01*
X001871Y022082D02*
X004875Y022082D01*
X001884Y022181D02*
X037786Y022181D01*
X037786Y022279D02*
X001884Y022279D01*
X001884Y022378D02*
X037786Y022378D01*
X037812Y022476D02*
X001858Y022476D01*
X001817Y022575D02*
X037853Y022575D01*
X037894Y022673D02*
X001776Y022673D01*
X001687Y022772D02*
X037983Y022772D01*
X038082Y022870D02*
X001588Y022870D01*
X001392Y022969D02*
X038278Y022969D01*
X038794Y022969D02*
X039370Y022969D01*
X039370Y023067D02*
X000300Y023067D01*
X000300Y022969D02*
X000876Y022969D01*
X000680Y022870D02*
X000300Y022870D01*
X000300Y022772D02*
X000582Y022772D01*
X000492Y022673D02*
X000300Y022673D01*
X000300Y022575D02*
X000451Y022575D01*
X000410Y022476D02*
X000300Y022476D01*
X000300Y022378D02*
X000384Y022378D01*
X000384Y022279D02*
X000300Y022279D01*
X000300Y022181D02*
X000384Y022181D01*
X000398Y022082D02*
X000300Y022082D01*
X000300Y021984D02*
X000438Y021984D01*
X000479Y021885D02*
X000300Y021885D01*
X000300Y021787D02*
X000551Y021787D01*
X000649Y021688D02*
X000300Y021688D01*
X000300Y021590D02*
X000802Y021590D01*
X000300Y020506D02*
X039370Y020506D01*
X039370Y020408D02*
X036206Y020408D01*
X036348Y020309D02*
X039370Y020309D01*
X039370Y020211D02*
X036404Y020211D01*
X036423Y020112D02*
X039370Y020112D01*
X039370Y020014D02*
X036415Y020014D01*
X036374Y019915D02*
X039370Y019915D01*
X039370Y019817D02*
X036272Y019817D01*
X035984Y020408D02*
X000300Y020408D01*
X000300Y018339D02*
X014206Y018339D01*
X014247Y018241D02*
X000300Y018241D01*
X000300Y018142D02*
X014322Y018142D01*
X014420Y018044D02*
X000300Y018044D01*
X000300Y017945D02*
X014519Y017945D01*
X014721Y017847D02*
X000300Y017847D01*
X005403Y013808D02*
X006856Y013808D01*
X006906Y013710D02*
X005475Y013710D01*
X009834Y018536D02*
X012119Y018536D01*
X011994Y018635D02*
X009960Y018635D01*
X010024Y018733D02*
X011929Y018733D01*
X011888Y018832D02*
X010065Y018832D01*
X010065Y018930D02*
X011888Y018930D01*
X011899Y019029D02*
X010054Y019029D01*
X010014Y019127D02*
X011940Y019127D01*
X012020Y019226D02*
X009934Y019226D01*
X009772Y019324D02*
X012181Y019324D01*
X012117Y019521D02*
X011687Y019521D01*
X011811Y019620D02*
X011993Y019620D01*
X011929Y019718D02*
X011875Y019718D01*
X011864Y020112D02*
X011940Y020112D01*
X012020Y020211D02*
X011784Y020211D01*
X011621Y020309D02*
X012183Y020309D01*
X012400Y020329D02*
X012557Y020264D01*
X012677Y020144D01*
X012743Y019987D01*
X012743Y019817D01*
X012743Y019915D02*
X017906Y019915D01*
X017954Y020014D02*
X012731Y020014D01*
X012690Y020112D02*
X018040Y020112D01*
X018252Y020211D02*
X012610Y020211D01*
X011357Y020309D02*
X010597Y020309D01*
X010760Y020211D02*
X011194Y020211D01*
X011113Y020112D02*
X010840Y020112D01*
X010881Y020014D02*
X011073Y020014D01*
X010892Y019987D02*
X010892Y019817D01*
X010851Y019718D02*
X011102Y019718D01*
X011166Y019620D02*
X010787Y019620D01*
X010663Y019521D02*
X011291Y019521D01*
X010267Y019521D02*
X009833Y019521D01*
X009960Y019620D02*
X010143Y019620D01*
X010079Y019718D02*
X010024Y019718D01*
X010010Y020112D02*
X010090Y020112D01*
X010170Y020211D02*
X009933Y020211D01*
X009766Y020309D02*
X010333Y020309D01*
X009677Y020309D02*
X009600Y020309D01*
X009600Y020211D02*
X009677Y020211D01*
X009677Y020112D02*
X009600Y020112D01*
X009600Y020014D02*
X009677Y020014D01*
X009316Y019620D02*
X006929Y019620D01*
X018281Y019521D02*
X018381Y019521D01*
X018381Y019423D02*
X018281Y019423D01*
X018281Y020014D02*
X018381Y020014D01*
X018381Y020112D02*
X018281Y020112D01*
X018281Y020211D02*
X018381Y020211D01*
X032729Y021590D02*
X034126Y021590D01*
X034017Y021491D02*
X032838Y021491D01*
X032879Y021393D02*
X033976Y021393D01*
X033967Y021294D02*
X032889Y021294D01*
X032870Y021196D02*
X033985Y021196D01*
X034039Y021097D02*
X032816Y021097D01*
X037255Y018142D02*
X039370Y018142D01*
X039370Y018044D02*
X037333Y018044D01*
X037368Y017945D02*
X039370Y017945D01*
X039370Y017847D02*
X037368Y017847D01*
X037335Y017748D02*
X039370Y017748D01*
X039370Y017650D02*
X037260Y017650D01*
X038868Y021590D02*
X039370Y021590D01*
X039370Y021688D02*
X039021Y021688D01*
X039119Y021787D02*
X039370Y021787D01*
X039370Y021885D02*
X039191Y021885D01*
X039232Y021984D02*
X039370Y021984D01*
X039370Y022082D02*
X039272Y022082D01*
X039286Y022181D02*
X039370Y022181D01*
X039370Y022279D02*
X039286Y022279D01*
X039286Y022378D02*
X039370Y022378D01*
X039370Y022476D02*
X039260Y022476D01*
X039219Y022575D02*
X039370Y022575D01*
X039370Y022673D02*
X039178Y022673D01*
X039089Y022772D02*
X039370Y022772D01*
X039370Y022870D02*
X038990Y022870D01*
X033886Y005042D02*
X033737Y005042D01*
X033414Y005042D02*
X033304Y005042D01*
X031248Y005042D02*
X031138Y005042D01*
D16*
X030977Y004823D03*
X031410Y004823D03*
X031843Y005256D03*
X032276Y004823D03*
X033142Y004823D03*
X033575Y004823D03*
X034048Y004823D03*
X031567Y007579D03*
X030622Y008721D03*
X030622Y009114D03*
X030859Y010414D03*
X031981Y010975D03*
X031390Y011457D03*
X028615Y010650D03*
X025662Y008288D03*
X022709Y006595D03*
X022709Y005847D03*
X022709Y005099D03*
X022709Y004351D03*
X022709Y003603D03*
X022709Y002855D03*
X025544Y002855D03*
X028969Y003839D03*
X029126Y005886D03*
X035307Y010256D03*
X036764Y010807D03*
X034737Y011605D03*
X034786Y012638D03*
X033703Y015729D03*
X032689Y016063D03*
X033693Y017264D03*
X034087Y018248D03*
X031056Y019784D03*
X035219Y016063D03*
X020465Y011477D03*
X019284Y011477D03*
X018575Y011319D03*
X018142Y011319D03*
X018142Y010925D03*
X017748Y010925D03*
X017748Y011319D03*
X017355Y011319D03*
X016961Y010925D03*
X016567Y011319D03*
X016961Y011713D03*
X016961Y012107D03*
X017355Y012107D03*
X017748Y012107D03*
X017355Y012500D03*
X016961Y012500D03*
X016961Y012894D03*
X016567Y012894D03*
X016174Y012894D03*
X015780Y012894D03*
X015780Y012500D03*
X015386Y012500D03*
X014993Y012500D03*
X014993Y012894D03*
X014599Y012894D03*
X014205Y012500D03*
X013811Y012500D03*
X013811Y012894D03*
X013418Y012894D03*
X013024Y012500D03*
X013418Y012107D03*
X013811Y012107D03*
X013811Y011713D03*
X013418Y011713D03*
X013811Y011319D03*
X013811Y010925D03*
X013418Y010925D03*
X013024Y011319D03*
X013024Y010532D03*
X013418Y010532D03*
X013811Y010532D03*
X014205Y010532D03*
X014599Y010532D03*
X014599Y010138D03*
X014993Y010138D03*
X015386Y010138D03*
X015386Y010532D03*
X015780Y010138D03*
X016174Y010138D03*
X016567Y009744D03*
X016567Y009351D03*
X016961Y009351D03*
X017355Y009351D03*
X017355Y009744D03*
X017748Y009744D03*
X017748Y009351D03*
X018142Y009351D03*
X018536Y009351D03*
X018969Y009193D03*
X020071Y009193D03*
X018536Y008170D03*
X017748Y008170D03*
X017276Y007855D03*
X017355Y008563D03*
X017748Y008563D03*
X016567Y008563D03*
X016174Y008957D03*
X015780Y009351D03*
X015780Y009744D03*
X015386Y009744D03*
X014599Y009744D03*
X014599Y009351D03*
X014205Y009744D03*
X013811Y009744D03*
X013811Y009351D03*
X013811Y008957D03*
X013024Y008957D03*
X013024Y009744D03*
X014599Y008957D03*
X014993Y008563D03*
X015386Y008563D03*
X015386Y008957D03*
X015465Y008130D03*
X014993Y008170D03*
X013142Y007815D03*
X012237Y008170D03*
X012276Y006555D03*
X015071Y004705D03*
X016056Y005571D03*
X017473Y006673D03*
X015583Y006949D03*
X016961Y010532D03*
X017355Y010532D03*
X017748Y010532D03*
X015780Y010925D03*
X015386Y011319D03*
X014993Y010925D03*
X014205Y011319D03*
X014599Y011713D03*
X014993Y011713D03*
X015386Y012107D03*
X015780Y011713D03*
X016174Y012107D03*
X016174Y013288D03*
X015780Y013288D03*
X015780Y013681D03*
X015386Y013288D03*
X014993Y013681D03*
X014599Y013288D03*
X014205Y013288D03*
X013811Y013288D03*
X013418Y013288D03*
X013024Y013288D03*
X013024Y013681D03*
X013024Y014075D03*
X013811Y013681D03*
X011922Y014233D03*
X011922Y015020D03*
X012315Y015020D03*
X010268Y015256D03*
X009953Y015492D03*
X009638Y015729D03*
X009323Y015965D03*
X009008Y016201D03*
X008693Y016437D03*
X006804Y014114D03*
X007119Y013878D03*
X005229Y013603D03*
X004914Y013366D03*
X004284Y012500D03*
X004599Y012264D03*
X004914Y011910D03*
X005229Y011595D03*
X006804Y010925D03*
X007119Y010729D03*
X008024Y009626D03*
X008693Y009626D03*
X009008Y009626D03*
X009323Y009626D03*
X009638Y009626D03*
X009953Y009626D03*
X010268Y009626D03*
X008024Y008209D03*
X007119Y007146D03*
X006804Y006870D03*
X005898Y008209D03*
X005898Y009626D03*
X004914Y009626D03*
X004599Y009626D03*
X004284Y009626D03*
X003969Y009626D03*
X003654Y009626D03*
X002433Y009705D03*
X002433Y009351D03*
X002433Y008996D03*
X002433Y008642D03*
X002433Y008288D03*
X002433Y007933D03*
X003378Y007461D03*
X003142Y007225D03*
X002906Y006988D03*
X002670Y006752D03*
X003654Y003878D03*
X003969Y003878D03*
X004284Y003878D03*
X004599Y003878D03*
X004914Y003878D03*
X005229Y003878D03*
X006804Y003878D03*
X007119Y003642D03*
X008693Y003878D03*
X009008Y003878D03*
X009323Y003878D03*
X009638Y003878D03*
X009953Y003878D03*
X010268Y003878D03*
X008063Y002540D03*
X005859Y002540D03*
X003969Y012776D03*
X003654Y013051D03*
X002670Y013839D03*
X002906Y014075D03*
X003142Y014311D03*
X003378Y014547D03*
X015032Y016792D03*
X018664Y014360D03*
X017748Y014075D03*
X017355Y014075D03*
X016567Y013681D03*
X016961Y013288D03*
X017355Y013288D03*
X017748Y013288D03*
X018142Y013288D03*
X019874Y014469D03*
X019126Y015020D03*
X019402Y015335D03*
D17*
X020504Y008721D03*
X019599Y006398D03*
X021410Y006398D03*
X037040Y017894D03*
X037945Y018317D03*
X036095Y020099D03*
D18*
X015583Y006949D02*
X014008Y006949D01*
X013142Y007815D01*
M02*
