G75*
G70*
%OFA0B0*%
%FSLAX24Y24*%
%IPPOS*%
%LPD*%
%AMOC8*
5,1,8,0,0,1.08239X$1,22.5*
%
%ADD10C,0.0554*%
%ADD11C,0.1266*%
%ADD12C,0.0600*%
%ADD13C,0.1700*%
%ADD14C,0.0270*%
%ADD15C,0.0238*%
%ADD16C,0.0356*%
%ADD17C,0.0100*%
%ADD18C,0.0360*%
%ADD19C,0.0400*%
%ADD20C,0.0240*%
%ADD21C,0.0120*%
D10*
X003930Y018918D03*
X003930Y019902D03*
X004756Y019902D03*
X005780Y019902D03*
X006607Y019902D03*
X006607Y018918D03*
X009638Y018918D03*
X009638Y019902D03*
X010465Y019902D03*
X011489Y019902D03*
X012315Y019902D03*
X012315Y018918D03*
D11*
X010977Y021398D03*
X005268Y021398D03*
D12*
X017882Y018768D03*
X018784Y018768D03*
X019685Y018768D03*
X020587Y018768D03*
X021489Y018768D03*
X021937Y019768D03*
X021036Y019768D03*
X020134Y019768D03*
X019233Y019768D03*
X018331Y019768D03*
X018331Y017768D03*
X019233Y017768D03*
X020134Y017768D03*
X021036Y017768D03*
X021937Y017768D03*
X022150Y014988D03*
X021150Y014988D03*
X020150Y014988D03*
X023150Y014988D03*
X024150Y014988D03*
X025150Y014988D03*
X026800Y014835D03*
X027800Y014835D03*
X028800Y014835D03*
X029800Y014835D03*
X029800Y015835D03*
X028800Y015835D03*
X027800Y015835D03*
X026800Y015835D03*
X027300Y017000D03*
X028300Y017000D03*
X029300Y017000D03*
X030300Y017000D03*
X030300Y018000D03*
X029300Y018000D03*
X028300Y018000D03*
X027300Y018000D03*
X021150Y003988D03*
X020150Y003988D03*
X019150Y003988D03*
X018150Y003988D03*
X017150Y003988D03*
X016150Y003988D03*
X015150Y003988D03*
X014150Y003988D03*
X013150Y003988D03*
X012150Y003988D03*
X012150Y002988D03*
X013150Y002988D03*
X014150Y002988D03*
X015150Y002988D03*
X016150Y002988D03*
X017150Y002988D03*
X018150Y002988D03*
X019150Y002988D03*
X020150Y002988D03*
X021150Y002988D03*
D13*
X024953Y018768D03*
X015111Y018768D03*
D14*
X030307Y012638D03*
X031390Y013622D03*
X031784Y014459D03*
X032768Y014459D03*
X033556Y014262D03*
X033998Y014262D03*
X035426Y014744D03*
X036764Y014351D03*
X037857Y013671D03*
X036361Y012195D03*
X036567Y011801D03*
X034343Y009882D03*
X033359Y010975D03*
X030721Y016044D03*
X032394Y020325D03*
X031833Y003170D03*
D15*
X031410Y004823D03*
X030977Y004823D03*
X031843Y005256D03*
X032276Y004823D03*
X033142Y004823D03*
X033575Y004823D03*
X034048Y004823D03*
X031567Y007579D03*
X030622Y008721D03*
X030622Y009114D03*
X030859Y010414D03*
X031981Y010975D03*
X031390Y011457D03*
X028615Y010650D03*
X025662Y008288D03*
X022709Y006595D03*
X022709Y005847D03*
X022709Y005099D03*
X022709Y004351D03*
X022709Y003603D03*
X022709Y002855D03*
X025544Y002855D03*
X028969Y003839D03*
X029126Y005886D03*
X035307Y010256D03*
X036764Y010807D03*
X034737Y011605D03*
X034786Y012638D03*
X033703Y015729D03*
X032689Y016063D03*
X033693Y017264D03*
X034087Y018248D03*
X031056Y019784D03*
X035219Y016063D03*
X020465Y011477D03*
X019284Y011477D03*
X018575Y011319D03*
X018142Y011319D03*
X018142Y010925D03*
X017748Y010925D03*
X017748Y011319D03*
X017355Y011319D03*
X016961Y010925D03*
X016567Y011319D03*
X016961Y011713D03*
X016961Y012107D03*
X017355Y012107D03*
X017748Y012107D03*
X017355Y012500D03*
X016961Y012500D03*
X016961Y012894D03*
X016567Y012894D03*
X016174Y012894D03*
X015780Y012894D03*
X015780Y012500D03*
X015386Y012500D03*
X014993Y012500D03*
X014993Y012894D03*
X014599Y012894D03*
X014205Y012500D03*
X013811Y012500D03*
X013811Y012894D03*
X013418Y012894D03*
X013024Y012500D03*
X013418Y012107D03*
X013811Y012107D03*
X013811Y011713D03*
X013418Y011713D03*
X013811Y011319D03*
X013811Y010925D03*
X013418Y010925D03*
X013024Y011319D03*
X013024Y010532D03*
X013418Y010532D03*
X013811Y010532D03*
X014205Y010532D03*
X014599Y010532D03*
X014599Y010138D03*
X014993Y010138D03*
X015386Y010138D03*
X015386Y010532D03*
X015780Y010138D03*
X016174Y010138D03*
X016567Y009744D03*
X016567Y009351D03*
X016961Y009351D03*
X017355Y009351D03*
X017355Y009744D03*
X017748Y009744D03*
X017748Y009351D03*
X018142Y009351D03*
X018536Y009351D03*
X018969Y009193D03*
X020071Y009193D03*
X018536Y008170D03*
X017748Y008170D03*
X017276Y007855D03*
X017355Y008563D03*
X017748Y008563D03*
X016567Y008563D03*
X016174Y008957D03*
X015780Y009351D03*
X015780Y009744D03*
X015386Y009744D03*
X014599Y009744D03*
X014599Y009351D03*
X014205Y009744D03*
X013811Y009744D03*
X013811Y009351D03*
X013811Y008957D03*
X013024Y008957D03*
X013024Y009744D03*
X014599Y008957D03*
X014993Y008563D03*
X015386Y008563D03*
X015386Y008957D03*
X015465Y008130D03*
X014993Y008170D03*
X013142Y007815D03*
X012237Y008170D03*
X012276Y006555D03*
X015071Y004705D03*
X016056Y005571D03*
X017473Y006673D03*
X015583Y006949D03*
X016961Y010532D03*
X017355Y010532D03*
X017748Y010532D03*
X015780Y010925D03*
X015386Y011319D03*
X014993Y010925D03*
X014205Y011319D03*
X014599Y011713D03*
X014993Y011713D03*
X015386Y012107D03*
X015780Y011713D03*
X016174Y012107D03*
X016174Y013288D03*
X015780Y013288D03*
X015780Y013681D03*
X015386Y013288D03*
X014993Y013681D03*
X014599Y013288D03*
X014205Y013288D03*
X013811Y013288D03*
X013418Y013288D03*
X013024Y013288D03*
X013024Y013681D03*
X013024Y014075D03*
X013811Y013681D03*
X011922Y014233D03*
X011922Y015020D03*
X012315Y015020D03*
X010268Y015256D03*
X009953Y015492D03*
X009638Y015729D03*
X009323Y015965D03*
X009008Y016201D03*
X008693Y016437D03*
X006804Y014114D03*
X007119Y013878D03*
X005229Y013603D03*
X004914Y013366D03*
X004284Y012500D03*
X004599Y012264D03*
X004914Y011910D03*
X005229Y011595D03*
X006804Y010925D03*
X007119Y010729D03*
X008024Y009626D03*
X008693Y009626D03*
X009008Y009626D03*
X009323Y009626D03*
X009638Y009626D03*
X009953Y009626D03*
X010268Y009626D03*
X008024Y008209D03*
X007119Y007146D03*
X006804Y006870D03*
X005898Y008209D03*
X005898Y009626D03*
X004914Y009626D03*
X004599Y009626D03*
X004284Y009626D03*
X003969Y009626D03*
X003654Y009626D03*
X002433Y009705D03*
X002433Y009351D03*
X002433Y008996D03*
X002433Y008642D03*
X002433Y008288D03*
X002433Y007933D03*
X003378Y007461D03*
X003142Y007225D03*
X002906Y006988D03*
X002670Y006752D03*
X003654Y003878D03*
X003969Y003878D03*
X004284Y003878D03*
X004599Y003878D03*
X004914Y003878D03*
X005229Y003878D03*
X006804Y003878D03*
X007119Y003642D03*
X008693Y003878D03*
X009008Y003878D03*
X009323Y003878D03*
X009638Y003878D03*
X009953Y003878D03*
X010268Y003878D03*
X008063Y002540D03*
X005859Y002540D03*
X003969Y012776D03*
X003654Y013051D03*
X002670Y013839D03*
X002906Y014075D03*
X003142Y014311D03*
X003378Y014547D03*
X015032Y016792D03*
X018664Y014360D03*
X017748Y014075D03*
X017355Y014075D03*
X016567Y013681D03*
X016961Y013288D03*
X017355Y013288D03*
X017748Y013288D03*
X018142Y013288D03*
X019874Y014469D03*
X019126Y015020D03*
X019402Y015335D03*
D16*
X020504Y008721D03*
X019599Y006398D03*
X021410Y006398D03*
X037040Y017894D03*
X037945Y018317D03*
X036095Y020099D03*
D17*
X000300Y023098D02*
X000300Y002138D01*
X039370Y002138D01*
X039370Y023098D01*
X000300Y023098D01*
X000300Y023067D02*
X039370Y023067D01*
X039370Y022969D02*
X038794Y022969D01*
X038685Y023014D02*
X038387Y023014D01*
X038111Y022900D01*
X037900Y022689D01*
X037786Y022413D01*
X037786Y022115D01*
X037900Y021839D01*
X038111Y021628D01*
X038387Y021514D01*
X038685Y021514D01*
X038961Y021628D01*
X039172Y021839D01*
X039286Y022115D01*
X039286Y022413D01*
X039172Y022689D01*
X038961Y022900D01*
X038685Y023014D01*
X038990Y022870D02*
X039370Y022870D01*
X039370Y022772D02*
X039089Y022772D01*
X039178Y022673D02*
X039370Y022673D01*
X039370Y022575D02*
X039219Y022575D01*
X039260Y022476D02*
X039370Y022476D01*
X039370Y022378D02*
X039286Y022378D01*
X039286Y022279D02*
X039370Y022279D01*
X039370Y022181D02*
X039286Y022181D01*
X039272Y022082D02*
X039370Y022082D01*
X039370Y021984D02*
X039232Y021984D01*
X039191Y021885D02*
X039370Y021885D01*
X039370Y021787D02*
X039119Y021787D01*
X039021Y021688D02*
X039370Y021688D01*
X039370Y021590D02*
X038868Y021590D01*
X039370Y021491D02*
X034570Y021491D01*
X034571Y021491D02*
X034479Y021583D01*
X034359Y021633D01*
X034229Y021633D01*
X034108Y021583D01*
X034016Y021491D01*
X033967Y021370D01*
X033967Y021240D01*
X034016Y021120D01*
X034108Y021028D01*
X034229Y020978D01*
X034359Y020978D01*
X034479Y021028D01*
X034571Y021120D01*
X034621Y021240D01*
X034621Y021370D01*
X034571Y021491D01*
X034612Y021393D02*
X039370Y021393D01*
X039370Y021294D02*
X034621Y021294D01*
X034603Y021196D02*
X039370Y021196D01*
X039370Y021097D02*
X034549Y021097D01*
X034409Y020999D02*
X039370Y020999D01*
X039370Y020900D02*
X011587Y020900D01*
X011641Y020954D02*
X011760Y021242D01*
X011760Y021554D01*
X011641Y021841D01*
X011420Y022062D01*
X011133Y022181D01*
X010821Y022181D01*
X010533Y022062D01*
X010313Y021841D01*
X010194Y021554D01*
X010194Y021242D01*
X010313Y020954D01*
X010533Y020734D01*
X010821Y020615D01*
X011133Y020615D01*
X011420Y020734D01*
X011641Y020954D01*
X011659Y020999D02*
X032446Y020999D01*
X032496Y020978D02*
X032626Y020978D01*
X032747Y021028D01*
X032839Y021120D01*
X032889Y021240D01*
X032889Y021370D01*
X032839Y021491D01*
X032747Y021583D01*
X032626Y021633D01*
X032496Y021633D01*
X032376Y021583D01*
X032284Y021491D01*
X032234Y021370D01*
X032234Y021240D01*
X032284Y021120D01*
X032376Y021028D01*
X032496Y020978D01*
X032677Y020999D02*
X034178Y020999D01*
X034039Y021097D02*
X032816Y021097D01*
X032870Y021196D02*
X033985Y021196D01*
X033967Y021294D02*
X032889Y021294D01*
X032879Y021393D02*
X033976Y021393D01*
X034017Y021491D02*
X032838Y021491D01*
X032729Y021590D02*
X034126Y021590D01*
X034461Y021590D02*
X038203Y021590D01*
X038051Y021688D02*
X011704Y021688D01*
X011745Y021590D02*
X032394Y021590D01*
X032285Y021491D02*
X011760Y021491D01*
X011760Y021393D02*
X032244Y021393D01*
X032234Y021294D02*
X011760Y021294D01*
X011741Y021196D02*
X032253Y021196D01*
X032307Y021097D02*
X011700Y021097D01*
X011488Y020802D02*
X039370Y020802D01*
X039370Y020703D02*
X011347Y020703D01*
X011404Y020329D02*
X011247Y020264D01*
X011126Y020144D01*
X011061Y019987D01*
X011061Y019817D01*
X010892Y019817D01*
X010892Y019987D01*
X010827Y020144D01*
X010707Y020264D01*
X010550Y020329D01*
X010380Y020329D01*
X010223Y020264D01*
X010103Y020144D01*
X010052Y020020D01*
X010000Y020144D01*
X009880Y020264D01*
X009723Y020329D01*
X009553Y020329D01*
X009396Y020264D01*
X009276Y020144D01*
X009211Y019987D01*
X009211Y019817D01*
X007034Y019817D01*
X007034Y019987D01*
X006969Y020144D01*
X006849Y020264D01*
X006692Y020329D01*
X006522Y020329D01*
X006365Y020264D01*
X006245Y020144D01*
X006193Y020020D01*
X006142Y020144D01*
X006022Y020264D01*
X005865Y020329D01*
X005695Y020329D01*
X005538Y020264D01*
X005418Y020144D01*
X005353Y019987D01*
X005353Y019817D01*
X005183Y019817D01*
X005183Y019987D01*
X005118Y020144D01*
X004998Y020264D01*
X004841Y020329D01*
X004671Y020329D01*
X004514Y020264D01*
X004394Y020144D01*
X004343Y020020D01*
X004292Y020144D01*
X004171Y020264D01*
X004014Y020329D01*
X003845Y020329D01*
X003688Y020264D01*
X003567Y020144D01*
X003502Y019987D01*
X003502Y019817D01*
X000300Y019817D01*
X000300Y019915D02*
X003502Y019915D01*
X003502Y019817D02*
X003567Y019660D01*
X003688Y019540D01*
X003845Y019475D01*
X004014Y019475D01*
X004171Y019540D01*
X004292Y019660D01*
X004343Y019784D01*
X004394Y019660D01*
X004514Y019540D01*
X004671Y019475D01*
X004841Y019475D01*
X004998Y019540D01*
X005118Y019660D01*
X005183Y019817D01*
X005183Y019915D02*
X005353Y019915D01*
X005353Y019817D02*
X005418Y019660D01*
X005538Y019540D01*
X005695Y019475D01*
X005798Y019475D01*
X001693Y015370D01*
X001652Y015270D01*
X001652Y004573D01*
X001693Y004473D01*
X003189Y002977D01*
X003265Y002901D01*
X003364Y002860D01*
X010873Y002860D01*
X010972Y002901D01*
X011786Y003716D01*
X011895Y003607D01*
X012060Y003538D01*
X012240Y003538D01*
X012405Y003607D01*
X012531Y003734D01*
X012600Y003899D01*
X012600Y004078D01*
X012531Y004243D01*
X012405Y004370D01*
X012240Y004438D01*
X012060Y004438D01*
X011895Y004370D01*
X011784Y004258D01*
X011624Y004258D01*
X011525Y004217D01*
X011449Y004141D01*
X010707Y003400D01*
X007238Y003400D01*
X007271Y003414D01*
X007347Y003490D01*
X007388Y003588D01*
X007388Y003695D01*
X007347Y003794D01*
X007271Y003870D01*
X007172Y003911D01*
X007065Y003911D01*
X006966Y003870D01*
X006890Y003794D01*
X006849Y003695D01*
X006849Y003588D01*
X006890Y003490D01*
X006966Y003414D01*
X006999Y003400D01*
X003530Y003400D01*
X002192Y004738D01*
X002192Y007814D01*
X002205Y007781D01*
X002281Y007705D01*
X002380Y007664D01*
X002487Y007664D01*
X002586Y007705D01*
X002662Y007781D01*
X002703Y007880D01*
X002703Y007987D01*
X002662Y008086D01*
X002637Y008110D01*
X002662Y008135D01*
X002703Y008234D01*
X002703Y008341D01*
X002662Y008440D01*
X002637Y008465D01*
X002662Y008490D01*
X002703Y008588D01*
X002703Y008695D01*
X002662Y008794D01*
X002637Y008819D01*
X002662Y008844D01*
X002703Y008943D01*
X002703Y009050D01*
X002662Y009149D01*
X002637Y009173D01*
X002662Y009198D01*
X002703Y009297D01*
X002703Y009404D01*
X002662Y009503D01*
X002637Y009528D01*
X002662Y009553D01*
X002703Y009651D01*
X002703Y009758D01*
X002662Y009857D01*
X002586Y009933D01*
X002487Y009974D01*
X002380Y009974D01*
X002281Y009933D01*
X002205Y009857D01*
X002192Y009824D01*
X002192Y015105D01*
X006243Y019157D01*
X006180Y019003D01*
X006180Y018833D01*
X006245Y018676D01*
X006365Y018555D01*
X006522Y018490D01*
X006692Y018490D01*
X006849Y018555D01*
X006969Y018676D01*
X007034Y018833D01*
X007034Y019003D01*
X006969Y019160D01*
X006849Y019280D01*
X006692Y019345D01*
X006522Y019345D01*
X006368Y019281D01*
X006561Y019475D01*
X006692Y019475D01*
X006849Y019540D01*
X006969Y019660D01*
X007034Y019817D01*
X007034Y019915D02*
X009211Y019915D01*
X009211Y019817D02*
X009276Y019660D01*
X009396Y019540D01*
X009553Y019475D01*
X009723Y019475D01*
X009880Y019540D01*
X010000Y019660D01*
X010052Y019784D01*
X010103Y019660D01*
X010223Y019540D01*
X010380Y019475D01*
X010550Y019475D01*
X010707Y019540D01*
X010827Y019660D01*
X010892Y019817D01*
X010892Y019915D02*
X011061Y019915D01*
X011061Y019817D02*
X011126Y019660D01*
X011247Y019540D01*
X011404Y019475D01*
X011574Y019475D01*
X011731Y019540D01*
X011851Y019660D01*
X011902Y019784D01*
X011953Y019660D01*
X012073Y019540D01*
X012230Y019475D01*
X012400Y019475D01*
X012557Y019540D01*
X012677Y019660D01*
X012743Y019817D01*
X017881Y019817D01*
X017881Y019857D02*
X017881Y019678D01*
X017950Y019513D01*
X018076Y019386D01*
X018242Y019318D01*
X018421Y019318D01*
X018586Y019386D01*
X018713Y019513D01*
X018781Y019678D01*
X018781Y019857D01*
X018713Y020023D01*
X018586Y020149D01*
X018421Y020218D01*
X018242Y020218D01*
X018076Y020149D01*
X017950Y020023D01*
X017881Y019857D01*
X017905Y019915D02*
X012743Y019915D01*
X012743Y019987D02*
X012677Y020144D01*
X012557Y020264D01*
X012400Y020329D01*
X012230Y020329D01*
X012073Y020264D01*
X011953Y020144D01*
X011902Y020020D01*
X011851Y020144D01*
X011731Y020264D01*
X011574Y020329D01*
X011404Y020329D01*
X011357Y020309D02*
X010597Y020309D01*
X010760Y020211D02*
X011194Y020211D01*
X011113Y020112D02*
X010840Y020112D01*
X010881Y020014D02*
X011073Y020014D01*
X011102Y019718D02*
X010851Y019718D01*
X010787Y019620D02*
X011166Y019620D01*
X011291Y019521D02*
X010663Y019521D01*
X010267Y019521D02*
X009836Y019521D01*
X009960Y019620D02*
X010143Y019620D01*
X010079Y019718D02*
X010025Y019718D01*
X010013Y020112D02*
X010090Y020112D01*
X010170Y020211D02*
X009933Y020211D01*
X009770Y020309D02*
X010333Y020309D01*
X010607Y020703D02*
X005638Y020703D01*
X005712Y020734D02*
X005932Y020954D01*
X006051Y021242D01*
X006051Y021554D01*
X005932Y021841D01*
X005712Y022062D01*
X005424Y022181D01*
X005112Y022181D01*
X004825Y022062D01*
X004604Y021841D01*
X004485Y021554D01*
X004485Y021242D01*
X004604Y020954D01*
X004825Y020734D01*
X005112Y020615D01*
X005424Y020615D01*
X005712Y020734D01*
X005780Y020802D02*
X010465Y020802D01*
X010367Y020900D02*
X005878Y020900D01*
X005950Y020999D02*
X010294Y020999D01*
X010254Y021097D02*
X005991Y021097D01*
X006032Y021196D02*
X010213Y021196D01*
X010194Y021294D02*
X006051Y021294D01*
X006051Y021393D02*
X010194Y021393D01*
X010194Y021491D02*
X006051Y021491D01*
X006036Y021590D02*
X010209Y021590D01*
X010250Y021688D02*
X005995Y021688D01*
X005955Y021787D02*
X010290Y021787D01*
X010357Y021885D02*
X005888Y021885D01*
X005789Y021984D02*
X010455Y021984D01*
X010583Y022082D02*
X005662Y022082D01*
X004875Y022082D02*
X001871Y022082D01*
X001884Y022115D02*
X001770Y021839D01*
X001559Y021628D01*
X001283Y021514D01*
X000985Y021514D01*
X000709Y021628D01*
X000498Y021839D01*
X000384Y022115D01*
X000384Y022413D01*
X000498Y022689D01*
X000709Y022900D01*
X000985Y023014D01*
X001283Y023014D01*
X001559Y022900D01*
X001770Y022689D01*
X001884Y022413D01*
X001884Y022115D01*
X001884Y022181D02*
X037786Y022181D01*
X037786Y022279D02*
X001884Y022279D01*
X001884Y022378D02*
X037786Y022378D01*
X037812Y022476D02*
X001858Y022476D01*
X001817Y022575D02*
X037853Y022575D01*
X037894Y022673D02*
X001776Y022673D01*
X001687Y022772D02*
X037983Y022772D01*
X038082Y022870D02*
X001588Y022870D01*
X001392Y022969D02*
X038278Y022969D01*
X037799Y022082D02*
X011370Y022082D01*
X011498Y021984D02*
X037840Y021984D01*
X037881Y021885D02*
X011597Y021885D01*
X011663Y021787D02*
X037952Y021787D01*
X039370Y020605D02*
X032463Y020605D01*
X032451Y020610D02*
X032337Y020610D01*
X032233Y020567D01*
X032152Y020486D01*
X032109Y020382D01*
X032109Y020268D01*
X032152Y020164D01*
X032233Y020083D01*
X032337Y020040D01*
X032451Y020040D01*
X032556Y020083D01*
X032636Y020164D01*
X032679Y020268D01*
X032679Y020382D01*
X032636Y020486D01*
X032556Y020567D01*
X032451Y020610D01*
X032325Y020605D02*
X000300Y020605D01*
X000300Y020703D02*
X004898Y020703D01*
X004757Y020802D02*
X000300Y020802D01*
X000300Y020900D02*
X004658Y020900D01*
X004586Y020999D02*
X000300Y020999D01*
X000300Y021097D02*
X004545Y021097D01*
X004504Y021196D02*
X000300Y021196D01*
X000300Y021294D02*
X004485Y021294D01*
X004485Y021393D02*
X000300Y021393D01*
X000300Y021491D02*
X004485Y021491D01*
X004500Y021590D02*
X001467Y021590D01*
X001619Y021688D02*
X004541Y021688D01*
X004582Y021787D02*
X001718Y021787D01*
X001789Y021885D02*
X004648Y021885D01*
X004747Y021984D02*
X001830Y021984D01*
X000802Y021590D02*
X000300Y021590D01*
X000300Y021688D02*
X000649Y021688D01*
X000551Y021787D02*
X000300Y021787D01*
X000300Y021885D02*
X000479Y021885D01*
X000438Y021984D02*
X000300Y021984D01*
X000300Y022082D02*
X000398Y022082D01*
X000384Y022181D02*
X000300Y022181D01*
X000300Y022279D02*
X000384Y022279D01*
X000384Y022378D02*
X000300Y022378D01*
X000300Y022476D02*
X000410Y022476D01*
X000451Y022575D02*
X000300Y022575D01*
X000300Y022673D02*
X000492Y022673D01*
X000582Y022772D02*
X000300Y022772D01*
X000300Y022870D02*
X000680Y022870D01*
X000876Y022969D02*
X000300Y022969D01*
X000300Y020506D02*
X032172Y020506D01*
X032120Y020408D02*
X000300Y020408D01*
X000300Y020309D02*
X003797Y020309D01*
X003635Y020211D02*
X000300Y020211D01*
X000300Y020112D02*
X003554Y020112D01*
X003514Y020014D02*
X000300Y020014D01*
X000300Y019718D02*
X003543Y019718D01*
X003607Y019620D02*
X000300Y019620D01*
X000300Y019521D02*
X003732Y019521D01*
X003796Y019324D02*
X000300Y019324D01*
X000300Y019226D02*
X003634Y019226D01*
X003688Y019280D02*
X003567Y019160D01*
X003502Y019003D01*
X003502Y018833D01*
X003567Y018676D01*
X003688Y018555D01*
X003845Y018490D01*
X004014Y018490D01*
X004171Y018555D01*
X004292Y018676D01*
X004357Y018833D01*
X004357Y019003D01*
X004292Y019160D01*
X004171Y019280D01*
X004014Y019345D01*
X003845Y019345D01*
X003688Y019280D01*
X003554Y019127D02*
X000300Y019127D01*
X000300Y019029D02*
X003513Y019029D01*
X003502Y018930D02*
X000300Y018930D01*
X000300Y018832D02*
X003503Y018832D01*
X003543Y018733D02*
X000300Y018733D01*
X000300Y018635D02*
X003608Y018635D01*
X003733Y018536D02*
X000300Y018536D01*
X000300Y018438D02*
X004761Y018438D01*
X004860Y018536D02*
X004126Y018536D01*
X004251Y018635D02*
X004958Y018635D01*
X005057Y018733D02*
X004316Y018733D01*
X004356Y018832D02*
X005155Y018832D01*
X005254Y018930D02*
X004357Y018930D01*
X004346Y019029D02*
X005352Y019029D01*
X005451Y019127D02*
X004305Y019127D01*
X004225Y019226D02*
X005549Y019226D01*
X005648Y019324D02*
X004063Y019324D01*
X004128Y019521D02*
X004558Y019521D01*
X004434Y019620D02*
X004252Y019620D01*
X004316Y019718D02*
X004370Y019718D01*
X004381Y020112D02*
X004305Y020112D01*
X004224Y020211D02*
X004461Y020211D01*
X004624Y020309D02*
X004062Y020309D01*
X004888Y020309D02*
X005648Y020309D01*
X005485Y020211D02*
X005051Y020211D01*
X005131Y020112D02*
X005405Y020112D01*
X005364Y020014D02*
X005172Y020014D01*
X005143Y019718D02*
X005394Y019718D01*
X005458Y019620D02*
X005079Y019620D01*
X004954Y019521D02*
X005582Y019521D01*
X005746Y019423D02*
X000300Y019423D01*
X000300Y018339D02*
X004663Y018339D01*
X004564Y018241D02*
X000300Y018241D01*
X000300Y018142D02*
X004466Y018142D01*
X004367Y018044D02*
X000300Y018044D01*
X000300Y017945D02*
X004269Y017945D01*
X004170Y017847D02*
X000300Y017847D01*
X000300Y017748D02*
X004072Y017748D01*
X003973Y017650D02*
X000300Y017650D01*
X000300Y017551D02*
X003875Y017551D01*
X003776Y017453D02*
X000300Y017453D01*
X000300Y017354D02*
X003678Y017354D01*
X003579Y017256D02*
X000300Y017256D01*
X000300Y017157D02*
X003481Y017157D01*
X003382Y017059D02*
X000300Y017059D01*
X000300Y016960D02*
X003284Y016960D01*
X003185Y016862D02*
X000300Y016862D01*
X000300Y016763D02*
X003087Y016763D01*
X002988Y016665D02*
X000300Y016665D01*
X000300Y016566D02*
X002890Y016566D01*
X002791Y016468D02*
X000300Y016468D01*
X000300Y016369D02*
X002693Y016369D01*
X002594Y016271D02*
X000300Y016271D01*
X000300Y016172D02*
X002496Y016172D01*
X002397Y016074D02*
X000300Y016074D01*
X000300Y015975D02*
X002299Y015975D01*
X002200Y015877D02*
X000300Y015877D01*
X000300Y015778D02*
X002102Y015778D01*
X002003Y015680D02*
X000300Y015680D01*
X000300Y015581D02*
X001905Y015581D01*
X001806Y015483D02*
X000300Y015483D01*
X000300Y015384D02*
X001708Y015384D01*
X001658Y015286D02*
X000300Y015286D01*
X000300Y015187D02*
X001652Y015187D01*
X001652Y015089D02*
X000300Y015089D01*
X000300Y014990D02*
X001652Y014990D01*
X001652Y014892D02*
X000300Y014892D01*
X000300Y014793D02*
X001652Y014793D01*
X001652Y014695D02*
X000300Y014695D01*
X000300Y014596D02*
X001652Y014596D01*
X001652Y014498D02*
X000300Y014498D01*
X000300Y014399D02*
X001652Y014399D01*
X001652Y014301D02*
X000300Y014301D01*
X000300Y014202D02*
X001652Y014202D01*
X001652Y014104D02*
X000300Y014104D01*
X000300Y014005D02*
X001652Y014005D01*
X001652Y013907D02*
X000300Y013907D01*
X000300Y013808D02*
X001652Y013808D01*
X001652Y013710D02*
X000300Y013710D01*
X000300Y013611D02*
X001652Y013611D01*
X001652Y013513D02*
X000300Y013513D01*
X000300Y013414D02*
X001652Y013414D01*
X001652Y013316D02*
X000300Y013316D01*
X000300Y013217D02*
X001652Y013217D01*
X001652Y013119D02*
X000300Y013119D01*
X000300Y013020D02*
X001652Y013020D01*
X001652Y012922D02*
X000300Y012922D01*
X000300Y012823D02*
X001652Y012823D01*
X001652Y012725D02*
X000300Y012725D01*
X000300Y012626D02*
X001652Y012626D01*
X001652Y012528D02*
X000300Y012528D01*
X000300Y012429D02*
X001652Y012429D01*
X001652Y012331D02*
X000300Y012331D01*
X000300Y012232D02*
X001652Y012232D01*
X001652Y012134D02*
X000300Y012134D01*
X000300Y012035D02*
X001652Y012035D01*
X001652Y011937D02*
X000300Y011937D01*
X000300Y011838D02*
X001652Y011838D01*
X001652Y011740D02*
X000300Y011740D01*
X000300Y011641D02*
X001652Y011641D01*
X001652Y011543D02*
X000300Y011543D01*
X000300Y011444D02*
X001652Y011444D01*
X001652Y011346D02*
X000300Y011346D01*
X000300Y011247D02*
X001652Y011247D01*
X001652Y011149D02*
X000300Y011149D01*
X000300Y011050D02*
X001652Y011050D01*
X001652Y010952D02*
X000300Y010952D01*
X000300Y010853D02*
X001652Y010853D01*
X001652Y010755D02*
X000300Y010755D01*
X000300Y010656D02*
X001652Y010656D01*
X001652Y010558D02*
X000300Y010558D01*
X000300Y010459D02*
X001652Y010459D01*
X001652Y010361D02*
X000300Y010361D01*
X000300Y010262D02*
X001652Y010262D01*
X001652Y010164D02*
X000300Y010164D01*
X000300Y010065D02*
X001652Y010065D01*
X001652Y009967D02*
X000300Y009967D01*
X000300Y009868D02*
X001652Y009868D01*
X001652Y009770D02*
X000300Y009770D01*
X000300Y009671D02*
X001652Y009671D01*
X001652Y009573D02*
X000300Y009573D01*
X000300Y009474D02*
X001652Y009474D01*
X001652Y009376D02*
X000300Y009376D01*
X000300Y009277D02*
X001652Y009277D01*
X001652Y009179D02*
X000300Y009179D01*
X000300Y009080D02*
X001652Y009080D01*
X001652Y008982D02*
X000300Y008982D01*
X000300Y008883D02*
X001652Y008883D01*
X001652Y008785D02*
X000300Y008785D01*
X000300Y008686D02*
X001652Y008686D01*
X001652Y008588D02*
X000300Y008588D01*
X000300Y008489D02*
X001652Y008489D01*
X001652Y008391D02*
X000300Y008391D01*
X000300Y008292D02*
X001652Y008292D01*
X001652Y008194D02*
X000300Y008194D01*
X000300Y008095D02*
X001652Y008095D01*
X001652Y007997D02*
X000300Y007997D01*
X000300Y007898D02*
X001652Y007898D01*
X001652Y007800D02*
X000300Y007800D01*
X000300Y007701D02*
X001652Y007701D01*
X001652Y007603D02*
X000300Y007603D01*
X000300Y007504D02*
X001652Y007504D01*
X001652Y007406D02*
X000300Y007406D01*
X000300Y007307D02*
X001652Y007307D01*
X001652Y007209D02*
X000300Y007209D01*
X000300Y007110D02*
X001652Y007110D01*
X001652Y007012D02*
X000300Y007012D01*
X000300Y006913D02*
X001652Y006913D01*
X001652Y006815D02*
X000300Y006815D01*
X000300Y006716D02*
X001652Y006716D01*
X001652Y006618D02*
X000300Y006618D01*
X000300Y006519D02*
X001652Y006519D01*
X001652Y006421D02*
X000300Y006421D01*
X000300Y006322D02*
X001652Y006322D01*
X001652Y006224D02*
X000300Y006224D01*
X000300Y006125D02*
X001652Y006125D01*
X001652Y006027D02*
X000300Y006027D01*
X000300Y005928D02*
X001652Y005928D01*
X001652Y005830D02*
X000300Y005830D01*
X000300Y005731D02*
X001652Y005731D01*
X001652Y005633D02*
X000300Y005633D01*
X000300Y005534D02*
X001652Y005534D01*
X001652Y005436D02*
X000300Y005436D01*
X000300Y005337D02*
X001652Y005337D01*
X001652Y005239D02*
X000300Y005239D01*
X000300Y005140D02*
X001652Y005140D01*
X001652Y005042D02*
X000300Y005042D01*
X000300Y004943D02*
X001652Y004943D01*
X001652Y004845D02*
X000300Y004845D01*
X000300Y004746D02*
X001652Y004746D01*
X001652Y004648D02*
X000300Y004648D01*
X000300Y004549D02*
X001661Y004549D01*
X001715Y004451D02*
X000300Y004451D01*
X000300Y004352D02*
X001814Y004352D01*
X001912Y004254D02*
X000300Y004254D01*
X000300Y004155D02*
X002011Y004155D01*
X002109Y004057D02*
X000300Y004057D01*
X000300Y003958D02*
X002208Y003958D01*
X002306Y003860D02*
X000300Y003860D01*
X000300Y003761D02*
X002405Y003761D01*
X002503Y003663D02*
X001428Y003663D01*
X001559Y003608D02*
X001283Y003723D01*
X000985Y003723D01*
X000709Y003608D01*
X000498Y003398D01*
X000384Y003122D01*
X000384Y002823D01*
X000498Y002548D01*
X000709Y002337D01*
X000985Y002223D01*
X001283Y002223D01*
X001559Y002337D01*
X001770Y002548D01*
X001884Y002823D01*
X001884Y003122D01*
X001770Y003398D01*
X001559Y003608D01*
X001603Y003564D02*
X002602Y003564D01*
X002700Y003466D02*
X001702Y003466D01*
X001783Y003367D02*
X002799Y003367D01*
X002897Y003269D02*
X001823Y003269D01*
X001864Y003170D02*
X002996Y003170D01*
X003094Y003072D02*
X001884Y003072D01*
X001884Y002973D02*
X003193Y002973D01*
X003328Y002875D02*
X001884Y002875D01*
X001865Y002776D02*
X005727Y002776D01*
X005706Y002768D02*
X005631Y002692D01*
X005590Y002593D01*
X005590Y002486D01*
X005631Y002387D01*
X005706Y002312D01*
X005805Y002271D01*
X005912Y002271D01*
X006011Y002312D01*
X006087Y002387D01*
X006128Y002486D01*
X006128Y002593D01*
X006087Y002692D01*
X006011Y002768D01*
X005912Y002809D01*
X005805Y002809D01*
X005706Y002768D01*
X005625Y002678D02*
X001824Y002678D01*
X001783Y002579D02*
X005590Y002579D01*
X005592Y002481D02*
X001703Y002481D01*
X001605Y002382D02*
X005635Y002382D01*
X005773Y002284D02*
X001431Y002284D01*
X000837Y002284D02*
X000300Y002284D01*
X000300Y002382D02*
X000664Y002382D01*
X000565Y002481D02*
X000300Y002481D01*
X000300Y002579D02*
X000485Y002579D01*
X000445Y002678D02*
X000300Y002678D01*
X000300Y002776D02*
X000404Y002776D01*
X000384Y002875D02*
X000300Y002875D01*
X000300Y002973D02*
X000384Y002973D01*
X000384Y003072D02*
X000300Y003072D01*
X000300Y003170D02*
X000404Y003170D01*
X000445Y003269D02*
X000300Y003269D01*
X000300Y003367D02*
X000486Y003367D01*
X000567Y003466D02*
X000300Y003466D01*
X000300Y003564D02*
X000665Y003564D01*
X000841Y003663D02*
X000300Y003663D01*
X002192Y004746D02*
X014802Y004746D01*
X014802Y004758D02*
X014802Y004651D01*
X014843Y004553D01*
X014919Y004477D01*
X015018Y004436D01*
X015054Y004436D01*
X014895Y004370D01*
X014769Y004243D01*
X014700Y004078D01*
X014700Y003899D01*
X014769Y003734D01*
X014895Y003607D01*
X015060Y003538D01*
X015240Y003538D01*
X015405Y003607D01*
X015531Y003734D01*
X015600Y003899D01*
X015600Y004078D01*
X015531Y004243D01*
X015405Y004370D01*
X015240Y004438D01*
X015131Y004438D01*
X015224Y004477D01*
X015299Y004553D01*
X015340Y004651D01*
X015340Y004758D01*
X015299Y004857D01*
X015224Y004933D01*
X015125Y004974D01*
X015018Y004974D01*
X014919Y004933D01*
X014843Y004857D01*
X014802Y004758D01*
X014838Y004845D02*
X002192Y004845D01*
X002192Y004943D02*
X014944Y004943D01*
X015199Y004943D02*
X022484Y004943D01*
X022481Y004946D02*
X022557Y004871D01*
X022656Y004830D01*
X022763Y004830D01*
X022861Y004871D01*
X022937Y004946D01*
X022978Y005045D01*
X022978Y005152D01*
X022937Y005251D01*
X022861Y005327D01*
X022763Y005368D01*
X022656Y005368D01*
X022557Y005327D01*
X022481Y005251D01*
X022440Y005152D01*
X022440Y005045D01*
X022481Y004946D01*
X022441Y005042D02*
X002192Y005042D01*
X002192Y005140D02*
X022440Y005140D01*
X022476Y005239D02*
X002192Y005239D01*
X002192Y005337D02*
X015917Y005337D01*
X015903Y005343D02*
X016002Y005302D01*
X016109Y005302D01*
X016208Y005343D01*
X016284Y005419D01*
X016325Y005518D01*
X016325Y005543D01*
X016733Y005952D01*
X016856Y006075D01*
X016856Y007138D01*
X017304Y007586D01*
X017330Y007586D01*
X017428Y007626D01*
X017504Y007702D01*
X017545Y007801D01*
X017545Y007908D01*
X017504Y008007D01*
X017428Y008083D01*
X017330Y008124D01*
X017222Y008124D01*
X017124Y008083D01*
X017048Y008007D01*
X017007Y007908D01*
X017007Y007882D01*
X016436Y007312D01*
X016436Y006249D01*
X016028Y005840D01*
X016002Y005840D01*
X015903Y005799D01*
X015827Y005724D01*
X015786Y005625D01*
X015786Y005518D01*
X015827Y005419D01*
X015903Y005343D01*
X015820Y005436D02*
X002192Y005436D01*
X002192Y005534D02*
X015786Y005534D01*
X015790Y005633D02*
X002192Y005633D01*
X002192Y005731D02*
X015835Y005731D01*
X015977Y005830D02*
X002192Y005830D01*
X002192Y005928D02*
X016116Y005928D01*
X016214Y006027D02*
X002192Y006027D01*
X002192Y006125D02*
X016313Y006125D01*
X016411Y006224D02*
X002192Y006224D01*
X002192Y006322D02*
X016436Y006322D01*
X016436Y006421D02*
X002192Y006421D01*
X002192Y006519D02*
X002529Y006519D01*
X002517Y006524D02*
X002616Y006483D01*
X002723Y006483D01*
X002822Y006524D01*
X002898Y006600D01*
X002939Y006699D01*
X002939Y006719D01*
X002959Y006719D01*
X003058Y006760D01*
X003134Y006836D01*
X003175Y006935D01*
X003175Y006956D01*
X003196Y006956D01*
X003295Y006997D01*
X003370Y007072D01*
X003411Y007171D01*
X003411Y007192D01*
X003432Y007192D01*
X003531Y007233D01*
X003606Y007308D01*
X003647Y007407D01*
X003647Y007514D01*
X003606Y007613D01*
X003531Y007689D01*
X003432Y007730D01*
X003325Y007730D01*
X003226Y007689D01*
X003150Y007613D01*
X003109Y007514D01*
X003109Y007494D01*
X003089Y007494D01*
X002990Y007453D01*
X002914Y007377D01*
X002873Y007278D01*
X002873Y007257D01*
X002852Y007257D01*
X002753Y007217D01*
X002678Y007141D01*
X002637Y007042D01*
X002637Y007021D01*
X002616Y007021D01*
X002517Y006980D01*
X002442Y006905D01*
X002401Y006806D01*
X002401Y006699D01*
X002442Y006600D01*
X002517Y006524D01*
X002434Y006618D02*
X002192Y006618D01*
X002192Y006716D02*
X002401Y006716D01*
X002404Y006815D02*
X002192Y006815D01*
X002192Y006913D02*
X002450Y006913D01*
X002594Y007012D02*
X002192Y007012D01*
X002192Y007110D02*
X002665Y007110D01*
X002746Y007209D02*
X002192Y007209D01*
X002192Y007307D02*
X002885Y007307D01*
X002943Y007406D02*
X002192Y007406D01*
X002192Y007504D02*
X003109Y007504D01*
X003146Y007603D02*
X002192Y007603D01*
X002192Y007701D02*
X002290Y007701D01*
X002197Y007800D02*
X002192Y007800D01*
X002577Y007701D02*
X003256Y007701D01*
X003501Y007701D02*
X012898Y007701D01*
X012914Y007663D02*
X012990Y007587D01*
X013089Y007546D01*
X013196Y007546D01*
X013295Y007587D01*
X013370Y007663D01*
X013411Y007762D01*
X013411Y007869D01*
X013370Y007968D01*
X013295Y008043D01*
X013196Y008084D01*
X013089Y008084D01*
X012990Y008043D01*
X012914Y007968D01*
X012873Y007869D01*
X012873Y007762D01*
X012914Y007663D01*
X012974Y007603D02*
X003611Y007603D01*
X003647Y007504D02*
X016629Y007504D01*
X016530Y007406D02*
X003647Y007406D01*
X003605Y007307D02*
X016436Y007307D01*
X016436Y007209D02*
X015659Y007209D01*
X015637Y007218D02*
X015530Y007218D01*
X015431Y007177D01*
X015355Y007101D01*
X015314Y007003D01*
X015314Y006896D01*
X015355Y006797D01*
X015431Y006721D01*
X015530Y006680D01*
X015637Y006680D01*
X015735Y006721D01*
X015811Y006797D01*
X015852Y006896D01*
X015852Y007003D01*
X015811Y007101D01*
X015735Y007177D01*
X015637Y007218D01*
X015507Y007209D02*
X003473Y007209D01*
X003386Y007110D02*
X006680Y007110D01*
X006651Y007098D02*
X006575Y007023D01*
X006534Y006924D01*
X006534Y006817D01*
X006575Y006718D01*
X006651Y006642D01*
X006750Y006601D01*
X006857Y006601D01*
X006956Y006642D01*
X007032Y006718D01*
X007073Y006817D01*
X007073Y006924D01*
X007032Y007023D01*
X006956Y007098D01*
X006857Y007139D01*
X006750Y007139D01*
X006651Y007098D01*
X006571Y007012D02*
X003310Y007012D01*
X003166Y006913D02*
X006534Y006913D01*
X006535Y006815D02*
X003113Y006815D01*
X002939Y006716D02*
X006577Y006716D01*
X006710Y006618D02*
X002905Y006618D01*
X002811Y006519D02*
X016436Y006519D01*
X016436Y006618D02*
X006897Y006618D01*
X007030Y006716D02*
X015442Y006716D01*
X015347Y006815D02*
X007072Y006815D01*
X007073Y006913D02*
X015314Y006913D01*
X015318Y007012D02*
X007036Y007012D01*
X006927Y007110D02*
X015364Y007110D01*
X015802Y007110D02*
X016436Y007110D01*
X016436Y007012D02*
X015848Y007012D01*
X015852Y006913D02*
X016436Y006913D01*
X016436Y006815D02*
X015819Y006815D01*
X015725Y006716D02*
X016436Y006716D01*
X016856Y006716D02*
X019511Y006716D01*
X019534Y006726D02*
X019413Y006676D01*
X019321Y006584D01*
X019271Y006463D01*
X019271Y006333D01*
X019321Y006212D01*
X019413Y006120D01*
X019534Y006070D01*
X019664Y006070D01*
X019785Y006120D01*
X019877Y006212D01*
X019927Y006333D01*
X019927Y006463D01*
X019877Y006584D01*
X019785Y006676D01*
X019664Y006726D01*
X019534Y006726D01*
X019687Y006716D02*
X022468Y006716D01*
X022481Y006747D02*
X022440Y006648D01*
X022440Y006541D01*
X022481Y006442D01*
X022557Y006367D01*
X022656Y006326D01*
X022763Y006326D01*
X022861Y006367D01*
X022937Y006442D01*
X022978Y006541D01*
X022978Y006648D01*
X022937Y006747D01*
X022861Y006823D01*
X022763Y006864D01*
X022656Y006864D01*
X022557Y006823D01*
X022481Y006747D01*
X022549Y006815D02*
X016856Y006815D01*
X016856Y006913D02*
X039370Y006913D01*
X039370Y006815D02*
X022869Y006815D01*
X022950Y006716D02*
X039370Y006716D01*
X039370Y006618D02*
X027539Y006618D01*
X027623Y006583D02*
X027424Y006666D01*
X027207Y006666D01*
X027007Y006583D01*
X026854Y006430D01*
X026772Y006230D01*
X026772Y006014D01*
X026854Y005814D01*
X027007Y005661D01*
X027207Y005579D01*
X027424Y005579D01*
X027623Y005661D01*
X027776Y005814D01*
X027859Y006014D01*
X027859Y006230D01*
X027776Y006430D01*
X027623Y006583D01*
X027687Y006519D02*
X039370Y006519D01*
X039370Y006421D02*
X027780Y006421D01*
X027821Y006322D02*
X039370Y006322D01*
X039370Y006224D02*
X027859Y006224D01*
X027859Y006125D02*
X029001Y006125D01*
X028974Y006114D02*
X028898Y006038D01*
X028857Y005940D01*
X028857Y005833D01*
X028898Y005734D01*
X028974Y005658D01*
X029073Y005617D01*
X029180Y005617D01*
X029279Y005658D01*
X029354Y005734D01*
X029395Y005833D01*
X029395Y005940D01*
X029354Y006038D01*
X029279Y006114D01*
X029180Y006155D01*
X029073Y006155D01*
X028974Y006114D01*
X028894Y006027D02*
X027859Y006027D01*
X027824Y005928D02*
X028857Y005928D01*
X028858Y005830D02*
X027783Y005830D01*
X027693Y005731D02*
X028901Y005731D01*
X029034Y005633D02*
X027555Y005633D01*
X027076Y005633D02*
X022876Y005633D01*
X022861Y005619D02*
X022937Y005694D01*
X022978Y005793D01*
X022978Y005900D01*
X022937Y005999D01*
X022861Y006075D01*
X022763Y006116D01*
X022656Y006116D01*
X022557Y006075D01*
X022481Y005999D01*
X022440Y005900D01*
X022440Y005793D01*
X022481Y005694D01*
X022557Y005619D01*
X022656Y005578D01*
X022763Y005578D01*
X022861Y005619D01*
X022953Y005731D02*
X026937Y005731D01*
X026848Y005830D02*
X022978Y005830D01*
X022966Y005928D02*
X026807Y005928D01*
X026772Y006027D02*
X022909Y006027D01*
X022916Y006421D02*
X026851Y006421D01*
X026810Y006322D02*
X019923Y006322D01*
X019927Y006421D02*
X022502Y006421D01*
X022449Y006519D02*
X019904Y006519D01*
X019843Y006618D02*
X022440Y006618D01*
X022978Y006618D02*
X027091Y006618D01*
X026944Y006519D02*
X022969Y006519D01*
X022509Y006027D02*
X016808Y006027D01*
X016856Y006125D02*
X019407Y006125D01*
X019316Y006224D02*
X016856Y006224D01*
X016856Y006322D02*
X019275Y006322D01*
X019271Y006421D02*
X016856Y006421D01*
X016856Y006519D02*
X019294Y006519D01*
X019355Y006618D02*
X016856Y006618D01*
X016856Y007012D02*
X039370Y007012D01*
X039370Y007110D02*
X016856Y007110D01*
X016927Y007209D02*
X039370Y007209D01*
X039370Y007307D02*
X017026Y007307D01*
X017124Y007406D02*
X031360Y007406D01*
X031339Y007427D02*
X031415Y007351D01*
X031514Y007310D01*
X031621Y007310D01*
X031720Y007351D01*
X031795Y007427D01*
X031836Y007525D01*
X031836Y007632D01*
X031795Y007731D01*
X031720Y007807D01*
X031621Y007848D01*
X031514Y007848D01*
X031415Y007807D01*
X031339Y007731D01*
X031298Y007632D01*
X031298Y007525D01*
X031339Y007427D01*
X031307Y007504D02*
X017223Y007504D01*
X017372Y007603D02*
X031298Y007603D01*
X031327Y007701D02*
X017503Y007701D01*
X017545Y007800D02*
X031408Y007800D01*
X031727Y007800D02*
X039370Y007800D01*
X039370Y007898D02*
X017545Y007898D01*
X017596Y007941D02*
X017695Y007900D01*
X017802Y007900D01*
X017901Y007941D01*
X017977Y008017D01*
X018017Y008116D01*
X018017Y008223D01*
X017977Y008322D01*
X017932Y008366D01*
X017977Y008411D01*
X018017Y008510D01*
X018017Y008617D01*
X017977Y008716D01*
X017901Y008791D01*
X017802Y008832D01*
X017695Y008832D01*
X017596Y008791D01*
X017520Y008716D01*
X017479Y008617D01*
X017479Y008510D01*
X017520Y008411D01*
X017565Y008366D01*
X017520Y008322D01*
X017479Y008223D01*
X017479Y008116D01*
X017520Y008017D01*
X017596Y007941D01*
X017541Y007997D02*
X017508Y007997D01*
X017488Y008095D02*
X017398Y008095D01*
X017479Y008194D02*
X015730Y008194D01*
X015734Y008184D02*
X015693Y008283D01*
X015617Y008358D01*
X015578Y008375D01*
X015614Y008411D01*
X015655Y008510D01*
X015655Y008617D01*
X015614Y008716D01*
X015539Y008791D01*
X015440Y008832D01*
X015333Y008832D01*
X015234Y008791D01*
X015189Y008747D01*
X015145Y008791D01*
X015046Y008832D01*
X014939Y008832D01*
X014840Y008791D01*
X014764Y008716D01*
X014723Y008617D01*
X014723Y008510D01*
X014764Y008411D01*
X014809Y008366D01*
X014764Y008322D01*
X014723Y008223D01*
X014723Y008116D01*
X014764Y008017D01*
X014840Y007941D01*
X014939Y007900D01*
X015046Y007900D01*
X015145Y007941D01*
X015221Y008017D01*
X015237Y007978D01*
X015313Y007902D01*
X015411Y007861D01*
X015518Y007861D01*
X015617Y007902D01*
X015693Y007978D01*
X015734Y008077D01*
X015734Y008184D01*
X015734Y008095D02*
X017154Y008095D01*
X017044Y007997D02*
X015701Y007997D01*
X015609Y007898D02*
X017007Y007898D01*
X016924Y007800D02*
X013411Y007800D01*
X013399Y007898D02*
X015321Y007898D01*
X015229Y007997D02*
X015200Y007997D01*
X014785Y007997D02*
X013341Y007997D01*
X013386Y007701D02*
X016826Y007701D01*
X016727Y007603D02*
X013310Y007603D01*
X012873Y007800D02*
X002669Y007800D01*
X002703Y007898D02*
X012885Y007898D01*
X012943Y007997D02*
X012445Y007997D01*
X012465Y008017D02*
X012506Y008116D01*
X012506Y008223D01*
X012465Y008322D01*
X012389Y008398D01*
X012290Y008439D01*
X012183Y008439D01*
X012084Y008398D01*
X012009Y008322D01*
X011968Y008223D01*
X011968Y008116D01*
X012009Y008017D01*
X012084Y007941D01*
X012183Y007900D01*
X012290Y007900D01*
X012389Y007941D01*
X012465Y008017D01*
X012497Y008095D02*
X014732Y008095D01*
X014723Y008194D02*
X012506Y008194D01*
X012477Y008292D02*
X014752Y008292D01*
X014784Y008391D02*
X012396Y008391D01*
X012078Y008391D02*
X008222Y008391D01*
X008252Y008361D02*
X008176Y008437D01*
X008078Y008478D01*
X007970Y008478D01*
X007872Y008437D01*
X007796Y008361D01*
X007755Y008262D01*
X007755Y008155D01*
X007796Y008056D01*
X007872Y007981D01*
X007970Y007940D01*
X008078Y007940D01*
X008176Y007981D01*
X008252Y008056D01*
X008293Y008155D01*
X008293Y008262D01*
X008252Y008361D01*
X008281Y008292D02*
X011996Y008292D01*
X011968Y008194D02*
X008293Y008194D01*
X008268Y008095D02*
X011976Y008095D01*
X012029Y007997D02*
X008193Y007997D01*
X007855Y007997D02*
X006067Y007997D01*
X006050Y007981D02*
X006126Y008056D01*
X006167Y008155D01*
X006167Y008262D01*
X006126Y008361D01*
X006050Y008437D01*
X005952Y008478D01*
X005845Y008478D01*
X005746Y008437D01*
X005670Y008361D01*
X005629Y008262D01*
X005629Y008155D01*
X005670Y008056D01*
X005746Y007981D01*
X005845Y007940D01*
X005952Y007940D01*
X006050Y007981D01*
X006142Y008095D02*
X007780Y008095D01*
X007755Y008194D02*
X006167Y008194D01*
X006155Y008292D02*
X007767Y008292D01*
X007826Y008391D02*
X006096Y008391D01*
X005700Y008391D02*
X002682Y008391D01*
X002661Y008489D02*
X014732Y008489D01*
X014723Y008588D02*
X002702Y008588D01*
X002703Y008686D02*
X014752Y008686D01*
X014751Y008729D02*
X014827Y008805D01*
X014868Y008903D01*
X014868Y009010D01*
X014827Y009109D01*
X014782Y009154D01*
X014827Y009198D01*
X014868Y009297D01*
X014868Y009404D01*
X014827Y009503D01*
X014782Y009547D01*
X014827Y009592D01*
X014868Y009691D01*
X014868Y009798D01*
X014827Y009897D01*
X014782Y009941D01*
X014827Y009986D01*
X014868Y010085D01*
X014868Y010192D01*
X014827Y010290D01*
X014782Y010335D01*
X014827Y010379D01*
X014868Y010478D01*
X014868Y010499D01*
X015117Y010499D01*
X015117Y010478D01*
X015158Y010379D01*
X015203Y010335D01*
X015158Y010290D01*
X015117Y010192D01*
X015117Y010085D01*
X015158Y009986D01*
X015203Y009941D01*
X015158Y009897D01*
X015117Y009798D01*
X015117Y009691D01*
X015158Y009592D01*
X015234Y009516D01*
X015333Y009475D01*
X015440Y009475D01*
X015539Y009516D01*
X015614Y009592D01*
X015655Y009691D01*
X015655Y009798D01*
X015614Y009897D01*
X015570Y009941D01*
X015614Y009986D01*
X015655Y010085D01*
X015655Y010192D01*
X015614Y010290D01*
X015570Y010335D01*
X015614Y010379D01*
X015655Y010478D01*
X015655Y010499D01*
X015908Y010499D01*
X016035Y010372D01*
X016021Y010366D01*
X015946Y010290D01*
X015905Y010192D01*
X015905Y010085D01*
X015946Y009986D01*
X016021Y009910D01*
X016120Y009869D01*
X016227Y009869D01*
X016326Y009910D01*
X016402Y009986D01*
X016408Y010000D01*
X016429Y009978D01*
X016415Y009972D01*
X016339Y009897D01*
X016298Y009798D01*
X016298Y009691D01*
X016339Y009592D01*
X016384Y009547D01*
X016339Y009503D01*
X016298Y009404D01*
X016298Y009297D01*
X016339Y009198D01*
X016415Y009123D01*
X016514Y009082D01*
X016621Y009082D01*
X016720Y009123D01*
X016764Y009167D01*
X016809Y009123D01*
X016908Y009082D01*
X017015Y009082D01*
X017113Y009123D01*
X017158Y009167D01*
X017202Y009123D01*
X017301Y009082D01*
X017408Y009082D01*
X017507Y009123D01*
X017552Y009167D01*
X017596Y009123D01*
X017695Y009082D01*
X017802Y009082D01*
X017901Y009123D01*
X017977Y009198D01*
X018017Y009297D01*
X018017Y009404D01*
X017977Y009503D01*
X017932Y009547D01*
X017977Y009592D01*
X018017Y009691D01*
X018017Y009788D01*
X019966Y009788D01*
X020154Y009599D01*
X020154Y009450D01*
X020125Y009462D01*
X020018Y009462D01*
X019919Y009421D01*
X019843Y009346D01*
X019802Y009247D01*
X019802Y009140D01*
X019843Y009041D01*
X019919Y008965D01*
X020018Y008924D01*
X020125Y008924D01*
X020154Y008936D01*
X020154Y008651D01*
X020208Y008522D01*
X020306Y008424D01*
X020435Y008371D01*
X020574Y008371D01*
X020703Y008424D01*
X020801Y008522D01*
X020854Y008651D01*
X020854Y009814D01*
X020801Y009943D01*
X020703Y010041D01*
X020309Y010435D01*
X020180Y010488D01*
X018017Y010488D01*
X018017Y010585D01*
X017977Y010684D01*
X017932Y010729D01*
X017977Y010773D01*
X018017Y010872D01*
X018017Y010979D01*
X017977Y011078D01*
X017932Y011122D01*
X017945Y011135D01*
X017990Y011091D01*
X018089Y011050D01*
X018196Y011050D01*
X018295Y011091D01*
X018359Y011155D01*
X018423Y011091D01*
X018522Y011050D01*
X018629Y011050D01*
X018728Y011091D01*
X018803Y011167D01*
X018844Y011266D01*
X018844Y011373D01*
X018803Y011472D01*
X018728Y011547D01*
X018629Y011588D01*
X018522Y011588D01*
X018423Y011547D01*
X018359Y011483D01*
X018295Y011547D01*
X018196Y011588D01*
X018089Y011588D01*
X017990Y011547D01*
X017945Y011503D01*
X017901Y011547D01*
X017802Y011588D01*
X017695Y011588D01*
X017596Y011547D01*
X017552Y011503D01*
X017507Y011547D01*
X017408Y011588D01*
X017301Y011588D01*
X017202Y011547D01*
X017127Y011472D01*
X017086Y011373D01*
X017086Y011266D01*
X017127Y011167D01*
X017202Y011091D01*
X017301Y011050D01*
X017408Y011050D01*
X017507Y011091D01*
X017552Y011135D01*
X017565Y011122D01*
X017520Y011078D01*
X017479Y010979D01*
X017479Y010872D01*
X017520Y010773D01*
X017565Y010729D01*
X017552Y010715D01*
X017507Y010760D01*
X017408Y010801D01*
X017301Y010801D01*
X017202Y010760D01*
X017158Y010715D01*
X017113Y010760D01*
X017015Y010801D01*
X016908Y010801D01*
X016809Y010760D01*
X016733Y010684D01*
X016727Y010670D01*
X016175Y011222D01*
X016167Y011226D01*
X016167Y011963D01*
X016050Y012080D01*
X015655Y012080D01*
X015655Y012160D01*
X015614Y012259D01*
X015570Y012303D01*
X015583Y012317D01*
X015628Y012272D01*
X015726Y012231D01*
X015833Y012231D01*
X015932Y012272D01*
X016008Y012348D01*
X016049Y012447D01*
X016049Y012554D01*
X016008Y012653D01*
X015932Y012728D01*
X015833Y012769D01*
X015726Y012769D01*
X015628Y012728D01*
X015583Y012684D01*
X015539Y012728D01*
X015440Y012769D01*
X015333Y012769D01*
X015234Y012728D01*
X015158Y012653D01*
X015117Y012554D01*
X015117Y012447D01*
X015158Y012348D01*
X015203Y012303D01*
X015158Y012259D01*
X015117Y012160D01*
X015117Y012080D01*
X014703Y012080D01*
X014605Y011982D01*
X014545Y011982D01*
X014446Y011941D01*
X014371Y011865D01*
X014330Y011766D01*
X014330Y011659D01*
X014371Y011560D01*
X014446Y011485D01*
X014545Y011444D01*
X014586Y011444D01*
X014586Y010801D01*
X014545Y010801D01*
X014446Y010760D01*
X014371Y010684D01*
X014330Y010585D01*
X014330Y010478D01*
X014371Y010379D01*
X014415Y010335D01*
X014371Y010290D01*
X014330Y010192D01*
X014330Y010085D01*
X014371Y009986D01*
X014415Y009941D01*
X014402Y009928D01*
X014358Y009972D01*
X014259Y010013D01*
X014152Y010013D01*
X014053Y009972D01*
X014008Y009928D01*
X013964Y009972D01*
X013865Y010013D01*
X013758Y010013D01*
X013659Y009972D01*
X013583Y009897D01*
X013542Y009798D01*
X013542Y009691D01*
X013583Y009592D01*
X013628Y009547D01*
X013583Y009503D01*
X013542Y009404D01*
X013542Y009297D01*
X013583Y009198D01*
X013659Y009123D01*
X013758Y009082D01*
X013865Y009082D01*
X013964Y009123D01*
X014040Y009198D01*
X014080Y009297D01*
X014080Y009404D01*
X014040Y009503D01*
X013995Y009547D01*
X014008Y009561D01*
X014053Y009516D01*
X014152Y009475D01*
X014259Y009475D01*
X014358Y009516D01*
X014402Y009561D01*
X014415Y009547D01*
X014371Y009503D01*
X014330Y009404D01*
X014330Y009297D01*
X014371Y009198D01*
X014415Y009154D01*
X014371Y009109D01*
X014330Y009010D01*
X014330Y008903D01*
X014371Y008805D01*
X014446Y008729D01*
X014545Y008688D01*
X014652Y008688D01*
X014751Y008729D01*
X014807Y008785D02*
X014834Y008785D01*
X014860Y008883D02*
X015913Y008883D01*
X015905Y008903D02*
X015946Y008805D01*
X016021Y008729D01*
X016120Y008688D01*
X016227Y008688D01*
X016326Y008729D01*
X016402Y008805D01*
X016443Y008903D01*
X016443Y009010D01*
X016402Y009109D01*
X016326Y009185D01*
X016227Y009226D01*
X016120Y009226D01*
X016021Y009185D01*
X015946Y009109D01*
X015905Y009010D01*
X015905Y008903D01*
X015905Y008982D02*
X014868Y008982D01*
X014839Y009080D02*
X015934Y009080D01*
X015932Y009123D02*
X016008Y009198D01*
X016049Y009297D01*
X016049Y009404D01*
X016008Y009503D01*
X015932Y009579D01*
X015833Y009620D01*
X015726Y009620D01*
X015628Y009579D01*
X015552Y009503D01*
X015511Y009404D01*
X015511Y009297D01*
X015552Y009198D01*
X015628Y009123D01*
X015726Y009082D01*
X015833Y009082D01*
X015932Y009123D01*
X015989Y009179D02*
X016015Y009179D01*
X016041Y009277D02*
X016306Y009277D01*
X016298Y009376D02*
X016049Y009376D01*
X016020Y009474D02*
X016327Y009474D01*
X016358Y009573D02*
X015938Y009573D01*
X015647Y009671D02*
X016306Y009671D01*
X016298Y009770D02*
X015655Y009770D01*
X015626Y009868D02*
X016328Y009868D01*
X016383Y009967D02*
X016409Y009967D01*
X015964Y009967D02*
X015596Y009967D01*
X015647Y010065D02*
X015912Y010065D01*
X015905Y010164D02*
X015655Y010164D01*
X015626Y010262D02*
X015934Y010262D01*
X016016Y010361D02*
X015596Y010361D01*
X015648Y010459D02*
X015948Y010459D01*
X015967Y010699D02*
X015543Y010699D01*
X015481Y010761D01*
X015291Y010761D01*
X015230Y010699D01*
X014786Y010699D01*
X014786Y011576D01*
X014828Y011618D01*
X014828Y011808D01*
X014786Y011850D01*
X014786Y011880D01*
X015289Y011880D01*
X015291Y011877D01*
X015481Y011877D01*
X015484Y011880D01*
X015967Y011880D01*
X015967Y010699D01*
X015967Y010755D02*
X015487Y010755D01*
X015286Y010755D02*
X014786Y010755D01*
X014786Y010853D02*
X015967Y010853D01*
X015967Y010952D02*
X014786Y010952D01*
X014786Y011050D02*
X015967Y011050D01*
X015967Y011149D02*
X015540Y011149D01*
X015481Y011090D02*
X015615Y011224D01*
X015615Y011414D01*
X015481Y011548D01*
X015291Y011548D01*
X015157Y011414D01*
X015157Y011224D01*
X015291Y011090D01*
X015481Y011090D01*
X015615Y011247D02*
X015967Y011247D01*
X015967Y011346D02*
X015615Y011346D01*
X015585Y011444D02*
X015967Y011444D01*
X015967Y011543D02*
X015486Y011543D01*
X015286Y011543D02*
X014786Y011543D01*
X014786Y011444D02*
X015188Y011444D01*
X015157Y011346D02*
X014786Y011346D01*
X014786Y011247D02*
X015157Y011247D01*
X015232Y011149D02*
X014786Y011149D01*
X014586Y011149D02*
X014022Y011149D01*
X014040Y011167D02*
X014080Y011266D01*
X014080Y011373D01*
X014040Y011472D01*
X013995Y011516D01*
X014040Y011560D01*
X014080Y011659D01*
X014080Y011766D01*
X014040Y011865D01*
X013964Y011941D01*
X013865Y011982D01*
X013758Y011982D01*
X013659Y011941D01*
X013615Y011896D01*
X013601Y011910D01*
X013646Y011954D01*
X013687Y012053D01*
X013687Y012160D01*
X013646Y012259D01*
X013570Y012335D01*
X013471Y012376D01*
X013364Y012376D01*
X013265Y012335D01*
X013190Y012259D01*
X013149Y012160D01*
X013149Y012053D01*
X013190Y011954D01*
X013234Y011910D01*
X013190Y011865D01*
X013149Y011766D01*
X013149Y011659D01*
X013190Y011560D01*
X013265Y011485D01*
X013364Y011444D01*
X013471Y011444D01*
X013570Y011485D01*
X013615Y011529D01*
X013628Y011516D01*
X013583Y011472D01*
X013542Y011373D01*
X013542Y011266D01*
X013583Y011167D01*
X013659Y011091D01*
X013758Y011050D01*
X013865Y011050D01*
X013964Y011091D01*
X014040Y011167D01*
X014073Y011247D02*
X014586Y011247D01*
X014586Y011346D02*
X014080Y011346D01*
X014051Y011444D02*
X014544Y011444D01*
X014388Y011543D02*
X014022Y011543D01*
X014073Y011641D02*
X014337Y011641D01*
X014330Y011740D02*
X014080Y011740D01*
X014051Y011838D02*
X014360Y011838D01*
X014442Y011937D02*
X013968Y011937D01*
X013679Y012035D02*
X014658Y012035D01*
X014797Y011838D02*
X015967Y011838D01*
X015967Y011740D02*
X014828Y011740D01*
X014828Y011641D02*
X015967Y011641D01*
X016167Y011641D02*
X019068Y011641D01*
X019056Y011629D02*
X019015Y011530D01*
X019015Y011423D01*
X019056Y011324D01*
X019131Y011249D01*
X019230Y011208D01*
X019337Y011208D01*
X019436Y011249D01*
X019512Y011324D01*
X019553Y011423D01*
X019553Y011530D01*
X019512Y011629D01*
X019436Y011705D01*
X019337Y011746D01*
X019230Y011746D01*
X019131Y011705D01*
X019056Y011629D01*
X019020Y011543D02*
X018732Y011543D01*
X018815Y011444D02*
X019015Y011444D01*
X019047Y011346D02*
X018844Y011346D01*
X018837Y011247D02*
X019134Y011247D01*
X019434Y011247D02*
X039370Y011247D01*
X039370Y011149D02*
X032187Y011149D01*
X032209Y011127D02*
X032133Y011203D01*
X032034Y011244D01*
X031927Y011244D01*
X031828Y011203D01*
X031753Y011127D01*
X031712Y011028D01*
X031712Y010921D01*
X031753Y010822D01*
X031828Y010747D01*
X031927Y010706D01*
X032034Y010706D01*
X032133Y010747D01*
X032209Y010822D01*
X032250Y010921D01*
X032250Y011028D01*
X032209Y011127D01*
X032241Y011050D02*
X036648Y011050D01*
X036612Y011035D02*
X036536Y010960D01*
X036495Y010861D01*
X036495Y010754D01*
X036536Y010655D01*
X036612Y010579D01*
X036711Y010538D01*
X036818Y010538D01*
X036917Y010579D01*
X036992Y010655D01*
X037033Y010754D01*
X037033Y010861D01*
X036992Y010960D01*
X036917Y011035D01*
X036818Y011076D01*
X036711Y011076D01*
X036612Y011035D01*
X036533Y010952D02*
X032250Y010952D01*
X032222Y010853D02*
X036495Y010853D01*
X036495Y010755D02*
X032142Y010755D01*
X031820Y010755D02*
X028862Y010755D01*
X028843Y010802D02*
X028767Y010878D01*
X028668Y010919D01*
X028561Y010919D01*
X028462Y010878D01*
X028386Y010802D01*
X028346Y010703D01*
X028346Y010596D01*
X028386Y010497D01*
X028462Y010422D01*
X028561Y010381D01*
X028668Y010381D01*
X028767Y010422D01*
X028843Y010497D01*
X028884Y010596D01*
X028884Y010703D01*
X028843Y010802D01*
X028791Y010853D02*
X031740Y010853D01*
X031712Y010952D02*
X018017Y010952D01*
X018010Y010853D02*
X028438Y010853D01*
X028367Y010755D02*
X017958Y010755D01*
X017988Y010656D02*
X028346Y010656D01*
X028361Y010558D02*
X018017Y010558D01*
X017538Y010755D02*
X017512Y010755D01*
X017487Y010853D02*
X016544Y010853D01*
X016642Y010755D02*
X016804Y010755D01*
X017118Y010755D02*
X017197Y010755D01*
X017300Y011050D02*
X016622Y011050D01*
X016621Y011050D02*
X016720Y011091D01*
X016795Y011167D01*
X016836Y011266D01*
X016836Y011373D01*
X016795Y011472D01*
X016720Y011547D01*
X016621Y011588D01*
X016514Y011588D01*
X016415Y011547D01*
X016339Y011472D01*
X016298Y011373D01*
X016298Y011266D01*
X016339Y011167D01*
X016415Y011091D01*
X016514Y011050D01*
X016621Y011050D01*
X016513Y011050D02*
X016347Y011050D01*
X016357Y011149D02*
X016248Y011149D01*
X016306Y011247D02*
X016167Y011247D01*
X016167Y011346D02*
X016298Y011346D01*
X016328Y011444D02*
X016167Y011444D01*
X016167Y011543D02*
X016411Y011543D01*
X016724Y011543D02*
X017198Y011543D01*
X017115Y011444D02*
X016807Y011444D01*
X016836Y011346D02*
X017086Y011346D01*
X017093Y011247D02*
X016829Y011247D01*
X016778Y011149D02*
X017144Y011149D01*
X017409Y011050D02*
X017509Y011050D01*
X017479Y010952D02*
X016445Y010952D01*
X016167Y011740D02*
X019217Y011740D01*
X019351Y011740D02*
X039370Y011740D01*
X039370Y011838D02*
X017804Y011838D01*
X017802Y011837D02*
X017901Y011878D01*
X017977Y011954D01*
X018017Y012053D01*
X018017Y012160D01*
X017977Y012259D01*
X017901Y012335D01*
X017802Y012376D01*
X017695Y012376D01*
X017596Y012335D01*
X017552Y012290D01*
X017538Y012303D01*
X017583Y012348D01*
X017624Y012447D01*
X017624Y012554D01*
X017583Y012653D01*
X017507Y012728D01*
X017408Y012769D01*
X017301Y012769D01*
X017202Y012728D01*
X017158Y012684D01*
X017145Y012697D01*
X017189Y012742D01*
X017230Y012840D01*
X017230Y012947D01*
X017189Y013046D01*
X017145Y013091D01*
X017158Y013104D01*
X017202Y013060D01*
X017301Y013019D01*
X017408Y013019D01*
X017507Y013060D01*
X017552Y013104D01*
X017596Y013060D01*
X017695Y013019D01*
X017802Y013019D01*
X017901Y013060D01*
X017977Y013135D01*
X018017Y013234D01*
X018017Y013341D01*
X017977Y013440D01*
X017901Y013516D01*
X017802Y013557D01*
X017695Y013557D01*
X017596Y013516D01*
X017552Y013471D01*
X017507Y013516D01*
X017408Y013557D01*
X017301Y013557D01*
X017202Y013516D01*
X017158Y013471D01*
X017113Y013516D01*
X017015Y013557D01*
X016908Y013557D01*
X016809Y013516D01*
X016733Y013440D01*
X016692Y013341D01*
X016692Y013234D01*
X016733Y013135D01*
X016777Y013091D01*
X016764Y013078D01*
X016720Y013122D01*
X016621Y013163D01*
X016514Y013163D01*
X016415Y013122D01*
X016370Y013078D01*
X016357Y013091D01*
X016402Y013135D01*
X016443Y013234D01*
X016443Y013341D01*
X016402Y013440D01*
X016326Y013516D01*
X016227Y013557D01*
X016120Y013557D01*
X016021Y013516D01*
X015977Y013471D01*
X015932Y013516D01*
X015833Y013557D01*
X015726Y013557D01*
X015628Y013516D01*
X015583Y013471D01*
X015539Y013516D01*
X015440Y013557D01*
X015333Y013557D01*
X015234Y013516D01*
X015158Y013440D01*
X015117Y013341D01*
X015117Y013234D01*
X015158Y013135D01*
X015234Y013060D01*
X015333Y013019D01*
X015440Y013019D01*
X015539Y013060D01*
X015583Y013104D01*
X015628Y013060D01*
X015726Y013019D01*
X015833Y013019D01*
X015932Y013060D01*
X015977Y013104D01*
X015990Y013091D01*
X015946Y013046D01*
X015905Y012947D01*
X015905Y012840D01*
X015946Y012742D01*
X016021Y012666D01*
X016120Y012625D01*
X016227Y012625D01*
X016326Y012666D01*
X016370Y012710D01*
X016415Y012666D01*
X016514Y012625D01*
X016621Y012625D01*
X016720Y012666D01*
X016764Y012710D01*
X016777Y012697D01*
X016733Y012653D01*
X016692Y012554D01*
X016692Y012447D01*
X016733Y012348D01*
X016777Y012303D01*
X016733Y012259D01*
X016692Y012160D01*
X016692Y012053D01*
X016733Y011954D01*
X016809Y011878D01*
X016908Y011837D01*
X017015Y011837D01*
X017113Y011878D01*
X017158Y011923D01*
X017202Y011878D01*
X017301Y011837D01*
X017408Y011837D01*
X017507Y011878D01*
X017552Y011923D01*
X017596Y011878D01*
X017695Y011837D01*
X017802Y011837D01*
X017693Y011838D02*
X017411Y011838D01*
X017299Y011838D02*
X017017Y011838D01*
X016905Y011838D02*
X016167Y011838D01*
X016167Y011937D02*
X016750Y011937D01*
X016699Y012035D02*
X016094Y012035D01*
X015991Y012331D02*
X016750Y012331D01*
X016722Y012232D02*
X015837Y012232D01*
X015723Y012232D02*
X015625Y012232D01*
X015655Y012134D02*
X016692Y012134D01*
X016699Y012429D02*
X016042Y012429D01*
X016049Y012528D02*
X016692Y012528D01*
X016722Y012626D02*
X016625Y012626D01*
X016510Y012626D02*
X016231Y012626D01*
X016116Y012626D02*
X016019Y012626D01*
X015962Y012725D02*
X015936Y012725D01*
X015912Y012823D02*
X015255Y012823D01*
X015262Y012840D02*
X015221Y012742D01*
X015145Y012666D01*
X015046Y012625D01*
X014939Y012625D01*
X014840Y012666D01*
X014764Y012742D01*
X014723Y012840D01*
X014723Y012947D01*
X014764Y013046D01*
X014840Y013122D01*
X014939Y013163D01*
X015046Y013163D01*
X015145Y013122D01*
X015221Y013046D01*
X015262Y012947D01*
X015262Y012840D01*
X015262Y012922D02*
X015905Y012922D01*
X015935Y013020D02*
X015838Y013020D01*
X015722Y013020D02*
X015444Y013020D01*
X015328Y013020D02*
X015231Y013020D01*
X015174Y013119D02*
X015148Y013119D01*
X015124Y013217D02*
X014861Y013217D01*
X014868Y013234D02*
X014868Y013341D01*
X014827Y013440D01*
X014751Y013516D01*
X014652Y013557D01*
X014545Y013557D01*
X014446Y013516D01*
X014402Y013471D01*
X014358Y013516D01*
X014259Y013557D01*
X014152Y013557D01*
X014053Y013516D01*
X014008Y013471D01*
X013964Y013516D01*
X013865Y013557D01*
X013758Y013557D01*
X013659Y013516D01*
X013615Y013471D01*
X013570Y013516D01*
X013471Y013557D01*
X013364Y013557D01*
X013265Y013516D01*
X013190Y013440D01*
X013149Y013341D01*
X013149Y013234D01*
X013190Y013135D01*
X013234Y013091D01*
X013190Y013046D01*
X013149Y012947D01*
X013149Y012840D01*
X013190Y012742D01*
X013265Y012666D01*
X013364Y012625D01*
X013471Y012625D01*
X013570Y012666D01*
X013615Y012710D01*
X013628Y012697D01*
X013583Y012653D01*
X013542Y012554D01*
X013542Y012447D01*
X013583Y012348D01*
X013659Y012272D01*
X013758Y012231D01*
X013865Y012231D01*
X013964Y012272D01*
X014040Y012348D01*
X014080Y012447D01*
X014080Y012554D01*
X014040Y012653D01*
X013995Y012697D01*
X014040Y012742D01*
X014080Y012840D01*
X014080Y012947D01*
X014040Y013046D01*
X013995Y013091D01*
X014008Y013104D01*
X014053Y013060D01*
X014152Y013019D01*
X014259Y013019D01*
X014358Y013060D01*
X014402Y013104D01*
X014446Y013060D01*
X014545Y013019D01*
X014652Y013019D01*
X014751Y013060D01*
X014827Y013135D01*
X014868Y013234D01*
X014868Y013316D02*
X015117Y013316D01*
X015148Y013414D02*
X015051Y013414D01*
X015046Y013412D02*
X015145Y013453D01*
X015221Y013529D01*
X015262Y013628D01*
X015262Y013735D01*
X015221Y013834D01*
X015145Y013909D01*
X015046Y013950D01*
X014939Y013950D01*
X014840Y013909D01*
X014764Y013834D01*
X014723Y013735D01*
X014723Y013628D01*
X014764Y013529D01*
X014840Y013453D01*
X014939Y013412D01*
X015046Y013412D01*
X014934Y013414D02*
X014838Y013414D01*
X014780Y013513D02*
X014754Y013513D01*
X014730Y013611D02*
X013286Y013611D01*
X013293Y013628D02*
X013293Y013735D01*
X013252Y013834D01*
X013208Y013878D01*
X013252Y013923D01*
X013293Y014022D01*
X013293Y014129D01*
X013252Y014227D01*
X013176Y014303D01*
X013078Y014344D01*
X012970Y014344D01*
X012872Y014303D01*
X012796Y014227D01*
X012755Y014129D01*
X012755Y014022D01*
X012796Y013923D01*
X012840Y013878D01*
X012796Y013834D01*
X012755Y013735D01*
X012755Y013628D01*
X012796Y013529D01*
X012872Y013453D01*
X012970Y013412D01*
X013078Y013412D01*
X013176Y013453D01*
X013252Y013529D01*
X013293Y013628D01*
X013293Y013710D02*
X014723Y013710D01*
X014754Y013808D02*
X013263Y013808D01*
X013236Y013907D02*
X014838Y013907D01*
X015147Y013907D02*
X016412Y013907D01*
X016415Y013909D02*
X016339Y013834D01*
X016298Y013735D01*
X016298Y013628D01*
X016339Y013529D01*
X016415Y013453D01*
X016514Y013412D01*
X016621Y013412D01*
X016720Y013453D01*
X016795Y013529D01*
X016836Y013628D01*
X016836Y013735D01*
X016795Y013834D01*
X016720Y013909D01*
X016621Y013950D01*
X016514Y013950D01*
X016415Y013909D01*
X016329Y013808D02*
X015231Y013808D01*
X015262Y013710D02*
X016298Y013710D01*
X016305Y013611D02*
X015255Y013611D01*
X015231Y013513D02*
X015205Y013513D01*
X015541Y013513D02*
X015625Y013513D01*
X015935Y013513D02*
X016018Y013513D01*
X016329Y013513D02*
X016355Y013513D01*
X016412Y013414D02*
X016509Y013414D01*
X016626Y013414D02*
X016722Y013414D01*
X016692Y013316D02*
X016443Y013316D01*
X016436Y013217D02*
X016699Y013217D01*
X016723Y013119D02*
X016749Y013119D01*
X016412Y013119D02*
X016385Y013119D01*
X016779Y013513D02*
X016806Y013513D01*
X016830Y013611D02*
X039370Y013611D01*
X039370Y013513D02*
X017904Y013513D01*
X017987Y013414D02*
X039370Y013414D01*
X039370Y013316D02*
X018017Y013316D01*
X018011Y013217D02*
X039370Y013217D01*
X039370Y013119D02*
X017960Y013119D01*
X017806Y013020D02*
X039370Y013020D01*
X039370Y012922D02*
X030367Y012922D01*
X030364Y012923D02*
X030251Y012923D01*
X030146Y012880D01*
X030066Y012799D01*
X030022Y012695D01*
X030022Y012581D01*
X030066Y012477D01*
X030146Y012396D01*
X030251Y012353D01*
X030364Y012353D01*
X030469Y012396D01*
X030549Y012477D01*
X030592Y012581D01*
X030592Y012695D01*
X030549Y012799D01*
X030469Y012880D01*
X030364Y012923D01*
X030248Y012922D02*
X017230Y012922D01*
X017223Y012823D02*
X030090Y012823D01*
X030035Y012725D02*
X017511Y012725D01*
X017594Y012626D02*
X030022Y012626D01*
X030045Y012528D02*
X017624Y012528D01*
X017617Y012429D02*
X030113Y012429D01*
X030502Y012429D02*
X036192Y012429D01*
X036199Y012437D02*
X036119Y012357D01*
X036076Y012252D01*
X036076Y012138D01*
X036119Y012034D01*
X036199Y011954D01*
X036304Y011910D01*
X036417Y011910D01*
X036522Y011954D01*
X036602Y012034D01*
X036646Y012138D01*
X036646Y012252D01*
X036602Y012357D01*
X036522Y012437D01*
X036417Y012480D01*
X036304Y012480D01*
X036199Y012437D01*
X036108Y012331D02*
X017905Y012331D01*
X017987Y012232D02*
X036076Y012232D01*
X036077Y012134D02*
X018017Y012134D01*
X018010Y012035D02*
X036118Y012035D01*
X036239Y011937D02*
X017959Y011937D01*
X017592Y012331D02*
X017566Y012331D01*
X017199Y012725D02*
X017173Y012725D01*
X017200Y013020D02*
X017297Y013020D01*
X017413Y013020D02*
X017690Y013020D01*
X017593Y013513D02*
X017510Y013513D01*
X017200Y013513D02*
X017116Y013513D01*
X016836Y013710D02*
X039370Y013710D01*
X039370Y013808D02*
X017808Y013808D01*
X017802Y013806D02*
X017901Y013847D01*
X017977Y013923D01*
X018017Y014022D01*
X018017Y014129D01*
X017977Y014227D01*
X017901Y014303D01*
X017802Y014344D01*
X017695Y014344D01*
X017596Y014303D01*
X017520Y014227D01*
X017479Y014129D01*
X017479Y014022D01*
X017520Y013923D01*
X017596Y013847D01*
X017695Y013806D01*
X017802Y013806D01*
X017689Y013808D02*
X016806Y013808D01*
X016722Y013907D02*
X017536Y013907D01*
X017486Y014005D02*
X013286Y014005D01*
X013293Y014104D02*
X017479Y014104D01*
X017510Y014202D02*
X013262Y014202D01*
X013179Y014301D02*
X017594Y014301D01*
X017903Y014301D02*
X018397Y014301D01*
X018395Y014307D02*
X018436Y014208D01*
X018511Y014132D01*
X018610Y014091D01*
X018717Y014091D01*
X018816Y014132D01*
X018892Y014208D01*
X018933Y014307D01*
X018933Y014414D01*
X018892Y014513D01*
X018816Y014589D01*
X018717Y014630D01*
X018610Y014630D01*
X018511Y014589D01*
X018436Y014513D01*
X018395Y014414D01*
X018395Y014307D01*
X018395Y014399D02*
X012135Y014399D01*
X012150Y014385D02*
X012074Y014461D01*
X011975Y014502D01*
X011868Y014502D01*
X011769Y014461D01*
X011694Y014385D01*
X011653Y014286D01*
X011653Y014179D01*
X011694Y014080D01*
X011769Y014004D01*
X011868Y013963D01*
X011975Y013963D01*
X012074Y014004D01*
X012150Y014080D01*
X012191Y014179D01*
X012191Y014286D01*
X012150Y014385D01*
X012185Y014301D02*
X012869Y014301D01*
X012786Y014202D02*
X012191Y014202D01*
X012160Y014104D02*
X012755Y014104D01*
X012762Y014005D02*
X012075Y014005D01*
X011768Y014005D02*
X007050Y014005D01*
X007032Y013962D02*
X007073Y014061D01*
X007073Y014168D01*
X007032Y014267D01*
X006956Y014343D01*
X006857Y014383D01*
X006750Y014383D01*
X006651Y014343D01*
X006575Y014267D01*
X006534Y014168D01*
X006534Y014061D01*
X006575Y013962D01*
X006651Y013886D01*
X006750Y013845D01*
X006857Y013845D01*
X006956Y013886D01*
X007032Y013962D01*
X006977Y013907D02*
X012812Y013907D01*
X012785Y013808D02*
X005403Y013808D01*
X005381Y013831D02*
X005282Y013872D01*
X005175Y013872D01*
X005076Y013831D01*
X005001Y013755D01*
X004960Y013656D01*
X004960Y013635D01*
X004860Y013635D01*
X004761Y013594D01*
X004686Y013519D01*
X004645Y013420D01*
X004645Y013313D01*
X004686Y013214D01*
X004761Y013138D01*
X004860Y013097D01*
X004967Y013097D01*
X005066Y013138D01*
X005142Y013214D01*
X005183Y013313D01*
X005183Y013334D01*
X005282Y013334D01*
X005381Y013375D01*
X005457Y013450D01*
X005498Y013549D01*
X005498Y013656D01*
X005457Y013755D01*
X005381Y013831D01*
X005475Y013710D02*
X012755Y013710D01*
X012762Y013611D02*
X005498Y013611D01*
X005483Y013513D02*
X012812Y013513D01*
X012965Y013414D02*
X005421Y013414D01*
X005183Y013316D02*
X013149Y013316D01*
X013156Y013217D02*
X005143Y013217D01*
X005020Y013119D02*
X013206Y013119D01*
X013179Y013020D02*
X004081Y013020D01*
X004121Y013004D02*
X004022Y013045D01*
X003923Y013045D01*
X003923Y013105D01*
X003882Y013204D01*
X003806Y013280D01*
X003707Y013320D01*
X003600Y013320D01*
X003502Y013280D01*
X003426Y013204D01*
X003385Y013105D01*
X003385Y012998D01*
X003426Y012899D01*
X003502Y012823D01*
X003600Y012782D01*
X003700Y012782D01*
X003700Y012722D01*
X003741Y012623D01*
X003816Y012548D01*
X003915Y012507D01*
X004015Y012507D01*
X004015Y012447D01*
X004056Y012348D01*
X004131Y012272D01*
X004230Y012231D01*
X004330Y012231D01*
X004330Y012210D01*
X004371Y012112D01*
X004446Y012036D01*
X004545Y011995D01*
X004652Y011995D01*
X004659Y011998D01*
X004645Y011963D01*
X004645Y011856D01*
X004686Y011757D01*
X004761Y011682D01*
X004860Y011641D01*
X004960Y011641D01*
X004960Y011541D01*
X005001Y011442D01*
X005076Y011367D01*
X005175Y011326D01*
X005282Y011326D01*
X005381Y011367D01*
X005457Y011442D01*
X005498Y011541D01*
X005498Y011648D01*
X005457Y011747D01*
X005381Y011823D01*
X005282Y011864D01*
X005183Y011864D01*
X005183Y011963D01*
X005142Y012062D01*
X005066Y012138D01*
X004967Y012179D01*
X004860Y012179D01*
X004854Y012176D01*
X004868Y012210D01*
X004868Y012318D01*
X004827Y012416D01*
X004751Y012492D01*
X004652Y012533D01*
X004553Y012533D01*
X004553Y012554D01*
X004512Y012653D01*
X004436Y012728D01*
X004337Y012769D01*
X004238Y012769D01*
X004238Y012829D01*
X004197Y012928D01*
X004121Y013004D01*
X004200Y012922D02*
X013149Y012922D01*
X013156Y012823D02*
X004238Y012823D01*
X004440Y012725D02*
X012868Y012725D01*
X012872Y012728D02*
X012796Y012653D01*
X012755Y012554D01*
X012755Y012447D01*
X012796Y012348D01*
X012872Y012272D01*
X012970Y012231D01*
X013078Y012231D01*
X013176Y012272D01*
X013252Y012348D01*
X013293Y012447D01*
X013293Y012554D01*
X013252Y012653D01*
X013176Y012728D01*
X013078Y012769D01*
X012970Y012769D01*
X012872Y012728D01*
X012785Y012626D02*
X004523Y012626D01*
X004665Y012528D02*
X012755Y012528D01*
X012762Y012429D02*
X004814Y012429D01*
X004862Y012331D02*
X012813Y012331D01*
X012967Y012232D02*
X004868Y012232D01*
X005070Y012134D02*
X013149Y012134D01*
X013156Y012035D02*
X005153Y012035D01*
X005183Y011937D02*
X013207Y011937D01*
X013179Y011838D02*
X005343Y011838D01*
X005460Y011740D02*
X013149Y011740D01*
X013156Y011641D02*
X005498Y011641D01*
X005498Y011543D02*
X013207Y011543D01*
X013363Y011444D02*
X005458Y011444D01*
X005331Y011346D02*
X013542Y011346D01*
X013550Y011247D02*
X002192Y011247D01*
X002192Y011149D02*
X013261Y011149D01*
X013265Y011154D02*
X013190Y011078D01*
X013149Y010979D01*
X013149Y010872D01*
X013190Y010773D01*
X013234Y010729D01*
X013221Y010715D01*
X013176Y010760D01*
X013078Y010801D01*
X012970Y010801D01*
X012872Y010760D01*
X012796Y010684D01*
X012755Y010585D01*
X012755Y010478D01*
X012796Y010379D01*
X012872Y010304D01*
X012970Y010263D01*
X013078Y010263D01*
X013176Y010304D01*
X013221Y010348D01*
X013265Y010304D01*
X013364Y010263D01*
X013471Y010263D01*
X013570Y010304D01*
X013615Y010348D01*
X013659Y010304D01*
X013758Y010263D01*
X013865Y010263D01*
X013964Y010304D01*
X014040Y010379D01*
X014080Y010478D01*
X014080Y010585D01*
X014040Y010684D01*
X013964Y010760D01*
X013865Y010801D01*
X013758Y010801D01*
X013659Y010760D01*
X013615Y010715D01*
X013601Y010729D01*
X013646Y010773D01*
X013687Y010872D01*
X013687Y010979D01*
X013646Y011078D01*
X013570Y011154D01*
X013471Y011194D01*
X013364Y011194D01*
X013265Y011154D01*
X013178Y011050D02*
X002192Y011050D01*
X002192Y010952D02*
X006961Y010952D01*
X006966Y010957D02*
X006890Y010881D01*
X006849Y010782D01*
X006849Y010675D01*
X006890Y010576D01*
X006966Y010500D01*
X007065Y010460D01*
X007172Y010460D01*
X007271Y010500D01*
X007347Y010576D01*
X007388Y010675D01*
X007388Y010782D01*
X007347Y010881D01*
X007271Y010957D01*
X007172Y010998D01*
X007065Y010998D01*
X006966Y010957D01*
X006879Y010853D02*
X002192Y010853D01*
X002192Y010755D02*
X006849Y010755D01*
X006857Y010656D02*
X002192Y010656D01*
X002192Y010558D02*
X006909Y010558D01*
X007328Y010558D02*
X012755Y010558D01*
X012763Y010459D02*
X002192Y010459D01*
X002192Y010361D02*
X012814Y010361D01*
X012784Y010656D02*
X007380Y010656D01*
X007388Y010755D02*
X012867Y010755D01*
X013156Y010853D02*
X007358Y010853D01*
X007276Y010952D02*
X013149Y010952D01*
X013181Y010755D02*
X013208Y010755D01*
X013628Y010755D02*
X013654Y010755D01*
X013679Y010853D02*
X014586Y010853D01*
X014586Y010952D02*
X013687Y010952D01*
X013657Y011050D02*
X013757Y011050D01*
X013866Y011050D02*
X014586Y011050D01*
X014442Y010755D02*
X013969Y010755D01*
X014051Y010656D02*
X014359Y010656D01*
X014330Y010558D02*
X014080Y010558D01*
X014073Y010459D02*
X014338Y010459D01*
X014389Y010361D02*
X014021Y010361D01*
X014359Y010262D02*
X002192Y010262D01*
X002192Y010164D02*
X014330Y010164D01*
X014338Y010065D02*
X002192Y010065D01*
X002192Y009967D02*
X002363Y009967D01*
X002504Y009967D02*
X013654Y009967D01*
X013572Y009868D02*
X010386Y009868D01*
X010421Y009854D02*
X010322Y009895D01*
X010215Y009895D01*
X010116Y009854D01*
X010111Y009849D01*
X010106Y009854D01*
X010007Y009895D01*
X009900Y009895D01*
X009801Y009854D01*
X009796Y009849D01*
X009791Y009854D01*
X009692Y009895D01*
X009585Y009895D01*
X009486Y009854D01*
X009481Y009849D01*
X009476Y009854D01*
X009377Y009895D01*
X009270Y009895D01*
X009171Y009854D01*
X009166Y009849D01*
X009161Y009854D01*
X009062Y009895D01*
X008955Y009895D01*
X008856Y009854D01*
X008851Y009849D01*
X008846Y009854D01*
X008747Y009895D01*
X008640Y009895D01*
X008541Y009854D01*
X008465Y009779D01*
X008424Y009680D01*
X008424Y009573D01*
X008293Y009573D01*
X008252Y009474D01*
X008176Y009398D01*
X008078Y009357D01*
X007970Y009357D01*
X007872Y009398D01*
X007796Y009474D01*
X007755Y009573D01*
X006167Y009573D01*
X006126Y009474D01*
X006050Y009398D01*
X005952Y009357D01*
X005845Y009357D01*
X005746Y009398D01*
X005670Y009474D01*
X005629Y009573D01*
X005183Y009573D01*
X005183Y009680D01*
X005142Y009779D01*
X005066Y009854D01*
X004967Y009895D01*
X004860Y009895D01*
X004761Y009854D01*
X004756Y009849D01*
X004751Y009854D01*
X004652Y009895D01*
X004545Y009895D01*
X004446Y009854D01*
X004441Y009849D01*
X004436Y009854D01*
X004337Y009895D01*
X004230Y009895D01*
X004131Y009854D01*
X004126Y009849D01*
X004121Y009854D01*
X004022Y009895D01*
X003915Y009895D01*
X003816Y009854D01*
X003811Y009849D01*
X003806Y009854D01*
X003707Y009895D01*
X003600Y009895D01*
X003502Y009854D01*
X003426Y009779D01*
X003385Y009680D01*
X003385Y009573D01*
X002670Y009573D01*
X002673Y009474D02*
X003426Y009474D01*
X003502Y009398D01*
X003600Y009357D01*
X003707Y009357D01*
X003806Y009398D01*
X003811Y009403D01*
X003816Y009398D01*
X003915Y009357D01*
X004022Y009357D01*
X004121Y009398D01*
X004126Y009403D01*
X004131Y009398D01*
X004230Y009357D01*
X004337Y009357D01*
X004436Y009398D01*
X004441Y009403D01*
X004446Y009398D01*
X004545Y009357D01*
X004652Y009357D01*
X004751Y009398D01*
X004756Y009403D01*
X004761Y009398D01*
X004860Y009357D01*
X004967Y009357D01*
X005066Y009398D01*
X005142Y009474D01*
X005183Y009573D01*
X005183Y009671D02*
X005629Y009671D01*
X005629Y009680D02*
X005629Y009573D01*
X005670Y009474D02*
X005142Y009474D01*
X005013Y009376D02*
X005799Y009376D01*
X005997Y009376D02*
X007925Y009376D01*
X007796Y009474D02*
X006126Y009474D01*
X006167Y009573D02*
X006167Y009680D01*
X006126Y009779D01*
X006050Y009854D01*
X005952Y009895D01*
X005845Y009895D01*
X005746Y009854D01*
X005670Y009779D01*
X005629Y009680D01*
X005666Y009770D02*
X005145Y009770D01*
X005032Y009868D02*
X005780Y009868D01*
X006016Y009868D02*
X007906Y009868D01*
X007872Y009854D02*
X007796Y009779D01*
X007755Y009680D01*
X007755Y009573D01*
X007755Y009671D02*
X006167Y009671D01*
X006130Y009770D02*
X007792Y009770D01*
X007872Y009854D02*
X007970Y009895D01*
X008078Y009895D01*
X008176Y009854D01*
X008252Y009779D01*
X008293Y009680D01*
X008293Y009573D01*
X008293Y009671D02*
X008424Y009671D01*
X008424Y009573D02*
X008465Y009474D01*
X008541Y009398D01*
X008640Y009357D01*
X008747Y009357D01*
X008846Y009398D01*
X008851Y009403D01*
X008856Y009398D01*
X008955Y009357D01*
X009062Y009357D01*
X009161Y009398D01*
X009166Y009403D01*
X009171Y009398D01*
X009270Y009357D01*
X009377Y009357D01*
X009476Y009398D01*
X009481Y009403D01*
X009486Y009398D01*
X009585Y009357D01*
X009692Y009357D01*
X009791Y009398D01*
X009796Y009403D01*
X009801Y009398D01*
X009900Y009357D01*
X010007Y009357D01*
X010106Y009398D01*
X010111Y009403D01*
X010116Y009398D01*
X010215Y009357D01*
X010322Y009357D01*
X010421Y009398D01*
X010496Y009474D01*
X010537Y009573D01*
X013602Y009573D01*
X013571Y009474D02*
X010496Y009474D01*
X010537Y009573D02*
X010537Y009680D01*
X010496Y009779D01*
X010421Y009854D01*
X010500Y009770D02*
X013542Y009770D01*
X013550Y009671D02*
X010537Y009671D01*
X010367Y009376D02*
X013542Y009376D01*
X013551Y009277D02*
X002694Y009277D01*
X002703Y009376D02*
X003555Y009376D01*
X003426Y009474D02*
X003385Y009573D01*
X003385Y009671D02*
X002703Y009671D01*
X002698Y009770D02*
X003422Y009770D01*
X003536Y009868D02*
X002650Y009868D01*
X002216Y009868D02*
X002192Y009868D01*
X002642Y009179D02*
X012866Y009179D01*
X012872Y009185D02*
X012796Y009109D01*
X012755Y009010D01*
X012755Y008903D01*
X012796Y008805D01*
X012872Y008729D01*
X012970Y008688D01*
X013078Y008688D01*
X013176Y008729D01*
X013252Y008805D01*
X013293Y008903D01*
X013293Y009010D01*
X013252Y009109D01*
X013176Y009185D01*
X013078Y009226D01*
X012970Y009226D01*
X012872Y009185D01*
X012784Y009080D02*
X002690Y009080D01*
X002703Y008982D02*
X012755Y008982D01*
X012763Y008883D02*
X002678Y008883D01*
X002665Y008785D02*
X012816Y008785D01*
X013233Y008785D02*
X014390Y008785D01*
X014338Y008883D02*
X013285Y008883D01*
X013293Y008982D02*
X014330Y008982D01*
X014359Y009080D02*
X013264Y009080D01*
X013183Y009179D02*
X013603Y009179D01*
X014020Y009179D02*
X014390Y009179D01*
X014338Y009277D02*
X014072Y009277D01*
X014080Y009376D02*
X014330Y009376D01*
X014359Y009474D02*
X014051Y009474D01*
X014047Y009967D02*
X013969Y009967D01*
X014363Y009967D02*
X014389Y009967D01*
X014808Y009967D02*
X015177Y009967D01*
X015146Y009868D02*
X014839Y009868D01*
X014868Y009770D02*
X015117Y009770D01*
X015125Y009671D02*
X014860Y009671D01*
X014808Y009573D02*
X015177Y009573D01*
X014839Y009474D02*
X015540Y009474D01*
X015511Y009376D02*
X014868Y009376D01*
X014860Y009277D02*
X015519Y009277D01*
X015571Y009179D02*
X014808Y009179D01*
X015151Y008785D02*
X015227Y008785D01*
X015545Y008785D02*
X015965Y008785D01*
X015626Y008686D02*
X017508Y008686D01*
X017479Y008588D02*
X015655Y008588D01*
X015647Y008489D02*
X017488Y008489D01*
X017540Y008391D02*
X015594Y008391D01*
X015683Y008292D02*
X017508Y008292D01*
X017590Y008785D02*
X016382Y008785D01*
X016434Y008883D02*
X020154Y008883D01*
X020154Y008785D02*
X017907Y008785D01*
X017989Y008686D02*
X020154Y008686D01*
X020180Y008588D02*
X018017Y008588D01*
X018009Y008489D02*
X020241Y008489D01*
X020386Y008391D02*
X018695Y008391D01*
X018688Y008398D02*
X018589Y008439D01*
X018482Y008439D01*
X018383Y008398D01*
X018308Y008322D01*
X018267Y008223D01*
X018267Y008116D01*
X018308Y008017D01*
X018383Y007941D01*
X018482Y007900D01*
X018589Y007900D01*
X018688Y007941D01*
X018764Y008017D01*
X018805Y008116D01*
X018805Y008223D01*
X018764Y008322D01*
X018688Y008398D01*
X018776Y008292D02*
X039370Y008292D01*
X039370Y008194D02*
X018805Y008194D01*
X018796Y008095D02*
X039370Y008095D01*
X039370Y007997D02*
X018744Y007997D01*
X018328Y007997D02*
X017956Y007997D01*
X018009Y008095D02*
X018275Y008095D01*
X018267Y008194D02*
X018017Y008194D01*
X017989Y008292D02*
X018296Y008292D01*
X018377Y008391D02*
X017957Y008391D01*
X017957Y009179D02*
X018327Y009179D01*
X018308Y009198D02*
X018383Y009123D01*
X018482Y009082D01*
X018589Y009082D01*
X018688Y009123D01*
X018764Y009198D01*
X018805Y009297D01*
X018805Y009404D01*
X018764Y009503D01*
X018688Y009579D01*
X018589Y009620D01*
X018482Y009620D01*
X018383Y009579D01*
X018308Y009503D01*
X018267Y009404D01*
X018267Y009297D01*
X018308Y009198D01*
X018275Y009277D02*
X018009Y009277D01*
X018017Y009376D02*
X018267Y009376D01*
X018296Y009474D02*
X017988Y009474D01*
X017958Y009573D02*
X018378Y009573D01*
X018694Y009573D02*
X020154Y009573D01*
X020154Y009474D02*
X018776Y009474D01*
X018805Y009376D02*
X019874Y009376D01*
X019815Y009277D02*
X018797Y009277D01*
X018745Y009179D02*
X019802Y009179D01*
X019827Y009080D02*
X016414Y009080D01*
X016443Y008982D02*
X019902Y008982D01*
X020623Y008391D02*
X039370Y008391D01*
X039370Y008489D02*
X030767Y008489D01*
X030775Y008493D02*
X030851Y008568D01*
X030891Y008667D01*
X030891Y008774D01*
X030851Y008873D01*
X030775Y008949D01*
X030676Y008990D01*
X030569Y008990D01*
X030470Y008949D01*
X030394Y008873D01*
X030353Y008774D01*
X030353Y008667D01*
X030394Y008568D01*
X030470Y008493D01*
X030569Y008452D01*
X030676Y008452D01*
X030775Y008493D01*
X030859Y008588D02*
X039370Y008588D01*
X039370Y008686D02*
X030891Y008686D01*
X030887Y008785D02*
X039370Y008785D01*
X039370Y008883D02*
X030840Y008883D01*
X030695Y008982D02*
X039370Y008982D01*
X039370Y009080D02*
X020854Y009080D01*
X020854Y008982D02*
X030550Y008982D01*
X030405Y008883D02*
X020854Y008883D01*
X020854Y008785D02*
X030358Y008785D01*
X030353Y008686D02*
X020854Y008686D01*
X020828Y008588D02*
X030386Y008588D01*
X030478Y008489D02*
X020768Y008489D01*
X020854Y009179D02*
X039370Y009179D01*
X039370Y009277D02*
X020854Y009277D01*
X020854Y009376D02*
X039370Y009376D01*
X039370Y009474D02*
X020854Y009474D01*
X020854Y009573D02*
X039370Y009573D01*
X039370Y009671D02*
X034535Y009671D01*
X034504Y009641D02*
X034585Y009721D01*
X034628Y009825D01*
X034628Y009939D01*
X034585Y010044D01*
X034504Y010124D01*
X034400Y010167D01*
X034286Y010167D01*
X034181Y010124D01*
X034101Y010044D01*
X034058Y009939D01*
X034058Y009825D01*
X034101Y009721D01*
X034181Y009641D01*
X034286Y009597D01*
X034400Y009597D01*
X034504Y009641D01*
X034605Y009770D02*
X039370Y009770D01*
X039370Y009868D02*
X034628Y009868D01*
X034616Y009967D02*
X039370Y009967D01*
X039370Y010065D02*
X034563Y010065D01*
X034407Y010164D02*
X039370Y010164D01*
X039370Y010262D02*
X031087Y010262D01*
X031087Y010261D02*
X031128Y010360D01*
X031128Y010467D01*
X031087Y010566D01*
X031011Y010642D01*
X030912Y010683D01*
X030805Y010683D01*
X030706Y010642D01*
X030631Y010566D01*
X030590Y010467D01*
X030590Y010360D01*
X030631Y010261D01*
X030706Y010186D01*
X030805Y010145D01*
X030912Y010145D01*
X031011Y010186D01*
X031087Y010261D01*
X031128Y010361D02*
X039370Y010361D01*
X039370Y010459D02*
X031128Y010459D01*
X031090Y010558D02*
X036663Y010558D01*
X036535Y010656D02*
X030976Y010656D01*
X030742Y010656D02*
X028884Y010656D01*
X028868Y010558D02*
X030627Y010558D01*
X030590Y010459D02*
X028805Y010459D01*
X028424Y010459D02*
X020249Y010459D01*
X020383Y010361D02*
X030590Y010361D01*
X030630Y010262D02*
X020481Y010262D01*
X020580Y010164D02*
X030758Y010164D01*
X030959Y010164D02*
X034279Y010164D01*
X034123Y010065D02*
X020678Y010065D01*
X020777Y009967D02*
X034070Y009967D01*
X034058Y009868D02*
X020832Y009868D01*
X020854Y009770D02*
X034081Y009770D01*
X034151Y009671D02*
X020854Y009671D01*
X020082Y009671D02*
X018009Y009671D01*
X018017Y009770D02*
X019984Y009770D01*
X018630Y011050D02*
X031721Y011050D01*
X031775Y011149D02*
X018786Y011149D01*
X018521Y011050D02*
X018197Y011050D01*
X018088Y011050D02*
X017988Y011050D01*
X018352Y011149D02*
X018365Y011149D01*
X018419Y011543D02*
X018299Y011543D01*
X017985Y011543D02*
X017905Y011543D01*
X017592Y011543D02*
X017511Y011543D01*
X019500Y011641D02*
X039370Y011641D01*
X039370Y011543D02*
X019548Y011543D01*
X019553Y011444D02*
X039370Y011444D01*
X039370Y011346D02*
X019521Y011346D01*
X016359Y009179D02*
X016332Y009179D01*
X015622Y009573D02*
X015595Y009573D01*
X015125Y010065D02*
X014860Y010065D01*
X014868Y010164D02*
X015117Y010164D01*
X015147Y010262D02*
X014839Y010262D01*
X014809Y010361D02*
X015177Y010361D01*
X015125Y010459D02*
X014860Y010459D01*
X013601Y011149D02*
X013575Y011149D01*
X013572Y011444D02*
X013473Y011444D01*
X013629Y011937D02*
X013655Y011937D01*
X013687Y012134D02*
X015117Y012134D01*
X015147Y012232D02*
X013868Y012232D01*
X013755Y012232D02*
X013657Y012232D01*
X013600Y012331D02*
X013574Y012331D01*
X013550Y012429D02*
X013286Y012429D01*
X013293Y012528D02*
X013542Y012528D01*
X013572Y012626D02*
X013475Y012626D01*
X013360Y012626D02*
X013263Y012626D01*
X013206Y012725D02*
X013180Y012725D01*
X013235Y012331D02*
X013262Y012331D01*
X013179Y012232D02*
X013081Y012232D01*
X014023Y012331D02*
X015175Y012331D01*
X015124Y012429D02*
X014073Y012429D01*
X014080Y012528D02*
X015117Y012528D01*
X015147Y012626D02*
X015050Y012626D01*
X014935Y012626D02*
X014050Y012626D01*
X014023Y012725D02*
X014781Y012725D01*
X014730Y012823D02*
X014073Y012823D01*
X014080Y012922D02*
X014723Y012922D01*
X014754Y013020D02*
X014657Y013020D01*
X014541Y013020D02*
X014263Y013020D01*
X014147Y013020D02*
X014050Y013020D01*
X014050Y013513D02*
X013967Y013513D01*
X013656Y013513D02*
X013573Y013513D01*
X013263Y013513D02*
X013236Y013513D01*
X013179Y013414D02*
X013083Y013414D01*
X011684Y014104D02*
X007073Y014104D01*
X007058Y014202D02*
X011653Y014202D01*
X011659Y014301D02*
X006997Y014301D01*
X006610Y014301D02*
X003486Y014301D01*
X003531Y014319D02*
X003606Y014395D01*
X003647Y014494D01*
X003647Y014601D01*
X003606Y014700D01*
X003531Y014776D01*
X003432Y014817D01*
X003325Y014817D01*
X003226Y014776D01*
X003150Y014700D01*
X003109Y014601D01*
X003109Y014580D01*
X003089Y014580D01*
X002990Y014539D01*
X002914Y014464D01*
X002873Y014365D01*
X002873Y014344D01*
X002852Y014344D01*
X002753Y014303D01*
X002678Y014227D01*
X002637Y014129D01*
X002637Y014108D01*
X002616Y014108D01*
X002517Y014067D01*
X002442Y013991D01*
X002401Y013892D01*
X002401Y013785D01*
X002442Y013686D01*
X002517Y013611D01*
X002616Y013570D01*
X002723Y013570D01*
X002822Y013611D01*
X002898Y013686D01*
X002939Y013785D01*
X002939Y013806D01*
X002959Y013806D01*
X003058Y013847D01*
X003134Y013923D01*
X003175Y014022D01*
X003175Y014042D01*
X003196Y014042D01*
X003295Y014083D01*
X003370Y014159D01*
X003411Y014258D01*
X003411Y014278D01*
X003432Y014278D01*
X003531Y014319D01*
X003608Y014399D02*
X011708Y014399D01*
X011859Y014498D02*
X003647Y014498D01*
X003647Y014596D02*
X018530Y014596D01*
X018430Y014498D02*
X011984Y014498D01*
X012163Y014792D02*
X012262Y014751D01*
X012369Y014751D01*
X012468Y014792D01*
X012543Y014868D01*
X012584Y014966D01*
X012584Y015073D01*
X012543Y015172D01*
X012468Y015248D01*
X012369Y015289D01*
X012262Y015289D01*
X012163Y015248D01*
X012087Y015172D01*
X012046Y015073D01*
X012046Y014966D01*
X012087Y014868D01*
X012163Y014792D01*
X012161Y014793D02*
X003488Y014793D01*
X003608Y014695D02*
X019807Y014695D01*
X019769Y014734D02*
X019895Y014607D01*
X020060Y014538D01*
X020240Y014538D01*
X020405Y014607D01*
X020531Y014734D01*
X020600Y014899D01*
X020600Y015078D01*
X020531Y015243D01*
X020405Y015370D01*
X020240Y015438D01*
X020060Y015438D01*
X019895Y015370D01*
X019769Y015243D01*
X019700Y015078D01*
X019700Y014899D01*
X019769Y014734D01*
X019744Y014793D02*
X019280Y014793D01*
X019279Y014792D02*
X019354Y014868D01*
X019395Y014966D01*
X019395Y015066D01*
X019455Y015066D01*
X019554Y015107D01*
X019630Y015182D01*
X019671Y015281D01*
X019671Y015388D01*
X019630Y015487D01*
X019554Y015563D01*
X019455Y015604D01*
X019348Y015604D01*
X019250Y015563D01*
X019174Y015487D01*
X019133Y015388D01*
X019133Y015289D01*
X019073Y015289D01*
X018974Y015248D01*
X018898Y015172D01*
X018857Y015073D01*
X018857Y014966D01*
X018898Y014868D01*
X018974Y014792D01*
X019073Y014751D01*
X019180Y014751D01*
X019279Y014792D01*
X019365Y014892D02*
X019703Y014892D01*
X019700Y014990D02*
X019395Y014990D01*
X019511Y015089D02*
X019705Y015089D01*
X019745Y015187D02*
X019632Y015187D01*
X019671Y015286D02*
X019811Y015286D01*
X019930Y015384D02*
X019671Y015384D01*
X019632Y015483D02*
X026518Y015483D01*
X026506Y015492D02*
X026564Y015450D01*
X026627Y015418D01*
X026694Y015396D01*
X026750Y015387D01*
X026750Y015785D01*
X026850Y015785D01*
X026850Y015885D01*
X027247Y015885D01*
X027239Y015940D01*
X027217Y016008D01*
X027184Y016071D01*
X027143Y016128D01*
X027093Y016178D01*
X027035Y016220D01*
X026972Y016252D01*
X026905Y016274D01*
X026850Y016283D01*
X026850Y015885D01*
X026750Y015885D01*
X026750Y016283D01*
X026694Y016274D01*
X026627Y016252D01*
X026564Y016220D01*
X026506Y016178D01*
X026456Y016128D01*
X026415Y016071D01*
X026383Y016008D01*
X026361Y015940D01*
X026352Y015885D01*
X026750Y015885D01*
X026750Y015785D01*
X026352Y015785D01*
X026361Y015730D01*
X026383Y015662D01*
X026415Y015599D01*
X026456Y015542D01*
X026506Y015492D01*
X026427Y015581D02*
X019510Y015581D01*
X019294Y015581D02*
X010207Y015581D01*
X010222Y015546D02*
X010181Y015645D01*
X010106Y015720D01*
X010007Y015761D01*
X009907Y015761D01*
X009907Y015782D01*
X009866Y015881D01*
X009791Y015957D01*
X009692Y015998D01*
X009592Y015998D01*
X009592Y016018D01*
X009551Y016117D01*
X009476Y016193D01*
X009377Y016234D01*
X009277Y016234D01*
X009277Y016255D01*
X009236Y016353D01*
X009161Y016429D01*
X009062Y016470D01*
X008962Y016470D01*
X008962Y016491D01*
X008921Y016590D01*
X008846Y016665D01*
X014793Y016665D01*
X014804Y016639D02*
X014879Y016563D01*
X014978Y016523D01*
X015085Y016523D01*
X015184Y016563D01*
X015260Y016639D01*
X015301Y016738D01*
X015301Y016845D01*
X015260Y016944D01*
X015184Y017020D01*
X015085Y017061D01*
X014978Y017061D01*
X014879Y017020D01*
X014804Y016944D01*
X014763Y016845D01*
X014763Y016738D01*
X014804Y016639D01*
X014877Y016566D02*
X008931Y016566D01*
X008846Y016665D02*
X008747Y016706D01*
X008640Y016706D01*
X008541Y016665D01*
X008465Y016590D01*
X008424Y016491D01*
X008424Y016384D01*
X008465Y016285D01*
X008541Y016209D01*
X008640Y016168D01*
X008739Y016168D01*
X008739Y016148D01*
X008780Y016049D01*
X008856Y015973D01*
X008955Y015932D01*
X009054Y015932D01*
X009054Y015911D01*
X009095Y015812D01*
X009171Y015737D01*
X009270Y015696D01*
X009369Y015696D01*
X009369Y015675D01*
X009410Y015576D01*
X009486Y015500D01*
X009585Y015460D01*
X009684Y015460D01*
X009684Y015439D01*
X009725Y015340D01*
X009801Y015264D01*
X009900Y015223D01*
X009999Y015223D01*
X009999Y015203D01*
X010040Y015104D01*
X010116Y015028D01*
X010215Y014987D01*
X010322Y014987D01*
X010421Y015028D01*
X010496Y015104D01*
X010537Y015203D01*
X010537Y015310D01*
X010496Y015409D01*
X010421Y015484D01*
X010322Y015525D01*
X010222Y015525D01*
X010222Y015546D01*
X010146Y015680D02*
X026377Y015680D01*
X026353Y015778D02*
X009907Y015778D01*
X009868Y015877D02*
X026750Y015877D01*
X026750Y015975D02*
X026850Y015975D01*
X026850Y015877D02*
X027350Y015877D01*
X027350Y015924D02*
X027350Y015745D01*
X027418Y015580D01*
X027545Y015453D01*
X027710Y015385D01*
X027889Y015385D01*
X028055Y015453D01*
X028181Y015580D01*
X028250Y015745D01*
X028250Y015924D01*
X028181Y016090D01*
X028055Y016216D01*
X027889Y016285D01*
X027710Y016285D01*
X027545Y016216D01*
X027418Y016090D01*
X027350Y015924D01*
X027371Y015975D02*
X027227Y015975D01*
X027182Y016074D02*
X027412Y016074D01*
X027501Y016172D02*
X027098Y016172D01*
X026914Y016271D02*
X027676Y016271D01*
X027923Y016271D02*
X028676Y016271D01*
X028710Y016285D02*
X028545Y016216D01*
X028418Y016090D01*
X028350Y015924D01*
X028350Y015745D01*
X028418Y015580D01*
X028545Y015453D01*
X028710Y015385D01*
X028889Y015385D01*
X029055Y015453D01*
X029181Y015580D01*
X029250Y015745D01*
X029250Y015924D01*
X029181Y016090D01*
X029055Y016216D01*
X028889Y016285D01*
X028710Y016285D01*
X028923Y016271D02*
X029676Y016271D01*
X029710Y016285D02*
X029545Y016216D01*
X029418Y016090D01*
X029350Y015924D01*
X029350Y015745D01*
X029418Y015580D01*
X029545Y015453D01*
X029710Y015385D01*
X029889Y015385D01*
X030055Y015453D01*
X030181Y015580D01*
X030250Y015745D01*
X030250Y015924D01*
X030181Y016090D01*
X030055Y016216D01*
X029889Y016285D01*
X029710Y016285D01*
X029923Y016271D02*
X032517Y016271D01*
X032537Y016291D02*
X032461Y016216D01*
X032420Y016117D01*
X032420Y016010D01*
X032461Y015911D01*
X032537Y015835D01*
X032636Y015794D01*
X032743Y015794D01*
X032842Y015835D01*
X032917Y015911D01*
X032958Y016010D01*
X032958Y016117D01*
X032917Y016216D01*
X032842Y016291D01*
X032743Y016332D01*
X032636Y016332D01*
X032537Y016291D01*
X032443Y016172D02*
X030098Y016172D01*
X030188Y016074D02*
X032420Y016074D01*
X032435Y015975D02*
X030228Y015975D01*
X030250Y015877D02*
X032495Y015877D01*
X032884Y015877D02*
X033473Y015877D01*
X033475Y015881D02*
X033434Y015782D01*
X033434Y015675D01*
X033475Y015576D01*
X033551Y015500D01*
X033650Y015460D01*
X033757Y015460D01*
X033856Y015500D01*
X033931Y015576D01*
X033972Y015675D01*
X033972Y015782D01*
X033931Y015881D01*
X033856Y015957D01*
X033757Y015998D01*
X033650Y015998D01*
X033551Y015957D01*
X033475Y015881D01*
X033434Y015778D02*
X030250Y015778D01*
X030223Y015680D02*
X033434Y015680D01*
X033473Y015581D02*
X030182Y015581D01*
X030084Y015483D02*
X033593Y015483D01*
X033813Y015483D02*
X039370Y015483D01*
X039370Y015581D02*
X033933Y015581D01*
X033972Y015680D02*
X039370Y015680D01*
X039370Y015778D02*
X033972Y015778D01*
X033933Y015877D02*
X035025Y015877D01*
X034991Y015911D02*
X035066Y015835D01*
X035165Y015794D01*
X035272Y015794D01*
X035371Y015835D01*
X035447Y015911D01*
X035488Y016010D01*
X035488Y016117D01*
X035447Y016216D01*
X035371Y016291D01*
X035272Y016332D01*
X035165Y016332D01*
X035066Y016291D01*
X034991Y016216D01*
X034950Y016117D01*
X034950Y016010D01*
X034991Y015911D01*
X034964Y015975D02*
X033810Y015975D01*
X033596Y015975D02*
X032944Y015975D01*
X032958Y016074D02*
X034950Y016074D01*
X034973Y016172D02*
X032935Y016172D01*
X032862Y016271D02*
X035046Y016271D01*
X035392Y016271D02*
X039370Y016271D01*
X039370Y016369D02*
X009220Y016369D01*
X009271Y016271D02*
X026685Y016271D01*
X026750Y016271D02*
X026850Y016271D01*
X026850Y016172D02*
X026750Y016172D01*
X026750Y016074D02*
X026850Y016074D01*
X026850Y015785D02*
X027247Y015785D01*
X027239Y015730D01*
X027217Y015662D01*
X027184Y015599D01*
X027143Y015542D01*
X027093Y015492D01*
X027035Y015450D01*
X026972Y015418D01*
X026905Y015396D01*
X026850Y015387D01*
X026850Y015785D01*
X026850Y015778D02*
X026750Y015778D01*
X026750Y015680D02*
X026850Y015680D01*
X026850Y015581D02*
X026750Y015581D01*
X026750Y015483D02*
X026850Y015483D01*
X026889Y015285D02*
X026710Y015285D01*
X026545Y015216D01*
X026418Y015090D01*
X026350Y014924D01*
X026350Y014745D01*
X026418Y014580D01*
X026545Y014453D01*
X026710Y014385D01*
X026889Y014385D01*
X027055Y014453D01*
X027181Y014580D01*
X027250Y014745D01*
X027250Y014924D01*
X027181Y015090D01*
X027055Y015216D01*
X026889Y015285D01*
X027083Y015187D02*
X027516Y015187D01*
X027545Y015216D02*
X027418Y015090D01*
X027350Y014924D01*
X027350Y014745D01*
X027418Y014580D01*
X027545Y014453D01*
X027710Y014385D01*
X027889Y014385D01*
X028055Y014453D01*
X028181Y014580D01*
X028250Y014745D01*
X028250Y014924D01*
X028181Y015090D01*
X028055Y015216D01*
X027889Y015285D01*
X027710Y015285D01*
X027545Y015216D01*
X027418Y015089D02*
X027181Y015089D01*
X027222Y014990D02*
X027377Y014990D01*
X027350Y014892D02*
X027250Y014892D01*
X027250Y014793D02*
X027350Y014793D01*
X027370Y014695D02*
X027229Y014695D01*
X027188Y014596D02*
X027411Y014596D01*
X027500Y014498D02*
X027099Y014498D01*
X026924Y014399D02*
X027675Y014399D01*
X027924Y014399D02*
X028675Y014399D01*
X028710Y014385D02*
X028889Y014385D01*
X029055Y014453D01*
X029181Y014580D01*
X029250Y014745D01*
X029250Y014924D01*
X029181Y015090D01*
X029055Y015216D01*
X028889Y015285D01*
X028710Y015285D01*
X028545Y015216D01*
X028418Y015090D01*
X028350Y014924D01*
X028350Y014745D01*
X028418Y014580D01*
X028545Y014453D01*
X028710Y014385D01*
X028924Y014399D02*
X029675Y014399D01*
X029710Y014385D02*
X029889Y014385D01*
X030055Y014453D01*
X030181Y014580D01*
X030250Y014745D01*
X030250Y014924D01*
X030181Y015090D01*
X030055Y015216D01*
X029889Y015285D01*
X029710Y015285D01*
X029545Y015216D01*
X029418Y015090D01*
X029350Y014924D01*
X029350Y014745D01*
X029418Y014580D01*
X029545Y014453D01*
X029710Y014385D01*
X029924Y014399D02*
X031500Y014399D01*
X031499Y014402D02*
X031542Y014297D01*
X031622Y014217D01*
X031727Y014174D01*
X031841Y014174D01*
X031945Y014217D01*
X032025Y014297D01*
X032069Y014402D01*
X032069Y014516D01*
X032025Y014620D01*
X031945Y014701D01*
X031841Y014744D01*
X031727Y014744D01*
X031622Y014701D01*
X031542Y014620D01*
X031499Y014516D01*
X031499Y014402D01*
X031499Y014498D02*
X030099Y014498D01*
X030188Y014596D02*
X031532Y014596D01*
X031617Y014695D02*
X030229Y014695D01*
X030250Y014793D02*
X035141Y014793D01*
X035141Y014801D02*
X035141Y014688D01*
X035184Y014583D01*
X035264Y014503D01*
X035369Y014459D01*
X035482Y014459D01*
X035587Y014503D01*
X035667Y014583D01*
X035711Y014688D01*
X035711Y014801D01*
X035667Y014906D01*
X035587Y014986D01*
X035482Y015029D01*
X035369Y015029D01*
X035264Y014986D01*
X035184Y014906D01*
X035141Y014801D01*
X035178Y014892D02*
X030250Y014892D01*
X030222Y014990D02*
X035275Y014990D01*
X035576Y014990D02*
X039370Y014990D01*
X039370Y014892D02*
X035673Y014892D01*
X035711Y014793D02*
X039370Y014793D01*
X039370Y014695D02*
X035711Y014695D01*
X035673Y014596D02*
X036613Y014596D01*
X036603Y014592D02*
X036707Y014636D01*
X036821Y014636D01*
X036926Y014592D01*
X037006Y014512D01*
X037049Y014407D01*
X037049Y014294D01*
X037006Y014189D01*
X036926Y014109D01*
X036821Y014066D01*
X036707Y014066D01*
X036603Y014109D01*
X036523Y014189D01*
X036479Y014294D01*
X036479Y014407D01*
X036523Y014512D01*
X036603Y014592D01*
X036517Y014498D02*
X035576Y014498D01*
X035276Y014498D02*
X034166Y014498D01*
X034160Y014504D02*
X034055Y014547D01*
X033942Y014547D01*
X033837Y014504D01*
X033777Y014444D01*
X033717Y014504D01*
X033612Y014547D01*
X033499Y014547D01*
X033394Y014504D01*
X033314Y014423D01*
X033271Y014319D01*
X033271Y014205D01*
X033314Y014101D01*
X033394Y014020D01*
X033499Y013977D01*
X033612Y013977D01*
X033717Y014020D01*
X033777Y014080D01*
X033837Y014020D01*
X033942Y013977D01*
X034055Y013977D01*
X034160Y014020D01*
X034240Y014101D01*
X034283Y014205D01*
X034283Y014319D01*
X034240Y014423D01*
X034160Y014504D01*
X034250Y014399D02*
X036479Y014399D01*
X036479Y014301D02*
X034283Y014301D01*
X034282Y014202D02*
X036517Y014202D01*
X036615Y014104D02*
X034241Y014104D01*
X034124Y014005D02*
X039370Y014005D01*
X039370Y013907D02*
X017961Y013907D01*
X018011Y014005D02*
X033430Y014005D01*
X033313Y014104D02*
X018748Y014104D01*
X018580Y014104D02*
X018017Y014104D01*
X017987Y014202D02*
X018441Y014202D01*
X018886Y014202D02*
X031658Y014202D01*
X031541Y014301D02*
X018930Y014301D01*
X018933Y014399D02*
X026675Y014399D01*
X026500Y014498D02*
X018898Y014498D01*
X018797Y014596D02*
X019920Y014596D01*
X020380Y014596D02*
X020920Y014596D01*
X020895Y014607D02*
X021060Y014538D01*
X021240Y014538D01*
X021405Y014607D01*
X021531Y014734D01*
X021600Y014899D01*
X021600Y015078D01*
X021531Y015243D01*
X021405Y015370D01*
X021240Y015438D01*
X021060Y015438D01*
X020895Y015370D01*
X020769Y015243D01*
X020700Y015078D01*
X020700Y014899D01*
X020769Y014734D01*
X020895Y014607D01*
X020807Y014695D02*
X020493Y014695D01*
X020556Y014793D02*
X020744Y014793D01*
X020703Y014892D02*
X020597Y014892D01*
X020600Y014990D02*
X020700Y014990D01*
X020705Y015089D02*
X020595Y015089D01*
X020555Y015187D02*
X020745Y015187D01*
X020811Y015286D02*
X020489Y015286D01*
X020370Y015384D02*
X020930Y015384D01*
X021370Y015384D02*
X021930Y015384D01*
X021895Y015370D02*
X021769Y015243D01*
X021700Y015078D01*
X021700Y014899D01*
X021769Y014734D01*
X021895Y014607D01*
X022060Y014538D01*
X022240Y014538D01*
X022405Y014607D01*
X022531Y014734D01*
X022600Y014899D01*
X022600Y015078D01*
X022531Y015243D01*
X022405Y015370D01*
X022240Y015438D01*
X022060Y015438D01*
X021895Y015370D01*
X021811Y015286D02*
X021489Y015286D01*
X021555Y015187D02*
X021745Y015187D01*
X021705Y015089D02*
X021595Y015089D01*
X021600Y014990D02*
X021700Y014990D01*
X021703Y014892D02*
X021597Y014892D01*
X021556Y014793D02*
X021744Y014793D01*
X021807Y014695D02*
X021493Y014695D01*
X021380Y014596D02*
X021920Y014596D01*
X022380Y014596D02*
X022920Y014596D01*
X022895Y014607D02*
X023060Y014538D01*
X023240Y014538D01*
X023405Y014607D01*
X023531Y014734D01*
X023600Y014899D01*
X023600Y015078D01*
X023531Y015243D01*
X023405Y015370D01*
X023240Y015438D01*
X023060Y015438D01*
X022895Y015370D01*
X022769Y015243D01*
X022700Y015078D01*
X022700Y014899D01*
X022769Y014734D01*
X022895Y014607D01*
X022807Y014695D02*
X022493Y014695D01*
X022556Y014793D02*
X022744Y014793D01*
X022703Y014892D02*
X022597Y014892D01*
X022600Y014990D02*
X022700Y014990D01*
X022705Y015089D02*
X022595Y015089D01*
X022555Y015187D02*
X022745Y015187D01*
X022811Y015286D02*
X022489Y015286D01*
X022370Y015384D02*
X022930Y015384D01*
X023370Y015384D02*
X023930Y015384D01*
X023895Y015370D02*
X023769Y015243D01*
X023700Y015078D01*
X023700Y014899D01*
X023769Y014734D01*
X023895Y014607D01*
X024060Y014538D01*
X024240Y014538D01*
X024405Y014607D01*
X024531Y014734D01*
X024600Y014899D01*
X024600Y015078D01*
X024531Y015243D01*
X024405Y015370D01*
X024240Y015438D01*
X024060Y015438D01*
X023895Y015370D01*
X023811Y015286D02*
X023489Y015286D01*
X023555Y015187D02*
X023745Y015187D01*
X023705Y015089D02*
X023595Y015089D01*
X023600Y014990D02*
X023700Y014990D01*
X023703Y014892D02*
X023597Y014892D01*
X023556Y014793D02*
X023744Y014793D01*
X023807Y014695D02*
X023493Y014695D01*
X023380Y014596D02*
X023920Y014596D01*
X024380Y014596D02*
X024928Y014596D01*
X024914Y014604D02*
X024977Y014571D01*
X025045Y014550D01*
X025100Y014541D01*
X025100Y014938D01*
X025200Y014938D01*
X025200Y014541D01*
X025255Y014550D01*
X025323Y014571D01*
X025386Y014604D01*
X025443Y014645D01*
X025493Y014695D01*
X026370Y014695D01*
X026350Y014793D02*
X025556Y014793D01*
X025567Y014816D02*
X025589Y014883D01*
X025598Y014938D01*
X025200Y014938D01*
X025200Y015038D01*
X025598Y015038D01*
X025589Y015094D01*
X025567Y015161D01*
X025535Y015224D01*
X025493Y015282D01*
X025443Y015332D01*
X025386Y015373D01*
X025323Y015405D01*
X025255Y015427D01*
X025200Y015436D01*
X025200Y015038D01*
X025100Y015038D01*
X025100Y014938D01*
X024702Y014938D01*
X024711Y014883D01*
X024733Y014816D01*
X024765Y014753D01*
X024807Y014695D01*
X024493Y014695D01*
X024556Y014793D02*
X024744Y014793D01*
X024710Y014892D02*
X024597Y014892D01*
X024600Y014990D02*
X025100Y014990D01*
X025100Y015038D02*
X024702Y015038D01*
X024711Y015094D01*
X024733Y015161D01*
X024765Y015224D01*
X024807Y015282D01*
X024857Y015332D01*
X024914Y015373D01*
X024977Y015405D01*
X025045Y015427D01*
X025100Y015436D01*
X025100Y015038D01*
X025100Y015089D02*
X025200Y015089D01*
X025200Y015187D02*
X025100Y015187D01*
X025100Y015286D02*
X025200Y015286D01*
X025200Y015384D02*
X025100Y015384D01*
X024936Y015384D02*
X024370Y015384D01*
X024489Y015286D02*
X024811Y015286D01*
X024746Y015187D02*
X024555Y015187D01*
X024595Y015089D02*
X024710Y015089D01*
X025100Y014892D02*
X025200Y014892D01*
X025200Y014990D02*
X026377Y014990D01*
X026350Y014892D02*
X025590Y014892D01*
X025567Y014816D02*
X025535Y014753D01*
X025493Y014695D01*
X025372Y014596D02*
X026411Y014596D01*
X026418Y015089D02*
X025590Y015089D01*
X025554Y015187D02*
X026516Y015187D01*
X027081Y015483D02*
X027515Y015483D01*
X027417Y015581D02*
X027172Y015581D01*
X027222Y015680D02*
X027377Y015680D01*
X027350Y015778D02*
X027246Y015778D01*
X027210Y016550D02*
X027389Y016550D01*
X027555Y016619D01*
X027681Y016745D01*
X027750Y016911D01*
X027750Y017090D01*
X027681Y017255D01*
X027555Y017382D01*
X027389Y017450D01*
X027210Y017450D01*
X027045Y017382D01*
X026918Y017255D01*
X026850Y017090D01*
X026850Y016911D01*
X026918Y016745D01*
X027045Y016619D01*
X027210Y016550D01*
X027171Y016566D02*
X015187Y016566D01*
X015271Y016665D02*
X026998Y016665D01*
X026911Y016763D02*
X015301Y016763D01*
X015294Y016862D02*
X026870Y016862D01*
X026850Y016960D02*
X015244Y016960D01*
X015089Y017059D02*
X026850Y017059D01*
X026878Y017157D02*
X004244Y017157D01*
X004146Y017059D02*
X014974Y017059D01*
X014820Y016960D02*
X004047Y016960D01*
X003949Y016862D02*
X014770Y016862D01*
X014763Y016763D02*
X003850Y016763D01*
X003752Y016665D02*
X008541Y016665D01*
X008456Y016566D02*
X003653Y016566D01*
X003555Y016468D02*
X008424Y016468D01*
X008430Y016369D02*
X003456Y016369D01*
X003358Y016271D02*
X008479Y016271D01*
X008629Y016172D02*
X003259Y016172D01*
X003161Y016074D02*
X008770Y016074D01*
X008853Y015975D02*
X003062Y015975D01*
X002964Y015877D02*
X009068Y015877D01*
X009129Y015778D02*
X002865Y015778D01*
X002767Y015680D02*
X009369Y015680D01*
X009408Y015581D02*
X002668Y015581D01*
X002570Y015483D02*
X009528Y015483D01*
X009707Y015384D02*
X002471Y015384D01*
X002373Y015286D02*
X009779Y015286D01*
X010005Y015187D02*
X002274Y015187D01*
X002192Y015089D02*
X010055Y015089D01*
X010206Y014990D02*
X002192Y014990D01*
X002192Y014892D02*
X012077Y014892D01*
X012046Y014990D02*
X010330Y014990D01*
X010481Y015089D02*
X012053Y015089D01*
X012102Y015187D02*
X010531Y015187D01*
X010537Y015286D02*
X012255Y015286D01*
X012376Y015286D02*
X019066Y015286D01*
X019133Y015384D02*
X010506Y015384D01*
X010422Y015483D02*
X019172Y015483D01*
X018913Y015187D02*
X012528Y015187D01*
X012578Y015089D02*
X018864Y015089D01*
X018857Y014990D02*
X012584Y014990D01*
X012554Y014892D02*
X018888Y014892D01*
X018972Y014793D02*
X012469Y014793D01*
X014360Y013513D02*
X014444Y013513D01*
X014811Y013119D02*
X014837Y013119D01*
X015204Y012725D02*
X015230Y012725D01*
X015542Y012725D02*
X015624Y012725D01*
X010150Y009868D02*
X010071Y009868D01*
X009835Y009868D02*
X009756Y009868D01*
X009520Y009868D02*
X009442Y009868D01*
X009205Y009868D02*
X009127Y009868D01*
X008890Y009868D02*
X008812Y009868D01*
X008575Y009868D02*
X008142Y009868D01*
X008256Y009770D02*
X008462Y009770D01*
X008465Y009474D02*
X008252Y009474D01*
X008123Y009376D02*
X008594Y009376D01*
X008792Y009376D02*
X008909Y009376D01*
X009107Y009376D02*
X009224Y009376D01*
X009422Y009376D02*
X009539Y009376D01*
X009737Y009376D02*
X009854Y009376D01*
X010052Y009376D02*
X010169Y009376D01*
X005729Y007997D02*
X002698Y007997D01*
X002652Y008095D02*
X005654Y008095D01*
X005629Y008194D02*
X002686Y008194D01*
X002703Y008292D02*
X005641Y008292D01*
X004815Y009376D02*
X004698Y009376D01*
X004500Y009376D02*
X004383Y009376D01*
X004185Y009376D02*
X004068Y009376D01*
X003870Y009376D02*
X003753Y009376D01*
X003772Y009868D02*
X003851Y009868D01*
X004087Y009868D02*
X004166Y009868D01*
X004402Y009868D02*
X004481Y009868D01*
X004717Y009868D02*
X004795Y009868D01*
X005126Y011346D02*
X002192Y011346D01*
X002192Y011444D02*
X005000Y011444D01*
X004960Y011543D02*
X002192Y011543D01*
X002192Y011641D02*
X004858Y011641D01*
X004703Y011740D02*
X002192Y011740D01*
X002192Y011838D02*
X004652Y011838D01*
X004645Y011937D02*
X002192Y011937D01*
X002192Y012035D02*
X004448Y012035D01*
X004361Y012134D02*
X002192Y012134D01*
X002192Y012232D02*
X004227Y012232D01*
X004073Y012331D02*
X002192Y012331D01*
X002192Y012429D02*
X004022Y012429D01*
X003864Y012528D02*
X002192Y012528D01*
X002192Y012626D02*
X003740Y012626D01*
X003700Y012725D02*
X002192Y012725D01*
X002192Y012823D02*
X003501Y012823D01*
X003416Y012922D02*
X002192Y012922D01*
X002192Y013020D02*
X003385Y013020D01*
X003391Y013119D02*
X002192Y013119D01*
X002192Y013217D02*
X003439Y013217D01*
X003590Y013316D02*
X002192Y013316D01*
X002192Y013414D02*
X004645Y013414D01*
X004645Y013316D02*
X003718Y013316D01*
X003868Y013217D02*
X004684Y013217D01*
X004808Y013119D02*
X003917Y013119D01*
X004683Y013513D02*
X002192Y013513D01*
X002192Y013611D02*
X002517Y013611D01*
X002432Y013710D02*
X002192Y013710D01*
X002192Y013808D02*
X002401Y013808D01*
X002407Y013907D02*
X002192Y013907D01*
X002192Y014005D02*
X002456Y014005D01*
X002607Y014104D02*
X002192Y014104D01*
X002192Y014202D02*
X002667Y014202D01*
X002751Y014301D02*
X002192Y014301D01*
X002192Y014399D02*
X002887Y014399D01*
X002948Y014498D02*
X002192Y014498D01*
X002192Y014596D02*
X003109Y014596D01*
X003148Y014695D02*
X002192Y014695D01*
X002192Y014793D02*
X003269Y014793D01*
X003388Y014202D02*
X006549Y014202D01*
X006534Y014104D02*
X003315Y014104D01*
X003168Y014005D02*
X006557Y014005D01*
X006630Y013907D02*
X003118Y013907D01*
X002965Y013808D02*
X005054Y013808D01*
X004982Y013710D02*
X002908Y013710D01*
X002823Y013611D02*
X004802Y013611D01*
X009067Y016468D02*
X039370Y016468D01*
X039370Y016566D02*
X030421Y016566D01*
X030405Y016561D02*
X030472Y016583D01*
X030535Y016615D01*
X030593Y016657D01*
X030643Y016707D01*
X030684Y016764D01*
X030684Y016763D02*
X039370Y016763D01*
X039370Y016665D02*
X030601Y016665D01*
X030684Y016764D02*
X030717Y016827D01*
X030739Y016895D01*
X030747Y016950D01*
X030350Y016950D01*
X030350Y017050D01*
X030747Y017050D01*
X030739Y017106D01*
X030717Y017173D01*
X030684Y017236D01*
X030643Y017293D01*
X030593Y017343D01*
X030535Y017385D01*
X030472Y017417D01*
X030405Y017439D01*
X030350Y017448D01*
X030350Y017050D01*
X030250Y017050D01*
X030250Y017448D01*
X030194Y017439D01*
X030127Y017417D01*
X030064Y017385D01*
X030006Y017343D01*
X029956Y017293D01*
X029915Y017236D01*
X029883Y017173D01*
X029861Y017106D01*
X029852Y017050D01*
X030250Y017050D01*
X030250Y016950D01*
X030350Y016950D01*
X030350Y016553D01*
X030405Y016561D01*
X030350Y016566D02*
X030250Y016566D01*
X030250Y016553D02*
X030250Y016950D01*
X029852Y016950D01*
X029861Y016895D01*
X029883Y016827D01*
X029915Y016764D01*
X029956Y016707D01*
X030006Y016657D01*
X030064Y016615D01*
X030127Y016583D01*
X030194Y016561D01*
X030250Y016553D01*
X030178Y016566D02*
X029428Y016566D01*
X029389Y016550D02*
X029555Y016619D01*
X029681Y016745D01*
X029750Y016911D01*
X029750Y017090D01*
X029681Y017255D01*
X029555Y017382D01*
X029389Y017450D01*
X029210Y017450D01*
X029045Y017382D01*
X028918Y017255D01*
X028850Y017090D01*
X028850Y016911D01*
X028918Y016745D01*
X029045Y016619D01*
X029210Y016550D01*
X029389Y016550D01*
X029171Y016566D02*
X028428Y016566D01*
X028389Y016550D02*
X028555Y016619D01*
X028681Y016745D01*
X028750Y016911D01*
X028750Y017090D01*
X028681Y017255D01*
X028555Y017382D01*
X028389Y017450D01*
X028210Y017450D01*
X028045Y017382D01*
X027918Y017255D01*
X027850Y017090D01*
X027850Y016911D01*
X027918Y016745D01*
X028045Y016619D01*
X028210Y016550D01*
X028389Y016550D01*
X028171Y016566D02*
X027428Y016566D01*
X027601Y016665D02*
X027998Y016665D01*
X027911Y016763D02*
X027689Y016763D01*
X027729Y016862D02*
X027870Y016862D01*
X027850Y016960D02*
X027750Y016960D01*
X027750Y017059D02*
X027850Y017059D01*
X027878Y017157D02*
X027722Y017157D01*
X027680Y017256D02*
X027919Y017256D01*
X028017Y017354D02*
X027582Y017354D01*
X027555Y017619D02*
X027681Y017745D01*
X027750Y017911D01*
X027750Y018090D01*
X027681Y018255D01*
X027555Y018382D01*
X027389Y018450D01*
X027210Y018450D01*
X027045Y018382D01*
X026918Y018255D01*
X026850Y018090D01*
X026850Y017911D01*
X026918Y017745D01*
X027045Y017619D01*
X027210Y017550D01*
X027389Y017550D01*
X027555Y017619D01*
X027586Y017650D02*
X028013Y017650D01*
X028045Y017619D02*
X028210Y017550D01*
X028389Y017550D01*
X028555Y017619D01*
X028681Y017745D01*
X028750Y017911D01*
X028750Y018090D01*
X028681Y018255D01*
X028555Y018382D01*
X028389Y018450D01*
X028210Y018450D01*
X028045Y018382D01*
X027918Y018255D01*
X027850Y018090D01*
X027850Y017911D01*
X027918Y017745D01*
X028045Y017619D01*
X028207Y017551D02*
X027392Y017551D01*
X027207Y017551D02*
X022335Y017551D01*
X022319Y017513D02*
X022387Y017678D01*
X022387Y017857D01*
X022319Y018023D01*
X022192Y018149D01*
X022027Y018218D01*
X021848Y018218D01*
X021682Y018149D01*
X021556Y018023D01*
X021487Y017857D01*
X021487Y017678D01*
X021556Y017513D01*
X021682Y017386D01*
X021848Y017318D01*
X022027Y017318D01*
X022192Y017386D01*
X022319Y017513D01*
X022259Y017453D02*
X039370Y017453D01*
X039370Y017551D02*
X030392Y017551D01*
X030389Y017550D02*
X030555Y017619D01*
X030681Y017745D01*
X030750Y017911D01*
X030750Y018090D01*
X030681Y018255D01*
X030555Y018382D01*
X030389Y018450D01*
X030210Y018450D01*
X030045Y018382D01*
X029918Y018255D01*
X029850Y018090D01*
X029850Y017911D01*
X029918Y017745D01*
X030045Y017619D01*
X030210Y017550D01*
X030389Y017550D01*
X030207Y017551D02*
X029392Y017551D01*
X029389Y017550D02*
X029555Y017619D01*
X029681Y017745D01*
X029750Y017911D01*
X029750Y018090D01*
X029681Y018255D01*
X029555Y018382D01*
X029389Y018450D01*
X029210Y018450D01*
X029045Y018382D01*
X028918Y018255D01*
X028850Y018090D01*
X028850Y017911D01*
X028918Y017745D01*
X029045Y017619D01*
X029210Y017550D01*
X029389Y017550D01*
X029207Y017551D02*
X028392Y017551D01*
X028586Y017650D02*
X029013Y017650D01*
X028917Y017748D02*
X028682Y017748D01*
X028723Y017847D02*
X028876Y017847D01*
X028850Y017945D02*
X028750Y017945D01*
X028750Y018044D02*
X028850Y018044D01*
X028871Y018142D02*
X028728Y018142D01*
X028687Y018241D02*
X028912Y018241D01*
X029002Y018339D02*
X028597Y018339D01*
X028419Y018438D02*
X029180Y018438D01*
X029419Y018438D02*
X030180Y018438D01*
X030002Y018339D02*
X029597Y018339D01*
X029687Y018241D02*
X029912Y018241D01*
X029871Y018142D02*
X029728Y018142D01*
X029750Y018044D02*
X029850Y018044D01*
X029850Y017945D02*
X029750Y017945D01*
X029723Y017847D02*
X029876Y017847D01*
X029917Y017748D02*
X029682Y017748D01*
X029586Y017650D02*
X030013Y017650D01*
X030022Y017354D02*
X029582Y017354D01*
X029680Y017256D02*
X029929Y017256D01*
X029878Y017157D02*
X029722Y017157D01*
X029750Y017059D02*
X029853Y017059D01*
X029750Y016960D02*
X030250Y016960D01*
X030250Y016862D02*
X030350Y016862D01*
X030350Y016960D02*
X039370Y016960D01*
X039370Y016862D02*
X030728Y016862D01*
X030746Y017059D02*
X039370Y017059D01*
X039370Y017157D02*
X030722Y017157D01*
X030670Y017256D02*
X039370Y017256D01*
X039370Y017354D02*
X030578Y017354D01*
X030350Y017354D02*
X030250Y017354D01*
X030250Y017256D02*
X030350Y017256D01*
X030350Y017157D02*
X030250Y017157D01*
X030250Y017059D02*
X030350Y017059D01*
X030350Y016763D02*
X030250Y016763D01*
X030250Y016665D02*
X030350Y016665D01*
X029998Y016665D02*
X029601Y016665D01*
X029689Y016763D02*
X029915Y016763D01*
X029871Y016862D02*
X029729Y016862D01*
X028998Y016665D02*
X028601Y016665D01*
X028689Y016763D02*
X028911Y016763D01*
X028870Y016862D02*
X028729Y016862D01*
X028750Y016960D02*
X028850Y016960D01*
X028850Y017059D02*
X028750Y017059D01*
X028722Y017157D02*
X028878Y017157D01*
X028919Y017256D02*
X028680Y017256D01*
X028582Y017354D02*
X029017Y017354D01*
X027917Y017748D02*
X027682Y017748D01*
X027723Y017847D02*
X027876Y017847D01*
X027850Y017945D02*
X027750Y017945D01*
X027750Y018044D02*
X027850Y018044D01*
X027871Y018142D02*
X027728Y018142D01*
X027687Y018241D02*
X027912Y018241D01*
X028002Y018339D02*
X027597Y018339D01*
X027419Y018438D02*
X028180Y018438D01*
X027180Y018438D02*
X025899Y018438D01*
X025940Y018536D02*
X037701Y018536D01*
X037667Y018503D02*
X037617Y018382D01*
X037617Y018252D01*
X037667Y018131D01*
X037759Y018039D01*
X037880Y017989D01*
X038011Y017989D01*
X038131Y018039D01*
X038223Y018131D01*
X038273Y018252D01*
X038273Y018382D01*
X038223Y018503D01*
X038131Y018595D01*
X038011Y018645D01*
X037880Y018645D01*
X037759Y018595D01*
X037667Y018503D01*
X037640Y018438D02*
X034278Y018438D01*
X034315Y018401D02*
X034239Y018476D01*
X034141Y018517D01*
X034033Y018517D01*
X033935Y018476D01*
X033859Y018401D01*
X033818Y018302D01*
X033818Y018195D01*
X033859Y018096D01*
X033935Y018020D01*
X034033Y017979D01*
X034141Y017979D01*
X034239Y018020D01*
X034315Y018096D01*
X034356Y018195D01*
X034356Y018302D01*
X034315Y018401D01*
X034340Y018339D02*
X037617Y018339D01*
X037622Y018241D02*
X034356Y018241D01*
X034334Y018142D02*
X037662Y018142D01*
X037754Y018044D02*
X034263Y018044D01*
X033911Y018044D02*
X030750Y018044D01*
X030750Y017945D02*
X039370Y017945D01*
X039370Y017847D02*
X030723Y017847D01*
X030682Y017748D02*
X039370Y017748D01*
X039370Y017650D02*
X030586Y017650D01*
X030728Y018142D02*
X033840Y018142D01*
X033818Y018241D02*
X030687Y018241D01*
X030597Y018339D02*
X033834Y018339D01*
X033896Y018438D02*
X030419Y018438D01*
X030903Y019556D02*
X031002Y019515D01*
X031109Y019515D01*
X031208Y019556D01*
X031284Y019631D01*
X031325Y019730D01*
X031325Y019837D01*
X031284Y019936D01*
X031208Y020012D01*
X031109Y020053D01*
X031002Y020053D01*
X030903Y020012D01*
X030827Y019936D01*
X030786Y019837D01*
X030786Y019730D01*
X030827Y019631D01*
X030903Y019556D01*
X030986Y019521D02*
X025614Y019521D01*
X025520Y019616D02*
X025152Y019768D01*
X024754Y019768D01*
X024387Y019616D01*
X024105Y019334D01*
X023953Y018967D01*
X023953Y018569D01*
X024105Y018201D01*
X024387Y017920D01*
X024754Y017768D01*
X025152Y017768D01*
X025520Y017920D01*
X025801Y018201D01*
X025953Y018569D01*
X025953Y018967D01*
X025801Y019334D01*
X025520Y019616D01*
X025509Y019620D02*
X030839Y019620D01*
X030791Y019718D02*
X025272Y019718D01*
X025712Y019423D02*
X039370Y019423D01*
X039370Y019521D02*
X031126Y019521D01*
X031272Y019620D02*
X039370Y019620D01*
X039370Y019718D02*
X031320Y019718D01*
X031325Y019817D02*
X035918Y019817D01*
X035909Y019821D02*
X036030Y019771D01*
X036160Y019771D01*
X036281Y019821D01*
X036373Y019913D01*
X036423Y020033D01*
X036423Y020164D01*
X036373Y020285D01*
X036281Y020377D01*
X036160Y020427D01*
X036030Y020427D01*
X035909Y020377D01*
X035817Y020285D01*
X035767Y020164D01*
X035767Y020033D01*
X035817Y019913D01*
X035909Y019821D01*
X035816Y019915D02*
X031292Y019915D01*
X031203Y020014D02*
X035775Y020014D01*
X035767Y020112D02*
X032585Y020112D01*
X032655Y020211D02*
X035786Y020211D01*
X035842Y020309D02*
X032679Y020309D01*
X032668Y020408D02*
X035984Y020408D01*
X036206Y020408D02*
X039370Y020408D01*
X039370Y020506D02*
X032616Y020506D01*
X032109Y020309D02*
X012447Y020309D01*
X012610Y020211D02*
X018225Y020211D01*
X018039Y020112D02*
X012690Y020112D01*
X012731Y020014D02*
X017946Y020014D01*
X017881Y019718D02*
X015429Y019718D01*
X015310Y019768D02*
X014912Y019768D01*
X014544Y019616D01*
X014263Y019334D01*
X014111Y018967D01*
X014111Y018569D01*
X014263Y018201D01*
X014544Y017920D01*
X014912Y017768D01*
X015310Y017768D01*
X015677Y017920D01*
X015958Y018201D01*
X016111Y018569D01*
X016111Y018967D01*
X015958Y019334D01*
X015677Y019616D01*
X015310Y019768D01*
X015667Y019620D02*
X017905Y019620D01*
X017946Y019521D02*
X015771Y019521D01*
X015870Y019423D02*
X018040Y019423D01*
X018226Y019324D02*
X015963Y019324D01*
X016003Y019226D02*
X024060Y019226D01*
X024020Y019127D02*
X021765Y019127D01*
X021743Y019149D02*
X021870Y019023D01*
X021939Y018857D01*
X021939Y018678D01*
X021870Y018513D01*
X021743Y018386D01*
X021578Y018318D01*
X021399Y018318D01*
X021234Y018386D01*
X021107Y018513D01*
X021039Y018678D01*
X021039Y018857D01*
X021107Y019023D01*
X021234Y019149D01*
X021399Y019218D01*
X021578Y019218D01*
X021743Y019149D01*
X021864Y019029D02*
X023979Y019029D01*
X023953Y018930D02*
X021908Y018930D01*
X021939Y018832D02*
X023953Y018832D01*
X023953Y018733D02*
X021939Y018733D01*
X021921Y018635D02*
X023953Y018635D01*
X023967Y018536D02*
X021880Y018536D01*
X021795Y018438D02*
X024007Y018438D01*
X024048Y018339D02*
X021630Y018339D01*
X021676Y018142D02*
X021298Y018142D01*
X021291Y018149D02*
X021125Y018218D01*
X020946Y018218D01*
X020781Y018149D01*
X020654Y018023D01*
X020586Y017857D01*
X020586Y017678D01*
X020654Y017513D01*
X020781Y017386D01*
X020946Y017318D01*
X021125Y017318D01*
X021291Y017386D01*
X021417Y017513D01*
X021486Y017678D01*
X021486Y017857D01*
X021417Y018023D01*
X021291Y018149D01*
X021396Y018044D02*
X021577Y018044D01*
X021524Y017945D02*
X021449Y017945D01*
X021486Y017847D02*
X021487Y017847D01*
X021486Y017748D02*
X021487Y017748D01*
X021474Y017650D02*
X021499Y017650D01*
X021540Y017551D02*
X021433Y017551D01*
X021357Y017453D02*
X021616Y017453D01*
X021760Y017354D02*
X021213Y017354D01*
X020858Y017354D02*
X020312Y017354D01*
X020389Y017386D02*
X020516Y017513D01*
X020584Y017678D01*
X020584Y017857D01*
X020516Y018023D01*
X020389Y018149D01*
X020224Y018218D01*
X020045Y018218D01*
X019879Y018149D01*
X019753Y018023D01*
X019684Y017857D01*
X019684Y017678D01*
X019753Y017513D01*
X019879Y017386D01*
X020045Y017318D01*
X020224Y017318D01*
X020389Y017386D01*
X020456Y017453D02*
X020714Y017453D01*
X020638Y017551D02*
X020532Y017551D01*
X020572Y017650D02*
X020598Y017650D01*
X020584Y017748D02*
X020586Y017748D01*
X020584Y017847D02*
X020586Y017847D01*
X020622Y017945D02*
X020548Y017945D01*
X020495Y018044D02*
X020675Y018044D01*
X020774Y018142D02*
X020396Y018142D01*
X020497Y018318D02*
X020677Y018318D01*
X020842Y018386D01*
X020968Y018513D01*
X021037Y018678D01*
X021037Y018857D01*
X020968Y019023D01*
X020842Y019149D01*
X020677Y019218D01*
X020497Y019218D01*
X020332Y019149D01*
X020206Y019023D01*
X020137Y018857D01*
X020137Y018678D01*
X020206Y018513D01*
X020332Y018386D01*
X020497Y018318D01*
X020446Y018339D02*
X019827Y018339D01*
X019775Y018318D02*
X019940Y018386D01*
X020067Y018513D01*
X020135Y018678D01*
X020135Y018857D01*
X020067Y019023D01*
X019940Y019149D01*
X019775Y019218D01*
X019596Y019218D01*
X019431Y019149D01*
X019304Y019023D01*
X019235Y018857D01*
X019235Y018678D01*
X019304Y018513D01*
X019431Y018386D01*
X019596Y018318D01*
X019775Y018318D01*
X019872Y018142D02*
X019495Y018142D01*
X019488Y018149D02*
X019322Y018218D01*
X019143Y018218D01*
X018978Y018149D01*
X018851Y018023D01*
X018783Y017857D01*
X018783Y017678D01*
X018851Y017513D01*
X018978Y017386D01*
X019143Y017318D01*
X019322Y017318D01*
X019488Y017386D01*
X019614Y017513D01*
X019683Y017678D01*
X019683Y017857D01*
X019614Y018023D01*
X019488Y018149D01*
X019593Y018044D02*
X019774Y018044D01*
X019721Y017945D02*
X019646Y017945D01*
X019683Y017847D02*
X019684Y017847D01*
X019683Y017748D02*
X019684Y017748D01*
X019671Y017650D02*
X019696Y017650D01*
X019737Y017551D02*
X019630Y017551D01*
X019554Y017453D02*
X019813Y017453D01*
X019957Y017354D02*
X019410Y017354D01*
X019055Y017354D02*
X018509Y017354D01*
X018586Y017386D02*
X018713Y017513D01*
X018781Y017678D01*
X018781Y017857D01*
X018713Y018023D01*
X018586Y018149D01*
X018421Y018218D01*
X018242Y018218D01*
X018076Y018149D01*
X017950Y018023D01*
X017881Y017857D01*
X017881Y017678D01*
X017950Y017513D01*
X018076Y017386D01*
X018242Y017318D01*
X018421Y017318D01*
X018586Y017386D01*
X018653Y017453D02*
X018911Y017453D01*
X018835Y017551D02*
X018729Y017551D01*
X018769Y017650D02*
X018794Y017650D01*
X018781Y017748D02*
X018783Y017748D01*
X018781Y017847D02*
X018783Y017847D01*
X018819Y017945D02*
X018745Y017945D01*
X018691Y018044D02*
X018872Y018044D01*
X018971Y018142D02*
X018593Y018142D01*
X018694Y018318D02*
X018873Y018318D01*
X019039Y018386D01*
X019165Y018513D01*
X019234Y018678D01*
X019234Y018857D01*
X019165Y019023D01*
X019039Y019149D01*
X018873Y019218D01*
X018694Y019218D01*
X018529Y019149D01*
X018402Y019023D01*
X018334Y018857D01*
X018334Y018678D01*
X018402Y018513D01*
X018529Y018386D01*
X018694Y018318D01*
X018642Y018339D02*
X018024Y018339D01*
X017972Y018318D02*
X018137Y018386D01*
X018264Y018513D01*
X018332Y018678D01*
X018332Y018857D01*
X018264Y019023D01*
X018137Y019149D01*
X017972Y019218D01*
X017793Y019218D01*
X017627Y019149D01*
X017501Y019023D01*
X017432Y018857D01*
X017432Y018678D01*
X017501Y018513D01*
X017627Y018386D01*
X017793Y018318D01*
X017972Y018318D01*
X018069Y018142D02*
X015899Y018142D01*
X015975Y018241D02*
X024089Y018241D01*
X024164Y018142D02*
X022199Y018142D01*
X022298Y018044D02*
X024263Y018044D01*
X024361Y017945D02*
X022351Y017945D01*
X022387Y017847D02*
X024563Y017847D01*
X025343Y017847D02*
X026876Y017847D01*
X026850Y017945D02*
X025545Y017945D01*
X025643Y018044D02*
X026850Y018044D01*
X026871Y018142D02*
X025742Y018142D01*
X025817Y018241D02*
X026912Y018241D01*
X027002Y018339D02*
X025858Y018339D01*
X025953Y018635D02*
X037855Y018635D01*
X038035Y018635D02*
X039370Y018635D01*
X039370Y018733D02*
X025953Y018733D01*
X025953Y018832D02*
X039370Y018832D01*
X039370Y018930D02*
X025953Y018930D01*
X025927Y019029D02*
X039370Y019029D01*
X039370Y019127D02*
X025887Y019127D01*
X025846Y019226D02*
X039370Y019226D01*
X039370Y019324D02*
X025805Y019324D01*
X024635Y019718D02*
X022387Y019718D01*
X022387Y019678D02*
X022319Y019513D01*
X022192Y019386D01*
X022027Y019318D01*
X021848Y019318D01*
X021682Y019386D01*
X021556Y019513D01*
X021487Y019678D01*
X021487Y019857D01*
X021556Y020023D01*
X021682Y020149D01*
X021848Y020218D01*
X022027Y020218D01*
X022192Y020149D01*
X022319Y020023D01*
X022387Y019857D01*
X022387Y019678D01*
X022363Y019620D02*
X024397Y019620D01*
X024292Y019521D02*
X022322Y019521D01*
X022229Y019423D02*
X024194Y019423D01*
X024101Y019324D02*
X022043Y019324D01*
X021832Y019324D02*
X021141Y019324D01*
X021125Y019318D02*
X021291Y019386D01*
X021417Y019513D01*
X021486Y019678D01*
X021486Y019857D01*
X021417Y020023D01*
X021291Y020149D01*
X021125Y020218D01*
X020946Y020218D01*
X020781Y020149D01*
X020654Y020023D01*
X020586Y019857D01*
X020586Y019678D01*
X020654Y019513D01*
X020781Y019386D01*
X020946Y019318D01*
X021125Y019318D01*
X020931Y019324D02*
X020239Y019324D01*
X020224Y019318D02*
X020389Y019386D01*
X020516Y019513D01*
X020584Y019678D01*
X020584Y019857D01*
X020516Y020023D01*
X020389Y020149D01*
X020224Y020218D01*
X020045Y020218D01*
X019879Y020149D01*
X019753Y020023D01*
X019684Y019857D01*
X019684Y019678D01*
X019753Y019513D01*
X019879Y019386D01*
X020045Y019318D01*
X020224Y019318D01*
X020029Y019324D02*
X019338Y019324D01*
X019322Y019318D02*
X019488Y019386D01*
X019614Y019513D01*
X019683Y019678D01*
X019683Y019857D01*
X019614Y020023D01*
X019488Y020149D01*
X019322Y020218D01*
X019143Y020218D01*
X018978Y020149D01*
X018851Y020023D01*
X018783Y019857D01*
X018783Y019678D01*
X018851Y019513D01*
X018978Y019386D01*
X019143Y019318D01*
X019322Y019318D01*
X019127Y019324D02*
X018436Y019324D01*
X018507Y019127D02*
X018159Y019127D01*
X018258Y019029D02*
X018408Y019029D01*
X018364Y018930D02*
X018302Y018930D01*
X018332Y018832D02*
X018334Y018832D01*
X018332Y018733D02*
X018334Y018733D01*
X018352Y018635D02*
X018314Y018635D01*
X018273Y018536D02*
X018393Y018536D01*
X018477Y018438D02*
X018189Y018438D01*
X017741Y018339D02*
X016016Y018339D01*
X016056Y018438D02*
X017576Y018438D01*
X017491Y018536D02*
X016097Y018536D01*
X016111Y018635D02*
X017450Y018635D01*
X017432Y018733D02*
X016111Y018733D01*
X016111Y018832D02*
X017432Y018832D01*
X017463Y018930D02*
X016111Y018930D01*
X016085Y019029D02*
X017507Y019029D01*
X017605Y019127D02*
X016044Y019127D01*
X014792Y019718D02*
X012702Y019718D01*
X012743Y019817D02*
X012743Y019987D01*
X012638Y019620D02*
X014554Y019620D01*
X014450Y019521D02*
X012513Y019521D01*
X012449Y019324D02*
X014259Y019324D01*
X014218Y019226D02*
X012611Y019226D01*
X012557Y019280D02*
X012400Y019345D01*
X012230Y019345D01*
X012073Y019280D01*
X011953Y019160D01*
X011888Y019003D01*
X011888Y018833D01*
X011953Y018676D01*
X012073Y018555D01*
X012230Y018490D01*
X012400Y018490D01*
X012557Y018555D01*
X012677Y018676D01*
X012743Y018833D01*
X012743Y019003D01*
X012677Y019160D01*
X012557Y019280D01*
X012691Y019127D02*
X014177Y019127D01*
X014136Y019029D02*
X012732Y019029D01*
X012743Y018930D02*
X014111Y018930D01*
X014111Y018832D02*
X012742Y018832D01*
X012701Y018733D02*
X014111Y018733D01*
X014111Y018635D02*
X012637Y018635D01*
X012512Y018536D02*
X014124Y018536D01*
X014165Y018438D02*
X005525Y018438D01*
X005623Y018536D02*
X006410Y018536D01*
X006285Y018635D02*
X005722Y018635D01*
X005820Y018733D02*
X006221Y018733D01*
X006180Y018832D02*
X005919Y018832D01*
X006017Y018930D02*
X006180Y018930D01*
X006190Y019029D02*
X006116Y019029D01*
X006214Y019127D02*
X006231Y019127D01*
X006411Y019324D02*
X006473Y019324D01*
X006510Y019423D02*
X014351Y019423D01*
X014206Y018339D02*
X005426Y018339D01*
X005328Y018241D02*
X014247Y018241D01*
X014322Y018142D02*
X005229Y018142D01*
X005131Y018044D02*
X014420Y018044D01*
X014519Y017945D02*
X005032Y017945D01*
X004934Y017847D02*
X014721Y017847D01*
X015500Y017847D02*
X017881Y017847D01*
X017881Y017748D02*
X004835Y017748D01*
X004737Y017650D02*
X017893Y017650D01*
X017934Y017551D02*
X004638Y017551D01*
X004540Y017453D02*
X018010Y017453D01*
X018153Y017354D02*
X004441Y017354D01*
X004343Y017256D02*
X026919Y017256D01*
X027017Y017354D02*
X022115Y017354D01*
X022376Y017650D02*
X027013Y017650D01*
X026917Y017748D02*
X022387Y017748D01*
X021347Y018339D02*
X020728Y018339D01*
X020893Y018438D02*
X021182Y018438D01*
X021097Y018536D02*
X020978Y018536D01*
X021019Y018635D02*
X021057Y018635D01*
X021039Y018733D02*
X021037Y018733D01*
X021037Y018832D02*
X021039Y018832D01*
X021069Y018930D02*
X021007Y018930D01*
X020962Y019029D02*
X021113Y019029D01*
X021212Y019127D02*
X020864Y019127D01*
X020310Y019127D02*
X019962Y019127D01*
X020061Y019029D02*
X020212Y019029D01*
X020167Y018930D02*
X020105Y018930D01*
X020135Y018832D02*
X020137Y018832D01*
X020135Y018733D02*
X020137Y018733D01*
X020155Y018635D02*
X020117Y018635D01*
X020077Y018536D02*
X020196Y018536D01*
X020281Y018438D02*
X019992Y018438D01*
X019544Y018339D02*
X018925Y018339D01*
X019090Y018438D02*
X019379Y018438D01*
X019294Y018536D02*
X019175Y018536D01*
X019216Y018635D02*
X019253Y018635D01*
X019234Y018733D02*
X019235Y018733D01*
X019234Y018832D02*
X019235Y018832D01*
X019204Y018930D02*
X019266Y018930D01*
X019310Y019029D02*
X019159Y019029D01*
X019061Y019127D02*
X019409Y019127D01*
X019524Y019423D02*
X019843Y019423D01*
X019749Y019521D02*
X019618Y019521D01*
X019658Y019620D02*
X019708Y019620D01*
X019684Y019718D02*
X019683Y019718D01*
X019683Y019817D02*
X019684Y019817D01*
X019708Y019915D02*
X019659Y019915D01*
X019618Y020014D02*
X019749Y020014D01*
X019842Y020112D02*
X019525Y020112D01*
X019339Y020211D02*
X020028Y020211D01*
X020241Y020211D02*
X020929Y020211D01*
X020744Y020112D02*
X020426Y020112D01*
X020519Y020014D02*
X020651Y020014D01*
X020610Y019915D02*
X020560Y019915D01*
X020584Y019817D02*
X020586Y019817D01*
X020584Y019718D02*
X020586Y019718D01*
X020610Y019620D02*
X020560Y019620D01*
X020519Y019521D02*
X020651Y019521D01*
X020744Y019423D02*
X020426Y019423D01*
X021327Y019423D02*
X021646Y019423D01*
X021552Y019521D02*
X021421Y019521D01*
X021462Y019620D02*
X021512Y019620D01*
X021486Y019718D02*
X021487Y019718D01*
X021486Y019817D02*
X021487Y019817D01*
X021511Y019915D02*
X021462Y019915D01*
X021421Y020014D02*
X021552Y020014D01*
X021646Y020112D02*
X021328Y020112D01*
X021142Y020211D02*
X021831Y020211D01*
X022044Y020211D02*
X032133Y020211D01*
X032204Y020112D02*
X022229Y020112D01*
X022323Y020014D02*
X030908Y020014D01*
X030819Y019915D02*
X022363Y019915D01*
X022387Y019817D02*
X030786Y019817D01*
X029501Y016172D02*
X029098Y016172D01*
X029188Y016074D02*
X029412Y016074D01*
X029371Y015975D02*
X029228Y015975D01*
X029250Y015877D02*
X029350Y015877D01*
X029350Y015778D02*
X029250Y015778D01*
X029223Y015680D02*
X029377Y015680D01*
X029417Y015581D02*
X029182Y015581D01*
X029084Y015483D02*
X029515Y015483D01*
X029516Y015187D02*
X029083Y015187D01*
X029181Y015089D02*
X029418Y015089D01*
X029377Y014990D02*
X029222Y014990D01*
X029250Y014892D02*
X029350Y014892D01*
X029350Y014793D02*
X029250Y014793D01*
X029229Y014695D02*
X029370Y014695D01*
X029411Y014596D02*
X029188Y014596D01*
X029099Y014498D02*
X029500Y014498D01*
X030181Y015089D02*
X039370Y015089D01*
X039370Y015187D02*
X030083Y015187D01*
X028516Y015187D02*
X028083Y015187D01*
X028181Y015089D02*
X028418Y015089D01*
X028377Y014990D02*
X028222Y014990D01*
X028250Y014892D02*
X028350Y014892D01*
X028350Y014793D02*
X028250Y014793D01*
X028229Y014695D02*
X028370Y014695D01*
X028411Y014596D02*
X028188Y014596D01*
X028099Y014498D02*
X028500Y014498D01*
X028515Y015483D02*
X028084Y015483D01*
X028182Y015581D02*
X028417Y015581D01*
X028377Y015680D02*
X028223Y015680D01*
X028250Y015778D02*
X028350Y015778D01*
X028350Y015877D02*
X028250Y015877D01*
X028228Y015975D02*
X028371Y015975D01*
X028412Y016074D02*
X028188Y016074D01*
X028098Y016172D02*
X028501Y016172D01*
X026501Y016172D02*
X009496Y016172D01*
X009569Y016074D02*
X026417Y016074D01*
X026372Y015975D02*
X009745Y015975D01*
X009723Y018490D02*
X009880Y018555D01*
X010000Y018676D01*
X010065Y018833D01*
X010065Y019003D01*
X010000Y019160D01*
X009880Y019280D01*
X009723Y019345D01*
X009553Y019345D01*
X009396Y019280D01*
X009276Y019160D01*
X009211Y019003D01*
X009211Y018833D01*
X009276Y018676D01*
X009396Y018555D01*
X009553Y018490D01*
X009723Y018490D01*
X009834Y018536D02*
X012119Y018536D01*
X011994Y018635D02*
X009960Y018635D01*
X010024Y018733D02*
X011929Y018733D01*
X011888Y018832D02*
X010065Y018832D01*
X010065Y018930D02*
X011888Y018930D01*
X011899Y019029D02*
X010054Y019029D01*
X010014Y019127D02*
X011940Y019127D01*
X012020Y019226D02*
X009934Y019226D01*
X009772Y019324D02*
X012181Y019324D01*
X012117Y019521D02*
X011687Y019521D01*
X011811Y019620D02*
X011993Y019620D01*
X011929Y019718D02*
X011875Y019718D01*
X011864Y020112D02*
X011940Y020112D01*
X012020Y020211D02*
X011784Y020211D01*
X011621Y020309D02*
X012183Y020309D01*
X009506Y020309D02*
X006739Y020309D01*
X006902Y020211D02*
X009343Y020211D01*
X009263Y020112D02*
X006982Y020112D01*
X007023Y020014D02*
X009222Y020014D01*
X009252Y019718D02*
X006993Y019718D01*
X006929Y019620D02*
X009316Y019620D01*
X009440Y019521D02*
X006805Y019521D01*
X006741Y019324D02*
X009504Y019324D01*
X009342Y019226D02*
X006902Y019226D01*
X006982Y019127D02*
X009263Y019127D01*
X009222Y019029D02*
X007023Y019029D01*
X007034Y018930D02*
X009211Y018930D01*
X009211Y018832D02*
X007034Y018832D01*
X006993Y018733D02*
X009252Y018733D01*
X009317Y018635D02*
X006928Y018635D01*
X006803Y018536D02*
X009442Y018536D01*
X006475Y020309D02*
X005912Y020309D01*
X006075Y020211D02*
X006312Y020211D01*
X006232Y020112D02*
X006155Y020112D01*
X015702Y017945D02*
X017918Y017945D01*
X017971Y018044D02*
X015801Y018044D01*
X018623Y019423D02*
X018941Y019423D01*
X018848Y019521D02*
X018716Y019521D01*
X018757Y019620D02*
X018807Y019620D01*
X018783Y019718D02*
X018781Y019718D01*
X018781Y019817D02*
X018783Y019817D01*
X018807Y019915D02*
X018757Y019915D01*
X018716Y020014D02*
X018848Y020014D01*
X018941Y020112D02*
X018623Y020112D01*
X018437Y020211D02*
X019126Y020211D01*
X025364Y015384D02*
X039370Y015384D01*
X039370Y015286D02*
X025489Y015286D01*
X025200Y014793D02*
X025100Y014793D01*
X025100Y014695D02*
X025200Y014695D01*
X025200Y014596D02*
X025100Y014596D01*
X024914Y014604D02*
X024857Y014645D01*
X024807Y014695D01*
X030525Y012823D02*
X039370Y012823D01*
X039370Y012725D02*
X030580Y012725D01*
X030592Y012626D02*
X039370Y012626D01*
X039370Y012528D02*
X030570Y012528D01*
X031909Y014202D02*
X032642Y014202D01*
X032607Y014217D02*
X032711Y014174D01*
X032825Y014174D01*
X032930Y014217D01*
X033010Y014297D01*
X033053Y014402D01*
X033053Y014516D01*
X033010Y014620D01*
X032930Y014701D01*
X032825Y014744D01*
X032711Y014744D01*
X032607Y014701D01*
X032526Y014620D01*
X032483Y014516D01*
X032483Y014402D01*
X032526Y014297D01*
X032607Y014217D01*
X032525Y014301D02*
X032027Y014301D01*
X032068Y014399D02*
X032484Y014399D01*
X032483Y014498D02*
X032069Y014498D01*
X032035Y014596D02*
X032517Y014596D01*
X032601Y014695D02*
X031951Y014695D01*
X032935Y014695D02*
X035141Y014695D01*
X035178Y014596D02*
X033020Y014596D01*
X033053Y014498D02*
X033388Y014498D01*
X033304Y014399D02*
X033052Y014399D01*
X033011Y014301D02*
X033271Y014301D01*
X033272Y014202D02*
X032894Y014202D01*
X033681Y014005D02*
X033873Y014005D01*
X033831Y014498D02*
X033723Y014498D01*
X035413Y015877D02*
X039370Y015877D01*
X039370Y015975D02*
X035474Y015975D01*
X035488Y016074D02*
X039370Y016074D01*
X039370Y016172D02*
X035465Y016172D01*
X036915Y014596D02*
X039370Y014596D01*
X039370Y014498D02*
X037012Y014498D01*
X037049Y014399D02*
X039370Y014399D01*
X039370Y014301D02*
X037049Y014301D01*
X037011Y014202D02*
X039370Y014202D01*
X039370Y014104D02*
X036913Y014104D01*
X036529Y012429D02*
X039370Y012429D01*
X039370Y012331D02*
X036613Y012331D01*
X036646Y012232D02*
X039370Y012232D01*
X039370Y012134D02*
X036644Y012134D01*
X036603Y012035D02*
X039370Y012035D01*
X039370Y011937D02*
X036482Y011937D01*
X036880Y011050D02*
X039370Y011050D01*
X039370Y010952D02*
X036995Y010952D01*
X037033Y010853D02*
X039370Y010853D01*
X039370Y010755D02*
X037033Y010755D01*
X036993Y010656D02*
X039370Y010656D01*
X039370Y010558D02*
X036865Y010558D01*
X039370Y007701D02*
X031808Y007701D01*
X031836Y007603D02*
X039370Y007603D01*
X039370Y007504D02*
X031828Y007504D01*
X031775Y007406D02*
X039370Y007406D01*
X039370Y006125D02*
X029252Y006125D01*
X029359Y006027D02*
X039370Y006027D01*
X039370Y005928D02*
X029395Y005928D01*
X029394Y005830D02*
X039370Y005830D01*
X039370Y005731D02*
X029352Y005731D01*
X029218Y005633D02*
X039370Y005633D01*
X039370Y005534D02*
X016325Y005534D01*
X016291Y005436D02*
X031642Y005436D01*
X031615Y005409D02*
X031691Y005484D01*
X031789Y005525D01*
X031896Y005525D01*
X031995Y005484D01*
X032071Y005409D01*
X032112Y005310D01*
X032112Y005203D01*
X032071Y005104D01*
X031995Y005028D01*
X031896Y004987D01*
X031789Y004987D01*
X031691Y005028D01*
X031615Y005104D01*
X031574Y005203D01*
X031574Y005310D01*
X031615Y005409D01*
X031585Y005337D02*
X022836Y005337D01*
X022942Y005239D02*
X031574Y005239D01*
X031600Y005140D02*
X022978Y005140D01*
X022977Y005042D02*
X030815Y005042D01*
X030824Y005051D02*
X030749Y004975D01*
X030708Y004877D01*
X030708Y004770D01*
X030749Y004671D01*
X030824Y004595D01*
X030923Y004554D01*
X031030Y004554D01*
X031129Y004595D01*
X031193Y004659D01*
X031257Y004595D01*
X031356Y004554D01*
X031463Y004554D01*
X031562Y004595D01*
X031638Y004671D01*
X031679Y004770D01*
X031679Y004877D01*
X031638Y004975D01*
X031562Y005051D01*
X031463Y005092D01*
X031356Y005092D01*
X031257Y005051D01*
X031193Y004987D01*
X031129Y005051D01*
X031030Y005092D01*
X030923Y005092D01*
X030824Y005051D01*
X030735Y004943D02*
X022934Y004943D01*
X022800Y004845D02*
X030708Y004845D01*
X030717Y004746D02*
X015340Y004746D01*
X015339Y004648D02*
X030771Y004648D01*
X031182Y004648D02*
X031204Y004648D01*
X031615Y004648D02*
X032071Y004648D01*
X032048Y004671D02*
X032124Y004595D01*
X032222Y004554D01*
X032330Y004554D01*
X032428Y004595D01*
X032504Y004671D01*
X032545Y004770D01*
X032545Y004877D01*
X032504Y004975D01*
X032428Y005051D01*
X032330Y005092D01*
X032222Y005092D01*
X032124Y005051D01*
X032048Y004975D01*
X032007Y004877D01*
X032007Y004770D01*
X032048Y004671D01*
X032017Y004746D02*
X031669Y004746D01*
X031679Y004845D02*
X032007Y004845D01*
X032035Y004943D02*
X031651Y004943D01*
X031677Y005042D02*
X031571Y005042D01*
X031248Y005042D02*
X031138Y005042D01*
X032009Y005042D02*
X032114Y005042D01*
X032086Y005140D02*
X039370Y005140D01*
X039370Y005042D02*
X034209Y005042D01*
X034200Y005051D02*
X034101Y005092D01*
X033994Y005092D01*
X033895Y005051D01*
X033820Y004975D01*
X033811Y004956D01*
X033803Y004975D01*
X033728Y005051D01*
X033629Y005092D01*
X033522Y005092D01*
X033423Y005051D01*
X033359Y004987D01*
X033295Y005051D01*
X033196Y005092D01*
X033089Y005092D01*
X032990Y005051D01*
X032914Y004975D01*
X032873Y004877D01*
X032873Y004770D01*
X032914Y004671D01*
X032990Y004595D01*
X033089Y004554D01*
X033196Y004554D01*
X033295Y004595D01*
X033359Y004659D01*
X033423Y004595D01*
X033522Y004554D01*
X033629Y004554D01*
X033728Y004595D01*
X033803Y004671D01*
X033811Y004690D01*
X033820Y004671D01*
X033895Y004595D01*
X033994Y004554D01*
X034101Y004554D01*
X034200Y004595D01*
X034276Y004671D01*
X034317Y004770D01*
X034317Y004877D01*
X034276Y004975D01*
X034200Y005051D01*
X034289Y004943D02*
X039370Y004943D01*
X039370Y004845D02*
X034317Y004845D01*
X034307Y004746D02*
X039370Y004746D01*
X039370Y004648D02*
X034253Y004648D01*
X033842Y004648D02*
X033781Y004648D01*
X033370Y004648D02*
X033347Y004648D01*
X032937Y004648D02*
X032481Y004648D01*
X032535Y004746D02*
X032883Y004746D01*
X032873Y004845D02*
X032545Y004845D01*
X032517Y004943D02*
X032901Y004943D01*
X032980Y005042D02*
X032438Y005042D01*
X032112Y005239D02*
X039370Y005239D01*
X039370Y005337D02*
X032100Y005337D01*
X032044Y005436D02*
X039370Y005436D01*
X039370Y004549D02*
X022891Y004549D01*
X022861Y004579D02*
X022763Y004620D01*
X022656Y004620D01*
X022557Y004579D01*
X022481Y004503D01*
X022440Y004404D01*
X022440Y004297D01*
X022481Y004198D01*
X022557Y004123D01*
X022656Y004082D01*
X022763Y004082D01*
X022861Y004123D01*
X022937Y004198D01*
X022978Y004297D01*
X022978Y004404D01*
X022937Y004503D01*
X022861Y004579D01*
X022959Y004451D02*
X039370Y004451D01*
X039370Y004352D02*
X022978Y004352D01*
X022960Y004254D02*
X039370Y004254D01*
X039370Y004155D02*
X022894Y004155D01*
X022524Y004155D02*
X021568Y004155D01*
X021600Y004078D02*
X021531Y004243D01*
X021405Y004370D01*
X021240Y004438D01*
X021060Y004438D01*
X020895Y004370D01*
X020769Y004243D01*
X020700Y004078D01*
X020700Y003899D01*
X020769Y003734D01*
X020895Y003607D01*
X021060Y003538D01*
X021240Y003538D01*
X021405Y003607D01*
X021531Y003734D01*
X021600Y003899D01*
X021600Y004078D01*
X021600Y004057D02*
X028807Y004057D01*
X028816Y004067D02*
X028741Y003991D01*
X028700Y003892D01*
X028700Y003785D01*
X028741Y003686D01*
X028816Y003611D01*
X028915Y003570D01*
X029022Y003570D01*
X029121Y003611D01*
X029197Y003686D01*
X029238Y003785D01*
X029238Y003892D01*
X029197Y003991D01*
X029121Y004067D01*
X029022Y004108D01*
X028915Y004108D01*
X028816Y004067D01*
X028727Y003958D02*
X021600Y003958D01*
X021584Y003860D02*
X022627Y003860D01*
X022656Y003872D02*
X022557Y003831D01*
X022481Y003755D01*
X022440Y003656D01*
X022440Y003549D01*
X022481Y003450D01*
X022557Y003375D01*
X022656Y003334D01*
X022763Y003334D01*
X022861Y003375D01*
X022937Y003450D01*
X022978Y003549D01*
X022978Y003656D01*
X022937Y003755D01*
X022861Y003831D01*
X022763Y003872D01*
X022656Y003872D01*
X022791Y003860D02*
X027086Y003860D01*
X027007Y003827D02*
X027207Y003910D01*
X027424Y003910D01*
X027623Y003827D01*
X027776Y003674D01*
X027859Y003475D01*
X027859Y003258D01*
X027776Y003058D01*
X027623Y002905D01*
X027424Y002823D01*
X027207Y002823D01*
X027007Y002905D01*
X026854Y003058D01*
X026772Y003258D01*
X026772Y003475D01*
X026854Y003674D01*
X027007Y003827D01*
X026941Y003761D02*
X022931Y003761D01*
X022975Y003663D02*
X026850Y003663D01*
X026809Y003564D02*
X022978Y003564D01*
X022944Y003466D02*
X026772Y003466D01*
X026772Y003367D02*
X022844Y003367D01*
X022763Y003124D02*
X022656Y003124D01*
X022557Y003083D01*
X022481Y003007D01*
X022440Y002908D01*
X022440Y002801D01*
X022481Y002702D01*
X022557Y002626D01*
X022656Y002586D01*
X022763Y002586D01*
X022861Y002626D01*
X022937Y002702D01*
X022978Y002801D01*
X022978Y002908D01*
X022937Y003007D01*
X022861Y003083D01*
X022763Y003124D01*
X022872Y003072D02*
X025381Y003072D01*
X025391Y003083D02*
X025316Y003007D01*
X025275Y002908D01*
X025275Y002801D01*
X025316Y002702D01*
X025391Y002626D01*
X025490Y002586D01*
X025597Y002586D01*
X025696Y002626D01*
X025772Y002702D01*
X025813Y002801D01*
X025813Y002908D01*
X025772Y003007D01*
X025696Y003083D01*
X025597Y003124D01*
X025490Y003124D01*
X025391Y003083D01*
X025302Y002973D02*
X022951Y002973D01*
X022978Y002875D02*
X025275Y002875D01*
X025285Y002776D02*
X022968Y002776D01*
X022913Y002678D02*
X025340Y002678D01*
X025748Y002678D02*
X037846Y002678D01*
X037805Y002776D02*
X025803Y002776D01*
X025813Y002875D02*
X027081Y002875D01*
X026939Y002973D02*
X025786Y002973D01*
X025707Y003072D02*
X026849Y003072D01*
X026808Y003170D02*
X021562Y003170D01*
X021531Y003243D02*
X021405Y003370D01*
X021240Y003438D01*
X021060Y003438D01*
X020895Y003370D01*
X020769Y003243D01*
X020700Y003078D01*
X020700Y002899D01*
X020769Y002734D01*
X020895Y002607D01*
X021060Y002538D01*
X021240Y002538D01*
X021405Y002607D01*
X021531Y002734D01*
X021600Y002899D01*
X021600Y003078D01*
X021531Y003243D01*
X021506Y003269D02*
X026772Y003269D01*
X027550Y002875D02*
X037786Y002875D01*
X037786Y002823D02*
X037900Y002548D01*
X038111Y002337D01*
X038387Y002223D01*
X038685Y002223D01*
X038961Y002337D01*
X039172Y002548D01*
X039286Y002823D01*
X039286Y003122D01*
X039172Y003398D01*
X038961Y003608D01*
X038685Y003723D01*
X038387Y003723D01*
X038111Y003608D01*
X037900Y003398D01*
X037786Y003122D01*
X037786Y002823D01*
X037786Y002973D02*
X032040Y002973D01*
X032075Y003008D02*
X032118Y003113D01*
X032118Y003226D01*
X032075Y003331D01*
X031995Y003411D01*
X031890Y003455D01*
X031776Y003455D01*
X031672Y003411D01*
X031591Y003331D01*
X031548Y003226D01*
X031548Y003113D01*
X031591Y003008D01*
X031672Y002928D01*
X031776Y002885D01*
X031890Y002885D01*
X031995Y002928D01*
X032075Y003008D01*
X032101Y003072D02*
X037786Y003072D01*
X037806Y003170D02*
X032118Y003170D01*
X032100Y003269D02*
X037847Y003269D01*
X037888Y003367D02*
X032038Y003367D01*
X031628Y003367D02*
X027859Y003367D01*
X027859Y003269D02*
X031566Y003269D01*
X031548Y003170D02*
X027823Y003170D01*
X027782Y003072D02*
X031565Y003072D01*
X031626Y002973D02*
X027691Y002973D01*
X027859Y003466D02*
X037968Y003466D01*
X038067Y003564D02*
X027822Y003564D01*
X027781Y003663D02*
X028764Y003663D01*
X028710Y003761D02*
X027689Y003761D01*
X027545Y003860D02*
X028700Y003860D01*
X029131Y004057D02*
X039370Y004057D01*
X039370Y003958D02*
X029211Y003958D01*
X029238Y003860D02*
X039370Y003860D01*
X039370Y003761D02*
X029228Y003761D01*
X029174Y003663D02*
X038242Y003663D01*
X038829Y003663D02*
X039370Y003663D01*
X039370Y003564D02*
X039005Y003564D01*
X039103Y003466D02*
X039370Y003466D01*
X039370Y003367D02*
X039184Y003367D01*
X039225Y003269D02*
X039370Y003269D01*
X039370Y003170D02*
X039266Y003170D01*
X039286Y003072D02*
X039370Y003072D01*
X039370Y002973D02*
X039286Y002973D01*
X039286Y002875D02*
X039370Y002875D01*
X039370Y002776D02*
X039266Y002776D01*
X039226Y002678D02*
X039370Y002678D01*
X039370Y002579D02*
X039185Y002579D01*
X039105Y002481D02*
X039370Y002481D01*
X039370Y002382D02*
X039006Y002382D01*
X038833Y002284D02*
X039370Y002284D01*
X039370Y002185D02*
X000300Y002185D01*
X002873Y004057D02*
X003452Y004057D01*
X003426Y004031D02*
X003385Y003932D01*
X003385Y003825D01*
X003426Y003726D01*
X003502Y003650D01*
X003600Y003609D01*
X003707Y003609D01*
X003806Y003650D01*
X003811Y003655D01*
X003816Y003650D01*
X003915Y003609D01*
X004022Y003609D01*
X004121Y003650D01*
X004126Y003655D01*
X004131Y003650D01*
X004230Y003609D01*
X004337Y003609D01*
X004436Y003650D01*
X004441Y003655D01*
X004446Y003650D01*
X004545Y003609D01*
X004652Y003609D01*
X004751Y003650D01*
X004756Y003655D01*
X004761Y003650D01*
X004860Y003609D01*
X004967Y003609D01*
X005066Y003650D01*
X005071Y003655D01*
X005076Y003650D01*
X005175Y003609D01*
X005282Y003609D01*
X005381Y003650D01*
X005457Y003726D01*
X005498Y003825D01*
X005498Y003932D01*
X005457Y004031D01*
X005381Y004106D01*
X005282Y004147D01*
X005175Y004147D01*
X005076Y004106D01*
X005071Y004101D01*
X005066Y004106D01*
X004967Y004147D01*
X004860Y004147D01*
X004761Y004106D01*
X004756Y004101D01*
X004751Y004106D01*
X004652Y004147D01*
X004545Y004147D01*
X004446Y004106D01*
X004441Y004101D01*
X004436Y004106D01*
X004337Y004147D01*
X004230Y004147D01*
X004131Y004106D01*
X004126Y004101D01*
X004121Y004106D01*
X004022Y004147D01*
X003915Y004147D01*
X003816Y004106D01*
X003811Y004101D01*
X003806Y004106D01*
X003707Y004147D01*
X003600Y004147D01*
X003502Y004106D01*
X003426Y004031D01*
X003396Y003958D02*
X002971Y003958D01*
X003070Y003860D02*
X003385Y003860D01*
X003411Y003761D02*
X003168Y003761D01*
X003267Y003663D02*
X003489Y003663D01*
X003365Y003564D02*
X006859Y003564D01*
X006849Y003663D02*
X005394Y003663D01*
X005472Y003761D02*
X006877Y003761D01*
X006956Y003860D02*
X005498Y003860D01*
X005487Y003958D02*
X008435Y003958D01*
X008424Y003932D02*
X008424Y003825D01*
X008465Y003726D01*
X008541Y003650D01*
X008640Y003609D01*
X008747Y003609D01*
X008846Y003650D01*
X008851Y003655D01*
X008856Y003650D01*
X008955Y003609D01*
X009062Y003609D01*
X009161Y003650D01*
X009166Y003655D01*
X009171Y003650D01*
X009270Y003609D01*
X009377Y003609D01*
X009476Y003650D01*
X009481Y003655D01*
X009486Y003650D01*
X009585Y003609D01*
X009692Y003609D01*
X009791Y003650D01*
X009796Y003655D01*
X009801Y003650D01*
X009900Y003609D01*
X010007Y003609D01*
X010106Y003650D01*
X010111Y003655D01*
X010116Y003650D01*
X010215Y003609D01*
X010322Y003609D01*
X010421Y003650D01*
X010496Y003726D01*
X010537Y003825D01*
X010537Y003932D01*
X010496Y004031D01*
X010421Y004106D01*
X010322Y004147D01*
X010215Y004147D01*
X010116Y004106D01*
X010111Y004101D01*
X010106Y004106D01*
X010007Y004147D01*
X009900Y004147D01*
X009801Y004106D01*
X009796Y004101D01*
X009791Y004106D01*
X009692Y004147D01*
X009585Y004147D01*
X009486Y004106D01*
X009481Y004101D01*
X009476Y004106D01*
X009377Y004147D01*
X009270Y004147D01*
X009171Y004106D01*
X009166Y004101D01*
X009161Y004106D01*
X009062Y004147D01*
X008955Y004147D01*
X008856Y004106D01*
X008851Y004101D01*
X008846Y004106D01*
X008747Y004147D01*
X008640Y004147D01*
X008541Y004106D01*
X008465Y004031D01*
X008424Y003932D01*
X008424Y003860D02*
X007281Y003860D01*
X007360Y003761D02*
X008450Y003761D01*
X008528Y003663D02*
X007388Y003663D01*
X007378Y003564D02*
X010872Y003564D01*
X010773Y003466D02*
X007323Y003466D01*
X006914Y003466D02*
X003464Y003466D01*
X002774Y004155D02*
X011463Y004155D01*
X011364Y004057D02*
X010470Y004057D01*
X010526Y003958D02*
X011266Y003958D01*
X011167Y003860D02*
X010537Y003860D01*
X010511Y003761D02*
X011069Y003761D01*
X010970Y003663D02*
X010433Y003663D01*
X011241Y003170D02*
X011738Y003170D01*
X011733Y003161D02*
X011711Y003094D01*
X011702Y003038D01*
X012100Y003038D01*
X012100Y002938D01*
X012200Y002938D01*
X012200Y002541D01*
X012255Y002550D01*
X012323Y002571D01*
X012386Y002604D01*
X012443Y002645D01*
X012493Y002695D01*
X012535Y002753D01*
X012567Y002816D01*
X012589Y002883D01*
X012598Y002938D01*
X012200Y002938D01*
X012200Y003038D01*
X012598Y003038D01*
X012589Y003094D01*
X012567Y003161D01*
X012535Y003224D01*
X012493Y003282D01*
X012443Y003332D01*
X012386Y003373D01*
X012323Y003405D01*
X012255Y003427D01*
X012200Y003436D01*
X012200Y003038D01*
X012100Y003038D01*
X012100Y003436D01*
X012045Y003427D01*
X011977Y003405D01*
X011914Y003373D01*
X011857Y003332D01*
X011807Y003282D01*
X011765Y003224D01*
X011733Y003161D01*
X011708Y003072D02*
X011143Y003072D01*
X011044Y002973D02*
X012100Y002973D01*
X012100Y002938D02*
X011702Y002938D01*
X011711Y002883D01*
X011733Y002816D01*
X011765Y002753D01*
X011807Y002695D01*
X011857Y002645D01*
X011914Y002604D01*
X011977Y002571D01*
X012045Y002550D01*
X012100Y002541D01*
X012100Y002938D01*
X012100Y002875D02*
X012200Y002875D01*
X012200Y002973D02*
X012700Y002973D01*
X012700Y002899D02*
X012769Y002734D01*
X012895Y002607D01*
X013060Y002538D01*
X013240Y002538D01*
X013405Y002607D01*
X013531Y002734D01*
X013600Y002899D01*
X013600Y003078D01*
X013531Y003243D01*
X013405Y003370D01*
X013240Y003438D01*
X013060Y003438D01*
X012895Y003370D01*
X012769Y003243D01*
X012700Y003078D01*
X012700Y002899D01*
X012710Y002875D02*
X012586Y002875D01*
X012547Y002776D02*
X012751Y002776D01*
X012824Y002678D02*
X012476Y002678D01*
X012339Y002579D02*
X012962Y002579D01*
X013338Y002579D02*
X013962Y002579D01*
X013895Y002607D02*
X014060Y002538D01*
X014240Y002538D01*
X014405Y002607D01*
X014531Y002734D01*
X014600Y002899D01*
X014600Y003078D01*
X014531Y003243D01*
X014405Y003370D01*
X014240Y003438D01*
X014060Y003438D01*
X013895Y003370D01*
X013769Y003243D01*
X013700Y003078D01*
X013700Y002899D01*
X013769Y002734D01*
X013895Y002607D01*
X013824Y002678D02*
X013476Y002678D01*
X013549Y002776D02*
X013751Y002776D01*
X013710Y002875D02*
X013590Y002875D01*
X013600Y002973D02*
X013700Y002973D01*
X013700Y003072D02*
X013600Y003072D01*
X013562Y003170D02*
X013738Y003170D01*
X013794Y003269D02*
X013506Y003269D01*
X013407Y003367D02*
X013893Y003367D01*
X013998Y003564D02*
X013302Y003564D01*
X013240Y003538D02*
X013405Y003607D01*
X013531Y003734D01*
X013600Y003899D01*
X013600Y004078D01*
X013531Y004243D01*
X013405Y004370D01*
X013240Y004438D01*
X013060Y004438D01*
X012895Y004370D01*
X012769Y004243D01*
X012700Y004078D01*
X012700Y003899D01*
X012769Y003734D01*
X012895Y003607D01*
X013060Y003538D01*
X013240Y003538D01*
X012998Y003564D02*
X012302Y003564D01*
X012461Y003663D02*
X012839Y003663D01*
X012757Y003761D02*
X012543Y003761D01*
X012584Y003860D02*
X012716Y003860D01*
X012700Y003958D02*
X012600Y003958D01*
X012600Y004057D02*
X012700Y004057D01*
X012732Y004155D02*
X012568Y004155D01*
X012521Y004254D02*
X012779Y004254D01*
X012878Y004352D02*
X012422Y004352D01*
X011878Y004352D02*
X002577Y004352D01*
X002676Y004254D02*
X011613Y004254D01*
X011734Y003663D02*
X011839Y003663D01*
X011998Y003564D02*
X011635Y003564D01*
X011537Y003466D02*
X022474Y003466D01*
X022440Y003564D02*
X021302Y003564D01*
X021461Y003663D02*
X022443Y003663D01*
X022487Y003761D02*
X021543Y003761D01*
X021407Y003367D02*
X022574Y003367D01*
X022546Y003072D02*
X021600Y003072D01*
X021600Y002973D02*
X022467Y002973D01*
X022440Y002875D02*
X021590Y002875D01*
X021549Y002776D02*
X022450Y002776D01*
X022505Y002678D02*
X021476Y002678D01*
X021338Y002579D02*
X037887Y002579D01*
X037967Y002481D02*
X008330Y002481D01*
X008332Y002486D02*
X008291Y002387D01*
X008216Y002312D01*
X008117Y002271D01*
X008010Y002271D01*
X007911Y002312D01*
X007835Y002387D01*
X007794Y002486D01*
X007794Y002593D01*
X007835Y002692D01*
X007911Y002768D01*
X008010Y002809D01*
X008117Y002809D01*
X008216Y002768D01*
X008291Y002692D01*
X008332Y002593D01*
X008332Y002486D01*
X008332Y002579D02*
X011961Y002579D01*
X012100Y002579D02*
X012200Y002579D01*
X012200Y002678D02*
X012100Y002678D01*
X012100Y002776D02*
X012200Y002776D01*
X012200Y003072D02*
X012100Y003072D01*
X012100Y003170D02*
X012200Y003170D01*
X012200Y003269D02*
X012100Y003269D01*
X012100Y003367D02*
X012200Y003367D01*
X012394Y003367D02*
X012893Y003367D01*
X012794Y003269D02*
X012502Y003269D01*
X012562Y003170D02*
X012738Y003170D01*
X012700Y003072D02*
X012592Y003072D01*
X011906Y003367D02*
X011438Y003367D01*
X011340Y003269D02*
X011798Y003269D01*
X011714Y002875D02*
X010909Y002875D01*
X011753Y002776D02*
X008195Y002776D01*
X008297Y002678D02*
X011824Y002678D01*
X013461Y003663D02*
X013839Y003663D01*
X013895Y003607D02*
X013769Y003734D01*
X013700Y003899D01*
X013700Y004078D01*
X013769Y004243D01*
X013895Y004370D01*
X014060Y004438D01*
X014240Y004438D01*
X014405Y004370D01*
X014531Y004243D01*
X014600Y004078D01*
X014600Y003899D01*
X014531Y003734D01*
X014405Y003607D01*
X014240Y003538D01*
X014060Y003538D01*
X013895Y003607D01*
X013757Y003761D02*
X013543Y003761D01*
X013584Y003860D02*
X013716Y003860D01*
X013700Y003958D02*
X013600Y003958D01*
X013600Y004057D02*
X013700Y004057D01*
X013732Y004155D02*
X013568Y004155D01*
X013521Y004254D02*
X013779Y004254D01*
X013878Y004352D02*
X013422Y004352D01*
X014422Y004352D02*
X014878Y004352D01*
X014779Y004254D02*
X014521Y004254D01*
X014568Y004155D02*
X014732Y004155D01*
X014700Y004057D02*
X014600Y004057D01*
X014600Y003958D02*
X014700Y003958D01*
X014716Y003860D02*
X014584Y003860D01*
X014543Y003761D02*
X014757Y003761D01*
X014839Y003663D02*
X014461Y003663D01*
X014302Y003564D02*
X014998Y003564D01*
X015060Y003438D02*
X014895Y003370D01*
X014769Y003243D01*
X014700Y003078D01*
X014700Y002899D01*
X014769Y002734D01*
X014895Y002607D01*
X015060Y002538D01*
X015240Y002538D01*
X015405Y002607D01*
X015531Y002734D01*
X015600Y002899D01*
X015600Y003078D01*
X015531Y003243D01*
X015405Y003370D01*
X015240Y003438D01*
X015060Y003438D01*
X014893Y003367D02*
X014407Y003367D01*
X014506Y003269D02*
X014794Y003269D01*
X014738Y003170D02*
X014562Y003170D01*
X014600Y003072D02*
X014700Y003072D01*
X014700Y002973D02*
X014600Y002973D01*
X014590Y002875D02*
X014710Y002875D01*
X014751Y002776D02*
X014549Y002776D01*
X014476Y002678D02*
X014824Y002678D01*
X014962Y002579D02*
X014338Y002579D01*
X015338Y002579D02*
X015962Y002579D01*
X015895Y002607D02*
X016060Y002538D01*
X016240Y002538D01*
X016405Y002607D01*
X016531Y002734D01*
X016600Y002899D01*
X016600Y003078D01*
X016531Y003243D01*
X016405Y003370D01*
X016240Y003438D01*
X016060Y003438D01*
X015895Y003370D01*
X015769Y003243D01*
X015700Y003078D01*
X015700Y002899D01*
X015769Y002734D01*
X015895Y002607D01*
X015824Y002678D02*
X015476Y002678D01*
X015549Y002776D02*
X015751Y002776D01*
X015710Y002875D02*
X015590Y002875D01*
X015600Y002973D02*
X015700Y002973D01*
X015700Y003072D02*
X015600Y003072D01*
X015562Y003170D02*
X015738Y003170D01*
X015794Y003269D02*
X015506Y003269D01*
X015407Y003367D02*
X015893Y003367D01*
X015998Y003564D02*
X015302Y003564D01*
X015461Y003663D02*
X015839Y003663D01*
X015895Y003607D02*
X015769Y003734D01*
X015700Y003899D01*
X015700Y004078D01*
X015769Y004243D01*
X015895Y004370D01*
X016060Y004438D01*
X016240Y004438D01*
X016405Y004370D01*
X016531Y004243D01*
X016600Y004078D01*
X016600Y003899D01*
X016531Y003734D01*
X016405Y003607D01*
X016240Y003538D01*
X016060Y003538D01*
X015895Y003607D01*
X015757Y003761D02*
X015543Y003761D01*
X015584Y003860D02*
X015716Y003860D01*
X015700Y003958D02*
X015600Y003958D01*
X015600Y004057D02*
X015700Y004057D01*
X015732Y004155D02*
X015568Y004155D01*
X015521Y004254D02*
X015779Y004254D01*
X015878Y004352D02*
X015422Y004352D01*
X015296Y004549D02*
X022527Y004549D01*
X022459Y004451D02*
X015161Y004451D01*
X014981Y004451D02*
X002479Y004451D01*
X002380Y004549D02*
X014846Y004549D01*
X014804Y004648D02*
X002282Y004648D01*
X005430Y004057D02*
X008492Y004057D01*
X007932Y002776D02*
X005990Y002776D01*
X006093Y002678D02*
X007829Y002678D01*
X007794Y002579D02*
X006128Y002579D01*
X006126Y002481D02*
X007796Y002481D01*
X007840Y002382D02*
X006082Y002382D01*
X005944Y002284D02*
X007978Y002284D01*
X008149Y002284D02*
X038239Y002284D01*
X038065Y002382D02*
X008287Y002382D01*
X015305Y004845D02*
X022619Y004845D01*
X022582Y005337D02*
X016194Y005337D01*
X016414Y005633D02*
X022542Y005633D01*
X022466Y005731D02*
X016513Y005731D01*
X016611Y005830D02*
X022440Y005830D01*
X022452Y005928D02*
X016710Y005928D01*
X017060Y004438D02*
X016895Y004370D01*
X016769Y004243D01*
X016700Y004078D01*
X016700Y003899D01*
X016769Y003734D01*
X016895Y003607D01*
X017060Y003538D01*
X017240Y003538D01*
X017405Y003607D01*
X017531Y003734D01*
X017600Y003899D01*
X017600Y004078D01*
X017531Y004243D01*
X017405Y004370D01*
X017240Y004438D01*
X017060Y004438D01*
X016878Y004352D02*
X016422Y004352D01*
X016521Y004254D02*
X016779Y004254D01*
X016732Y004155D02*
X016568Y004155D01*
X016600Y004057D02*
X016700Y004057D01*
X016700Y003958D02*
X016600Y003958D01*
X016584Y003860D02*
X016716Y003860D01*
X016757Y003761D02*
X016543Y003761D01*
X016461Y003663D02*
X016839Y003663D01*
X016998Y003564D02*
X016302Y003564D01*
X016407Y003367D02*
X016893Y003367D01*
X016895Y003370D02*
X016769Y003243D01*
X016700Y003078D01*
X016700Y002899D01*
X016769Y002734D01*
X016895Y002607D01*
X017060Y002538D01*
X017240Y002538D01*
X017405Y002607D01*
X017531Y002734D01*
X017600Y002899D01*
X017600Y003078D01*
X017531Y003243D01*
X017405Y003370D01*
X017240Y003438D01*
X017060Y003438D01*
X016895Y003370D01*
X016794Y003269D02*
X016506Y003269D01*
X016562Y003170D02*
X016738Y003170D01*
X016700Y003072D02*
X016600Y003072D01*
X016600Y002973D02*
X016700Y002973D01*
X016710Y002875D02*
X016590Y002875D01*
X016549Y002776D02*
X016751Y002776D01*
X016824Y002678D02*
X016476Y002678D01*
X016338Y002579D02*
X016962Y002579D01*
X017338Y002579D02*
X017962Y002579D01*
X017895Y002607D02*
X018060Y002538D01*
X018240Y002538D01*
X018405Y002607D01*
X018531Y002734D01*
X018600Y002899D01*
X018600Y003078D01*
X018531Y003243D01*
X018405Y003370D01*
X018240Y003438D01*
X018060Y003438D01*
X017895Y003370D01*
X017769Y003243D01*
X017700Y003078D01*
X017700Y002899D01*
X017769Y002734D01*
X017895Y002607D01*
X017824Y002678D02*
X017476Y002678D01*
X017549Y002776D02*
X017751Y002776D01*
X017710Y002875D02*
X017590Y002875D01*
X017600Y002973D02*
X017700Y002973D01*
X017700Y003072D02*
X017600Y003072D01*
X017562Y003170D02*
X017738Y003170D01*
X017794Y003269D02*
X017506Y003269D01*
X017407Y003367D02*
X017893Y003367D01*
X017998Y003564D02*
X017302Y003564D01*
X017461Y003663D02*
X017839Y003663D01*
X017895Y003607D02*
X017769Y003734D01*
X017700Y003899D01*
X017700Y004078D01*
X017769Y004243D01*
X017895Y004370D01*
X018060Y004438D01*
X018240Y004438D01*
X018405Y004370D01*
X018531Y004243D01*
X018600Y004078D01*
X018600Y003899D01*
X018531Y003734D01*
X018405Y003607D01*
X018240Y003538D01*
X018060Y003538D01*
X017895Y003607D01*
X017757Y003761D02*
X017543Y003761D01*
X017584Y003860D02*
X017716Y003860D01*
X017700Y003958D02*
X017600Y003958D01*
X017600Y004057D02*
X017700Y004057D01*
X017732Y004155D02*
X017568Y004155D01*
X017521Y004254D02*
X017779Y004254D01*
X017878Y004352D02*
X017422Y004352D01*
X018422Y004352D02*
X018878Y004352D01*
X018895Y004370D02*
X018769Y004243D01*
X018700Y004078D01*
X018700Y003899D01*
X018769Y003734D01*
X018895Y003607D01*
X019060Y003538D01*
X019240Y003538D01*
X019405Y003607D01*
X019531Y003734D01*
X019600Y003899D01*
X019600Y004078D01*
X019531Y004243D01*
X019405Y004370D01*
X019240Y004438D01*
X019060Y004438D01*
X018895Y004370D01*
X018779Y004254D02*
X018521Y004254D01*
X018568Y004155D02*
X018732Y004155D01*
X018700Y004057D02*
X018600Y004057D01*
X018600Y003958D02*
X018700Y003958D01*
X018716Y003860D02*
X018584Y003860D01*
X018543Y003761D02*
X018757Y003761D01*
X018839Y003663D02*
X018461Y003663D01*
X018302Y003564D02*
X018998Y003564D01*
X019060Y003438D02*
X018895Y003370D01*
X018769Y003243D01*
X018700Y003078D01*
X018700Y002899D01*
X018769Y002734D01*
X018895Y002607D01*
X019060Y002538D01*
X019240Y002538D01*
X019405Y002607D01*
X019531Y002734D01*
X019600Y002899D01*
X019600Y003078D01*
X019531Y003243D01*
X019405Y003370D01*
X019240Y003438D01*
X019060Y003438D01*
X018893Y003367D02*
X018407Y003367D01*
X018506Y003269D02*
X018794Y003269D01*
X018738Y003170D02*
X018562Y003170D01*
X018600Y003072D02*
X018700Y003072D01*
X018700Y002973D02*
X018600Y002973D01*
X018590Y002875D02*
X018710Y002875D01*
X018751Y002776D02*
X018549Y002776D01*
X018476Y002678D02*
X018824Y002678D01*
X018962Y002579D02*
X018338Y002579D01*
X019338Y002579D02*
X019962Y002579D01*
X019895Y002607D02*
X020060Y002538D01*
X020240Y002538D01*
X020405Y002607D01*
X020531Y002734D01*
X020600Y002899D01*
X020600Y003078D01*
X020531Y003243D01*
X020405Y003370D01*
X020240Y003438D01*
X020060Y003438D01*
X019895Y003370D01*
X019769Y003243D01*
X019700Y003078D01*
X019700Y002899D01*
X019769Y002734D01*
X019895Y002607D01*
X019824Y002678D02*
X019476Y002678D01*
X019549Y002776D02*
X019751Y002776D01*
X019710Y002875D02*
X019590Y002875D01*
X019600Y002973D02*
X019700Y002973D01*
X019700Y003072D02*
X019600Y003072D01*
X019562Y003170D02*
X019738Y003170D01*
X019794Y003269D02*
X019506Y003269D01*
X019407Y003367D02*
X019893Y003367D01*
X019998Y003564D02*
X019302Y003564D01*
X019461Y003663D02*
X019839Y003663D01*
X019895Y003607D02*
X019769Y003734D01*
X019700Y003899D01*
X019700Y004078D01*
X019769Y004243D01*
X019895Y004370D01*
X020060Y004438D01*
X020240Y004438D01*
X020405Y004370D01*
X020531Y004243D01*
X020600Y004078D01*
X020600Y003899D01*
X020531Y003734D01*
X020405Y003607D01*
X020240Y003538D01*
X020060Y003538D01*
X019895Y003607D01*
X019757Y003761D02*
X019543Y003761D01*
X019584Y003860D02*
X019716Y003860D01*
X019700Y003958D02*
X019600Y003958D01*
X019600Y004057D02*
X019700Y004057D01*
X019732Y004155D02*
X019568Y004155D01*
X019521Y004254D02*
X019779Y004254D01*
X019878Y004352D02*
X019422Y004352D01*
X020422Y004352D02*
X020878Y004352D01*
X020779Y004254D02*
X020521Y004254D01*
X020568Y004155D02*
X020732Y004155D01*
X020700Y004057D02*
X020600Y004057D01*
X020600Y003958D02*
X020700Y003958D01*
X020716Y003860D02*
X020584Y003860D01*
X020543Y003761D02*
X020757Y003761D01*
X020839Y003663D02*
X020461Y003663D01*
X020302Y003564D02*
X020998Y003564D01*
X020893Y003367D02*
X020407Y003367D01*
X020506Y003269D02*
X020794Y003269D01*
X020738Y003170D02*
X020562Y003170D01*
X020600Y003072D02*
X020700Y003072D01*
X020700Y002973D02*
X020600Y002973D01*
X020590Y002875D02*
X020710Y002875D01*
X020751Y002776D02*
X020549Y002776D01*
X020476Y002678D02*
X020824Y002678D01*
X020962Y002579D02*
X020338Y002579D01*
X021521Y004254D02*
X022458Y004254D01*
X022440Y004352D02*
X021422Y004352D01*
X019790Y006125D02*
X026772Y006125D01*
X026772Y006224D02*
X019882Y006224D01*
X033304Y005042D02*
X033414Y005042D01*
X033737Y005042D02*
X033886Y005042D01*
X038136Y018044D02*
X039370Y018044D01*
X039370Y018142D02*
X038228Y018142D01*
X038269Y018241D02*
X039370Y018241D01*
X039370Y018339D02*
X038273Y018339D01*
X038250Y018438D02*
X039370Y018438D01*
X039370Y018536D02*
X038190Y018536D01*
X039370Y019817D02*
X036272Y019817D01*
X036374Y019915D02*
X039370Y019915D01*
X039370Y020014D02*
X036415Y020014D01*
X036423Y020112D02*
X039370Y020112D01*
X039370Y020211D02*
X036404Y020211D01*
X036348Y020309D02*
X039370Y020309D01*
D18*
X015977Y010925D02*
X015780Y010925D01*
D19*
X015977Y010925D02*
X016764Y010138D01*
X020111Y010138D01*
X020504Y009744D01*
X020504Y008721D01*
D20*
X012150Y003988D02*
X011678Y003988D01*
X010819Y003130D01*
X003418Y003130D01*
X001922Y004626D01*
X001922Y015217D01*
X006607Y019902D01*
D21*
X017276Y007855D02*
X016646Y007225D01*
X016646Y006162D01*
X016056Y005571D01*
M02*
