G75*
G70*
%OFA0B0*%
%FSLAX24Y24*%
%IPPOS*%
%LPD*%
%AMOC8*
5,1,8,0,0,1.08239X$1,22.5*
%
%ADD10R,0.0236X0.0276*%
%ADD11C,0.0554*%
%ADD12C,0.1266*%
%ADD13OC8,0.0600*%
%ADD14C,0.0740*%
%ADD15C,0.2000*%
%ADD16R,0.0600X0.0600*%
%ADD17C,0.0600*%
%ADD18R,0.0276X0.0236*%
%ADD19C,0.0394*%
%ADD20C,0.0270*%
%ADD21C,0.0238*%
%ADD22C,0.0356*%
%ADD23C,0.0100*%
%ADD24C,0.0070*%
%ADD25C,0.0060*%
%ADD26C,0.0240*%
D10*
X012709Y009093D03*
X012709Y009608D03*
X016174Y011189D03*
X016174Y011705D03*
X016567Y011731D03*
X016567Y012246D03*
D11*
X012315Y018918D03*
X012315Y019902D03*
X011489Y019902D03*
X010465Y019902D03*
X009638Y019902D03*
X009638Y018918D03*
X006607Y018918D03*
X006607Y019902D03*
X005780Y019902D03*
X004756Y019902D03*
X003930Y019902D03*
X003930Y018918D03*
D12*
X005268Y021398D03*
X010977Y021398D03*
D13*
X026800Y015835D03*
X027800Y015835D03*
X028800Y015835D03*
X029800Y015835D03*
X029800Y014835D03*
X028800Y014835D03*
X027800Y014835D03*
X026800Y014835D03*
X027300Y017000D03*
X028300Y017000D03*
X029300Y017000D03*
X030300Y017000D03*
X030300Y018000D03*
X029300Y018000D03*
X028300Y018000D03*
X027300Y018000D03*
X021150Y003988D03*
X020150Y003988D03*
X019150Y003988D03*
X018150Y003988D03*
X017150Y003988D03*
X016150Y003988D03*
X015150Y003988D03*
X014150Y003988D03*
X013150Y003988D03*
X012150Y003988D03*
X012150Y002988D03*
X013150Y002988D03*
X014150Y002988D03*
X015150Y002988D03*
X016150Y002988D03*
X017150Y002988D03*
X018150Y002988D03*
X019150Y002988D03*
X020150Y002988D03*
X021150Y002988D03*
D14*
X021036Y017768D03*
X020134Y017768D03*
X019233Y017768D03*
X018331Y017768D03*
X017882Y018768D03*
X018784Y018768D03*
X019685Y018768D03*
X020587Y018768D03*
X021489Y018768D03*
X021937Y019768D03*
X021036Y019768D03*
X020134Y019768D03*
X019233Y019768D03*
X018331Y019768D03*
X021937Y017768D03*
D15*
X024953Y018768D03*
X015111Y018768D03*
D16*
X025150Y014988D03*
D17*
X024150Y014988D03*
X023150Y014988D03*
X022150Y014988D03*
X021150Y014988D03*
X020150Y014988D03*
D18*
X015014Y012107D03*
X014499Y012107D03*
X014660Y010965D03*
X014144Y010965D03*
D19*
X000937Y004351D03*
X000937Y020886D03*
X038733Y020886D03*
X038733Y004351D03*
D20*
X031833Y003170D03*
X034343Y009882D03*
X033359Y010975D03*
X030307Y012638D03*
X031390Y013622D03*
X031784Y014459D03*
X032768Y014459D03*
X033556Y014262D03*
X033998Y014262D03*
X035426Y014744D03*
X036764Y014351D03*
X037857Y013671D03*
X036361Y012195D03*
X036567Y011801D03*
X030721Y016044D03*
X032394Y020325D03*
D21*
X003654Y003878D03*
X003969Y003878D03*
X004284Y003878D03*
X004599Y003878D03*
X004914Y003878D03*
X005229Y003878D03*
X006804Y003878D03*
X007119Y003642D03*
X008693Y003878D03*
X009008Y003878D03*
X009323Y003878D03*
X009638Y003878D03*
X009953Y003878D03*
X010268Y003878D03*
X008063Y002540D03*
X005859Y002540D03*
X012276Y006555D03*
X013142Y007815D03*
X012237Y008170D03*
X013024Y008957D03*
X013811Y008957D03*
X013811Y009351D03*
X013811Y009744D03*
X014205Y009744D03*
X014599Y009744D03*
X014599Y009351D03*
X014599Y008957D03*
X014993Y008563D03*
X015386Y008563D03*
X015386Y008957D03*
X015780Y009351D03*
X015780Y009744D03*
X015386Y009744D03*
X015386Y010138D03*
X014993Y010138D03*
X014599Y010138D03*
X014599Y010532D03*
X014205Y010532D03*
X013811Y010532D03*
X013418Y010532D03*
X013024Y010532D03*
X013418Y010925D03*
X013811Y010925D03*
X013811Y011319D03*
X014205Y011319D03*
X013811Y011713D03*
X013418Y011713D03*
X013418Y012107D03*
X013811Y012107D03*
X013811Y012500D03*
X013811Y012894D03*
X013418Y012894D03*
X013024Y012500D03*
X013024Y013288D03*
X013024Y013681D03*
X013418Y013288D03*
X013811Y013288D03*
X013811Y013681D03*
X014205Y013288D03*
X014599Y013288D03*
X014993Y013681D03*
X015386Y013288D03*
X015780Y013288D03*
X015780Y013681D03*
X016174Y013288D03*
X016567Y013681D03*
X016961Y013288D03*
X017355Y013288D03*
X017748Y013288D03*
X018142Y013288D03*
X017748Y014075D03*
X017355Y014075D03*
X018664Y014360D03*
X019126Y015020D03*
X019402Y015335D03*
X019874Y014469D03*
X017355Y012500D03*
X016961Y012500D03*
X016961Y012894D03*
X016567Y012894D03*
X016174Y012894D03*
X015780Y012894D03*
X015780Y012500D03*
X015386Y012500D03*
X014993Y012500D03*
X014993Y012894D03*
X014599Y012894D03*
X014205Y012500D03*
X014599Y011713D03*
X014993Y011713D03*
X015386Y012107D03*
X015780Y011713D03*
X016174Y012107D03*
X016961Y012107D03*
X017355Y012107D03*
X017748Y012107D03*
X016961Y011713D03*
X016567Y011319D03*
X016961Y010925D03*
X017355Y011319D03*
X017748Y011319D03*
X017748Y010925D03*
X018142Y010925D03*
X018142Y011319D03*
X018575Y011319D03*
X019284Y011477D03*
X020465Y011477D03*
X017748Y010532D03*
X017355Y010532D03*
X016961Y010532D03*
X016174Y010138D03*
X015780Y010138D03*
X015386Y010532D03*
X014993Y010925D03*
X015386Y011319D03*
X015780Y010925D03*
X016567Y009744D03*
X016567Y009351D03*
X016961Y009351D03*
X017355Y009351D03*
X017355Y009744D03*
X017748Y009744D03*
X017748Y009351D03*
X018142Y009351D03*
X018536Y009351D03*
X018969Y009193D03*
X020071Y009193D03*
X018536Y008170D03*
X017748Y008170D03*
X017276Y007855D03*
X017355Y008563D03*
X017748Y008563D03*
X016567Y008563D03*
X016174Y008957D03*
X015465Y008130D03*
X014993Y008170D03*
X015583Y006949D03*
X017473Y006673D03*
X016056Y005571D03*
X015071Y004705D03*
X008024Y008209D03*
X007119Y007146D03*
X006804Y006870D03*
X005898Y008209D03*
X005898Y009626D03*
X004914Y009626D03*
X004599Y009626D03*
X004284Y009626D03*
X003969Y009626D03*
X003654Y009626D03*
X002433Y009705D03*
X002433Y009351D03*
X002433Y008996D03*
X002433Y008642D03*
X002433Y008288D03*
X002433Y007933D03*
X003378Y007461D03*
X003142Y007225D03*
X002906Y006988D03*
X002670Y006752D03*
X008024Y009626D03*
X008693Y009626D03*
X009008Y009626D03*
X009323Y009626D03*
X009638Y009626D03*
X009953Y009626D03*
X010268Y009626D03*
X013024Y009744D03*
X013024Y011319D03*
X013024Y014075D03*
X011922Y014233D03*
X011922Y015020D03*
X012315Y015020D03*
X010268Y015256D03*
X009953Y015492D03*
X009638Y015729D03*
X009323Y015965D03*
X009008Y016201D03*
X008693Y016437D03*
X006804Y014114D03*
X007119Y013878D03*
X005229Y013603D03*
X004914Y013366D03*
X004284Y012500D03*
X004599Y012264D03*
X004914Y011910D03*
X005229Y011595D03*
X006804Y010925D03*
X007119Y010729D03*
X003969Y012776D03*
X003654Y013051D03*
X002670Y013839D03*
X002906Y014075D03*
X003142Y014311D03*
X003378Y014547D03*
X015032Y016792D03*
X025662Y008288D03*
X022709Y006595D03*
X022709Y005847D03*
X022709Y005099D03*
X022709Y004351D03*
X022709Y003603D03*
X022709Y002855D03*
X025544Y002855D03*
X028969Y003839D03*
X030977Y004823D03*
X031410Y004823D03*
X031843Y005256D03*
X032276Y004823D03*
X033142Y004823D03*
X033575Y004823D03*
X034048Y004823D03*
X031567Y007579D03*
X030622Y008721D03*
X030622Y009114D03*
X030859Y010414D03*
X031981Y010975D03*
X031390Y011457D03*
X028615Y010650D03*
X034737Y011605D03*
X034786Y012638D03*
X036764Y010807D03*
X035307Y010256D03*
X029126Y005886D03*
X033703Y015729D03*
X032689Y016063D03*
X033693Y017264D03*
X034087Y018248D03*
X031056Y019784D03*
X035219Y016063D03*
D22*
X037040Y017894D03*
X037945Y018317D03*
X036095Y020099D03*
X020504Y008721D03*
X019599Y006398D03*
X021410Y006398D03*
D23*
X014993Y010925D02*
X014699Y010925D01*
X014660Y010965D01*
X014144Y010965D02*
X014144Y010986D01*
X013811Y011319D01*
X014599Y011713D02*
X014599Y012006D01*
X014499Y012107D01*
X014993Y012085D02*
X014993Y011713D01*
X014993Y012085D02*
X015014Y012107D01*
X015780Y011713D02*
X016166Y011713D01*
X016174Y011705D01*
X016567Y011731D02*
X016567Y011319D01*
X016449Y011201D01*
X016185Y011201D01*
X016174Y011189D01*
X016174Y012107D02*
X016313Y012246D01*
X016567Y012246D01*
X013024Y009744D02*
X012888Y009608D01*
X012709Y009608D01*
X012709Y009093D02*
X012888Y009093D01*
X013024Y008957D01*
X015032Y016792D02*
X004087Y016792D01*
X003930Y016949D01*
X003930Y018918D01*
X031056Y019784D02*
X031056Y020729D01*
X033772Y014744D02*
X035426Y014744D01*
X033772Y014744D02*
X033556Y014538D01*
X033556Y014262D01*
D24*
X028615Y010650D02*
X018024Y010650D01*
X017748Y010925D01*
X017748Y013288D02*
X017985Y013524D01*
X022748Y013524D01*
X022867Y013642D01*
X022867Y014705D01*
X023150Y014988D01*
X022150Y014988D02*
X021882Y014721D01*
X021882Y013799D01*
X021764Y013681D01*
X017670Y013681D01*
X017355Y013366D01*
X017355Y013288D01*
X016961Y013288D02*
X017512Y013839D01*
X020741Y013839D01*
X020859Y013957D01*
X020859Y014697D01*
X021150Y014988D01*
X016489Y016122D02*
X026213Y016122D01*
X026292Y016044D01*
X026292Y015414D01*
X026370Y015335D01*
X027300Y015335D01*
X027800Y015835D01*
X014599Y013288D02*
X014205Y013681D01*
X014205Y013957D01*
X013811Y014351D01*
X013811Y016359D01*
X013733Y016437D01*
X008693Y016437D01*
X001646Y016437D01*
X001567Y016359D01*
X001567Y008721D01*
X002433Y007933D01*
X002433Y008288D02*
X001725Y008918D01*
X001725Y016122D01*
X001804Y016201D01*
X009008Y016201D01*
X009323Y015965D02*
X001961Y015965D01*
X001882Y015886D01*
X001882Y009114D01*
X002433Y008642D01*
X002433Y008996D02*
X002040Y009311D01*
X002040Y015650D01*
X002119Y015729D01*
X009638Y015729D01*
X009953Y015492D02*
X013536Y015492D01*
X013615Y015414D01*
X013615Y014272D01*
X014048Y013839D01*
X014048Y013445D01*
X014205Y013288D01*
X013811Y013288D02*
X013418Y013681D01*
X013418Y015177D01*
X013339Y015256D01*
X010268Y015256D01*
X002512Y015256D01*
X002433Y015177D01*
X002433Y009705D01*
X002197Y009508D02*
X002433Y009351D01*
X002197Y009508D02*
X002197Y015414D01*
X002276Y015492D01*
X009953Y015492D01*
X012473Y013524D02*
X005307Y013524D01*
X005229Y013603D01*
X004993Y013288D02*
X004914Y013366D01*
X004993Y013288D02*
X012630Y013288D01*
X013024Y013681D01*
X013024Y014075D02*
X012473Y013524D01*
X013221Y013051D02*
X003654Y013051D01*
X003969Y012776D02*
X013142Y012776D01*
X013260Y012658D01*
X013575Y012658D01*
X013811Y012894D01*
X013418Y012894D02*
X013378Y012894D01*
X013221Y013051D01*
X013378Y012500D02*
X013142Y012264D01*
X004599Y012264D01*
X004284Y012500D02*
X013024Y012500D01*
X013378Y012500D02*
X013811Y012500D01*
X013221Y011910D02*
X004914Y011910D01*
X005229Y011595D02*
X013142Y011595D01*
X013260Y011477D01*
X013575Y011477D01*
X013811Y011713D01*
X013418Y011713D02*
X013221Y011910D01*
X013063Y010925D02*
X013418Y010925D01*
X013063Y010925D02*
X012591Y010453D01*
X005307Y010453D01*
X005229Y010374D01*
X005229Y003878D01*
X004914Y003878D02*
X004914Y009626D01*
X004599Y009626D02*
X004599Y003878D01*
X004284Y003878D02*
X004284Y009626D01*
X003969Y009626D02*
X003969Y003878D01*
X003654Y003878D02*
X003654Y009626D01*
X003378Y007461D02*
X003378Y014547D01*
X003142Y014311D02*
X003142Y007225D01*
X002906Y006988D02*
X002906Y014075D01*
X002670Y013839D02*
X002670Y006752D01*
X008693Y009626D02*
X008693Y003878D01*
X009008Y003878D02*
X009008Y009626D01*
X009323Y009626D02*
X009323Y010217D01*
X009402Y010296D01*
X013181Y010296D01*
X013418Y010532D01*
X013811Y010532D02*
X013418Y010138D01*
X009717Y010138D01*
X009638Y010059D01*
X009638Y009626D01*
X009638Y003878D01*
X009323Y003878D02*
X009323Y009626D01*
X009953Y009626D02*
X009953Y003878D01*
X010268Y003878D02*
X010268Y009626D01*
D25*
X013418Y009351D02*
X013418Y004721D01*
X014150Y003988D01*
X014559Y004193D02*
X014559Y003398D01*
X014150Y002988D01*
X015150Y002988D02*
X015583Y003421D01*
X015583Y004154D01*
X015307Y004429D01*
X014953Y004429D01*
X014205Y005177D01*
X014205Y009351D01*
X014599Y009744D01*
X014835Y009902D02*
X014835Y008878D01*
X014520Y008563D01*
X014520Y005847D01*
X015937Y004429D01*
X016370Y004429D01*
X016607Y004193D01*
X016607Y003445D01*
X016150Y002988D01*
X017150Y002988D02*
X017591Y003429D01*
X017591Y004193D01*
X017000Y004784D01*
X016134Y004784D01*
X014993Y005925D01*
X014993Y008170D01*
X014835Y007973D02*
X014756Y008051D01*
X014756Y008327D01*
X014993Y008563D01*
X015229Y008406D02*
X015229Y007736D01*
X018150Y004815D01*
X018150Y003988D01*
X018615Y003453D02*
X018150Y002988D01*
X018615Y003453D02*
X018615Y004587D01*
X015465Y007736D01*
X015465Y008130D01*
X015622Y008327D02*
X015701Y008248D01*
X015701Y007815D01*
X019150Y004366D01*
X019150Y003988D01*
X019599Y004154D02*
X015859Y007894D01*
X015859Y008327D01*
X015780Y008406D01*
X015780Y009351D01*
X015937Y009154D02*
X015937Y008839D01*
X016056Y008721D01*
X016056Y008484D01*
X020150Y004390D01*
X020150Y003988D01*
X020583Y004193D02*
X016331Y008445D01*
X016331Y008721D01*
X016410Y008799D01*
X016410Y009193D01*
X016567Y009351D01*
X016961Y009351D02*
X016961Y008170D01*
X017276Y007855D01*
X017512Y007626D02*
X017512Y008327D01*
X017748Y008563D01*
X017748Y008170D02*
X017748Y007658D01*
X020937Y004469D01*
X021331Y004469D01*
X021607Y004193D01*
X021607Y003445D01*
X021150Y002988D01*
X021843Y002933D02*
X021922Y002855D01*
X022709Y002855D01*
X022709Y003603D02*
X022079Y003603D01*
X022000Y003681D01*
X022000Y009587D01*
X021922Y009666D01*
X018063Y009666D01*
X017748Y009351D01*
X017748Y009744D02*
X017827Y009823D01*
X022079Y009823D01*
X022158Y009744D01*
X022158Y004429D01*
X022237Y004351D01*
X022709Y004351D01*
X022709Y005099D02*
X022394Y005099D01*
X022315Y005177D01*
X022315Y009902D01*
X022237Y009981D01*
X017591Y009981D01*
X017355Y009744D01*
X017355Y010138D02*
X022394Y010138D01*
X022473Y010059D01*
X022473Y005925D01*
X022552Y005847D01*
X022709Y005847D01*
X022709Y006595D02*
X022630Y006673D01*
X022630Y010217D01*
X022552Y010296D01*
X017591Y010296D01*
X017355Y010532D01*
X016961Y010532D02*
X017355Y010138D01*
X016174Y010138D02*
X016174Y009390D01*
X015937Y009154D01*
X015622Y009114D02*
X015622Y008327D01*
X015386Y008563D02*
X015229Y008406D01*
X014835Y007973D02*
X014835Y005847D01*
X016056Y004626D01*
X016512Y004626D01*
X017150Y003988D01*
X016150Y003988D02*
X014363Y005776D01*
X014363Y009114D01*
X014599Y009351D01*
X014205Y009744D02*
X014048Y009587D01*
X014048Y005091D01*
X015150Y003988D01*
X014559Y004193D02*
X014323Y004429D01*
X013930Y004429D01*
X013575Y004784D01*
X013575Y009114D01*
X013811Y009351D01*
X013811Y009744D02*
X013418Y009351D01*
X014599Y010138D02*
X014835Y009902D01*
X015386Y009744D02*
X015386Y009351D01*
X015622Y009114D01*
X017512Y007626D02*
X021150Y003988D01*
X020583Y004193D02*
X020583Y003421D01*
X020150Y002988D01*
X019599Y003437D02*
X019150Y002988D01*
X019599Y003437D02*
X019599Y004154D01*
X021843Y002933D02*
X021843Y009429D01*
X021764Y009508D01*
X018693Y009508D01*
X018536Y009351D01*
X018575Y011319D02*
X018969Y011713D01*
X028851Y011713D01*
X028930Y011634D01*
X028930Y007421D01*
X029008Y007343D01*
X030898Y007343D01*
X030977Y007264D01*
X030977Y004823D01*
X031410Y004823D02*
X031410Y007421D01*
X031331Y007500D01*
X029166Y007500D01*
X029087Y007579D01*
X029087Y011792D01*
X029008Y011870D01*
X018693Y011870D01*
X018142Y011319D01*
X017788Y011319D02*
X018496Y012028D01*
X029166Y012028D01*
X029244Y011949D01*
X029244Y007776D01*
X029363Y007658D01*
X031489Y007658D01*
X031567Y007579D01*
X031764Y007815D02*
X031843Y007736D01*
X031843Y005256D01*
X032276Y004823D02*
X032276Y007894D01*
X032197Y007973D01*
X029638Y007973D01*
X029559Y008051D01*
X029559Y012264D01*
X029481Y012343D01*
X018339Y012343D01*
X017867Y011870D01*
X017197Y011870D01*
X016961Y012107D01*
X017355Y012107D02*
X017748Y012500D01*
X029599Y012500D01*
X029717Y012382D01*
X029717Y008209D01*
X029796Y008130D01*
X033024Y008130D01*
X033142Y008012D01*
X033142Y004823D01*
X033575Y004823D02*
X033575Y008209D01*
X033496Y008288D01*
X029953Y008288D01*
X029874Y008366D01*
X029874Y012579D01*
X029796Y012658D01*
X017512Y012658D01*
X017355Y012500D01*
X017276Y012815D02*
X029953Y012815D01*
X030032Y012736D01*
X030032Y008524D01*
X030111Y008445D01*
X033969Y008445D01*
X034048Y008366D01*
X034048Y004823D01*
X031764Y007815D02*
X029481Y007815D01*
X029402Y007894D01*
X029402Y012107D01*
X029323Y012185D01*
X018418Y012185D01*
X017945Y011713D01*
X017748Y011713D01*
X017355Y011319D01*
X017748Y011319D02*
X017788Y011319D01*
X016961Y012500D02*
X017276Y012815D01*
X016725Y013051D02*
X016725Y013484D01*
X016882Y013642D01*
X016882Y014941D01*
X016961Y015020D01*
X019126Y015020D01*
X019205Y014744D02*
X019953Y015492D01*
X025544Y015492D01*
X025622Y015414D01*
X025622Y013878D01*
X025701Y013799D01*
X030189Y013799D01*
X030307Y013918D01*
X030307Y015327D01*
X029800Y015835D01*
X028800Y015835D02*
X028315Y016319D01*
X014678Y016319D01*
X014599Y016240D01*
X014599Y013681D01*
X014993Y013288D01*
X014993Y012894D01*
X015150Y013051D02*
X015150Y013445D01*
X015229Y013524D01*
X015229Y016044D01*
X015307Y016122D01*
X016489Y016122D01*
X016252Y015650D02*
X025741Y015650D01*
X025819Y015571D01*
X025819Y014036D01*
X025898Y013957D01*
X028922Y013957D01*
X029800Y014835D01*
X028800Y014835D02*
X028079Y014114D01*
X026056Y014114D01*
X025977Y014193D01*
X025977Y015729D01*
X025898Y015807D01*
X015622Y015807D01*
X015544Y015729D01*
X015544Y013524D01*
X015780Y013288D01*
X016174Y013288D02*
X016174Y015571D01*
X016252Y015650D01*
X016410Y015335D02*
X016331Y015256D01*
X016331Y013524D01*
X016410Y013445D01*
X016410Y013130D01*
X016174Y012894D01*
X016567Y012894D02*
X016725Y013051D01*
X015386Y012815D02*
X015386Y012500D01*
X015386Y012815D02*
X015150Y013051D01*
X015386Y013288D02*
X015386Y015886D01*
X015465Y015965D01*
X026056Y015965D01*
X026134Y015886D01*
X026134Y014351D01*
X026213Y014272D01*
X027237Y014272D01*
X027800Y014835D01*
X019402Y015335D02*
X016410Y015335D01*
X017748Y014666D02*
X017827Y014744D01*
X019205Y014744D01*
X017748Y014666D02*
X017748Y014075D01*
D26*
X012315Y019902D02*
X011764Y020453D01*
X007158Y020453D01*
X006607Y019902D01*
X012315Y019902D02*
X013142Y020729D01*
X031056Y020729D01*
X035465Y020729D01*
X036095Y020099D01*
M02*
